<?xml version="1.0" encoding="utf-8"?>
<!-- Generator: Adobe Illustrator 15.0.2, SVG Export Plug-In  -->
<!DOCTYPE svg PUBLIC "-//W3C//DTD SVG 1.1//EN" "http://www.w3.org/Graphics/SVG/1.1/DTD/svg11.dtd" [
	<!ENTITY ns_flows "http://ns.adobe.com/Flows/1.0/">
]>
<svg version="1.1"
	 xmlns="http://www.w3.org/2000/svg" xmlns:xlink="http://www.w3.org/1999/xlink" xmlns:a="http://ns.adobe.com/AdobeSVGViewerExtensions/3.0/"
	 x="0px" y="0px" width="100px" height="100px" viewBox="0 -0.001 100 100"
	 overflow="visible" enable-background="new 0 -0.001 100 100" xml:space="preserve">
<defs>
</defs>
<path d="M50,4.444c25.119,0,45.555,20.437,45.555,45.555S75.119,95.554,50,95.554c-25.119,0-45.555-20.437-45.555-45.555
	S24.881,4.444,50,4.444 M50,0C22.387,0,0,22.386,0,49.999c0,27.612,22.387,49.999,50,49.999c27.614,0,50-22.387,50-49.999
	C100,22.386,77.614,0,50,0L50,0z"/>
<circle cx="44.736" cy="44.736" r="2.45"/>
<circle cx="55.266" cy="44.736" r="2.45"/>
<circle cx="34.211" cy="55.263" r="2.45"/>
<circle cx="44.739" cy="55.263" r="2.45"/>
<circle cx="34.209" cy="65.789" r="2.45"/>
<circle cx="44.738" cy="65.789" r="2.45"/>
<circle cx="65.79" cy="44.736" r="2.45"/>
<path d="M65.388,24.093l-0.008-3.045c-0.002-1.226-0.997-2.218-2.221-2.218h-0.005c-1.229,0.003-2.222,1-2.219,2.228l0.007,3.035
	H39.067v-3.04c0-1.228-0.995-2.223-2.223-2.223s-2.223,0.995-2.223,2.223v3.04H24.094v51.812h51.814V24.093H65.388z M34.622,28.538
	v1.796c0,1.228,0.995,2.223,2.223,2.223s2.223-0.995,2.223-2.223v-1.796h21.884l0.004,1.808c0.004,1.227,0.998,2.218,2.224,2.218
	h0.005c1.229-0.002,2.221-1,2.218-2.228l-0.004-1.798h6.065v6.081H28.541v-6.081H34.622z M28.541,39.063h42.922v12.876H52.049V71.46
	H28.541V39.063z M56.493,69.821V56.385h13.493L56.493,69.821z M61.146,71.46l10.316-10.271V71.46H61.146z"/>
</svg>
