<?xml version="1.0" encoding="utf-8"?>
<!-- Generator: Adobe Illustrator 15.0.2, SVG Export Plug-In  -->
<!DOCTYPE svg PUBLIC "-//W3C//DTD SVG 1.1//EN" "http://www.w3.org/Graphics/SVG/1.1/DTD/svg11.dtd" [
	<!ENTITY ns_flows "http://ns.adobe.com/Flows/1.0/">
]>
<svg version="1.1"
	 xmlns="http://www.w3.org/2000/svg" xmlns:xlink="http://www.w3.org/1999/xlink" xmlns:a="http://ns.adobe.com/AdobeSVGViewerExtensions/3.0/"
	 x="0px" y="0px" width="100px" height="100px" viewBox="0 0 100 100" overflow="visible" enable-background="new 0 0 100 100"
	 xml:space="preserve">
<defs>
</defs>
<g>
	<path fill="#1A171B" d="M61.688,48.899c-0.408,0.001-22.622-0.004-23.073,0c-0.452,0.004-1.062,0.485-0.75,1.067l3.205,6.269
		c0.327,0.661,0.545,0.752,0.945,0.752c0,0,16.009,0,16.319,0c1.036,0,0.999-0.146,1.369-0.978l2.714-6.058
		C62.711,49.359,62.15,48.899,61.688,48.899z M58.229,55.521h-15.87l-2.7-5.163h20.798L58.229,55.521z"/>
</g>
<g>
	<path fill="#1A171B" d="M75.108,48.408l-6.868,1.156c-0.356,0.079-0.54,0.024-0.771,0.436l-2.712,5.536
		c-0.209,0.387-0.155,1.154,0.688,1.139c2.96-0.056,9.691-0.218,9.852-0.218c0.551,0,0.761-0.374,0.761-0.683l-0.077-6.537
		C75.979,48.75,75.693,48.299,75.108,48.408z M74.617,55.021c-0.144,0-7.96,0.188-7.96,0.188l1.945-4.225
		C69.595,50.844,74.071,50,74.534,50L74.617,55.021z"/>
</g>
<g>
	<path fill="#1A171B" d="M24.298,49.236l-0.078,6.537c0,0.309,0.209,0.683,0.763,0.683c0.158,0,6.891,0.162,9.851,0.218
		c0.841,0.016,0.895-0.752,0.688-1.139L32.808,50c-0.231-0.412-0.415-0.356-0.772-0.436l-6.868-1.156
		C24.584,48.299,24.298,48.75,24.298,49.236z M25.742,50c0.463,0,4.94,0.844,5.932,0.986l1.947,4.225c0,0-7.817-0.188-7.961-0.188
		L25.742,50z"/>
</g>
<g>
	<path fill="#1A171B" d="M31.093,42.527c0,0,36.999,0.008,37.604,0.008c0.442,0,1.025-0.417,0.573-1.301l-3.727-7.573
		c-0.456-0.351-1.611-0.53-2.811-0.672c-3.043-0.361-7.855-0.474-13.124-0.474c-6.294,0-11.267,0.228-14.03,0.717
		c-0.573,0.102-1.131,0.309-1.247,0.694l-3.8,7.55C30.292,42.001,30.527,42.527,31.093,42.527z M35.546,34.729
		c0.996-0.24,2.296-0.382,3.947-0.506c1.169-0.088,6.257-0.276,10.083-0.276c4.931,0,9,0.126,11.678,0.342
		c1.611,0.129,2.739,0.306,3.197,0.462l3.069,6.296l-35.194,0.021L35.546,34.729z"/>
</g>
<g>
	<path fill="#1A171B" d="M80.841,44.252c-1.102-0.562-2.336-1.2-2.546-1.606c-0.214-0.412-0.416-0.911-0.638-1.36
		c1.757-0.049,6.163-0.293,6.667-0.451c2.039-0.638-1.667-6.846-3.229-6.866c-1.104-0.015-7.089-0.177-7.089-0.177
		c-2.223-4.179-3.333-6.378-5.046-6.785c-8.115-1.926-29.432-1.926-37.561-0.152c-1.876,0.409-3.179,2.603-5.314,6.908
		c-1.497-0.026-5.989,0.125-7.094,0.212c-1.766,0.14-5.286,6.045-3.312,6.861c0.887,0.366,4.921,0.4,6.679,0.449
		c-0.226,0.446-0.466,0.939-0.683,1.347c-0.289,0.544-1.251,1.083-2.25,1.597c-1.419,0.732-1.776,2.359-2.003,3.138
		c-0.55,1.88-0.995,14.986-0.685,18.933c0.114,1.442,0.19,2.318,0.814,2.568c2.335,0.938,9.073,0.656,9.844,0.542
		c1.445-0.212,1.42-5.239,1.944-5.203c0.429,0.029,9.826,0.812,20.66,0.826c10.814,0.012,19.728-0.699,20.577-0.811
		c0.299-0.039,0.302,5.092,1.865,5.202c3.979,0.281,9.77,0.075,10.539-0.823c1.025-1.199,0.375-18.132,0.046-20.822
		C82.865,46.471,82.045,44.866,80.841,44.252z M80.643,35.395c1.125,0.1,2.815,4.184,2.815,4.184l-6.505,0.26l-2.235-4.571
		C74.718,35.268,79.634,35.306,80.643,35.395z M16.549,39.627c0,0,1.334-4.065,2.845-4.209c1.005-0.095,5.63-0.125,5.938-0.123
		c-0.478,0.98-1.786,3.614-2.245,4.548C22.515,39.823,17.047,39.688,16.549,39.627z M81.815,67.576
		c-0.742,0.345-5.372,0.664-8.846,0.455c-0.477-0.028-1.015-5.346-1.015-5.346s-11.631,0.87-21.923,0.87
		c-10.292,0-21.777-0.859-22.152-0.859c0,0-0.739,5.323-1.04,5.335c-3.362,0.142-6.912-0.024-8.479-0.428
		C17.875,67.479,18.414,50,18.786,47.872c0.054-0.312,0.255-1.809,1.605-2.491c0.95-0.48,2.075-1.161,2.351-1.668
		c2.82-5.194,6.953-15.061,9.129-15.491c7.959-1.577,28.448-1.701,36.17,0.095c2.574,0.598,8.275,14.162,9.129,15.308
		c0.347,0.467,1.198,0.997,2.472,1.657c1.485,0.769,1.858,1.987,1.938,2.489C81.978,50.272,82.115,67.437,81.815,67.576z"/>
</g>
<g>
	<path fill="#1A171B" d="M50,0C22.387,0,0,22.387,0,50c0,27.615,22.387,50,50,50c27.615,0,50-22.386,50-50C100,22.387,77.615,0,50,0
		z M50,98.428C23.255,98.428,1.573,76.745,1.573,50C1.573,23.255,23.255,1.573,50,1.573c26.747,0,48.426,21.682,48.426,48.426
		C98.427,76.745,76.747,98.428,50,98.428z"/>
</g>
</svg>
