<?xml version="1.0" encoding="utf-8"?>
<!-- Generator: Adobe Illustrator 15.0.2, SVG Export Plug-In  -->
<!DOCTYPE svg PUBLIC "-//W3C//DTD SVG 1.1//EN" "http://www.w3.org/Graphics/SVG/1.1/DTD/svg11.dtd" [
	<!ENTITY ns_flows "http://ns.adobe.com/Flows/1.0/">
]>
<svg version="1.1"
	 xmlns="http://www.w3.org/2000/svg" xmlns:xlink="http://www.w3.org/1999/xlink" xmlns:a="http://ns.adobe.com/AdobeSVGViewerExtensions/3.0/"
	 x="0px" y="0px" width="100px" height="100px" viewBox="0 0 100 100" overflow="visible" enable-background="new 0 0 100 100"
	 xml:space="preserve">
<defs>
</defs>
<rect x="26.316" y="18.83" width="47.369" height="4.445"/>
<path fill="#1A171B" d="M61.268,42.638c-8.521-8.515-5.381-13.893-5.381-13.893c-12.175,5.301-12.561,19.731-12.47,23.216
	c0.022,0.252,0.035,0.508,0.035,0.766c0,0-0.022-0.275-0.035-0.766c-0.507-5.573-6.351-9.881-6.351-9.881
	c0,8.515-7.08,8.883-7.08,20.199c0,11.314,10.777,16.658,10.777,16.658h4.91h1.696v-4.445h-0.127
	c-0.913-0.859-2.203-2.383-2.203-4.15c0-1.207,0.139-1.371,0.804-2.158c0.301-0.355,0.669-0.791,1.03-1.328l4.509-0.186
	c0-0.189-0.006-0.387-0.02-0.578c-0.005-0.328,0.005-0.947,0.109-1.686c0.207,0.229,0.427,0.459,0.657,0.688
	c1.821,1.822,2.69,3.152,2.814,4.309c0.167,1.535-0.975,3.361-2.311,4.936v4.6h1.799h5.039
	C75.861,67.195,69.778,51.154,61.268,42.638z M57.988,74.492h-0.02c3.192-5.529,0.495-9.346-2.696-12.539
	c-3.991-3.984-2.521-6.5-2.521-6.5c-5.696,2.477-5.876,9.221-5.832,10.857c0.011,0.119,0.016,0.24,0.016,0.359
	c0,0-0.011-0.129-0.016-0.359c-0.24-2.604-2.973-4.619-2.973-4.619c0,3.984-3.354,3.355-3.354,8.65c0,1.465,0.396,2.77,0.958,3.902
	c-2.294-1.518-7.121-5.482-7.121-11.965c0-4.666,1.378-6.646,3.121-9.154c0.396-0.568,0.812-1.168,1.221-1.816
	c0.098,0.314,0.169,0.629,0.207,0.943c0.015,0.48,0.038,0.773,0.042,0.834l8.875-0.359c0-0.332-0.013-0.67-0.039-1.004
	c-0.055-2.647,0.229-9.534,4.194-14.572c1.042,2.553,2.906,5.466,6.073,8.63c3.809,3.812,7.688,10.188,7.155,16.657
	C64.911,66.923,62.46,70.972,57.988,74.492z"/>
<path d="M50,4.445C75.119,4.445,95.555,24.88,95.555,50S75.119,95.554,50,95.554C24.881,95.554,4.445,75.119,4.445,50
	S24.881,4.445,50,4.445 M50,0C22.387,0,0,22.387,0,50c0,27.613,22.387,50,50,50c27.615,0,50-22.387,50-50C100,22.387,77.615,0,50,0
	L50,0z"/>
</svg>
