<?xml version="1.0" encoding="utf-8"?>
<!-- Generator: Adobe Illustrator 19.2.1, SVG Export Plug-In . SVG Version: 6.00 Build 0)  -->
<svg version="1.1" id="Ebene_1" xmlns="http://www.w3.org/2000/svg" xmlns:xlink="http://www.w3.org/1999/xlink" x="0px" y="0px"
	 viewBox="0 0 100 100" style="enable-background:new 0 0 100 100;" xml:space="preserve">
<path d="M61.3,47.8c-0.4-0.5-1.7-2.2-2.6-3.3l-0.1-0.1L33.2,11.8h5.7l23,29.6c0.6,0.7,1.3,1.7,2.2,2.8l0.6,0.8
	c1.1,1.4,2.2,2.9,2.3,5c0,2-1,3.3-2,4.6L64.6,55c-1,1.3-1.8,2.4-2.5,3.3l-0.1,0.1L39,88.2h-5.8l25.5-32.7c0.4-0.5,0.8-1,1.2-1.5
	c0.4-0.5,0.7-1,1.1-1.5l0.1-0.1c0-0.1,0.1-0.1,0.1-0.1C61.7,51.4,63.1,50.1,61.3,47.8z"/>
</svg>
