<?xml version="1.0" encoding="utf-8"?>
<!-- Generator: Adobe Illustrator 15.0.2, SVG Export Plug-In  -->
<!DOCTYPE svg PUBLIC "-//W3C//DTD SVG 1.1//EN" "http://www.w3.org/Graphics/SVG/1.1/DTD/svg11.dtd" [
	<!ENTITY ns_flows "http://ns.adobe.com/Flows/1.0/">
]>
<svg version="1.1"
	 xmlns="http://www.w3.org/2000/svg" xmlns:xlink="http://www.w3.org/1999/xlink" xmlns:a="http://ns.adobe.com/AdobeSVGViewerExtensions/3.0/"
	 x="0px" y="0px" width="100px" height="100px" viewBox="0 -0.001 100 100"
	 overflow="visible" enable-background="new 0 -0.001 100 100" xml:space="preserve">
<defs>
</defs>
<rect x="26.314" y="71.462" width="47.37" height="4.445"/>
<path d="M69.718,30.748l-12.96,3.113l3.692-17.663H45.423l-8.596,36.967l10.771-3.047v3.869v11.801c0,1.032,0.71,1.928,1.715,2.164
	c0.169,0.04,0.34,0.059,0.508,0.059c0.83,0,1.609-0.465,1.99-1.232l15.79-31.769L67.6,35.009L69.718,30.748z M42.861,46.838
	l6.092-26.194h6.026l-4.01,19.18l10.531-2.53l-3.192,6.422l-2.112,4.251l0,0l-2.47,4.971l0,0c-0.001,0-0.001,0.001-0.001,0.003
	l-0.842,1.693c-0.146,0.279-0.368,0.543-0.573,0.489c-0.11-0.052-0.246-0.153-0.268-0.55v-0.585V47.18v-2.938L42.861,46.838z"/>
<path d="M50,4.444c25.119,0,45.555,20.436,45.555,45.555S75.119,95.554,50,95.554S4.445,75.118,4.445,49.999S24.881,4.444,50,4.444
	 M50,0C22.387,0,0,22.387,0,49.999C0,77.61,22.387,99.998,50,99.998c27.615,0,50-22.388,50-49.999C100,22.387,77.615,0,50,0L50,0z"
	/>
</svg>
