<?xml version="1.0" encoding="utf-8"?>
<!-- Generator: Adobe Illustrator 15.0.2, SVG Export Plug-In  -->
<!DOCTYPE svg PUBLIC "-//W3C//DTD SVG 1.1//EN" "http://www.w3.org/Graphics/SVG/1.1/DTD/svg11.dtd" [
	<!ENTITY ns_flows "http://ns.adobe.com/Flows/1.0/">
]>
<svg version="1.1"
	 xmlns="http://www.w3.org/2000/svg" xmlns:xlink="http://www.w3.org/1999/xlink" xmlns:a="http://ns.adobe.com/AdobeSVGViewerExtensions/3.0/"
	 x="0px" y="0px" width="100px" height="100px" viewBox="0.022 0 100 100"
	 overflow="visible" enable-background="new 0.022 0 100 100" xml:space="preserve">
<defs>
</defs>
<g>
	<path d="M79.188,35.521l-23.433-6.124l-5.031-16.31c0,0-0.144-0.526-0.685-0.526c-0.584,0-0.758,0.557-0.758,0.557l-5.134,16.404
		l-23.321,6.095c-0.336,0.088-0.526,0.477-0.423,0.866c0.102,0.391,0.457,0.637,0.793,0.549l4.875-1.273l0.013,0.039l4.138,5.511
		h-6.52c-0.417,0-0.754,0.338-0.754,0.753c0,0.416,0.337,0.752,0.754,0.752h18.905l-1.37,12.79L33.475,83.05
		c0,0-0.18,0.609,0.352,0.887c0.532,0.275,0.947-0.187,0.947-0.187l15.174-16.826l15.384,16.976c0,0,0.44,0.286,0.827,0.012
		c0.386-0.275,0.33-0.694,0.33-0.694l-7.832-27.612l-1.35-12.79h18.931c0.413,0,0.752-0.336,0.752-0.752
		c0-0.416-0.339-0.753-0.752-0.753h-6.384l4.139-5.511l0.037-0.111l4.787,1.25c0.335,0.087,0.691-0.159,0.793-0.549
		C79.713,35.998,79.525,35.609,79.188,35.521z M55.931,43.761l1.116,10.691l-6.01-5.317L55.931,43.761z M53.802,41.275h-7.854
		l3.941-4.083L53.802,41.275z M45.834,30.898h8.14l-4.085,4.194L45.834,30.898z M54.807,42.815l-4.812,5.288l-4.832-5.288H54.807z
		 M55.089,35.683l0.563,5.417l-4.745-4.955l3.783-3.89L55.089,35.683z M50.012,15.74l4.249,13.722l-8.559,0.009L50.012,15.74z
		 M45.36,32.494l3.52,3.65l-4.485,4.675L45.36,32.494z M48.952,49.123l-6.075,5.288l1.139-10.709L48.952,49.123z M27.613,35.399
		l7.967-2.082l-3.983,7.409L27.613,35.399z M32.929,41.309l4.081-7.456l0.022,0.052l5.232,7.404H32.929z M37.984,32.655l5.877-1.543
		l-0.928,8.657L37.984,32.655z M35.7,80.578l6.611-23.536l6.729,8.685L35.7,80.578z M43.392,55.893l6.553-5.68L50,50.274
		l0.062-0.069l6.493,5.682l-6.56,8.691L43.392,55.893z M57.584,57.002l6.62,23.495l-13.285-14.75L57.584,57.002z M57.014,39.952
		l-0.619-5.793l-0.325-3.086l6.023,1.582L57.014,39.952z M57.813,41.309l5.232-7.404l0.023-0.052l4.081,7.456H57.813z M68.48,40.726
		l-3.981-7.409l7.966,2.082L68.48,40.726z"/>
</g>
<g>
	<path d="M50.008,0C22.39,0,0,22.39,0,50.006c0,27.618,22.39,50.007,50.008,50.007c27.62,0,50.006-22.39,50.006-50.007
		C100.014,22.39,77.627,0,50.008,0z M49.996,98.516c-26.789,0-48.508-21.721-48.508-48.509c0-26.788,21.719-48.507,48.508-48.507
		c26.791,0,48.509,21.719,48.509,48.507C98.504,76.795,76.787,98.516,49.996,98.516z"/>
</g>
</svg>
