<?xml version="1.0" encoding="utf-8"?>
<!-- Generator: Adobe Illustrator 15.0.2, SVG Export Plug-In  -->
<!DOCTYPE svg PUBLIC "-//W3C//DTD SVG 1.1//EN" "http://www.w3.org/Graphics/SVG/1.1/DTD/svg11.dtd" [
	<!ENTITY ns_flows "http://ns.adobe.com/Flows/1.0/">
]>
<svg version="1.1"
	 xmlns="http://www.w3.org/2000/svg" xmlns:xlink="http://www.w3.org/1999/xlink" xmlns:a="http://ns.adobe.com/AdobeSVGViewerExtensions/3.0/"
	 x="0px" y="0px" width="100px" height="100px" viewBox="0 0 100 100" overflow="visible" enable-background="new 0 0 100 100"
	 xml:space="preserve">
<defs>
</defs>
<path d="M50.001,0C22.387,0,0,22.387,0,50c0,27.616,22.387,50,50.001,50C77.615,100,100,77.616,100,50C100,22.387,77.615,0,50.001,0
	z M50.001,98.556C23.229,98.556,1.447,76.772,1.447,50c0-26.773,21.782-48.553,48.555-48.553c26.772,0,48.553,21.78,48.553,48.553
	C98.555,76.772,76.773,98.556,50.001,98.556z"/>
<polygon points="30.704,63.632 50.897,63.632 50.897,62.365 31.974,62.365 31.974,50.371 47.368,50.371 47.368,49.102 
	31.974,49.102 31.974,37.264 50.897,37.264 50.897,35.995 30.704,35.995 "/>
<path d="M73.767,38.67c-0.757-0.797-1.765-1.45-2.996-1.94c-1.227-0.488-2.725-0.735-4.454-0.735H55.833v27.637h1.268V52.969h9.139
	c1.731,0,3.231-0.26,4.456-0.775c1.23-0.515,2.25-1.2,3.034-2.036c0.784-0.837,1.356-1.774,1.701-2.784
	c0.343-1.004,0.518-2.022,0.518-3.028c0-0.978-0.175-1.977-0.518-2.969C75.083,40.377,74.523,39.467,73.767,38.67z M74.227,46.921
	c-0.297,0.854-0.788,1.646-1.458,2.354c-0.672,0.708-1.55,1.295-2.612,1.746c-1.062,0.449-2.38,0.679-3.917,0.679h-9.139V37.264
	h9.216c1.535,0,2.855,0.216,3.922,0.642c1.062,0.425,1.926,0.98,2.571,1.649c0.643,0.668,1.121,1.429,1.418,2.257
	c0.3,0.835,0.451,1.688,0.451,2.534C74.679,45.193,74.527,46.06,74.227,46.921z"/>
</svg>
