<?xml version="1.0" encoding="utf-8"?>
<!-- Generator: Adobe Illustrator 15.0.2, SVG Export Plug-In  -->
<!DOCTYPE svg PUBLIC "-//W3C//DTD SVG 1.1//EN" "http://www.w3.org/Graphics/SVG/1.1/DTD/svg11.dtd" [
	<!ENTITY ns_flows "http://ns.adobe.com/Flows/1.0/">
]>
<svg version="1.1"
	 xmlns="http://www.w3.org/2000/svg" xmlns:xlink="http://www.w3.org/1999/xlink" xmlns:a="http://ns.adobe.com/AdobeSVGViewerExtensions/3.0/"
	 x="0px" y="0px" width="100px" height="100px" viewBox="0.243 0.133 100 100"
	 overflow="visible" enable-background="new 0.243 0.133 100 100" xml:space="preserve">
<defs>
</defs>
<g>
	<path d="M44.682,43.515c0.463,0,10.638,0,10.737,0s0.541-0.188,0.541-0.564c0-0.375,0-10.455,0-10.601
		c0-0.147,0.063-0.772-0.839-0.772c-0.904,0-9.866,0-10.418,0c-0.55,0-0.662,0.437-0.662,0.701c0,0.265,0,10.562,0,10.706
		C44.042,43.127,44.218,43.515,44.682,43.515z M45.452,32.987h9.114v9.118h-9.114V32.987z"/>
</g>
<g>
	<path d="M55.437,63.158c0.465,0,9.366,0,10.044,0c0.68,0,1.003-0.188,1.003-0.773c0-0.587,0-9.527,0-10.192
		c0-0.813-0.123-0.963-1.321-0.963c-1.12,0-9.562,0-9.887,0c-0.326,0-0.719,0.189-0.719,0.87c0,0.852,0,9.859,0,10.352
		S54.971,63.158,55.437,63.158z M55.97,52.631h9.127v9.133H55.97V52.631z"/>
</g>
<g>
	<path d="M67.623,18.842c-1.083,0-6.295-0.001-6.958-0.001c-0.708,0-1.004,0.107-1.004,1.104c0,0.996,0,6.142,0,6.142l-0.82-0.639
		l-0.006,0.007c0,0-6.599-5.04-7.84-5.997c-1.008-0.753-1.063-0.768-2.054-0.007c-0.704,0.54-21.229,16.434-21.84,16.902
		c-0.595,0.457-0.774,0.488-0.773,2.024c0,1.536,0.022,38.754,0.022,39.6c0,0.845,0.394,0.971,1.057,0.971c0.662,0,6.207,0,7.1,0
		c1.181,0,1.112-0.447,1.112-1.47c0-1.021,0.022-16.95,0.022-16.95h10.341c0,0-0.01,15.739-0.01,16.644
		c0,1.776,0.135,1.776,1.479,1.776c2.208,0,23.984,0,25.109,0s1.146-0.233,1.146-0.929c0-0.693,0-38.212,0-39.421
		c0-1.211,0.203-1.469-0.56-2.087c-0.515-0.393-4.55-3.479-4.55-3.479s0.001-12.764,0.001-13.087S68.703,18.842,67.623,18.842z
		 M61.079,20.258h6.083l0.029,11.685l-6.112-4.755V20.258z M72.315,37.714V77.55H47.37c0,0-0.009-16.618-0.009-17.456
		c0-0.839-0.268-0.968-1.292-0.968c-1.025,0-10.099-0.001-10.826-0.001c-0.727,0-1.032,0.098-1.032,1.189c0,1.091,0,17.235,0,17.235
		h-6.473l-0.025-40.012l22.315-17.109L72.315,37.714z"/>
</g>
<g>
	<path d="M50.001,0C22.387,0,0,22.387,0,49.999C0,77.613,22.387,100,50.001,100C77.615,100,100,77.613,100,49.999
		C100,22.387,77.615,0,50.001,0z M50.017,98.427c-26.745,0-48.427-21.684-48.427-48.429c0-26.742,21.682-48.425,48.427-48.425
		c26.747,0,48.427,21.683,48.427,48.425C98.444,76.744,76.764,98.427,50.017,98.427z"/>
</g>
</svg>
