<?xml version="1.0" encoding="utf-8"?>
<!-- Generator: Adobe Illustrator 15.0.2, SVG Export Plug-In  -->
<!DOCTYPE svg PUBLIC "-//W3C//DTD SVG 1.1//EN" "http://www.w3.org/Graphics/SVG/1.1/DTD/svg11.dtd" [
	<!ENTITY ns_flows "http://ns.adobe.com/Flows/1.0/">
]>
<svg version="1.1"
	 xmlns="http://www.w3.org/2000/svg" xmlns:xlink="http://www.w3.org/1999/xlink" xmlns:a="http://ns.adobe.com/AdobeSVGViewerExtensions/3.0/"
	 x="0px" y="0px" width="100px" height="100px" viewBox="0 0 100 100" overflow="visible" enable-background="new 0 0 100 100"
	 xml:space="preserve">
<defs>
</defs>
<path d="M28.492,40.402c-4.596,0-8.334-3.739-8.334-8.334c0-4.597,3.738-8.337,8.334-8.337s8.335,3.74,8.335,8.337
	C36.827,36.663,33.088,40.402,28.492,40.402z M28.492,25.179c-3.798,0-6.888,3.091-6.888,6.89c0,3.797,3.089,6.887,6.888,6.887
	s6.888-3.09,6.888-6.887C35.38,28.27,32.29,25.179,28.492,25.179z"/>
<path d="M76.76,52.79c4.597,0,8.335-3.739,8.335-8.334c0-4.597-3.738-8.336-8.335-8.336c-4.596,0-8.335,3.739-8.335,8.336
	C68.425,49.051,72.165,52.79,76.76,52.79z M76.76,37.566c3.799,0,6.89,3.091,6.89,6.89c0,3.798-3.091,6.887-6.89,6.887
	c-3.798,0-6.887-3.089-6.887-6.887C69.874,40.657,72.962,37.566,76.76,37.566z"/>
<path d="M50,0C22.387,0,0,22.388,0,49.999C0,77.613,22.387,100,50,100C77.616,100,100,77.613,100,49.999C100,22.388,77.616,0,50,0z
	 M50,1.447c26.771,0,48.553,21.779,48.553,48.552c0,5.454-0.918,10.696-2.584,15.595c-1.128-4.974-4.704-7.868-9.974-7.868
	l-18.479-0.008c-5.007,0-10.356,3.013-10.356,11.466c0,1.241,0.002,4.806,0.003,9.041h-9.072V56.844
	c0-7.204-3.875-11.506-10.365-11.506L19.248,45.33c-5.006,0-10.356,3.013-10.356,11.466c0,2.522,0.005,11.237,0.009,16.829
	l0.001,2.182c-4.716-7.483-7.456-16.328-7.456-25.808C1.446,23.227,23.227,1.447,50,1.447z M40.202,78.225l-0.003-20.33h-1.447
	l0.002,20.33H19.144v-20.33h-1.447v20.33H10.53c-0.061-0.084-0.121-0.169-0.181-0.254l-0.003-4.347
	c-0.003-5.592-0.008-14.306-0.008-16.828c0-9.044,6.229-10.02,8.909-10.02l18.479,0.009c5.667,0,8.917,3.666,8.917,10.059v21.381
	H40.202z M11.607,79.671h45.557c0.002,7.344,0.006,16.062,0.007,18.35c-2.341,0.348-4.734,0.533-7.171,0.533
	C34.396,98.554,20.496,91.146,11.607,79.671z M58.619,97.772c-0.002-4.393-0.012-25.187-0.012-28.589
	c0-9.043,6.23-10.019,8.91-10.019l18.479,0.008c5.405,0,8.649,3.382,8.901,9.278h0.006C88.681,83.533,75.079,94.811,58.619,97.772z"
	/>
</svg>
