<?xml version="1.0" encoding="utf-8"?>
<!-- Generator: Adobe Illustrator 15.0.2, SVG Export Plug-In  -->
<!DOCTYPE svg PUBLIC "-//W3C//DTD SVG 1.1//EN" "http://www.w3.org/Graphics/SVG/1.1/DTD/svg11.dtd" [
	<!ENTITY ns_flows "http://ns.adobe.com/Flows/1.0/">
]>
<svg version="1.1"
	 xmlns="http://www.w3.org/2000/svg" xmlns:xlink="http://www.w3.org/1999/xlink" xmlns:a="http://ns.adobe.com/AdobeSVGViewerExtensions/3.0/"
	 x="0px" y="0px" width="100px" height="100px" viewBox="0 -11.814 100 100"
	 overflow="visible" enable-background="new 0 -11.814 100 100" xml:space="preserve">
<defs>
</defs>
<path d="M72.143,76.372h-5.771l25.534-32.66c0.37-0.49,0.763-1,1.168-1.527c0.367-0.475,0.747-0.967,1.146-1.492l0.101-0.131
	c0.037-0.051,0.072-0.098,0.109-0.145H0v-4.432h94.443c-0.759-1.011-1.738-2.248-2.552-3.277l-0.062-0.081L66.375,0h5.658
	l22.959,29.612c0.578,0.735,1.343,1.726,2.164,2.788l0.584,0.756c1.104,1.427,2.242,2.898,2.26,5.018
	c-0.016,1.959-1.004,3.319-1.956,4.633l-0.28,0.385c-0.956,1.34-1.801,2.377-2.544,3.291L95.1,46.629L72.143,76.372z"/>
</svg>
