<?xml version="1.0" encoding="utf-8"?>
<!-- Generator: Adobe Illustrator 15.0.2, SVG Export Plug-In  -->
<!DOCTYPE svg PUBLIC "-//W3C//DTD SVG 1.1//EN" "http://www.w3.org/Graphics/SVG/1.1/DTD/svg11.dtd" [
	<!ENTITY ns_flows "http://ns.adobe.com/Flows/1.0/">
]>
<svg version="1.1"
	 xmlns="http://www.w3.org/2000/svg" xmlns:xlink="http://www.w3.org/1999/xlink" xmlns:a="http://ns.adobe.com/AdobeSVGViewerExtensions/3.0/"
	 x="0px" y="0px" width="100px" height="100px" viewBox="0 0 100 100" overflow="visible" enable-background="new 0 0 100 100"
	 xml:space="preserve">
<defs>
</defs>
<path d="M74.367,45.954l-11.45-14.376h-1.843l12.247,15.264c0.355,0.476,0.726,0.993,1.109,1.555
	c0.203,0.298,0.348,0.591,0.442,0.88H26.314v1.447h48.558c-0.096,0.287-0.238,0.579-0.441,0.875
	c-0.384,0.562-0.754,1.079-1.109,1.557L61.074,68.419h1.843l11.45-14.376c0.354-0.477,0.768-1.064,1.242-1.776
	c0.465-0.698,0.698-1.456,0.706-2.268c-0.008-0.813-0.241-1.57-0.706-2.267C75.135,47.02,74.721,46.432,74.367,45.954z"/>
<path d="M50,0C22.388,0,0,22.387,0,50s22.388,50,50,50c27.614,0,50-22.388,50-50S77.614,0,50,0z M50,98.554
	C23.228,98.554,1.446,76.772,1.446,50S23.228,1.446,50,1.446S98.554,23.227,98.554,50S76.772,98.554,50,98.554z"/>
</svg>
