<?xml version="1.0" encoding="utf-8"?>
<!-- Generator: Adobe Illustrator 15.0.2, SVG Export Plug-In  -->
<!DOCTYPE svg PUBLIC "-//W3C//DTD SVG 1.1//EN" "http://www.w3.org/Graphics/SVG/1.1/DTD/svg11.dtd" [
	<!ENTITY ns_flows "http://ns.adobe.com/Flows/1.0/">
]>
<svg version="1.1"
	 xmlns="http://www.w3.org/2000/svg" xmlns:xlink="http://www.w3.org/1999/xlink" xmlns:a="http://ns.adobe.com/AdobeSVGViewerExtensions/3.0/"
	 x="0px" y="0px" width="100px" height="100px" viewBox="0 0 100 100" overflow="visible" enable-background="new 0 0 100 100"
	 xml:space="preserve">
<defs>
</defs>
<path d="M3.113,100L0,96.855L45.196,51.66c-4.77-5.716-7.585-13.262-7.585-20.467C37.611,13.993,51.605,0,68.808,0
	C86.008,0,100,13.993,100,31.193c0,17.198-13.992,31.19-31.192,31.19c-7.157,0-14.697-2.837-20.45-7.645L3.113,100z M68.808,4.349
	c-14.805,0-26.849,12.042-26.849,26.845c0,14.799,12.044,26.839,26.849,26.839c14.801,0,26.843-12.04,26.843-26.839
	C95.65,16.391,83.608,4.349,68.808,4.349z"/>
</svg>
