<?xml version="1.0" encoding="utf-8"?>
<!-- Generator: Adobe Illustrator 15.0.2, SVG Export Plug-In  -->
<!DOCTYPE svg PUBLIC "-//W3C//DTD SVG 1.1//EN" "http://www.w3.org/Graphics/SVG/1.1/DTD/svg11.dtd" [
	<!ENTITY ns_flows "http://ns.adobe.com/Flows/1.0/">
]>
<svg version="1.1"
	 xmlns="http://www.w3.org/2000/svg" xmlns:xlink="http://www.w3.org/1999/xlink" xmlns:a="http://ns.adobe.com/AdobeSVGViewerExtensions/3.0/"
	 x="0px" y="0px" width="100px" height="100px" viewBox="0 0 100 100" overflow="visible" enable-background="new 0 0 100 100"
	 xml:space="preserve">
<defs>
</defs>
<path d="M73.634,18.831H26.266v4.444h10.098l18.31,7.324l0,0c0,0,0.014,0.005,0.026,0.01l0.035,0.014
	c0.046,0.018,0.109,0.043,0.189,0.078c0.037,0.015,0.071,0.03,0.108,0.045c0.065,0.028,0.136,0.059,0.209,0.091
	c0.167,0.077,0.318,0.152,0.446,0.224c0.028,0.016,0.058,0.033,0.079,0.048c0.233,0.166,0.361,0.279,0.394,0.431
	c0.02,0.102-0.062,0.34-0.539,0.591c-0.027,0.015-0.054,0.029-0.082,0.043c-0.116,0.058-0.224,0.11-0.313,0.152
	c-0.01,0.004-0.018,0.008-0.026,0.012c-0.018,0.008-0.027,0.012-0.044,0.02c-0.095,0.042-0.194,0.083-0.301,0.126l-11.461,4.585
	c-3.881,1.553-4.46,3.821-4.46,5.035c0,1.213,0.579,3.482,4.46,5.034l11.461,4.583c0.282,0.113,0.521,0.223,0.73,0.328
	c0.075,0.039,0.144,0.078,0.191,0.111c0.234,0.162,0.361,0.279,0.393,0.432c0.022,0.104-0.056,0.35-0.565,0.607
	c-0.224,0.111-0.396,0.189-0.54,0.252l-0.377,0.15l-0.004,0.002l0,0l-0.491,0.195l0,0l-5.068,2.027
	c-0.844,0.338-1.398,1.156-1.398,2.064v8.305h-7.893v20.232h20.234V66.199h-7.896v-6.303c0.01-0.156,0.036-0.312,0.081-0.387
	c0.088-0.127,0.222-0.229,0.358-0.287l0.818-0.326l3.926-1.57c3.376-1.35,3.88-3.43,3.88-4.553c0-1.227-0.615-3.53-4.729-5.174
	l-11.331-4.532l0,0c0,0-0.265-0.107-0.862-0.388c-0.097-0.051-0.187-0.102-0.267-0.15c-0.286-0.196-0.315-0.382-0.298-0.466
	c0.031-0.151,0.148-0.28,0.356-0.412c0.02-0.011,0.037-0.022,0.057-0.034c0.013-0.008,0.025-0.015,0.039-0.022
	c0.032-0.018,0.07-0.037,0.104-0.054c0.334-0.17,0.846-0.382,0.887-0.399l11.314-4.526c3.881-1.553,4.459-3.821,4.459-5.035
	c0-1.213-0.578-3.482-4.459-5.035l-8.173-3.269h25.301V18.831z M55.623,81.988H44.278V70.642h11.345V81.988z"/>
<path d="M50,4.445c25.119,0,45.554,20.436,45.554,45.554c0,25.12-20.436,45.555-45.554,45.555
	c-25.119,0-45.556-20.436-45.556-45.555C4.445,24.881,24.881,4.445,50,4.445 M50,0C22.388,0,0,22.387,0,49.999
	c0,27.614,22.388,50,50,50c27.615,0,50-22.387,50-50C100,22.387,77.615,0,50,0L50,0z"/>
</svg>
