<?xml version="1.0" encoding="utf-8"?>
<!-- Generator: Adobe Illustrator 15.0.2, SVG Export Plug-In  -->
<!DOCTYPE svg PUBLIC "-//W3C//DTD SVG 1.1//EN" "http://www.w3.org/Graphics/SVG/1.1/DTD/svg11.dtd" [
	<!ENTITY ns_flows "http://ns.adobe.com/Flows/1.0/">
]>
<svg version="1.1"
	 xmlns="http://www.w3.org/2000/svg" xmlns:xlink="http://www.w3.org/1999/xlink" xmlns:a="http://ns.adobe.com/AdobeSVGViewerExtensions/3.0/"
	 x="0px" y="0px" width="100px" height="100px" viewBox="0 0 100 100" overflow="visible" enable-background="new 0 0 100 100"
	 xml:space="preserve">
<defs>
</defs>
<path d="M31.575,73.326L31.575,73.326h-0.004c-4.11,0-7.455-3.49-7.457-7.78c0-2.842,1.161-5.331,2.391-7.968
	c1.399-3.001,2.846-6.104,2.847-10.208l4.445,0.002c-0.001,4.105,1.445,7.21,2.844,10.211c1.228,2.636,2.388,5.123,2.39,7.962
	c0,2.054-0.759,3.989-2.137,5.452C35.48,72.499,33.592,73.326,31.575,73.326z M31.573,57.166c-0.347,0.807-0.703,1.569-1.04,2.29
	c-1.059,2.271-1.974,4.233-1.974,6.09c0,1.838,1.351,3.334,3.01,3.334h0.005l0,0c0.778,0,1.518-0.329,2.083-0.93
	c0.599-0.636,0.928-1.488,0.928-2.404c-0.001-1.854-0.915-3.814-1.974-6.085C32.276,58.738,31.92,57.976,31.573,57.166z"/>
<rect x="26.314" y="76.726" width="47.37" height="4.445"/>
<path d="M75.969,55.735L45.915,25.683l4.01-4.01l-3.143-3.144L24.453,40.858l3.143,3.144l4.009-4.009l30.057,30.049
	c1.973,1.972,4.562,2.959,7.153,2.959c2.59,0,5.182-0.987,7.154-2.96C79.912,66.097,79.913,59.679,75.969,55.735z M42.772,28.826
	l16.32,16.32H43.046l-8.299-8.296L42.772,28.826z M72.825,66.897c-2.21,2.212-5.81,2.214-8.02,0.002L47.492,49.591h16.045
	l9.289,9.287C75.036,61.09,75.036,64.687,72.825,66.897z"/>
<path d="M50,4.445c25.12,0,45.555,20.436,45.555,45.554c0,25.119-20.435,45.555-45.555,45.555
	c-25.119,0-45.555-20.436-45.555-45.555C4.445,24.881,24.881,4.445,50,4.445 M50,0C22.388,0,0,22.387,0,49.999
	C0,77.612,22.388,100,50,100c27.613,0,50-22.388,50-50.001C100,22.387,77.613,0,50,0L50,0z"/>
</svg>
