<?xml version="1.0" encoding="utf-8"?>
<!-- Generator: Adobe Illustrator 15.0.2, SVG Export Plug-In  -->
<!DOCTYPE svg PUBLIC "-//W3C//DTD SVG 1.1//EN" "http://www.w3.org/Graphics/SVG/1.1/DTD/svg11.dtd" [
	<!ENTITY ns_flows "http://ns.adobe.com/Flows/1.0/">
]>
<svg version="1.1"
	 xmlns="http://www.w3.org/2000/svg" xmlns:xlink="http://www.w3.org/1999/xlink" xmlns:a="http://ns.adobe.com/AdobeSVGViewerExtensions/3.0/"
	 x="0px" y="0px" width="100px" height="100px" viewBox="0 0 100 100" overflow="visible" enable-background="new 0 0 100 100"
	 xml:space="preserve">
<defs>
</defs>
<rect x="26.313" y="31.989" width="47.371" height="4.446"/>
<rect x="26.313" y="47.781" width="47.371" height="4.446"/>
<rect x="26.313" y="63.573" width="47.371" height="4.446"/>
<path d="M50,4.445c25.119,0,45.554,20.436,45.554,45.554S75.119,95.554,50,95.554c-25.119,0-45.556-20.437-45.556-45.555
	S24.881,4.445,50,4.445 M50,0C22.388,0,0,22.386,0,49.999s22.388,50,50,50c27.615,0,50-22.388,50-50S77.615,0,50,0L50,0z"/>
</svg>
