<?xml version="1.0" encoding="utf-8"?>
<!-- Generator: Adobe Illustrator 15.0.2, SVG Export Plug-In  -->
<!DOCTYPE svg PUBLIC "-//W3C//DTD SVG 1.1//EN" "http://www.w3.org/Graphics/SVG/1.1/DTD/svg11.dtd" [
	<!ENTITY ns_flows "http://ns.adobe.com/Flows/1.0/">
]>
<svg version="1.1"
	 xmlns="http://www.w3.org/2000/svg" xmlns:xlink="http://www.w3.org/1999/xlink" xmlns:a="http://ns.adobe.com/AdobeSVGViewerExtensions/3.0/"
	 x="0px" y="0px" width="100px" height="100px" viewBox="0 0 100 100" overflow="visible" enable-background="new 0 0 100 100"
	 xml:space="preserve">
<defs>
</defs>
<path d="M40.694,72.846c-3.023,0-6.073-2.215-6.073-7.161l0-31.368c0-4.946,3.05-7.161,6.072-7.161c1.359,0,2.769,0.416,4.19,1.237
	l27.165,15.684c2.522,1.456,3.969,3.616,3.969,5.925s-1.446,4.469-3.969,5.925L44.883,71.609
	C43.462,72.43,42.053,72.846,40.694,72.846z M40.694,31.6c-1.416,0-1.626,1.703-1.626,2.717l-0.001,31.368
	c0,1.015,0.211,2.717,1.627,2.717c0.391,0,1.049-0.111,1.967-0.641l27.166-15.685c1.094-0.632,1.746-1.408,1.746-2.075
	c0-0.669-0.652-1.444-1.746-2.076L42.661,32.241C41.743,31.711,41.085,31.6,40.694,31.6z"/>
<path d="M50,4.445c25.119,0,45.555,20.436,45.555,45.554c0,25.12-20.437,45.557-45.555,45.557
	c-25.119,0-45.556-20.437-45.556-45.557C4.445,24.881,24.881,4.445,50,4.445 M50,0C22.388,0,0,22.387,0,49.999
	C0,77.612,22.388,100,50,100c27.615,0,50-22.388,50-50.001C100,22.387,77.615,0,50,0L50,0z"/>
</svg>
