<?xml version="1.0" encoding="utf-8"?>
<!-- Generator: Adobe Illustrator 15.0.2, SVG Export Plug-In  -->
<!DOCTYPE svg PUBLIC "-//W3C//DTD SVG 1.1//EN" "http://www.w3.org/Graphics/SVG/1.1/DTD/svg11.dtd" [
	<!ENTITY ns_flows "http://ns.adobe.com/Flows/1.0/">
]>
<svg version="1.1"
	 xmlns="http://www.w3.org/2000/svg" xmlns:xlink="http://www.w3.org/1999/xlink" xmlns:a="http://ns.adobe.com/AdobeSVGViewerExtensions/3.0/"
	 x="0px" y="0px" width="100px" height="100px" viewBox="0 -0.001 100 100"
	 overflow="visible" enable-background="new 0 -0.001 100 100" xml:space="preserve">
<defs>
</defs>
<path d="M40.693,71.346c-2.777,0-4.573-2.224-4.573-5.662l0-31.368c0-3.439,1.796-5.662,4.573-5.662c1.092,0,2.25,0.349,3.44,1.036
	L71.3,45.373c2.074,1.199,3.218,2.842,3.218,4.627c0,1.784-1.144,3.427-3.218,4.626L44.133,70.31
	C42.942,70.996,41.786,71.346,40.693,71.346z M40.693,30.1c-1.928,0-3.126,1.616-3.126,4.216l0,31.368
	c0,2.6,1.199,4.216,3.126,4.216c0.823,0,1.763-0.291,2.716-0.843l27.167-15.684c1.608-0.929,2.495-2.128,2.495-3.373
	c0-1.246-0.887-2.444-2.495-3.374L43.411,30.942C42.457,30.392,41.517,30.1,40.693,30.1z"/>
<path d="M50,1.446c26.772,0,48.554,21.78,48.554,48.553S76.772,98.553,50,98.553S1.446,76.771,1.446,49.999S23.228,1.446,50,1.446
	 M50,0C22.386,0,0,22.386,0,49.999c0,27.612,22.386,49.999,50,49.999c27.615,0,50-22.387,50-49.999C100,22.386,77.615,0,50,0L50,0z"
	/>
</svg>
