<?xml version="1.0" encoding="utf-8"?>
<!-- Generator: Adobe Illustrator 15.0.2, SVG Export Plug-In  -->
<!DOCTYPE svg PUBLIC "-//W3C//DTD SVG 1.1//EN" "http://www.w3.org/Graphics/SVG/1.1/DTD/svg11.dtd" [
	<!ENTITY ns_flows "http://ns.adobe.com/Flows/1.0/">
]>
<svg version="1.1"
	 xmlns="http://www.w3.org/2000/svg" xmlns:xlink="http://www.w3.org/1999/xlink" xmlns:a="http://ns.adobe.com/AdobeSVGViewerExtensions/3.0/"
	 x="0px" y="0px" width="100px" height="100px" viewBox="0 0 100 100" overflow="visible" enable-background="new 0 0 100 100"
	 xml:space="preserve">
<defs>
</defs>
<path d="M50,0C22.387,0,0,22.386,0,50c0,27.615,22.387,50,50,50c27.615,0,50-22.385,50-50C100,22.386,77.615,0,50,0z M50,98.555
	C23.228,98.555,1.446,76.772,1.446,50C1.446,23.227,23.228,1.447,50,1.447c26.772,0,48.555,21.779,48.555,48.553
	C98.556,76.772,76.772,98.555,50,98.555z"/>
<path d="M33.75,38.772c-0.758-0.796-1.765-1.448-2.994-1.938c-1.225-0.486-2.723-0.734-4.451-0.734H15.831v27.614H17.1V53.061h9.128
	c1.73,0,3.229-0.261,4.456-0.774c1.227-0.515,2.246-1.199,3.029-2.036c0.783-0.837,1.354-1.773,1.7-2.781
	c0.343-1.004,0.517-2.021,0.517-3.024c0-0.979-0.174-1.978-0.517-2.968C35.066,40.481,34.507,39.57,33.75,38.772z M34.21,47.017
	c-0.298,0.854-0.789,1.646-1.457,2.352c-0.672,0.708-1.55,1.295-2.61,1.744c-1.062,0.451-2.378,0.678-3.915,0.678H17.1V37.369h9.206
	c1.537,0,2.855,0.215,3.92,0.642c1.06,0.424,1.924,0.978,2.568,1.646c0.643,0.669,1.12,1.428,1.417,2.255
	c0.3,0.836,0.45,1.688,0.45,2.533S34.51,46.156,34.21,47.017z"/>
<path d="M59.767,51.651c0,0.508-0.019,1.137-0.059,1.924c-0.038,0.756-0.153,1.57-0.343,2.42c-0.188,0.843-0.482,1.692-0.873,2.524
	c-0.388,0.821-0.936,1.58-1.634,2.252c-0.696,0.673-1.588,1.221-2.649,1.633c-1.064,0.414-2.396,0.623-3.96,0.623
	c-1.565,0-2.895-0.209-3.959-0.623c-1.061-0.412-1.954-0.96-2.649-1.633c-0.699-0.672-1.247-1.431-1.633-2.252
	c-0.39-0.829-0.678-1.678-0.853-2.521c-0.179-0.848-0.288-1.662-0.325-2.423c-0.038-0.767-0.058-1.413-0.058-1.924V36.101h-1.27
	v15.551c0,0.569,0.02,1.277,0.059,2.104c0.04,0.842,0.165,1.736,0.374,2.658c0.208,0.928,0.533,1.869,0.965,2.8
	c0.438,0.941,1.062,1.801,1.855,2.556c0.797,0.757,1.816,1.372,3.027,1.833c1.209,0.46,2.713,0.693,4.465,0.693
	c1.753,0,3.257-0.233,4.466-0.693c1.213-0.462,2.231-1.077,3.027-1.833c0.792-0.753,1.423-1.612,1.873-2.553
	c0.445-0.927,0.777-1.87,0.988-2.803c0.208-0.932,0.335-1.825,0.373-2.658c0.038-0.826,0.057-1.534,0.057-2.104V36.101h-1.267
	V51.651z"/>
<path d="M78.313,52.978c0.918-0.104,1.82-0.322,2.688-0.65c1.018-0.383,1.93-0.927,2.711-1.615c0.783-0.691,1.417-1.552,1.882-2.561
	c0.464-1.01,0.699-2.206,0.699-3.552c0-1.428-0.274-2.697-0.818-3.773c-0.546-1.073-1.265-1.967-2.143-2.659
	c-0.872-0.687-1.89-1.21-3.024-1.554c-1.13-0.341-2.301-0.514-3.482-0.514H66.158v27.614h1.269V53.061h9.321l8.562,10.654h1.641
	L78.313,52.978z M67.427,51.791V37.369h9.399c1.032,0,2.056,0.147,3.051,0.436c0.984,0.287,1.869,0.735,2.628,1.333
	c0.756,0.593,1.371,1.355,1.831,2.261c0.458,0.904,0.691,1.981,0.691,3.202c0,1.221-0.233,2.29-0.691,3.179
	c-0.458,0.894-1.075,1.649-1.831,2.243c-0.76,0.599-1.645,1.048-2.628,1.333c-0.991,0.289-2.018,0.436-3.051,0.436H67.427z"/>
</svg>
