<?xml version="1.0" encoding="utf-8"?>
<!-- Generator: Adobe Illustrator 15.0.2, SVG Export Plug-In  -->
<!DOCTYPE svg PUBLIC "-//W3C//DTD SVG 1.1//EN" "http://www.w3.org/Graphics/SVG/1.1/DTD/svg11.dtd" [
	<!ENTITY ns_flows "http://ns.adobe.com/Flows/1.0/">
]>
<svg version="1.1"
	 xmlns="http://www.w3.org/2000/svg" xmlns:xlink="http://www.w3.org/1999/xlink" xmlns:a="http://ns.adobe.com/AdobeSVGViewerExtensions/3.0/"
	 x="0px" y="0px" width="100px" height="100px" viewBox="0 0 100 100" overflow="visible" enable-background="new 0 0 100 100"
	 xml:space="preserve">
<defs>
</defs>
<rect x="34.21" y="38.751" width="28.769" height="1.447"/>
<rect x="34.21" y="46.646" width="10.524" height="1.447"/>
<path d="M50,1.446c26.772,0,48.553,21.78,48.553,48.553c0,26.773-21.781,48.555-48.553,48.555
	c-26.773,0-48.554-21.781-48.554-48.555C1.446,23.227,23.228,1.446,50,1.446 M50,0C22.387,0,0,22.387,0,49.999
	C0,77.612,22.387,100,50,100c27.615,0,50-22.388,50-50.001C100,22.387,77.615,0,50,0L50,0z"/>
<path d="M25.593,28.225v35.657h24.363c0.455,1.073,1.126,2.032,1.952,2.832v16.034l6.005-2.696l5.969,2.699V66.716
	c0.827-0.8,1.497-1.76,1.953-2.834h8.571V28.225H25.593z M62.435,80.64l-4.52-2.045l-4.561,2.048V67.845
	c1.32,0.821,2.876,1.302,4.542,1.302s3.219-0.479,4.538-1.3V80.64z M57.896,67.699c-3.955,0-7.172-3.217-7.172-7.171
	c0-3.955,3.217-7.173,7.172-7.173c3.954,0,7.171,3.218,7.171,7.173C65.067,64.482,61.851,67.699,57.896,67.699z M72.96,62.435
	h-6.665c0.14-0.614,0.22-1.25,0.22-1.906c0-4.753-3.865-8.619-8.618-8.619s-8.62,3.866-8.62,8.619c0,0.656,0.08,1.292,0.22,1.906
	H27.04V29.672h45.92V62.435z"/>
</svg>
