<?xml version="1.0" encoding="utf-8"?>
<!-- Generator: Adobe Illustrator 15.0.2, SVG Export Plug-In  -->
<!DOCTYPE svg PUBLIC "-//W3C//DTD SVG 1.1//EN" "http://www.w3.org/Graphics/SVG/1.1/DTD/svg11.dtd" [
	<!ENTITY ns_flows "http://ns.adobe.com/Flows/1.0/">
]>
<svg version="1.1"
	 xmlns="http://www.w3.org/2000/svg" xmlns:xlink="http://www.w3.org/1999/xlink" xmlns:a="http://ns.adobe.com/AdobeSVGViewerExtensions/3.0/"
	 x="0px" y="0px" width="100px" height="100px" viewBox="0 0 100 100" overflow="visible" enable-background="new 0 0 100 100"
	 xml:space="preserve">
<defs>
</defs>
<path d="M63.448,36.551l-1.017,1.029c3.4,3.355,5.273,7.834,5.273,12.609c0,9.762-7.94,17.704-17.701,17.704
	s-17.701-7.942-17.701-17.704c0-9.764,7.94-17.705,17.701-17.705c1.342,0,2.674,0.153,3.971,0.45
	c-0.06,0.132-0.128,0.264-0.22,0.398c-0.241,0.355-0.475,0.682-0.699,0.982l-7.731,9.635h1.507l7.228-9.075
	c0.223-0.301,0.484-0.672,0.784-1.121c0.293-0.441,0.44-0.919,0.445-1.432c-0.005-0.513-0.152-0.99-0.445-1.431
	c-0.3-0.45-0.562-0.821-0.784-1.122l-7.228-9.075h-1.507l7.731,9.635c0.225,0.301,0.458,0.627,0.699,0.982
	c0.027,0.038,0.047,0.077,0.07,0.116c-1.253-0.255-2.534-0.391-3.821-0.391c-10.558,0-19.148,8.593-19.148,19.152
	s8.59,19.151,19.148,19.151c10.558,0,19.147-8.592,19.147-19.151C69.151,45.024,67.125,40.18,63.448,36.551z"/>
<path d="M50,1.446c26.772,0,48.553,21.781,48.553,48.553c0,26.773-21.781,48.555-48.553,48.555
	c-26.773,0-48.554-21.781-48.554-48.555C1.446,23.228,23.228,1.446,50,1.446 M50,0C22.386,0,0,22.387,0,49.999
	C0,77.613,22.386,100,50,100c27.615,0,50-22.387,50-50.001C100,22.387,77.615,0,50,0L50,0z"/>
</svg>
