<?xml version="1.0" encoding="utf-8"?>
<!-- Generator: Adobe Illustrator 15.0.2, SVG Export Plug-In  -->
<!DOCTYPE svg PUBLIC "-//W3C//DTD SVG 1.1//EN" "http://www.w3.org/Graphics/SVG/1.1/DTD/svg11.dtd" [
	<!ENTITY ns_flows "http://ns.adobe.com/Flows/1.0/">
]>
<svg version="1.1"
	 xmlns="http://www.w3.org/2000/svg" xmlns:xlink="http://www.w3.org/1999/xlink" xmlns:a="http://ns.adobe.com/AdobeSVGViewerExtensions/3.0/"
	 x="0px" y="0px" width="100px" height="100px" viewBox="0 -0.001 100 100"
	 overflow="visible" enable-background="new 0 -0.001 100 100" xml:space="preserve">
<defs>
</defs>
<path d="M50.003,83.799L50.003,83.799H50c-6.661,0-12.08-5.419-12.082-12.082c0-4.687,2.109-8.946,4.341-13.456
	c2.713-5.484,5.52-11.154,5.521-18.788l4.445,0.001c-0.002,7.636,2.806,13.308,5.519,18.793c2.231,4.509,4.338,8.767,4.34,13.45
	c0,3.227-1.257,6.259-3.538,8.541C56.263,82.541,53.229,83.799,50.003,83.799z M50,51.797c-1.102,3.067-2.47,5.831-3.758,8.437
	c-2.082,4.205-3.879,7.837-3.879,11.482c0,4.212,3.426,7.639,7.634,7.639h0.006l0,0c2.038,0,3.956-0.795,5.398-2.238
	c1.441-1.443,2.235-3.36,2.235-5.399c-0.001-3.644-1.797-7.274-3.877-11.479C52.47,57.632,51.102,54.867,50,51.797z"/>
<path d="M63.158,18.83H36.842v4.444h4.677l4.36,10.526h8.242l4.359-10.526h4.678V18.83z M51.151,29.356h-2.303l-2.518-6.082h7.34
	L51.151,29.356z"/>
<path d="M50,4.444c25.119,0,45.555,20.436,45.555,45.554c0,25.119-20.436,45.555-45.555,45.555S4.445,75.117,4.445,49.998
	C4.445,24.88,24.881,4.444,50,4.444 M50,0C22.387,0,0,22.386,0,49.998s22.387,50,50,50c27.613,0,50-22.388,50-50S77.613,0,50,0L50,0
	z"/>
</svg>
