<?xml version="1.0" encoding="utf-8"?>
<!-- Generator: Adobe Illustrator 15.0.2, SVG Export Plug-In  -->
<!DOCTYPE svg PUBLIC "-//W3C//DTD SVG 1.1//EN" "http://www.w3.org/Graphics/SVG/1.1/DTD/svg11.dtd" [
	<!ENTITY ns_flows "http://ns.adobe.com/Flows/1.0/">
]>
<svg version="1.1"
	 xmlns="http://www.w3.org/2000/svg" xmlns:xlink="http://www.w3.org/1999/xlink" xmlns:a="http://ns.adobe.com/AdobeSVGViewerExtensions/3.0/"
	 x="0px" y="0px" width="100px" height="100px" viewBox="0 0.008 100 100"
	 overflow="visible" enable-background="new 0 0.008 100 100" xml:space="preserve">
<defs>
</defs>
<polygon points="75.257,72.113 53.144,50 75.257,27.886 72.112,24.743 50,46.856 27.887,24.744 24.744,27.887 46.858,50 
	24.744,72.114 27.887,75.255 50,53.143 72.113,75.255 "/>
<path d="M50,4.445c25.119,0,45.554,20.435,45.554,45.553c0,25.119-20.436,45.556-45.554,45.556
	c-25.12,0-45.556-20.437-45.556-45.556C4.445,24.88,24.881,4.445,50,4.445 M50,0C22.387,0,0,22.387,0,49.999
	c0,27.614,22.387,50,50,50c27.614,0,50-22.386,50-50C100,22.387,77.614,0,50,0L50,0z"/>
</svg>
