<?xml version="1.0" encoding="utf-8"?>
<!-- Generator: Adobe Illustrator 15.0.2, SVG Export Plug-In  -->
<!DOCTYPE svg PUBLIC "-//W3C//DTD SVG 1.1//EN" "http://www.w3.org/Graphics/SVG/1.1/DTD/svg11.dtd" [
	<!ENTITY ns_flows "http://ns.adobe.com/Flows/1.0/">
]>
<svg version="1.1"
	 xmlns="http://www.w3.org/2000/svg" xmlns:xlink="http://www.w3.org/1999/xlink" xmlns:a="http://ns.adobe.com/AdobeSVGViewerExtensions/3.0/"
	 x="0px" y="0px" width="100px" height="100px" viewBox="0 0 100 100" overflow="visible" enable-background="new 0 0 100 100"
	 xml:space="preserve">
<defs>
</defs>
<path d="M50,0C22.388,0,0,22.386,0,50c0,27.614,22.388,50,50,50c27.616,0,50-22.386,50-50C100,22.386,77.616,0,50,0z M50,98.554
	C23.229,98.554,1.447,76.772,1.447,50C1.447,23.226,23.229,1.448,50,1.448c26.773,0,48.554,21.778,48.554,48.552
	C98.555,76.772,76.773,98.554,50,98.554z"/>
<path d="M52.575,51.511c-0.967-0.562-2.093-1.04-3.349-1.419c-1.243-0.375-2.51-0.734-3.771-1.069
	c-1.21-0.309-2.414-0.642-3.578-0.987c-1.153-0.342-2.187-0.765-3.071-1.259c-0.872-0.485-1.583-1.083-2.116-1.776
	c-0.519-0.676-0.782-1.525-0.782-2.525c0-1.156,0.271-2.111,0.805-2.84c0.542-0.74,1.244-1.334,2.086-1.768
	c0.851-0.439,1.785-0.743,2.776-0.907c2.262-0.373,4.278-0.304,5.821,0.036c0.853,0.189,1.603,0.449,2.227,0.773
	c0.625,0.325,1.162,0.692,1.595,1.087c0.438,0.401,0.811,0.818,1.106,1.235c0.672,0.996,1.075,2.131,1.2,3.378l0.023,0.222h1.268
	l-0.023-0.269c-0.134-1.483-0.59-2.826-1.355-3.988c-0.319-0.505-0.738-1.003-1.242-1.482c-0.506-0.479-1.132-0.91-1.86-1.282
	c-0.726-0.369-1.586-0.669-2.558-0.893c-1.747-0.401-4.014-0.484-6.535-0.042c-1.13,0.197-2.199,0.558-3.174,1.071
	c-0.987,0.52-1.812,1.244-2.452,2.15c-0.648,0.918-0.976,2.101-0.976,3.517c0,1.262,0.309,2.334,0.918,3.188
	c0.601,0.84,1.41,1.555,2.405,2.126c0.98,0.562,2.105,1.04,3.347,1.418c1.23,0.375,2.506,0.735,3.792,1.068
	c1.206,0.309,2.402,0.646,3.556,1.005c1.143,0.355,2.178,0.786,3.076,1.279c0.882,0.486,1.602,1.078,2.135,1.759
	c0.519,0.664,0.782,1.507,0.782,2.504c0,0.761-0.175,1.515-0.52,2.24c-0.344,0.725-0.9,1.386-1.654,1.966
	c-0.762,0.586-1.764,1.062-2.981,1.413c-1.224,0.354-2.721,0.533-4.449,0.533c-1.873,0-3.455-0.243-4.701-0.722
	c-1.24-0.476-2.248-1.096-2.997-1.843c-0.745-0.746-1.287-1.596-1.608-2.524c-0.326-0.938-0.491-1.884-0.491-2.808v-0.247h-1.269
	v0.247c0,1.08,0.18,2.175,0.536,3.256c0.36,1.093,0.979,2.091,1.843,2.966c0.86,0.875,2.012,1.593,3.422,2.132
	c1.405,0.539,3.177,0.812,5.265,0.812c1.901,0,3.556-0.212,4.92-0.631c1.367-0.421,2.503-0.983,3.377-1.671
	c0.879-0.691,1.535-1.491,1.95-2.377c0.415-0.883,0.625-1.806,0.625-2.742c0-1.263-0.316-2.336-0.939-3.189
	C54.366,52.797,53.558,52.081,52.575,51.511z"/>
<rect x="60.658" y="36.024" width="1.269" height="27.638"/>
</svg>
