<?xml version="1.0" encoding="utf-8"?>
<!-- Generator: Adobe Illustrator 15.0.2, SVG Export Plug-In  -->
<!DOCTYPE svg PUBLIC "-//W3C//DTD SVG 1.1//EN" "http://www.w3.org/Graphics/SVG/1.1/DTD/svg11.dtd" [
	<!ENTITY ns_flows "http://ns.adobe.com/Flows/1.0/">
]>
<svg version="1.1"
	 xmlns="http://www.w3.org/2000/svg" xmlns:xlink="http://www.w3.org/1999/xlink" xmlns:a="http://ns.adobe.com/AdobeSVGViewerExtensions/3.0/"
	 x="0px" y="0px" width="100px" height="100px" viewBox="0 0 100 100" overflow="visible" enable-background="new 0 0 100 100"
	 xml:space="preserve">
<defs>
</defs>
<g>
	<path fill="#1A171B" d="M75.489,37.295c-0.767-0.352-3.524-1.616-3.524-1.616c0.074-0.641,0.068-0.746,0.068-1.408
		c0-0.641,0.003-0.759-0.067-1.381c0,0,3.254-1.44,3.617-1.604c0.362-0.164,0.53-0.48,0.366-1.057
		c-0.165-0.576-0.859-3.001-1.03-3.619c-0.187-0.67-0.835-0.482-1.346-0.432c-0.439,0.045-3.386,0.467-3.386,0.467
		c-0.38-0.753-0.536-0.997-1.011-1.717c0,0,2.019-2.731,2.321-3.155c0.304-0.423,0.161-0.86-0.108-1.126
		c-0.27-0.267-2.43-2.402-2.714-2.659c-0.285-0.258-0.655-0.263-1.052,0.031c-0.395,0.294-3.103,2.306-3.103,2.306
		c-0.632-0.433-0.853-0.586-1.706-1.034c0,0,0.392-2.891,0.505-3.621c0.113-0.731-0.128-0.991-0.854-1.193
		c-0.728-0.201-3.451-0.96-3.451-0.96s-0.574-0.219-0.942,0.601s-1.542,3.431-1.542,3.431c-0.591-0.062-1.988-0.024-2.617,0.047
		c0,0-1.183-2.655-1.488-3.376c-0.304-0.721-0.618-0.8-1.424-0.579c-0.804,0.222-2.742,0.753-3.188,0.887
		c-0.392,0.117-0.79,0.288-0.674,1.062c0.117,0.774,0.475,3.792,0.475,3.792c-0.63,0.31-0.849,0.453-1.607,0.918
		c0,0-2.657-1.951-3.102-2.282c-0.445-0.33-0.732-0.339-1.126,0.056c-0.393,0.395-2.16,2.168-2.626,2.643
		c-0.469,0.475-0.392,0.706,0.167,1.434c0.504,0.659,2.041,2.739,2.041,2.739c-0.51,0.789-0.619,0.98-1.019,1.754
		c0,0-3.209-0.387-3.657-0.455c-0.448-0.069-0.969-0.059-1.126,0.519c-0.155,0.577-0.777,2.873-0.986,3.617
		c-0.21,0.744,0.216,0.924,0.655,1.122c0.441,0.197,3.33,1.493,3.33,1.493c-0.069,0.611-0.071,2.082,0.003,2.714
		c0,0-3.122,1.416-3.419,1.554c-0.297,0.139-0.756,0.395-0.583,1.024c0.175,0.631,0.875,3.167,1.021,3.632
		c0.172,0.55,0.481,0.66,1.201,0.548c0.824-0.128,3.568-0.485,3.568-0.485c0.381,0.755,0.539,0.998,1.001,1.695
		c0,0-2.107,2.781-2.307,3.055c-0.199,0.272-0.422,0.637,0.021,1.089c0.444,0.452,2.482,2.536,2.762,2.781
		c0.279,0.246,0.604,0.279,1.189-0.169c0.534-0.408,2.949-2.16,2.949-2.16c0.525,0.354,0.821,0.561,1.526,0.915
		c0,0-0.516,3.296-0.559,3.741c-0.044,0.445-0.162,0.842,0.547,1.061c0.71,0.219,3.275,1.011,3.691,1.134
		c0.414,0.123,0.789-0.031,1.067-0.692c0.209-0.491,1.61-3.396,1.61-3.396c0.645,0.075,2.132,0.072,2.748,0.002
		c0,0,1.279,2.817,1.518,3.342c0.24,0.525,0.347,0.867,1.234,0.619c0.886-0.248,3.006-0.841,3.41-0.957
		c0.402-0.117,0.722-0.282,0.605-1.143c-0.124-0.906-0.471-3.64-0.471-3.64c0.766-0.405,0.926-0.491,1.694-0.995
		c0,0,2.502,1.922,2.937,2.256c0.443,0.34,0.825,0.447,1.268,0.012c0.441-0.436,2.082-2.055,2.657-2.611
		c0.322-0.312,0.399-0.647,0.003-1.188c-0.397-0.54-2.252-3.065-2.252-3.065c0.454-0.699,0.584-0.904,0.946-1.626l3.984,0.512
		c0,0,0.619,0.09,0.799-0.536c0.181-0.627,1.062-3.696,1.062-3.696S76.257,37.647,75.489,37.295z M73.699,40.973l-4.378-0.568
		c-0.39,0.812-1.272,2.38-1.89,3.207l2.644,3.576l-1.927,1.901l-3.513-2.62c-0.739,0.527-2.475,1.569-3.302,1.962l0.539,4.302
		l-2.569,0.76l-1.753-3.939c-0.562,0.062-1.707,0.051-2.287,0.051c-0.606,0-1.749-0.039-2.338-0.108l-1.886,3.997l-2.613-0.795
		l0.639-4.32c-0.78-0.378-2.508-1.401-3.207-1.9l-3.494,2.569l-1.881-1.923l2.583-3.448c-0.526-0.732-1.557-2.462-1.95-3.284
		l-4.277,0.562l-0.746-2.568l3.925-1.772c-0.066-0.578-0.085-1.741-0.085-2.336c0-0.576,0.043-1.711,0.104-2.271l-3.944-1.762
		l0.688-2.57l4.406,0.536c0.405-0.856,1.361-2.651,1.91-3.411l-2.572-3.431l1.9-1.9l3.489,2.563c0.75-0.534,3.249-1.838,3.249-1.838
		l-0.51-4.396l2.579-0.731l1.761,4.062c0.575-0.066,1.678-0.181,2.27-0.181c0.555,0,1.648,0.049,2.188,0.105l1.807-3.987
		l2.588,0.754l-0.582,4.313c0.849,0.397,2.571,1.409,3.324,1.949l3.507-2.619l1.912,1.86l-2.612,3.584
		c0.643,0.793,1.544,2.381,1.934,3.285l4.396-0.546l0.696,2.568l-3.987,1.796c0.064,0.568,0.158,1.679,0.158,2.266
		c0,0.604-0.14,1.721-0.208,2.308l4.037,1.823L73.699,40.973z"/>
</g>
<g>
	<path fill="#1A171B" d="M55.258,25.57c-4.819,0-8.724,3.906-8.724,8.726c0,4.818,3.905,8.725,8.724,8.725
		c4.819,0,8.726-3.906,8.726-8.725C63.983,29.477,60.077,25.57,55.258,25.57z M55.258,41.626c-4.049,0-7.329-3.282-7.329-7.329
		c0-4.049,3.28-7.331,7.329-7.331s7.33,3.282,7.33,7.331C62.588,38.344,59.307,41.626,55.258,41.626z"/>
</g>
<g>
	<path fill="#1A171B" d="M32.544,62.075c-3.088,1.34-4.511,4.926-3.172,8.009c1.335,3.081,4.927,4.495,8.015,3.154
		c3.09-1.34,4.512-4.928,3.175-8.008C39.223,62.146,35.633,60.735,32.544,62.075z M36.813,71.918
		c-2.345,1.019-5.073-0.056-6.086-2.395c-1.016-2.342,0.063-5.066,2.409-6.084c2.347-1.019,5.074,0.056,6.089,2.396
		S39.16,70.9,36.813,71.918z"/>
</g>
<g>
	<path fill="#1A171B" d="M47.631,62.019c-0.722,0.065-3.35,0.312-3.35,0.312c-0.531-0.862-0.885-1.265-1.293-1.773
		c0,0,1.356-3.133,1.454-3.32c0.125-0.234,0.168-0.686-0.198-0.921c-0.711-0.454-2.949-1.841-3.208-1.984
		c-0.259-0.145-0.633-0.094-0.955,0.286c-0.322,0.379-2.283,2.691-2.283,2.691c-0.941-0.231-1.145-0.239-2.175-0.334
		c0,0-1.182-2.922-1.358-3.338c-0.175-0.417-0.46-0.653-1.08-0.499c-0.621,0.155-3.134,0.778-3.348,0.826
		c-0.212,0.044-0.576,0.359-0.54,0.72c0.035,0.362,0.361,3.711,0.361,3.711c-0.835,0.53-1.737,1.264-1.737,1.264
		s-3.273-1.403-3.46-1.489c-0.156-0.072-0.627-0.187-0.901,0.262c-0.275,0.448-1.869,3.046-1.968,3.225
		c-0.099,0.181-0.077,0.598,0.265,0.882c0.342,0.283,2.772,2.306,2.772,2.306c-0.211,0.836-0.258,1.152-0.354,2.203
		c0,0-2.97,1.184-3.338,1.326c-0.37,0.144-0.671,0.372-0.485,1.122c0.103,0.414,0.676,2.802,0.749,3.156
		c0.073,0.354,0.217,0.729,0.933,0.667c0.718-0.061,3.549-0.302,3.549-0.302c0.518,0.846,0.691,1.022,1.33,1.79
		c0,0-1.425,3.18-1.537,3.504s0.091,0.639,0.291,0.764c0.198,0.125,2.918,1.828,3.072,1.928c0.152,0.099,0.591,0.276,0.909-0.095
		c0.317-0.369,2.465-2.87,2.465-2.87c0.769,0.188,1.179,0.29,2.132,0.328c0,0,1.188,3.081,1.306,3.413
		c0.119,0.334,0.5,0.525,0.879,0.442c0.38-0.083,2.854-0.621,3.248-0.726c0.396-0.104,0.891-0.245,0.839-0.873
		c-0.052-0.63-0.298-3.626-0.298-3.626c0.65-0.394,1.093-0.711,1.78-1.312c0,0,3.084,1.338,3.432,1.455
		c0.445,0.148,0.729-0.08,0.942-0.43c0.213-0.349,1.917-3.129,1.917-3.129s0.159-0.471-0.272-0.825
		c-0.431-0.355-2.793-2.299-2.793-2.299c0.239-0.951,0.277-1.346,0.378-2.15c0,0,2.658-1.064,3.248-1.31
		c0.592-0.243,0.674-0.531,0.541-1.137c-0.199-0.897-0.652-2.753-0.79-3.272C48.562,62.058,48.197,61.938,47.631,62.019z
		 M48.015,65.84l-3.669,1.447c-0.013,0.944-0.318,2.838-0.597,3.713l3.014,2.518l-1.27,2.012l-3.628-1.536
		c-0.658,0.646-2.188,1.817-3.024,2.25l0.3,3.945l-2.332,0.485l-1.489-3.667c-0.937-0.016-2.705-0.274-3.573-0.551l-2.64,3.002
		L27.1,78.192l1.562-3.673c-0.649-0.663-1.81-2.179-2.246-3.029l-3.922,0.342l-0.553-2.301l3.741-1.519
		c0.015-0.953,0.242-2.807,0.53-3.69l-2.993-2.559l1.229-2.047l3.623,1.575c0,0,2.198-1.747,3.049-2.186l-0.308-3.893l2.32-0.563
		l1.44,3.641c0.945,0.013,2.914,0.313,3.792,0.595l2.523-2.989l2.027,1.25l-1.578,3.621c0.642,0.663,1.754,2.237,2.188,3.082
		l3.918-0.371L48.015,65.84z"/>
</g>
<g>
	<path fill="#1A171B" d="M50.001,0C22.386,0,0,22.387,0,49.999C0,77.614,22.386,100,50.001,100C77.615,100,100,77.614,100,49.999
		C100,22.387,77.615,0,50.001,0z M50.001,98.427c-26.745,0-48.429-21.683-48.429-48.428c0-26.743,21.684-48.426,48.429-48.426
		c26.747,0,48.427,21.683,48.427,48.426C98.428,76.744,76.748,98.427,50.001,98.427z"/>
</g>
</svg>
