<?xml version="1.0" encoding="utf-8"?>
<!-- Generator: Adobe Illustrator 15.0.2, SVG Export Plug-In  -->
<!DOCTYPE svg PUBLIC "-//W3C//DTD SVG 1.1//EN" "http://www.w3.org/Graphics/SVG/1.1/DTD/svg11.dtd" [
	<!ENTITY ns_flows "http://ns.adobe.com/Flows/1.0/">
]>
<svg version="1.1"
	 xmlns="http://www.w3.org/2000/svg" xmlns:xlink="http://www.w3.org/1999/xlink" xmlns:a="http://ns.adobe.com/AdobeSVGViewerExtensions/3.0/"
	 x="0px" y="0px" width="100px" height="100px" viewBox="0 0 100 100" overflow="visible" enable-background="new 0 0 100 100"
	 xml:space="preserve">
<defs>
</defs>
<path d="M64.655,39.045c-0.53,0-1.037-0.099-1.499-0.296c-0.461-0.195-0.87-0.471-1.221-0.818c-0.348-0.349-0.623-0.765-0.819-1.234
	c-0.194-0.471-0.294-0.986-0.294-1.53c0-0.515,0.101-1.014,0.296-1.477c0.196-0.462,0.472-0.873,0.817-1.219
	c0.346-0.344,0.752-0.622,1.21-0.824c0.938-0.414,2.082-0.413,3.021,0c0.456,0.203,0.862,0.481,1.208,0.825
	c0.346,0.347,0.621,0.757,0.816,1.219c0.197,0.467,0.297,0.963,0.297,1.478c0,0.528-0.099,1.035-0.294,1.507
	c-0.194,0.467-0.462,0.88-0.802,1.227c-0.339,0.349-0.752,0.63-1.219,0.833C65.7,38.941,65.19,39.045,64.655,39.045z M64.655,33.795
	c-0.176,0-0.333,0.036-0.487,0.107c-0.173,0.082-0.317,0.186-0.449,0.321c-0.136,0.143-0.243,0.299-0.33,0.48
	c-0.072,0.153-0.106,0.305-0.106,0.463c0,0.209,0.036,0.394,0.114,0.567c0.082,0.183,0.187,0.339,0.312,0.464
	c0.127,0.126,0.265,0.219,0.428,0.285c0.161,0.068,0.332,0.1,0.52,0.1c0.404,0,0.71-0.124,0.965-0.392
	c0.264-0.278,0.386-0.604,0.386-1.024c0-0.381-0.121-0.691-0.385-0.979C65.375,33.921,65.068,33.795,64.655,33.795z"/>
<path d="M83.794,42.107c-0.189,0.677-0.438,1.241-0.754,1.66c-0.37,0.5-0.783,0.889-1.219,1.153
	c-0.444,0.267-0.906,0.447-1.38,0.533c-0.99,0.18-1.776,0.182-2.724,0.04c-0.434-0.065-0.875-0.183-1.315-0.354
	c-0.43-0.167-0.847-0.396-1.24-0.679c-0.376-0.271-0.717-0.627-1.013-1.061c-0.3-0.441-0.543-0.978-0.725-1.597
	c-0.185-0.622-0.277-1.375-0.277-2.239c0-1.267,0.198-2.295,0.588-3.057c0.394-0.768,0.884-1.373,1.458-1.802
	c0.58-0.434,1.214-0.731,1.887-0.883c1.312-0.297,2.409-0.338,3.556-0.047c0.495,0.124,0.963,0.332,1.391,0.613
	c0.419,0.278,0.798,0.653,1.125,1.112c0.264,0.37,0.475,0.823,0.637,1.344h2.975c-0.225-1.07-0.609-2-1.146-2.762
	c-0.545-0.769-1.185-1.397-1.909-1.868c-0.709-0.463-1.479-0.803-2.286-1.01c-1.398-0.36-2.691-0.375-4.171-0.182
	c-0.662,0.087-1.324,0.25-1.967,0.486c-0.651,0.238-1.284,0.567-1.883,0.977c-0.62,0.423-1.17,0.969-1.642,1.627
	c-0.468,0.651-0.841,1.435-1.11,2.328c-0.264,0.886-0.4,1.937-0.4,3.123c0,1.204,0.141,2.267,0.416,3.16
	c0.272,0.897,0.644,1.682,1.103,2.333c0.464,0.657,1.012,1.206,1.633,1.629c0.597,0.41,1.225,0.738,1.871,0.977
	c0.635,0.236,1.29,0.398,1.946,0.486c0.631,0.085,1.231,0.127,1.786,0.127c0.67,0,1.399-0.079,2.172-0.233
	c0.812-0.162,1.597-0.477,2.333-0.934c0.749-0.465,1.423-1.108,2.006-1.915c0.579-0.801,0.997-1.84,1.251-3.087H83.794z"/>
<rect x="15.787" y="34.62" width="15.788" height="4.445"/>
<rect x="15.787" y="45.146" width="15.788" height="4.445"/>
<path d="M57.49,52.08l-0.004-25.763c0-4.129-3.359-7.486-7.487-7.486c-4.128,0-7.486,3.357-7.486,7.486l0.001,25.792
	c-4.266,2.6-6.955,7.307-6.955,12.357c0,7.977,6.488,14.465,14.462,14.465c7.976,0,14.462-6.488,14.462-14.465
	C64.484,59.394,61.782,54.677,57.49,52.08z M50,23.276c1.676,0,3.04,1.364,3.04,3.042l0.002,13.567l-6.082-0.001V26.317
	C46.959,24.64,48.323,23.276,50,23.276z M50.022,74.486c-5.524,0-10.017-4.494-10.017-10.02c0-3.832,2.234-7.377,5.692-9.035
	l1.262-0.607l-0.001-10.496l6.082,0.001l0.002,10.481l1.27,0.602c3.48,1.652,5.729,5.207,5.729,9.055
	C60.041,69.992,55.548,74.486,50.022,74.486z"/>
<path d="M50,4.445c25.119,0,45.553,20.436,45.553,45.554c0,25.118-20.435,45.555-45.553,45.555
	c-25.119,0-45.556-20.438-45.556-45.555C4.445,24.881,24.881,4.445,50,4.445 M50,0C22.388,0,0,22.388,0,49.999
	c0,27.614,22.388,50,50,50c27.615,0,50-22.387,50-50C100,22.388,77.615,0,50,0L50,0z"/>
</svg>
