<?xml version="1.0" encoding="utf-8"?>
<!-- Generator: Adobe Illustrator 16.2.1, SVG Export Plug-In . SVG Version: 6.00 Build 0)  -->
<!DOCTYPE svg PUBLIC "-//W3C//DTD SVG 1.1//EN" "http://www.w3.org/Graphics/SVG/1.1/DTD/svg11.dtd">
<svg version="1.1" id="Ebene_1" xmlns="http://www.w3.org/2000/svg" xmlns:xlink="http://www.w3.org/1999/xlink" x="0px" y="0px"
	 width="100px" height="100px" viewBox="0 0 100 100" enable-background="new 0 0 100 100" xml:space="preserve">
<path fill="#1A171C" d="M50,0C22.4,0,0,22.4,0,50c0,27.601,22.4,50,50,50c27.6,0,50-22.399,50-50C100,22.3,77.6,0,50,0z M50,95.5
	c-25.1,0-45.6-20.399-45.6-45.6C4.4,24.8,24.8,4.3,50,4.3s45.6,20.4,45.6,45.6S75.1,95.5,50,95.5z"/>
<rect x="26.3" y="31.9" fill="#1A171C" width="47.4" height="4.4"/>
<rect x="26.3" y="47.7" fill="#1A171C" width="47.4" height="4.4"/>
<rect x="26.3" y="63.5" fill="#1A171C" width="47.4" height="4.4"/>
</svg>
