<?xml version="1.0" encoding="utf-8"?>
<!-- Generator: Adobe Illustrator 15.0.2, SVG Export Plug-In  -->
<!DOCTYPE svg PUBLIC "-//W3C//DTD SVG 1.1//EN" "http://www.w3.org/Graphics/SVG/1.1/DTD/svg11.dtd" [
	<!ENTITY ns_flows "http://ns.adobe.com/Flows/1.0/">
]>
<svg version="1.1"
	 xmlns="http://www.w3.org/2000/svg" xmlns:xlink="http://www.w3.org/1999/xlink" xmlns:a="http://ns.adobe.com/AdobeSVGViewerExtensions/3.0/"
	 x="0px" y="0px" width="100px" height="100px" viewBox="0 0 100 100" overflow="visible" enable-background="new 0 0 100 100"
	 xml:space="preserve">
<defs>
</defs>
<path d="M75.903,75.907H24.094V39.883h51.809V75.907z M28.541,71.461h42.918V44.328H28.541V71.461z"/>
<path d="M43.908,68.42h-4.445V61.57c0-0.829-0.625-1.452-1.453-1.452c-3.297,0-5.88-2.593-5.88-5.901v-6.848h4.446v6.848
	c0,0.83,0.617,1.455,1.434,1.455c3.308,0,5.898,2.593,5.898,5.898V68.42z"/>
<path d="M68.152,68.42h-4.446V61.57c0-0.829-0.624-1.452-1.453-1.452c-3.296,0-5.88-2.593-5.88-5.901v-6.848h4.446v6.848
	c0,0.83,0.616,1.455,1.434,1.455c3.308,0,5.899,2.593,5.899,5.898V68.42z"/>
<path d="M56.03,68.42h-4.446V61.57c0-0.829-0.624-1.452-1.454-1.452c-3.297,0-5.88-2.593-5.88-5.901v-6.848h4.445v6.848
	c0,0.83,0.617,1.455,1.435,1.455c3.309,0,5.9,2.593,5.9,5.898V68.42z"/>
<path d="M60.819,36.842h-4.446v-6.849c0-3.308,2.593-5.9,5.901-5.9c0.816,0,1.432-0.625,1.432-1.454V15.79h4.446v6.849
	c0,3.308-2.583,5.899-5.878,5.899c-0.831,0-1.455,0.626-1.455,1.455V36.842z"/>
<path d="M36.576,36.842H32.13v-6.849c0-3.308,2.591-5.9,5.899-5.9c0.818,0,1.434-0.625,1.434-1.454V15.79h4.446v6.849
	c0,3.308-2.583,5.899-5.88,5.899c-0.829,0-1.454,0.626-1.454,1.455V36.842z"/>
<path d="M48.697,36.842h-4.445v-6.849c0-3.308,2.591-5.9,5.9-5.9c0.818,0,1.434-0.625,1.434-1.454V15.79h4.445v6.849
	c0,3.308-2.584,5.899-5.879,5.899c-0.829,0-1.455,0.626-1.455,1.455V36.842z"/>
<path d="M50,4.445c25.119,0,45.554,20.436,45.554,45.554c0,25.119-20.435,45.555-45.554,45.555
	c-25.118,0-45.555-20.436-45.555-45.555C4.445,24.88,24.882,4.445,50,4.445 M50,0C22.389,0,0,22.386,0,49.999S22.389,100,50,100
	c27.614,0,50-22.389,50-50.001S77.614,0,50,0L50,0z"/>
</svg>
