<?xml version="1.0" encoding="utf-8"?>
<!-- Generator: Adobe Illustrator 18.1.1, SVG Export Plug-In . SVG Version: 6.00 Build 0)  -->
<svg version="1.1" id="Ebene_1" xmlns="http://www.w3.org/2000/svg" xmlns:xlink="http://www.w3.org/1999/xlink" x="0px" y="0px"
	 viewBox="0 0 141.7 42.5" enable-background="new 0 0 141.7 42.5" xml:space="preserve">
<g>
	<g>
		<defs>
			<rect id="SVGID_185_" x="0.6" y="1.3" width="140.5" height="37.9"/>
		</defs>
		<clipPath id="SVGID_1_">
			<use xlink:href="#SVGID_185_"  overflow="visible"/>
		</clipPath>
		<path clip-path="url(#SVGID_1_)" fill="#033885" d="M16.8,21.7c0.7,0,1.4-0.6,1.4-1.4c0-0.7-0.6-1.4-1.4-1.4s-1.4,0.6-1.4,1.4
			C15.4,21.1,16,21.7,16.8,21.7"/>
	</g>
	<g>
		<defs>
			<rect id="SVGID_187_" x="0.6" y="1.3" width="140.5" height="37.9"/>
		</defs>
		<clipPath id="SVGID_2_">
			<use xlink:href="#SVGID_187_"  overflow="visible"/>
		</clipPath>
		<path clip-path="url(#SVGID_2_)" fill="#033885" d="M13.6,19.9c0.7,0,1.4-0.6,1.4-1.4s-0.6-1.4-1.4-1.4s-1.4,0.6-1.4,1.4
			C12.2,19.2,12.9,19.9,13.6,19.9"/>
	</g>
	<g>
		<defs>
			<rect id="SVGID_189_" x="0.6" y="1.3" width="140.5" height="37.9"/>
		</defs>
		<clipPath id="SVGID_3_">
			<use xlink:href="#SVGID_189_"  overflow="visible"/>
		</clipPath>
		<path clip-path="url(#SVGID_3_)" fill="#033885" d="M10.5,18c0.7,0,1.4-0.6,1.4-1.4c0-0.7-0.6-1.4-1.4-1.4s-1.4,0.6-1.4,1.4
			C9.1,17.4,9.7,18,10.5,18"/>
	</g>
	<g>
		<defs>
			<rect id="SVGID_191_" x="0.6" y="1.3" width="140.5" height="37.9"/>
		</defs>
		<clipPath id="SVGID_4_">
			<use xlink:href="#SVGID_191_"  overflow="visible"/>
		</clipPath>
		<path clip-path="url(#SVGID_4_)" fill="#033885" d="M7.4,15.7c0.6,0,0.9-0.4,0.9-0.9S8,13.9,7.4,13.9s-0.9,0.4-0.9,0.9
			C6.5,15.3,6.9,15.7,7.4,15.7"/>
	</g>
	<g>
		<defs>
			<rect id="SVGID_193_" x="0.6" y="1.3" width="140.5" height="37.9"/>
		</defs>
		<clipPath id="SVGID_5_">
			<use xlink:href="#SVGID_193_"  overflow="visible"/>
		</clipPath>
		<path clip-path="url(#SVGID_5_)" fill="#033885" d="M4.3,13.7c0.4,0,0.7-0.4,0.7-0.7c0-0.4-0.4-0.7-0.7-0.7
			c-0.4,0-0.7,0.4-0.7,0.7C3.6,13.3,3.8,13.7,4.3,13.7"/>
	</g>
	<g>
		<defs>
			<rect id="SVGID_195_" x="0.6" y="1.3" width="140.5" height="37.9"/>
		</defs>
		<clipPath id="SVGID_6_">
			<use xlink:href="#SVGID_195_"  overflow="visible"/>
		</clipPath>
		<path clip-path="url(#SVGID_6_)" fill="#033885" d="M1.1,11.7c0.3,0,0.6-0.3,0.6-0.6c0-0.3-0.3-0.6-0.6-0.6s-0.6,0.3-0.6,0.6
			S0.9,11.7,1.1,11.7"/>
	</g>
	<g>
		<defs>
			<rect id="SVGID_197_" x="0.6" y="1.3" width="140.5" height="37.9"/>
		</defs>
		<clipPath id="SVGID_7_">
			<use xlink:href="#SVGID_197_"  overflow="visible"/>
		</clipPath>
		<path clip-path="url(#SVGID_7_)" fill="#033885" d="M19.9,19.9c0.7,0,1.4-0.6,1.4-1.4s-0.6-1.4-1.4-1.4c-0.7,0-1.4,0.6-1.4,1.4
			C18.5,19.2,19.2,19.9,19.9,19.9"/>
	</g>
	<g>
		<defs>
			<rect id="SVGID_199_" x="0.6" y="1.3" width="140.5" height="37.9"/>
		</defs>
		<clipPath id="SVGID_8_">
			<use xlink:href="#SVGID_199_"  overflow="visible"/>
		</clipPath>
		<path clip-path="url(#SVGID_8_)" fill="#033885" d="M16.8,18c0.7,0,1.4-0.6,1.4-1.4c0-0.7-0.6-1.4-1.4-1.4s-1.4,0.6-1.4,1.4
			C15.4,17.4,16,18,16.8,18"/>
	</g>
	<g>
		<defs>
			<rect id="SVGID_201_" x="0.6" y="1.3" width="140.5" height="37.9"/>
		</defs>
		<clipPath id="SVGID_9_">
			<use xlink:href="#SVGID_201_"  overflow="visible"/>
		</clipPath>
		<path clip-path="url(#SVGID_9_)" fill="#033885" d="M13.6,16.2c0.7,0,1.4-0.6,1.4-1.4s-0.6-1.4-1.4-1.4s-1.4,0.6-1.4,1.4
			C12.2,15.5,12.9,16.2,13.6,16.2"/>
	</g>
	<g>
		<defs>
			<rect id="SVGID_203_" x="0.6" y="1.3" width="140.5" height="37.9"/>
		</defs>
		<clipPath id="SVGID_10_">
			<use xlink:href="#SVGID_203_"  overflow="visible"/>
		</clipPath>
		<path clip-path="url(#SVGID_10_)" fill="#033885" d="M10.5,13.9c0.6,0,0.9-0.4,0.9-0.9S11,12,10.5,12s-0.9,0.4-0.9,0.9
			C9.6,13.4,10,13.9,10.5,13.9"/>
	</g>
	<g>
		<defs>
			<rect id="SVGID_205_" x="0.6" y="1.3" width="140.5" height="37.9"/>
		</defs>
		<clipPath id="SVGID_11_">
			<use xlink:href="#SVGID_205_"  overflow="visible"/>
		</clipPath>
		<path clip-path="url(#SVGID_11_)" fill="#033885" d="M7.4,11.8c0.4,0,0.7-0.4,0.7-0.7c0-0.4-0.4-0.7-0.7-0.7
			c-0.4,0-0.7,0.4-0.7,0.7C6.7,11.5,7,11.8,7.4,11.8"/>
	</g>
	<g>
		<defs>
			<rect id="SVGID_207_" x="0.6" y="1.3" width="140.5" height="37.9"/>
		</defs>
		<clipPath id="SVGID_12_">
			<use xlink:href="#SVGID_207_"  overflow="visible"/>
		</clipPath>
		<path clip-path="url(#SVGID_12_)" fill="#033885" d="M4.3,9.8c0.3,0,0.6-0.3,0.6-0.6S4.6,8.7,4.3,8.7C4,8.7,3.7,9,3.7,9.2
			S3.9,9.8,4.3,9.8"/>
	</g>
	<g>
		<defs>
			<rect id="SVGID_209_" x="0.6" y="1.3" width="140.5" height="37.9"/>
		</defs>
		<clipPath id="SVGID_13_">
			<use xlink:href="#SVGID_209_"  overflow="visible"/>
		</clipPath>
		<path clip-path="url(#SVGID_13_)" fill="#033885" d="M23.1,18c0.7,0,1.4-0.6,1.4-1.4c0-0.7-0.6-1.4-1.4-1.4
			c-0.7,0-1.4,0.6-1.4,1.4C21.7,17.4,22.3,18,23.1,18"/>
	</g>
	<g>
		<defs>
			<rect id="SVGID_211_" x="0.6" y="1.3" width="140.5" height="37.9"/>
		</defs>
		<clipPath id="SVGID_14_">
			<use xlink:href="#SVGID_211_"  overflow="visible"/>
		</clipPath>
		<path clip-path="url(#SVGID_14_)" fill="#033885" d="M19.9,16.2c0.7,0,1.4-0.6,1.4-1.4s-0.6-1.4-1.4-1.4c-0.7,0-1.4,0.6-1.4,1.4
			C18.5,15.5,19.2,16.2,19.9,16.2"/>
	</g>
	<g>
		<defs>
			<rect id="SVGID_213_" x="0.6" y="1.3" width="140.5" height="37.9"/>
		</defs>
		<clipPath id="SVGID_15_">
			<use xlink:href="#SVGID_213_"  overflow="visible"/>
		</clipPath>
		<path clip-path="url(#SVGID_15_)" fill="#033885" d="M16.8,14.3c0.7,0,1.4-0.6,1.4-1.4c0-0.7-0.6-1.4-1.4-1.4s-1.4,0.6-1.4,1.4
			C15.4,13.7,16,14.3,16.8,14.3"/>
	</g>
	<g>
		<defs>
			<rect id="SVGID_215_" x="0.6" y="1.3" width="140.5" height="37.9"/>
		</defs>
		<clipPath id="SVGID_16_">
			<use xlink:href="#SVGID_215_"  overflow="visible"/>
		</clipPath>
		<path clip-path="url(#SVGID_16_)" fill="#033885" d="M13.6,12c0.6,0,0.9-0.4,0.9-0.9s-0.4-0.9-0.9-0.9s-0.9,0.4-0.9,0.9
			C12.7,11.6,13.2,12,13.6,12"/>
	</g>
	<g>
		<defs>
			<rect id="SVGID_217_" x="0.6" y="1.3" width="140.5" height="37.9"/>
		</defs>
		<clipPath id="SVGID_17_">
			<use xlink:href="#SVGID_217_"  overflow="visible"/>
		</clipPath>
		<path clip-path="url(#SVGID_17_)" fill="#033885" d="M10.5,10c0.4,0,0.7-0.4,0.7-0.7c0-0.4-0.4-0.7-0.7-0.7
			c-0.4,0-0.7,0.4-0.7,0.7C9.8,9.6,10.1,10,10.5,10"/>
	</g>
	<g>
		<defs>
			<rect id="SVGID_219_" x="0.6" y="1.3" width="140.5" height="37.9"/>
		</defs>
		<clipPath id="SVGID_18_">
			<use xlink:href="#SVGID_219_"  overflow="visible"/>
		</clipPath>
		<path clip-path="url(#SVGID_18_)" fill="#033885" d="M7.4,8C7.7,8,8,7.7,8,7.4c0-0.3-0.3-0.6-0.6-0.6S6.9,7.1,6.9,7.4
			C6.9,7.7,7.1,8,7.4,8"/>
	</g>
	<g>
		<defs>
			<rect id="SVGID_221_" x="0.6" y="1.3" width="140.5" height="37.9"/>
		</defs>
		<clipPath id="SVGID_19_">
			<use xlink:href="#SVGID_221_"  overflow="visible"/>
		</clipPath>
		<path clip-path="url(#SVGID_19_)" fill="#033885" d="M26.2,15.7c0.6,0,0.9-0.4,0.9-0.9s-0.4-0.9-0.9-0.9s-0.9,0.4-0.9,0.9
			C25.3,15.3,25.7,15.7,26.2,15.7"/>
	</g>
	<g>
		<defs>
			<rect id="SVGID_223_" x="0.6" y="1.3" width="140.5" height="37.9"/>
		</defs>
		<clipPath id="SVGID_20_">
			<use xlink:href="#SVGID_223_"  overflow="visible"/>
		</clipPath>
		<path clip-path="url(#SVGID_20_)" fill="#033885" d="M23.1,13.9c0.6,0,0.9-0.4,0.9-0.9S23.6,12,23.1,12c-0.6,0-0.9,0.4-0.9,0.9
			C22.1,13.4,22.6,13.9,23.1,13.9"/>
	</g>
	<g>
		<defs>
			<rect id="SVGID_225_" x="0.6" y="1.3" width="140.5" height="37.9"/>
		</defs>
		<clipPath id="SVGID_21_">
			<use xlink:href="#SVGID_225_"  overflow="visible"/>
		</clipPath>
		<path clip-path="url(#SVGID_21_)" fill="#033885" d="M19.9,12c0.6,0,0.9-0.4,0.9-0.9s-0.4-0.9-0.9-0.9c-0.6,0-0.9,0.4-0.9,0.9
			C19,11.6,19.5,12,19.9,12"/>
	</g>
	<g>
		<defs>
			<rect id="SVGID_227_" x="0.6" y="1.3" width="140.5" height="37.9"/>
		</defs>
		<clipPath id="SVGID_22_">
			<use xlink:href="#SVGID_227_"  overflow="visible"/>
		</clipPath>
		<path clip-path="url(#SVGID_22_)" fill="#033885" d="M16.8,10.2c0.6,0,0.9-0.4,0.9-0.9s-0.4-0.9-0.9-0.9s-0.9,0.4-0.9,0.9
			S16.3,10.2,16.8,10.2"/>
	</g>
	<g>
		<defs>
			<rect id="SVGID_229_" x="0.6" y="1.3" width="140.5" height="37.9"/>
		</defs>
		<clipPath id="SVGID_23_">
			<use xlink:href="#SVGID_229_"  overflow="visible"/>
		</clipPath>
		<path clip-path="url(#SVGID_23_)" fill="#033885" d="M13.6,8.1c0.4,0,0.7-0.4,0.7-0.7c0-0.4-0.4-0.7-0.7-0.7
			c-0.4,0-0.7,0.4-0.7,0.7C13,7.8,13.3,8.1,13.6,8.1"/>
	</g>
	<g>
		<defs>
			<rect id="SVGID_231_" x="0.6" y="1.3" width="140.5" height="37.9"/>
		</defs>
		<clipPath id="SVGID_24_">
			<use xlink:href="#SVGID_231_"  overflow="visible"/>
		</clipPath>
		<path clip-path="url(#SVGID_24_)" fill="#033885" d="M10.5,6.1c0.3,0,0.6-0.3,0.6-0.6C11,5.3,10.8,5,10.5,5
			c-0.3,0-0.6,0.3-0.6,0.6C10,5.8,10.2,6.1,10.5,6.1"/>
	</g>
	<g>
		<defs>
			<rect id="SVGID_233_" x="0.6" y="1.3" width="140.5" height="37.9"/>
		</defs>
		<clipPath id="SVGID_25_">
			<use xlink:href="#SVGID_233_"  overflow="visible"/>
		</clipPath>
		<path clip-path="url(#SVGID_25_)" fill="#033885" d="M29.3,13.7c0.4,0,0.7-0.4,0.7-0.7c0-0.4-0.4-0.7-0.7-0.7
			c-0.4,0-0.7,0.4-0.7,0.7C28.6,13.3,29,13.7,29.3,13.7"/>
	</g>
	<g>
		<defs>
			<rect id="SVGID_235_" x="0.6" y="1.3" width="140.5" height="37.9"/>
		</defs>
		<clipPath id="SVGID_26_">
			<use xlink:href="#SVGID_235_"  overflow="visible"/>
		</clipPath>
		<path clip-path="url(#SVGID_26_)" fill="#033885" d="M26.2,11.8c0.4,0,0.7-0.4,0.7-0.7c0-0.4-0.4-0.7-0.7-0.7
			c-0.4,0-0.7,0.4-0.7,0.7C25.5,11.5,25.8,11.8,26.2,11.8"/>
	</g>
	<g>
		<defs>
			<rect id="SVGID_237_" x="0.6" y="1.3" width="140.5" height="37.9"/>
		</defs>
		<clipPath id="SVGID_27_">
			<use xlink:href="#SVGID_237_"  overflow="visible"/>
		</clipPath>
		<path clip-path="url(#SVGID_27_)" fill="#033885" d="M23.1,10c0.4,0,0.7-0.4,0.7-0.7c0-0.4-0.4-0.7-0.7-0.7
			c-0.4,0-0.7,0.4-0.7,0.7C22.3,9.6,22.7,10,23.1,10"/>
	</g>
	<g>
		<defs>
			<rect id="SVGID_239_" x="0.6" y="1.3" width="140.5" height="37.9"/>
		</defs>
		<clipPath id="SVGID_28_">
			<use xlink:href="#SVGID_239_"  overflow="visible"/>
		</clipPath>
		<path clip-path="url(#SVGID_28_)" fill="#033885" d="M19.9,8.1c0.4,0,0.7-0.4,0.7-0.7c0-0.4-0.4-0.7-0.7-0.7
			c-0.4,0-0.7,0.4-0.7,0.7C19.2,7.8,19.5,8.1,19.9,8.1"/>
	</g>
	<g>
		<defs>
			<rect id="SVGID_241_" x="0.6" y="1.3" width="140.5" height="37.9"/>
		</defs>
		<clipPath id="SVGID_29_">
			<use xlink:href="#SVGID_241_"  overflow="visible"/>
		</clipPath>
		<path clip-path="url(#SVGID_29_)" fill="#033885" d="M16.8,6.3c0.4,0,0.7-0.4,0.7-0.7c0-0.4-0.4-0.7-0.7-0.7
			c-0.4,0-0.7,0.4-0.7,0.7C16,5.9,16.4,6.3,16.8,6.3"/>
	</g>
	<g>
		<defs>
			<rect id="SVGID_243_" x="0.6" y="1.3" width="140.5" height="37.9"/>
		</defs>
		<clipPath id="SVGID_30_">
			<use xlink:href="#SVGID_243_"  overflow="visible"/>
		</clipPath>
		<path clip-path="url(#SVGID_30_)" fill="#033885" d="M13.6,4.3c0.3,0,0.6-0.3,0.6-0.6c0-0.3-0.3-0.6-0.6-0.6
			c-0.3,0-0.6,0.3-0.6,0.6C13.2,4,13.4,4.3,13.6,4.3"/>
	</g>
	<g>
		<defs>
			<rect id="SVGID_245_" x="0.6" y="1.3" width="140.5" height="37.9"/>
		</defs>
		<clipPath id="SVGID_31_">
			<use xlink:href="#SVGID_245_"  overflow="visible"/>
		</clipPath>
		<path clip-path="url(#SVGID_31_)" fill="#033885" d="M32.5,11.7c0.3,0,0.6-0.3,0.6-0.6c0-0.3-0.3-0.6-0.6-0.6s-0.6,0.3-0.6,0.6
			S32.2,11.7,32.5,11.7"/>
	</g>
	<g>
		<defs>
			<rect id="SVGID_247_" x="0.6" y="1.3" width="140.5" height="37.9"/>
		</defs>
		<clipPath id="SVGID_32_">
			<use xlink:href="#SVGID_247_"  overflow="visible"/>
		</clipPath>
		<path clip-path="url(#SVGID_32_)" fill="#033885" d="M29.3,9.8c0.3,0,0.6-0.3,0.6-0.6s-0.3-0.6-0.6-0.6S28.8,9,28.8,9.2
			S29.1,9.8,29.3,9.8"/>
	</g>
	<g>
		<defs>
			<rect id="SVGID_249_" x="0.6" y="1.3" width="140.5" height="37.9"/>
		</defs>
		<clipPath id="SVGID_33_">
			<use xlink:href="#SVGID_249_"  overflow="visible"/>
		</clipPath>
		<path clip-path="url(#SVGID_33_)" fill="#033885" d="M26.2,8c0.3,0,0.6-0.3,0.6-0.6c0-0.3-0.3-0.6-0.6-0.6s-0.6,0.3-0.6,0.6
			C25.7,7.7,25.9,8,26.2,8"/>
	</g>
	<g>
		<defs>
			<rect id="SVGID_251_" x="0.6" y="1.3" width="140.5" height="37.9"/>
		</defs>
		<clipPath id="SVGID_34_">
			<use xlink:href="#SVGID_251_"  overflow="visible"/>
		</clipPath>
		<path clip-path="url(#SVGID_34_)" fill="#033885" d="M23.1,6.1c0.3,0,0.6-0.3,0.6-0.6c0-0.3-0.3-0.6-0.6-0.6
			c-0.3,0-0.6,0.3-0.6,0.6C22.5,5.8,22.8,6.1,23.1,6.1"/>
	</g>
	<g>
		<defs>
			<rect id="SVGID_253_" x="0.6" y="1.3" width="140.5" height="37.9"/>
		</defs>
		<clipPath id="SVGID_35_">
			<use xlink:href="#SVGID_253_"  overflow="visible"/>
		</clipPath>
		<path clip-path="url(#SVGID_35_)" fill="#033885" d="M19.9,4.3c0.3,0,0.6-0.3,0.6-0.6c0-0.3-0.3-0.6-0.6-0.6
			c-0.3,0-0.6,0.3-0.6,0.6C19.5,4,19.6,4.3,19.9,4.3"/>
	</g>
	<g>
		<defs>
			<rect id="SVGID_255_" x="0.6" y="1.3" width="140.5" height="37.9"/>
		</defs>
		<clipPath id="SVGID_36_">
			<use xlink:href="#SVGID_255_"  overflow="visible"/>
		</clipPath>
		<path clip-path="url(#SVGID_36_)" fill="#033885" d="M16.8,2.4c0.3,0,0.6-0.3,0.6-0.6c0-0.3-0.3-0.6-0.6-0.6s-0.6,0.3-0.6,0.6
			C16.3,2.1,16.5,2.4,16.8,2.4"/>
	</g>
	<g>
		<defs>
			<rect id="SVGID_257_" x="0.6" y="1.3" width="140.5" height="37.9"/>
		</defs>
		<clipPath id="SVGID_37_">
			<use xlink:href="#SVGID_257_"  overflow="visible"/>
		</clipPath>
		<path clip-path="url(#SVGID_37_)" fill="#033885" d="M16.8,25.4c0.7,0,1.4-0.6,1.4-1.4c0-0.7-0.6-1.4-1.4-1.4s-1.4,0.6-1.4,1.4
			C15.4,24.8,16,25.4,16.8,25.4"/>
	</g>
	<g>
		<defs>
			<rect id="SVGID_259_" x="0.6" y="1.3" width="140.5" height="37.9"/>
		</defs>
		<clipPath id="SVGID_38_">
			<use xlink:href="#SVGID_259_"  overflow="visible"/>
		</clipPath>
		<path clip-path="url(#SVGID_38_)" fill="#033885" d="M19.9,23.6c0.7,0,1.4-0.6,1.4-1.4s-0.6-1.4-1.4-1.4c-0.7,0-1.4,0.6-1.4,1.4
			C18.5,22.9,19.2,23.6,19.9,23.6"/>
	</g>
	<g>
		<defs>
			<rect id="SVGID_261_" x="0.6" y="1.3" width="140.5" height="37.9"/>
		</defs>
		<clipPath id="SVGID_39_">
			<use xlink:href="#SVGID_261_"  overflow="visible"/>
		</clipPath>
		<path clip-path="url(#SVGID_39_)" fill="#033885" d="M13.6,23.6c0.7,0,1.4-0.6,1.4-1.4s-0.6-1.4-1.4-1.4s-1.4,0.6-1.4,1.4
			C12.2,22.9,12.9,23.6,13.6,23.6"/>
	</g>
	<g>
		<defs>
			<rect id="SVGID_263_" x="0.6" y="1.3" width="140.5" height="37.9"/>
		</defs>
		<clipPath id="SVGID_40_">
			<use xlink:href="#SVGID_263_"  overflow="visible"/>
		</clipPath>
		<path clip-path="url(#SVGID_40_)" fill="#033885" d="M23.1,21.7c0.7,0,1.4-0.6,1.4-1.4c0-0.7-0.6-1.4-1.4-1.4
			c-0.7,0-1.4,0.6-1.4,1.4C21.7,21.1,22.3,21.7,23.1,21.7"/>
	</g>
	<g>
		<defs>
			<rect id="SVGID_265_" x="0.6" y="1.3" width="140.5" height="37.9"/>
		</defs>
		<clipPath id="SVGID_41_">
			<use xlink:href="#SVGID_265_"  overflow="visible"/>
		</clipPath>
		<path clip-path="url(#SVGID_41_)" fill="#033885" d="M10.5,21.7c0.7,0,1.4-0.6,1.4-1.4c0-0.7-0.6-1.4-1.4-1.4s-1.4,0.6-1.4,1.4
			C9.1,21.1,9.7,21.7,10.5,21.7"/>
	</g>
	<g>
		<defs>
			<rect id="SVGID_267_" x="0.6" y="1.3" width="140.5" height="37.9"/>
		</defs>
		<clipPath id="SVGID_42_">
			<use xlink:href="#SVGID_267_"  overflow="visible"/>
		</clipPath>
		<path clip-path="url(#SVGID_42_)" fill="#033885" d="M26.2,19.4c0.6,0,0.9-0.4,0.9-0.9s-0.4-0.9-0.9-0.9s-0.9,0.4-0.9,0.9
			C25.3,19,25.7,19.4,26.2,19.4"/>
	</g>
	<g>
		<defs>
			<rect id="SVGID_269_" x="0.6" y="1.3" width="140.5" height="37.9"/>
		</defs>
		<clipPath id="SVGID_43_">
			<use xlink:href="#SVGID_269_"  overflow="visible"/>
		</clipPath>
		<path clip-path="url(#SVGID_43_)" fill="#033885" d="M7.4,19.4c0.6,0,0.9-0.4,0.9-0.9S8,17.6,7.4,17.6s-0.9,0.4-0.9,0.9
			C6.5,19,6.9,19.4,7.4,19.4"/>
	</g>
	<g>
		<defs>
			<rect id="SVGID_271_" x="0.6" y="1.3" width="140.5" height="37.9"/>
		</defs>
		<clipPath id="SVGID_44_">
			<use xlink:href="#SVGID_271_"  overflow="visible"/>
		</clipPath>
		<path clip-path="url(#SVGID_44_)" fill="#033885" d="M29.3,17.4c0.4,0,0.7-0.4,0.7-0.7c0-0.4-0.4-0.7-0.7-0.7
			c-0.4,0-0.7,0.4-0.7,0.7C28.6,17,29,17.4,29.3,17.4"/>
	</g>
	<g>
		<defs>
			<rect id="SVGID_273_" x="0.6" y="1.3" width="140.5" height="37.9"/>
		</defs>
		<clipPath id="SVGID_45_">
			<use xlink:href="#SVGID_273_"  overflow="visible"/>
		</clipPath>
		<path clip-path="url(#SVGID_45_)" fill="#033885" d="M4.3,17.4C4.7,17.4,5,17,5,16.6c0-0.4-0.4-0.7-0.7-0.7
			c-0.4,0-0.7,0.4-0.7,0.7C3.6,17,3.8,17.4,4.3,17.4"/>
	</g>
	<g>
		<defs>
			<rect id="SVGID_275_" x="0.6" y="1.3" width="140.5" height="37.9"/>
		</defs>
		<clipPath id="SVGID_46_">
			<use xlink:href="#SVGID_275_"  overflow="visible"/>
		</clipPath>
		<path clip-path="url(#SVGID_46_)" fill="#033885" d="M32.5,15.3c0.3,0,0.6-0.3,0.6-0.6c0-0.3-0.3-0.6-0.6-0.6s-0.6,0.3-0.6,0.6
			S32.2,15.3,32.5,15.3"/>
	</g>
	<g>
		<defs>
			<rect id="SVGID_277_" x="0.6" y="1.3" width="140.5" height="37.9"/>
		</defs>
		<clipPath id="SVGID_47_">
			<use xlink:href="#SVGID_277_"  overflow="visible"/>
		</clipPath>
		<path clip-path="url(#SVGID_47_)" fill="#033885" d="M1.1,15.3c0.3,0,0.6-0.3,0.6-0.6c0-0.3-0.3-0.6-0.6-0.6s-0.6,0.3-0.6,0.6
			S0.9,15.3,1.1,15.3"/>
	</g>
	<g>
		<defs>
			<rect id="SVGID_279_" x="0.6" y="1.3" width="140.5" height="37.9"/>
		</defs>
		<clipPath id="SVGID_48_">
			<use xlink:href="#SVGID_279_"  overflow="visible"/>
		</clipPath>
		<path clip-path="url(#SVGID_48_)" fill="#033885" d="M16.8,29.1c0.7,0,1.4-0.6,1.4-1.4c0-0.7-0.6-1.4-1.4-1.4s-1.4,0.6-1.4,1.4
			C15.4,28.5,16,29.1,16.8,29.1"/>
	</g>
	<g>
		<defs>
			<rect id="SVGID_281_" x="0.6" y="1.3" width="140.5" height="37.9"/>
		</defs>
		<clipPath id="SVGID_49_">
			<use xlink:href="#SVGID_281_"  overflow="visible"/>
		</clipPath>
		<path clip-path="url(#SVGID_49_)" fill="#033885" d="M19.9,27.3c0.7,0,1.4-0.6,1.4-1.4s-0.6-1.4-1.4-1.4c-0.7,0-1.4,0.6-1.4,1.4
			C18.5,26.6,19.2,27.3,19.9,27.3"/>
	</g>
	<g>
		<defs>
			<rect id="SVGID_283_" x="0.6" y="1.3" width="140.5" height="37.9"/>
		</defs>
		<clipPath id="SVGID_50_">
			<use xlink:href="#SVGID_283_"  overflow="visible"/>
		</clipPath>
		<path clip-path="url(#SVGID_50_)" fill="#033885" d="M13.6,27.3c0.7,0,1.4-0.6,1.4-1.4s-0.6-1.4-1.4-1.4s-1.4,0.6-1.4,1.4
			C12.2,26.6,12.9,27.3,13.6,27.3"/>
	</g>
	<g>
		<defs>
			<rect id="SVGID_285_" x="0.6" y="1.3" width="140.5" height="37.9"/>
		</defs>
		<clipPath id="SVGID_51_">
			<use xlink:href="#SVGID_285_"  overflow="visible"/>
		</clipPath>
		<path clip-path="url(#SVGID_51_)" fill="#033885" d="M23.1,25.4c0.7,0,1.4-0.6,1.4-1.4c0-0.7-0.6-1.4-1.4-1.4
			c-0.7,0-1.4,0.6-1.4,1.4C21.7,24.8,22.3,25.4,23.1,25.4"/>
	</g>
	<g>
		<defs>
			<rect id="SVGID_287_" x="0.6" y="1.3" width="140.5" height="37.9"/>
		</defs>
		<clipPath id="SVGID_52_">
			<use xlink:href="#SVGID_287_"  overflow="visible"/>
		</clipPath>
		<path clip-path="url(#SVGID_52_)" fill="#033885" d="M10.5,25.4c0.7,0,1.4-0.6,1.4-1.4c0-0.7-0.6-1.4-1.4-1.4S9.1,23.3,9.1,24
			C9.1,24.8,9.7,25.4,10.5,25.4"/>
	</g>
	<g>
		<defs>
			<rect id="SVGID_289_" x="0.6" y="1.3" width="140.5" height="37.9"/>
		</defs>
		<clipPath id="SVGID_53_">
			<use xlink:href="#SVGID_289_"  overflow="visible"/>
		</clipPath>
		<path clip-path="url(#SVGID_53_)" fill="#033885" d="M26.2,23.1c0.6,0,0.9-0.4,0.9-0.9s-0.4-0.9-0.9-0.9s-0.9,0.4-0.9,0.9
			C25.3,22.7,25.7,23.1,26.2,23.1"/>
	</g>
	<g>
		<defs>
			<rect id="SVGID_291_" x="0.6" y="1.3" width="140.5" height="37.9"/>
		</defs>
		<clipPath id="SVGID_54_">
			<use xlink:href="#SVGID_291_"  overflow="visible"/>
		</clipPath>
		<path clip-path="url(#SVGID_54_)" fill="#033885" d="M7.4,23.1c0.6,0,0.9-0.4,0.9-0.9S8,21.3,7.4,21.3s-0.9,0.4-0.9,0.9
			C6.5,22.7,6.9,23.1,7.4,23.1"/>
	</g>
	<g>
		<defs>
			<rect id="SVGID_293_" x="0.6" y="1.3" width="140.5" height="37.9"/>
		</defs>
		<clipPath id="SVGID_55_">
			<use xlink:href="#SVGID_293_"  overflow="visible"/>
		</clipPath>
		<path clip-path="url(#SVGID_55_)" fill="#033885" d="M29.3,21c0.4,0,0.6-0.3,0.6-0.6c0-0.4-0.3-0.6-0.6-0.6s-0.6,0.3-0.6,0.6
			C28.7,20.7,29,21,29.3,21"/>
	</g>
	<g>
		<defs>
			<rect id="SVGID_295_" x="0.6" y="1.3" width="140.5" height="37.9"/>
		</defs>
		<clipPath id="SVGID_56_">
			<use xlink:href="#SVGID_295_"  overflow="visible"/>
		</clipPath>
		<path clip-path="url(#SVGID_56_)" fill="#033885" d="M4.3,21.1c0.4,0,0.7-0.4,0.7-0.7c0-0.4-0.4-0.7-0.7-0.7
			c-0.4,0-0.7,0.4-0.7,0.7C3.6,20.7,3.8,21.1,4.3,21.1"/>
	</g>
	<g>
		<defs>
			<rect id="SVGID_297_" x="0.6" y="1.3" width="140.5" height="37.9"/>
		</defs>
		<clipPath id="SVGID_57_">
			<use xlink:href="#SVGID_297_"  overflow="visible"/>
		</clipPath>
		<path clip-path="url(#SVGID_57_)" fill="#033885" d="M32.5,19c0.3,0,0.6-0.3,0.6-0.6c0-0.3-0.3-0.6-0.6-0.6s-0.6,0.3-0.6,0.6
			C31.9,18.8,32.2,19,32.5,19"/>
	</g>
	<g>
		<defs>
			<rect id="SVGID_299_" x="0.6" y="1.3" width="140.5" height="37.9"/>
		</defs>
		<clipPath id="SVGID_58_">
			<use xlink:href="#SVGID_299_"  overflow="visible"/>
		</clipPath>
		<path clip-path="url(#SVGID_58_)" fill="#033885" d="M1.1,19c0.3,0,0.6-0.3,0.6-0.6c0-0.3-0.3-0.6-0.6-0.6s-0.6,0.3-0.6,0.6
			C0.6,18.8,0.9,19,1.1,19"/>
	</g>
	<g>
		<defs>
			<rect id="SVGID_301_" x="0.6" y="1.3" width="140.5" height="37.9"/>
		</defs>
		<clipPath id="SVGID_59_">
			<use xlink:href="#SVGID_301_"  overflow="visible"/>
		</clipPath>
		<path clip-path="url(#SVGID_59_)" fill="#033885" d="M16.8,32.3c0.6,0,0.9-0.4,0.9-0.9s-0.4-0.9-0.9-0.9s-0.9,0.4-0.9,0.9
			S16.3,32.3,16.8,32.3"/>
	</g>
	<g>
		<defs>
			<rect id="SVGID_303_" x="0.6" y="1.3" width="140.5" height="37.9"/>
		</defs>
		<clipPath id="SVGID_60_">
			<use xlink:href="#SVGID_303_"  overflow="visible"/>
		</clipPath>
		<path clip-path="url(#SVGID_60_)" fill="#033885" d="M19.9,30.4c0.6,0,0.9-0.4,0.9-0.9c0-0.6-0.4-0.9-0.9-0.9
			c-0.6,0-0.9,0.4-0.9,0.9C19,30.1,19.5,30.4,19.9,30.4"/>
	</g>
	<g>
		<defs>
			<rect id="SVGID_305_" x="0.6" y="1.3" width="140.5" height="37.9"/>
		</defs>
		<clipPath id="SVGID_61_">
			<use xlink:href="#SVGID_305_"  overflow="visible"/>
		</clipPath>
		<path clip-path="url(#SVGID_61_)" fill="#033885" d="M13.6,30.4c0.6,0,0.9-0.4,0.9-0.9c0-0.6-0.4-0.9-0.9-0.9s-0.9,0.4-0.9,0.9
			C12.7,30.1,13.2,30.4,13.6,30.4"/>
	</g>
	<g>
		<defs>
			<rect id="SVGID_307_" x="0.6" y="1.3" width="140.5" height="37.9"/>
		</defs>
		<clipPath id="SVGID_62_">
			<use xlink:href="#SVGID_307_"  overflow="visible"/>
		</clipPath>
		<path clip-path="url(#SVGID_62_)" fill="#033885" d="M23.1,28.6c0.6,0,0.9-0.4,0.9-0.9s-0.4-0.9-0.9-0.9c-0.6,0-0.9,0.4-0.9,0.9
			S22.6,28.6,23.1,28.6"/>
	</g>
	<g>
		<defs>
			<rect id="SVGID_309_" x="0.6" y="1.3" width="140.5" height="37.9"/>
		</defs>
		<clipPath id="SVGID_63_">
			<use xlink:href="#SVGID_309_"  overflow="visible"/>
		</clipPath>
		<path clip-path="url(#SVGID_63_)" fill="#033885" d="M10.5,28.6c0.6,0,0.9-0.4,0.9-0.9s-0.4-0.9-0.9-0.9s-0.9,0.4-0.9,0.9
			S10,28.6,10.5,28.6"/>
	</g>
	<g>
		<defs>
			<rect id="SVGID_311_" x="0.6" y="1.3" width="140.5" height="37.9"/>
		</defs>
		<clipPath id="SVGID_64_">
			<use xlink:href="#SVGID_311_"  overflow="visible"/>
		</clipPath>
		<path clip-path="url(#SVGID_64_)" fill="#033885" d="M26.2,26.8c0.6,0,0.9-0.4,0.9-0.9S26.8,25,26.2,25s-0.9,0.4-0.9,0.9
			C25.3,26.4,25.7,26.8,26.2,26.8"/>
	</g>
	<g>
		<defs>
			<rect id="SVGID_313_" x="0.6" y="1.3" width="140.5" height="37.9"/>
		</defs>
		<clipPath id="SVGID_65_">
			<use xlink:href="#SVGID_313_"  overflow="visible"/>
		</clipPath>
		<path clip-path="url(#SVGID_65_)" fill="#033885" d="M7.4,26.8c0.6,0,0.9-0.4,0.9-0.9S8,25,7.4,25s-0.9,0.4-0.9,0.9
			C6.5,26.4,6.9,26.8,7.4,26.8"/>
	</g>
	<g>
		<defs>
			<rect id="SVGID_315_" x="0.6" y="1.3" width="140.5" height="37.9"/>
		</defs>
		<clipPath id="SVGID_66_">
			<use xlink:href="#SVGID_315_"  overflow="visible"/>
		</clipPath>
		<path clip-path="url(#SVGID_66_)" fill="#033885" d="M29.3,24.7c0.4,0,0.7-0.4,0.7-0.7c0-0.4-0.4-0.7-0.7-0.7
			c-0.4,0-0.7,0.4-0.7,0.7C28.6,24.4,29,24.7,29.3,24.7"/>
	</g>
	<g>
		<defs>
			<rect id="SVGID_317_" x="0.6" y="1.3" width="140.5" height="37.9"/>
		</defs>
		<clipPath id="SVGID_67_">
			<use xlink:href="#SVGID_317_"  overflow="visible"/>
		</clipPath>
		<path clip-path="url(#SVGID_67_)" fill="#033885" d="M4.3,24.7c0.4,0,0.7-0.4,0.7-0.7c0-0.4-0.4-0.7-0.7-0.7
			c-0.4,0-0.7,0.4-0.7,0.7C3.6,24.4,3.8,24.7,4.3,24.7"/>
	</g>
	<g>
		<defs>
			<rect id="SVGID_319_" x="0.6" y="1.3" width="140.5" height="37.9"/>
		</defs>
		<clipPath id="SVGID_68_">
			<use xlink:href="#SVGID_319_"  overflow="visible"/>
		</clipPath>
		<path clip-path="url(#SVGID_68_)" fill="#033885" d="M32.5,22.7c0.3,0,0.6-0.3,0.6-0.6c0-0.3-0.3-0.6-0.6-0.6s-0.6,0.3-0.6,0.6
			C31.9,22.5,32.2,22.7,32.5,22.7"/>
	</g>
	<g>
		<defs>
			<rect id="SVGID_321_" x="0.6" y="1.3" width="140.5" height="37.9"/>
		</defs>
		<clipPath id="SVGID_69_">
			<use xlink:href="#SVGID_321_"  overflow="visible"/>
		</clipPath>
		<path clip-path="url(#SVGID_69_)" fill="#033885" d="M1.1,22.7c0.3,0,0.6-0.3,0.6-0.6c0-0.3-0.3-0.6-0.6-0.6s-0.6,0.3-0.6,0.6
			C0.6,22.5,0.9,22.7,1.1,22.7"/>
	</g>
	<g>
		<defs>
			<rect id="SVGID_323_" x="0.6" y="1.3" width="140.5" height="37.9"/>
		</defs>
		<clipPath id="SVGID_70_">
			<use xlink:href="#SVGID_323_"  overflow="visible"/>
		</clipPath>
		<path clip-path="url(#SVGID_70_)" fill="#033885" d="M16.8,35.8c0.4,0,0.7-0.4,0.7-0.7c0-0.4-0.4-0.7-0.7-0.7
			c-0.4,0-0.7,0.4-0.7,0.7C16,35.5,16.4,35.8,16.8,35.8"/>
	</g>
	<g>
		<defs>
			<rect id="SVGID_325_" x="0.6" y="1.3" width="140.5" height="37.9"/>
		</defs>
		<clipPath id="SVGID_71_">
			<use xlink:href="#SVGID_325_"  overflow="visible"/>
		</clipPath>
		<path clip-path="url(#SVGID_71_)" fill="#033885" d="M19.9,33.9c0.4,0,0.7-0.4,0.7-0.7c0-0.4-0.4-0.7-0.7-0.7
			c-0.4,0-0.7,0.4-0.7,0.7C19.2,33.6,19.5,33.9,19.9,33.9"/>
	</g>
	<g>
		<defs>
			<rect id="SVGID_327_" x="0.6" y="1.3" width="140.5" height="37.9"/>
		</defs>
		<clipPath id="SVGID_72_">
			<use xlink:href="#SVGID_327_"  overflow="visible"/>
		</clipPath>
		<path clip-path="url(#SVGID_72_)" fill="#033885" d="M13.6,33.9c0.4,0,0.7-0.4,0.7-0.7c0-0.4-0.4-0.7-0.7-0.7
			c-0.4,0-0.7,0.4-0.7,0.7C12.9,33.6,13.3,33.9,13.6,33.9"/>
	</g>
	<g>
		<defs>
			<rect id="SVGID_329_" x="0.6" y="1.3" width="140.5" height="37.9"/>
		</defs>
		<clipPath id="SVGID_73_">
			<use xlink:href="#SVGID_329_"  overflow="visible"/>
		</clipPath>
		<path clip-path="url(#SVGID_73_)" fill="#033885" d="M23.1,32.1c0.4,0,0.7-0.4,0.7-0.7c0-0.4-0.4-0.7-0.7-0.7
			c-0.4,0-0.7,0.4-0.7,0.7C22.3,31.8,22.7,32.1,23.1,32.1"/>
	</g>
	<g>
		<defs>
			<rect id="SVGID_331_" x="0.6" y="1.3" width="140.5" height="37.9"/>
		</defs>
		<clipPath id="SVGID_74_">
			<use xlink:href="#SVGID_331_"  overflow="visible"/>
		</clipPath>
		<path clip-path="url(#SVGID_74_)" fill="#033885" d="M10.5,32.1c0.4,0,0.7-0.4,0.7-0.7c0-0.4-0.4-0.7-0.7-0.7
			c-0.4,0-0.7,0.4-0.7,0.7C9.8,31.8,10.1,32.1,10.5,32.1"/>
	</g>
	<g>
		<defs>
			<rect id="SVGID_333_" x="0.6" y="1.3" width="140.5" height="37.9"/>
		</defs>
		<clipPath id="SVGID_75_">
			<use xlink:href="#SVGID_333_"  overflow="visible"/>
		</clipPath>
		<path clip-path="url(#SVGID_75_)" fill="#033885" d="M26.2,30.2c0.4,0,0.7-0.4,0.7-0.7c0-0.4-0.4-0.7-0.7-0.7
			c-0.4,0-0.7,0.4-0.7,0.7C25.5,30,25.8,30.2,26.2,30.2"/>
	</g>
	<g>
		<defs>
			<rect id="SVGID_335_" x="0.6" y="1.3" width="140.5" height="37.9"/>
		</defs>
		<clipPath id="SVGID_76_">
			<use xlink:href="#SVGID_335_"  overflow="visible"/>
		</clipPath>
		<path clip-path="url(#SVGID_76_)" fill="#033885" d="M7.4,30.2c0.4,0,0.7-0.4,0.7-0.7c0-0.4-0.4-0.7-0.7-0.7
			c-0.4,0-0.7,0.4-0.7,0.7C6.7,30,7,30.2,7.4,30.2"/>
	</g>
	<g>
		<defs>
			<rect id="SVGID_337_" x="0.6" y="1.3" width="140.5" height="37.9"/>
		</defs>
		<clipPath id="SVGID_77_">
			<use xlink:href="#SVGID_337_"  overflow="visible"/>
		</clipPath>
		<path clip-path="url(#SVGID_77_)" fill="#033885" d="M29.3,28.4c0.4,0,0.7-0.4,0.7-0.7c0-0.4-0.4-0.7-0.7-0.7
			c-0.4,0-0.7,0.4-0.7,0.7C28.6,28.1,29,28.4,29.3,28.4"/>
	</g>
	<g>
		<defs>
			<rect id="SVGID_339_" x="0.6" y="1.3" width="140.5" height="37.9"/>
		</defs>
		<clipPath id="SVGID_78_">
			<use xlink:href="#SVGID_339_"  overflow="visible"/>
		</clipPath>
		<path clip-path="url(#SVGID_78_)" fill="#033885" d="M4.3,28.4C4.7,28.4,5,28,5,27.6c0-0.4-0.4-0.7-0.7-0.7
			c-0.4,0-0.7,0.4-0.7,0.7C3.6,28.1,3.8,28.4,4.3,28.4"/>
	</g>
	<g>
		<defs>
			<rect id="SVGID_341_" x="0.6" y="1.3" width="140.5" height="37.9"/>
		</defs>
		<clipPath id="SVGID_79_">
			<use xlink:href="#SVGID_341_"  overflow="visible"/>
		</clipPath>
		<path clip-path="url(#SVGID_79_)" fill="#033885" d="M32.5,26.4c0.3,0,0.6-0.3,0.6-0.6c0-0.3-0.3-0.6-0.6-0.6s-0.6,0.3-0.6,0.6
			C31.9,26.2,32.2,26.4,32.5,26.4"/>
	</g>
	<g>
		<defs>
			<rect id="SVGID_343_" x="0.6" y="1.3" width="140.5" height="37.9"/>
		</defs>
		<clipPath id="SVGID_80_">
			<use xlink:href="#SVGID_343_"  overflow="visible"/>
		</clipPath>
		<path clip-path="url(#SVGID_80_)" fill="#033885" d="M1.1,26.4c0.3,0,0.6-0.3,0.6-0.6c0-0.3-0.3-0.6-0.6-0.6s-0.6,0.3-0.6,0.6
			C0.6,26.2,0.9,26.4,1.1,26.4"/>
	</g>
	<g>
		<defs>
			<rect id="SVGID_345_" x="0.6" y="1.3" width="140.5" height="37.9"/>
		</defs>
		<clipPath id="SVGID_81_">
			<use xlink:href="#SVGID_345_"  overflow="visible"/>
		</clipPath>
		<path clip-path="url(#SVGID_81_)" fill="#033885" d="M16.8,39.3c0.3,0,0.6-0.3,0.6-0.6c0-0.3-0.3-0.6-0.6-0.6s-0.6,0.3-0.6,0.6
			C16.3,39,16.5,39.3,16.8,39.3"/>
	</g>
	<g>
		<defs>
			<rect id="SVGID_347_" x="0.6" y="1.3" width="140.5" height="37.9"/>
		</defs>
		<clipPath id="SVGID_82_">
			<use xlink:href="#SVGID_347_"  overflow="visible"/>
		</clipPath>
		<path clip-path="url(#SVGID_82_)" fill="#033885" d="M19.9,37.4c0.3,0,0.6-0.3,0.6-0.6c0-0.3-0.3-0.6-0.6-0.6
			c-0.3,0-0.6,0.3-0.6,0.6C19.5,37.2,19.6,37.4,19.9,37.4"/>
	</g>
	<g>
		<defs>
			<rect id="SVGID_349_" x="0.6" y="1.3" width="140.5" height="37.9"/>
		</defs>
		<clipPath id="SVGID_83_">
			<use xlink:href="#SVGID_349_"  overflow="visible"/>
		</clipPath>
		<path clip-path="url(#SVGID_83_)" fill="#033885" d="M13.6,37.4c0.3,0,0.6-0.3,0.6-0.6c0-0.3-0.3-0.6-0.6-0.6
			c-0.3,0-0.6,0.3-0.6,0.6C13.2,37.2,13.4,37.4,13.6,37.4"/>
	</g>
	<g>
		<defs>
			<rect id="SVGID_351_" x="0.6" y="1.3" width="140.5" height="37.9"/>
		</defs>
		<clipPath id="SVGID_84_">
			<use xlink:href="#SVGID_351_"  overflow="visible"/>
		</clipPath>
		<path clip-path="url(#SVGID_84_)" fill="#033885" d="M23.1,35.6c0.3,0,0.6-0.3,0.6-0.6s-0.3-0.6-0.6-0.6c-0.3,0-0.6,0.3-0.6,0.6
			S22.8,35.6,23.1,35.6"/>
	</g>
	<g>
		<defs>
			<rect id="SVGID_353_" x="0.6" y="1.3" width="140.5" height="37.9"/>
		</defs>
		<clipPath id="SVGID_85_">
			<use xlink:href="#SVGID_353_"  overflow="visible"/>
		</clipPath>
		<path clip-path="url(#SVGID_85_)" fill="#033885" d="M10.5,35.6c0.3,0,0.6-0.3,0.6-0.6s-0.3-0.6-0.6-0.6c-0.3,0-0.6,0.3-0.6,0.6
			S10.2,35.6,10.5,35.6"/>
	</g>
	<g>
		<defs>
			<rect id="SVGID_355_" x="0.6" y="1.3" width="140.5" height="37.9"/>
		</defs>
		<clipPath id="SVGID_86_">
			<use xlink:href="#SVGID_355_"  overflow="visible"/>
		</clipPath>
		<path clip-path="url(#SVGID_86_)" fill="#033885" d="M26.2,33.7c0.3,0,0.6-0.3,0.6-0.6c0-0.3-0.3-0.6-0.6-0.6s-0.6,0.3-0.6,0.6
			C25.7,33.5,25.9,33.7,26.2,33.7"/>
	</g>
	<g>
		<defs>
			<rect id="SVGID_357_" x="0.6" y="1.3" width="140.5" height="37.9"/>
		</defs>
		<clipPath id="SVGID_87_">
			<use xlink:href="#SVGID_357_"  overflow="visible"/>
		</clipPath>
		<path clip-path="url(#SVGID_87_)" fill="#033885" d="M7.4,33.7c0.3,0,0.6-0.3,0.6-0.6c0-0.3-0.3-0.6-0.6-0.6s-0.6,0.3-0.6,0.6
			C6.9,33.5,7.1,33.7,7.4,33.7"/>
	</g>
	<g>
		<defs>
			<rect id="SVGID_359_" x="0.6" y="1.3" width="140.5" height="37.9"/>
		</defs>
		<clipPath id="SVGID_88_">
			<use xlink:href="#SVGID_359_"  overflow="visible"/>
		</clipPath>
		<path clip-path="url(#SVGID_88_)" fill="#033885" d="M29.3,31.9c0.3,0,0.6-0.3,0.6-0.6c0-0.3-0.3-0.6-0.6-0.6s-0.6,0.3-0.6,0.6
			C28.8,31.7,29.1,31.9,29.3,31.9"/>
	</g>
	<g>
		<defs>
			<rect id="SVGID_361_" x="0.6" y="1.3" width="140.5" height="37.9"/>
		</defs>
		<clipPath id="SVGID_89_">
			<use xlink:href="#SVGID_361_"  overflow="visible"/>
		</clipPath>
		<path clip-path="url(#SVGID_89_)" fill="#033885" d="M4.3,31.9c0.3,0,0.6-0.3,0.6-0.6c0-0.3-0.3-0.6-0.6-0.6
			c-0.3,0-0.6,0.3-0.6,0.6C3.7,31.7,3.9,31.9,4.3,31.9"/>
	</g>
	<g>
		<defs>
			<rect id="SVGID_363_" x="0.6" y="1.3" width="140.5" height="37.9"/>
		</defs>
		<clipPath id="SVGID_90_">
			<use xlink:href="#SVGID_363_"  overflow="visible"/>
		</clipPath>
		<path clip-path="url(#SVGID_90_)" fill="#033885" d="M32.5,30.1c0.3,0,0.6-0.3,0.6-0.6c0-0.3-0.3-0.6-0.6-0.6s-0.6,0.3-0.6,0.6
			C31.9,29.8,32.2,30.1,32.5,30.1"/>
	</g>
	<g>
		<defs>
			<rect id="SVGID_365_" x="0.6" y="1.3" width="140.5" height="37.9"/>
		</defs>
		<clipPath id="SVGID_91_">
			<use xlink:href="#SVGID_365_"  overflow="visible"/>
		</clipPath>
		<path clip-path="url(#SVGID_91_)" fill="#033885" d="M1.1,30.1c0.3,0,0.6-0.3,0.6-0.6c0-0.3-0.3-0.6-0.6-0.6s-0.6,0.3-0.6,0.6
			C0.6,29.8,0.9,30.1,1.1,30.1"/>
	</g>
	<g>
		<defs>
			<rect id="SVGID_367_" x="0.6" y="1.3" width="140.5" height="37.9"/>
		</defs>
		<clipPath id="SVGID_92_">
			<use xlink:href="#SVGID_367_"  overflow="visible"/>
		</clipPath>
		<path clip-path="url(#SVGID_92_)" fill="#033885" d="M89.7,14.3c2.4,0,4.7,1.8,5.4,4.1H84.5C85.1,15.8,87.3,14.3,89.7,14.3
			 M99.1,23.5h-4.6c-1.1,1.7-2.3,3.1-4.7,3.1c-2.5,0-4.8-1.9-5.3-4.4h15.1c0.1-0.6,0.1-1.1,0.1-1.8c0-6.1-5.2-10-9.9-10
			c-4.6,0-9.8,3.9-9.8,10c0,6.1,5.1,10.1,9.8,10.1C95,30.4,98.4,26,99.1,23.5 M131.2,14.4c2.7,0,5.6,2.4,5.6,5.9s-3,6-5.6,6
			s-5.6-2.4-5.6-6C125.6,16.8,128.6,14.4,131.2,14.4 M131.2,10.3c-4.6,0-9.9,3.9-9.9,10c0,6.1,5.2,10.1,9.9,10.1
			c4.6,0,9.9-4.1,9.9-10.1S136,10.3,131.2,10.3 M108.6,28.5c0.5,1,1,1.7,2,1.7s1.6-0.6,2-1.7l8.1-17.8h-4.3l-5.7,12.9L105,10.7h-4.5
			L108.6,28.5z M52.2,28.5c0.5,1,1,1.7,2,1.7s1.6-0.6,2-1.7L61.4,17l5.2,11.5c0.5,1,1,1.7,2,1.7s1.6-0.6,2-1.7l8.5-17.8h-4.4
			l-6.2,12.9L63.7,12c-0.2-0.5-0.7-1.6-2.3-1.6c-1.5,0-2.1,1.1-2.3,1.5l-4.9,11.7l-6.2-12.9h-4.4L52.2,28.5z"/>
	</g>
</g>
</svg>
