<?xml version="1.0" encoding="utf-8"?>
<!-- Generator: Adobe Illustrator 15.0.2, SVG Export Plug-In  -->
<!DOCTYPE svg PUBLIC "-//W3C//DTD SVG 1.1//EN" "http://www.w3.org/Graphics/SVG/1.1/DTD/svg11.dtd" [
	<!ENTITY ns_flows "http://ns.adobe.com/Flows/1.0/">
]>
<svg version="1.1"
	 xmlns="http://www.w3.org/2000/svg" xmlns:xlink="http://www.w3.org/1999/xlink" xmlns:a="http://ns.adobe.com/AdobeSVGViewerExtensions/3.0/"
	 x="0px" y="0px" width="100px" height="100px" viewBox="0 0 100 100" overflow="visible" enable-background="new 0 0 100 100"
	 xml:space="preserve">
<defs>
</defs>
<rect x="36.842" y="33.486" width="26.317" height="1.447"/>
<rect x="36.842" y="41.383" width="26.317" height="1.447"/>
<path d="M71.776,24.407V22.96H28.224v1.447h2.632v27.502h-2.632v1.446h21.052l0,14.803L35.89,84.21h1.883l11.504-13.794
	l0.001,11.162h1.447l0-11.135L62.157,84.21h1.881L50.724,68.18l-0.001-14.824h21.054v-1.446h-2.633V24.407H71.776z M67.697,51.909
	H32.303V24.407h35.395V51.909z"/>
<path d="M50,1.446c26.773,0,48.554,21.78,48.554,48.553S76.773,98.554,50,98.554c-26.772,0-48.554-21.782-48.554-48.555
	S23.228,1.446,50,1.446 M50,0C22.387,0,0,22.387,0,49.999C0,77.612,22.387,100,50,100c27.616,0,50-22.388,50-50.001
	C100,22.387,77.616,0,50,0L50,0z"/>
</svg>
