<?xml version="1.0" standalone="no"?>
<!DOCTYPE svg PUBLIC "-//W3C//DTD SVG 20010904//EN"
 "http://www.w3.org/TR/2001/REC-SVG-20010904/DTD/svg10.dtd">
<svg version="1.0" xmlns="http://www.w3.org/2000/svg"
 width="700.000000pt" height="700.000000pt" viewBox="0 0 700.000000 700.000000"
 preserveAspectRatio="xMidYMid meet">
<metadata>
Created by potrace 1.11, written by Peter Selinger 2001-2013
</metadata>
<g transform="translate(0.000000,700.000000) scale(0.100000,-0.100000)"
fill="#000000" stroke="none">
<path d="M3448 6966 c-93 -22 -160 -104 -160 -200 -2 -194 224 -292 361 -157
68 66 84 159 42 243 -47 93 -140 137 -243 114z"/>
<path d="M2480 6403 c-126 -64 -158 -218 -69 -326 45 -54 107 -80 182 -74 79
6 132 43 170 117 24 46 28 63 23 108 -10 109 -92 191 -200 200 -41 3 -61 -2
-106 -25z"/>
<path d="M4325 6400 c-178 -93 -129 -373 70 -396 143 -17 255 89 243 231 -6
76 -45 131 -118 168 -68 34 -125 34 -195 -3z"/>
<path d="M3415 5927 c-61 -25 -94 -47 -124 -86 -88 -111 -81 -261 19 -360 162
-162 439 -61 458 167 9 107 -50 215 -143 261 -56 28 -164 37 -210 18z"/>
<path d="M1625 5883 c-85 -18 -134 -52 -167 -117 -72 -139 31 -309 188 -309
155 0 262 164 197 301 -39 81 -143 141 -218 125z"/>
<path d="M5301 5878 c-168 -45 -218 -249 -91 -366 37 -35 87 -54 145 -54 156
-2 259 168 187 309 -46 89 -147 136 -241 111z"/>
<path d="M2464 5370 c-107 -49 -166 -145 -159 -257 9 -147 127 -258 271 -256
129 3 231 83 259 205 50 223 -166 402 -371 308z"/>
<path d="M4355 5386 c-90 -28 -141 -71 -176 -152 -102 -230 145 -461 371 -346
196 99 193 381 -6 480 -51 26 -137 34 -189 18z"/>
<path d="M635 5322 c-181 -87 -159 -356 34 -402 183 -43 326 140 240 307 -49
94 -180 140 -274 95z"/>
<path d="M6203 5327 c-113 -42 -169 -182 -116 -295 45 -96 174 -146 274 -105
44 19 91 66 111 111 77 173 -92 353 -269 289z"/>
<path d="M3373 4980 c-168 -55 -281 -209 -287 -388 -6 -221 160 -407 383 -426
205 -18 402 135 439 340 38 212 -88 417 -294 479 -61 18 -179 16 -241 -5z"/>
<path d="M1603 4849 c-235 -42 -307 -354 -111 -487 43 -29 115 -52 161 -52 97
0 211 80 246 174 73 195 -93 400 -296 365z"/>
<path d="M5280 4841 c-202 -62 -265 -321 -111 -459 60 -54 97 -67 186 -67 62
0 89 5 120 22 211 112 189 419 -36 498 -44 16 -117 18 -159 6z"/>
<path d="M2520 4449 c-65 -8 -131 -32 -180 -67 -87 -61 -163 -174 -175 -260
-3 -20 -7 -52 -9 -69 -6 -48 21 -165 50 -218 157 -280 556 -290 723 -19 45 73
62 137 60 224 -3 123 -39 209 -121 291 -94 94 -214 135 -348 118z"/>
<path d="M4360 4448 c-189 -29 -333 -189 -347 -383 -16 -220 145 -418 357
-441 25 -3 54 -7 65 -8 11 -2 45 3 75 11 30 8 60 16 66 17 32 6 143 90 175
133 45 60 57 82 74 141 42 142 0 306 -106 412 -97 97 -224 139 -359 118z"/>
<path d="M635 4231 c-144 -67 -170 -260 -48 -360 46 -38 87 -50 151 -47 179
11 263 236 136 363 -60 60 -164 79 -239 44z"/>
<path d="M6203 4237 c-116 -43 -171 -188 -113 -299 104 -201 400 -126 400 102
0 145 -150 247 -287 197z"/>
<path d="M3384 3895 c-67 -21 -121 -53 -173 -103 -90 -87 -133 -195 -126 -319
4 -78 12 -108 48 -179 24 -48 121 -154 140 -154 5 0 21 -8 35 -18 54 -38 169
-56 257 -42 127 21 247 106 302 214 123 240 4 524 -251 600 -54 16 -180 17
-232 1z"/>
<path d="M1609 3759 c-96 -15 -192 -94 -218 -179 -53 -178 62 -346 243 -355
162 -9 288 117 282 280 -1 33 -11 77 -21 98 -21 45 -79 109 -115 128 -43 22
-123 35 -171 28z"/>
<path d="M5253 3739 c-234 -90 -220 -431 21 -509 52 -17 151 -8 201 18 166 85
197 316 60 441 -76 69 -183 88 -282 50z"/>
<path d="M2492 3359 c-138 -26 -264 -136 -312 -270 -95 -272 104 -557 390
-557 194 0 351 117 405 300 43 149 1 305 -112 415 -97 95 -238 138 -371 112z"/>
<path d="M4315 3350 c-150 -48 -252 -153 -290 -297 -26 -95 -12 -226 30 -290
9 -13 13 -23 9 -23 -3 0 13 -22 36 -50 142 -170 367 -209 545 -96 216 139 262
422 99 622 -39 48 -125 108 -186 130 -61 22 -182 24 -243 4z"/>
<path d="M677 3158 c-89 -19 -158 -98 -165 -189 -5 -70 10 -118 51 -162 125
-135 342 -69 371 113 6 42 -11 116 -35 151 -45 64 -145 103 -222 87z"/>
<path d="M6229 3155 c-171 -43 -221 -260 -85 -372 124 -102 315 -32 344 127
28 151 -112 283 -259 245z"/>
<path d="M3440 2818 c-114 -18 -220 -86 -284 -183 -126 -189 -77 -446 110
-576 133 -92 326 -95 458 -8 221 147 256 460 71 645 -96 96 -229 142 -355 122z"/>
<path d="M1565 2658 c-234 -86 -252 -399 -30 -504 95 -45 221 -24 296 48 141
137 102 365 -75 443 -56 25 -142 31 -191 13z"/>
<path d="M5238 2639 c-104 -53 -160 -147 -153 -258 9 -172 168 -288 334 -244
156 40 238 196 186 353 -48 144 -231 218 -367 149z"/>
<path d="M2507 2116 c-157 -43 -242 -209 -185 -361 33 -87 131 -159 228 -169
162 -15 302 121 293 283 -10 170 -174 291 -336 247z"/>
<path d="M4367 2119 c-150 -34 -240 -183 -201 -333 52 -196 289 -265 445 -128
112 98 112 296 -1 396 -65 57 -160 83 -243 65z"/>
<path d="M646 2055 c-112 -40 -171 -187 -117 -293 57 -112 191 -153 301 -91
116 65 140 234 47 329 -63 64 -148 85 -231 55z"/>
<path d="M6195 2051 c-199 -91 -156 -384 60 -407 159 -18 282 144 221 291 -47
111 -175 165 -281 116z"/>
<path d="M3453 1579 c-84 -16 -160 -73 -198 -149 -10 -19 -20 -65 -23 -101 -4
-56 -1 -75 20 -120 49 -106 134 -162 248 -163 105 -1 192 52 243 149 31 58 30
183 -2 242 -56 103 -177 163 -288 142z"/>
<path d="M1592 1520 c-83 -19 -154 -115 -154 -205 0 -161 164 -262 309 -190
136 68 158 245 43 349 -56 50 -119 65 -198 46z"/>
<path d="M5280 1514 c-182 -65 -187 -324 -8 -398 76 -32 167 -15 223 41 47 47
66 85 70 141 10 155 -139 268 -285 216z"/>
<path d="M2531 979 c-130 -24 -207 -173 -152 -295 10 -22 33 -54 51 -71 36
-34 116 -64 152 -58 79 15 111 30 148 73 83 94 80 203 -9 292 -43 43 -63 53
-136 65 -5 1 -30 -2 -54 -6z"/>
<path d="M4355 969 c-89 -34 -136 -102 -138 -198 -1 -97 51 -170 144 -201 141
-48 279 51 281 201 1 147 -149 250 -287 198z"/>
<path d="M3415 421 c-81 -37 -129 -112 -127 -196 3 -150 143 -249 283 -200
144 51 189 238 84 349 -61 63 -162 83 -240 47z"/>
</g>
</svg>
