<?xml version="1.0" standalone="no"?>
<!DOCTYPE svg PUBLIC "-//W3C//DTD SVG 1.1//EN" "http://www.w3.org/Graphics/SVG/1.1/DTD/svg11.dtd" >
<svg xmlns="http://www.w3.org/2000/svg">
<metadata></metadata>
<defs>
<font id="wevoultralight_picto" horiz-adv-x="3031" >
<font-face units-per-em="2048" ascent="1536" descent="-512" />
<missing-glyph horiz-adv-x="614" />
<glyph horiz-adv-x="0" />
<glyph horiz-adv-x="682" />
<glyph unicode=" "  horiz-adv-x="614" />
<glyph unicode="&#x09;" horiz-adv-x="614" />
<glyph unicode="&#xa0;" horiz-adv-x="614" />
<glyph unicode="A" d="M82 1434q0 197 51 380t144.5 342.5t223.5 290.5t289.5 224.5t343 144.5t382.5 51q197 0 380 -51t342.5 -144.5t290.5 -224.5t224.5 -290.5t144.5 -343t51 -379.5q0 -199 -51 -382.5t-144.5 -343t-224.5 -289.5t-290.5 -223.5t-343 -144.5t-379.5 -51q-199 0 -382.5 51 t-343 144.5t-289.5 223.5t-223.5 289.5t-144.5 343t-51 382.5zM119 1434q0 -193 50 -371t141 -334t218 -283t283 -218t334 -141t371 -50t370.5 50t333.5 141t283 218t218 283t141 334t50 371t-50 370.5t-141 333.5t-218 283t-283 218t-333.5 141t-370.5 50t-371 -50 t-334 -141t-283 -218t-218 -283t-141 -334t-50 -370zM745 705l717 712q-61 66 -92 152t-31 160q0 100 36 187t99.5 151.5t149.5 102.5t186 38t187.5 -38t152 -102.5t102.5 -151.5t38 -187t-38 -186.5t-102.5 -150t-151.5 -99.5t-188 -36q-90 0 -169.5 31t-145.5 92 l-713 -712zM1389 1729q0 -86 33.5 -163t91 -134.5t134 -91t162.5 -33.5q88 0 167 33.5t137.5 91t92.5 134t34 163.5q0 88 -34 166.5t-92.5 137t-137.5 92.5t-167 34q-86 0 -162.5 -34t-134 -92.5t-91 -137t-33.5 -166.5z" />
<glyph unicode="B" d="M84 29l1405 1405l-1405 1400l29 29l1400 -1405l1405 1405l29 -29l-1409 -1400l1409 -1405l-29 -29l-1405 1409l-1400 -1409z" />
<glyph unicode="C" d="M408 0v49l1998 1155q74 43 123 100.5t49 129.5q0 61 -43 117.5t-116 99.5l-2011 1163v45l2027 -1171q90 -53 139 -117t49 -141q0 -78 -52 -144.5t-148 -122.5z" />
<glyph unicode="D" d="M82 1415v37h2814l-819 1036h57l750 -942q18 -25 41.5 -52.5t23.5 -57.5q0 -31 -23.5 -60.5t-41.5 -54.5l-750 -942h-57l819 1036h-2814z" />
<glyph unicode="E" d="M94 29l1331 1335q-109 117 -173 272.5t-64 329.5q0 180 68.5 340t186.5 279.5t276.5 190.5t340.5 71q180 0 339 -71t279 -190.5t189.5 -279.5t69.5 -340q0 -182 -69.5 -341t-189.5 -276.5t-278.5 -186t-339.5 -68.5q-174 0 -329.5 66.5t-276.5 170.5l-1331 -1331z M1225 1966q0 -170 66.5 -322.5t180 -266t266 -180.5t322.5 -67q174 0 328 67t267.5 180.5t179 266t65.5 322.5q0 174 -65.5 326.5t-179 266.5t-267.5 180.5t-328 66.5q-170 0 -322.5 -66.5t-266 -180.5t-180 -266.5t-66.5 -326.5z" />
<glyph unicode="F" d="M82 1434q0 197 51 380t144.5 342.5t223.5 290.5t289.5 224.5t343 144.5t382.5 51q197 0 380 -51t342.5 -144.5t290.5 -224.5t224.5 -290.5t144.5 -343t51 -379.5q0 -199 -51 -382.5t-144.5 -343t-224.5 -289.5t-290.5 -223.5t-343 -144.5t-379.5 -51q-199 0 -382.5 51 t-343 144.5t-289.5 223.5t-223.5 289.5t-144.5 343t-51 382.5zM119 1434q0 -193 50 -371t141 -334t218 -283t283 -218t334 -141t371 -50t370.5 50t333.5 141t283 218t218 283t141 334t50 371t-50 370.5t-141 333.5t-218 283t-283 218t-333.5 141t-370.5 50t-371 -50 t-334 -141t-283 -218t-218 -283t-141 -334t-50 -370zM688 1942v45h602v-45h-131v-1037q0 -72 -49 -120t-123 -48q-72 0 -122 48.5t-50 119.5v1037h-127zM856 905q0 -55 38 -91t93 -36t93 36t38 91v578h-262v-578zM856 1528h262v414h-262v-414zM1421 737v1250h795v-1250h-795 zM1466 782h705v1160h-705v-1160zM1593 1262v45h451v-45h-451zM1593 1483v45h451v-45h-451zM1593 1712v45h451v-45h-451z" />
<glyph unicode="G" d="M82 1434q0 197 51 380t144.5 342.5t223.5 290.5t289.5 224.5t343 144.5t382.5 51q197 0 380 -51t342.5 -144.5t290.5 -224.5t224.5 -290.5t144.5 -343t51 -379.5q0 -199 -51 -382.5t-144.5 -343t-224.5 -289.5t-290.5 -223.5t-343 -144.5t-379.5 -51q-199 0 -382.5 51 t-343 144.5t-289.5 223.5t-223.5 289.5t-144.5 343t-51 382.5zM119 1434q0 -193 50 -371t141 -334t218 -283t283 -218t334 -141t371 -50t370.5 50t333.5 141t283 218t218 283t141 334t50 371t-50 370.5t-141 333.5t-218 283t-283 218t-333.5 141t-370.5 50t-371 -50 t-334 -141t-283 -218t-218 -283t-141 -334t-50 -370zM815 1036v1016h1397v-1016h-244q-16 -41 -51 -75v-465l-172 77l-172 -77v456q-20 16 -34.5 39t-25.5 45h-698zM852 1073h649q-4 12 -5 28.5t-1 33.5q0 51 19.5 95t53.5 76.5t79 51t98 18.5q51 0 95 -19.5t77 -53 t51.5 -77.5t18.5 -91q0 -16 -1 -33t-6 -29h195v942h-1323v-942zM1061 1491v37h303v-37h-303zM1061 1720v37h827v-37h-827zM1532 1135q0 -90 61.5 -149.5t151.5 -59.5q41 0 79 16t65.5 44t44 66t16.5 83q0 43 -16.5 79.5t-44 64.5t-65.5 44t-79 16q-45 0 -84 -16t-67.5 -44 t-45 -64.5t-16.5 -79.5zM1610 553l135 61l135 -61v375q-31 -18 -64.5 -30.5t-70.5 -12.5q-84 0 -135 39v-371z" />
<glyph unicode="H" d="M82 1438q0 199 51 382t144.5 341.5t225.5 288.5t291.5 222.5t343 143.5t382.5 51t383 -51t342.5 -143.5t288.5 -222.5t222.5 -288.5t142.5 -342t50 -381.5q0 -301 -110.5 -563.5t-304 -457t-454.5 -306t-560 -111.5t-560.5 111.5t-457 306t-308 457t-112.5 563.5z M119 1438q0 -205 56 -398.5t161 -351.5v549q0 90 25.5 154.5t66.5 104.5t93 58.5t106 18.5h540q135 0 217 -89t82 -247v-619h254v259q0 94 26 158.5t69 104.5t98 58.5t115 18.5h524q238 0 287 -226q41 104 57 214t16 233q0 193 -49 371t-139 332.5t-217 281.5t-281.5 217 t-333.5 140t-372 50t-371 -50t-334 -140t-285 -217t-220 -281.5t-141 -333t-50 -370.5zM377 627q0 -4 2 -4t2 -5h205v594h41v-594h573v594h41v-594h184v619q0 141 -68.5 218t-189.5 77h-540q-27 0 -69 -8t-82 -38t-69.5 -89.5t-29.5 -159.5v-610zM414 578 q94 -123 216 -223.5t263 -171t299 -108.5t328 -38q115 0 200 12v529h-1306zM659 1958q0 45 18.5 88t50.5 74.5t75 51t94 19.5t94 -19.5t75 -51t50.5 -74.5t18.5 -88q0 -53 -18.5 -97t-50.5 -76t-75 -50.5t-94 -18.5t-94 18.5t-75 50.5t-50.5 76t-18.5 97zM700 1958 q0 -92 55.5 -146.5t141.5 -54.5q80 0 138.5 54.5t58.5 146.5q0 39 -15.5 73.5t-43 61.5t-63.5 42t-75 15q-43 0 -79 -15t-62.5 -42t-41 -61.5t-14.5 -73.5zM1761 57q178 33 338 108t295 184.5t240.5 250.5t175.5 305q-6 133 -68.5 202t-189.5 69h-524q-29 0 -74 -8.5 t-88 -39t-74 -90t-31 -161.5v-820zM2056 1602q0 45 18.5 88t50.5 74.5t75 51t94 19.5t94 -19.5t74.5 -51t50 -74.5t18.5 -88q0 -53 -18.5 -97.5t-50 -76t-74.5 -50t-94 -18.5t-94 18.5t-75 50t-50.5 75.5t-18.5 98zM2097 1602q0 -92 55.5 -146.5t141.5 -54.5q80 0 138 54 t58 147q0 39 -15 73.5t-43 61t-63.5 42t-74.5 15.5q-43 0 -79 -15.5t-62.5 -42t-41 -61.5t-14.5 -73z" />
<glyph unicode="I" d="M82 1434q0 197 51 380t144.5 342.5t223.5 290.5t289.5 224.5t343 144.5t382.5 51q197 0 380 -51t342.5 -144.5t290.5 -224.5t224.5 -290.5t144.5 -343t51 -379.5q0 -199 -51 -382.5t-144.5 -343t-224.5 -289.5t-290.5 -223.5t-343 -144.5t-379.5 -51q-199 0 -382.5 51 t-343 144.5t-289.5 223.5t-223.5 289.5t-144.5 343t-51 382.5zM119 1434q0 -193 50 -371t141 -334t218 -283t283 -218t334 -141t371 -50t370.5 50t333.5 141t283 218t218 283t141 334t50 371t-50 370.5t-141 333.5t-218 283t-283 218t-333.5 141t-370.5 50t-371 -50 t-334 -141t-283 -218t-218 -283t-141 -334t-50 -370zM893 1339v37h70v799h-70v37h1249v-37h-74v-799h74v-37h-606v-430l385 -458h-49l-336 397v-320h-37v320l-336 -397h-53l389 458v430h-606zM999 1376h1033v799h-1033v-799zM1139 1638v41h757v-41h-757zM1139 1868v37h757 v-37h-757z" />
<glyph unicode="J" d="M82 1434q0 197 51 380t144.5 342.5t223.5 290.5t289.5 224.5t343 144.5t382.5 51q197 0 380 -51t342.5 -144.5t290.5 -224.5t224.5 -290.5t144.5 -343t51 -379.5q0 -199 -51 -382.5t-144.5 -343t-224.5 -289.5t-290.5 -223.5t-343 -144.5t-379.5 -51q-199 0 -382.5 51 t-343 144.5t-289.5 223.5t-223.5 289.5t-144.5 343t-51 382.5zM119 1434q0 -193 50 -371t141 -334t218 -283t283 -218t334 -141t371 -50t370.5 50t333.5 141t283 218t218 283t141 334t50 371t-50 370.5t-141 333.5t-218 283t-283 218t-333.5 141t-370.5 50t-371 -50 t-334 -141t-283 -218t-218 -283t-141 -334t-50 -370zM668 1262v798h1106v-229h675v-799h-229v-225q0 -29 -10 -39t-23 -10q-10 0 -19 4t-22 16l-221 221q-16 16 -37.5 24.5t-44.5 8.5h-495v230h-74q-23 0 -47.5 -9.5t-55.5 -40.5l-196 -196q-18 -18 -26.5 -23.5t-18.5 -5.5 q-16 0 -26.5 9.5t-10.5 31.5v234h-225zM709 1303h225v-275l205 209q35 35 64.5 50.5t70.5 15.5h459v716h-1024v-716zM1389 1073h454q29 0 58.5 -11t52.5 -34l225 -225v270h229v717h-634v-528h-312h-73v-189z" />
<glyph unicode="K" d="M82 1434q0 197 51 380t144.5 342.5t223.5 290.5t289.5 224.5t343 144.5t382.5 51q197 0 380 -51t342.5 -144.5t290.5 -224.5t224.5 -290.5t144.5 -343t51 -379.5q0 -199 -51 -382.5t-144.5 -343t-224.5 -289.5t-290.5 -223.5t-343 -144.5t-379.5 -51q-199 0 -382.5 51 t-343 144.5t-289.5 223.5t-223.5 289.5t-144.5 343t-51 382.5zM119 1434q0 -193 50 -371t141 -334t218 -283t283 -218t334 -141t371 -50t370.5 50t333.5 141t283 218t218 283t141 334t50 371t-50 370.5t-141 333.5t-218 283t-283 218t-333.5 141t-370.5 50t-371 -50 t-334 -141t-283 -218t-218 -283t-141 -334t-50 -370zM670 887q0 12 14 16l94 39q2 33 8 66l-77 65q-8 8 -9 17q0 6 5 14l49 80q8 12 24 12q4 0 11.5 -2t11.5 -4l80 -35q10 8 25.5 20.5t23.5 16.5l-8 100q0 20 16 25l86 20q16 4 23 4q12 0 18 -14l37 -96q8 0 26.5 -2t40.5 -6 l56 73q10 14 20 15q8 0 17 -4l90 -54q12 -6 12 -18q0 -6 -2 -11t-6 -12l-41 -79q18 -14 37 -52l94 9q16 0 23.5 -3.5t11.5 -17.5l14 -74q2 -10 3 -16t1 -12q0 -20 -20 -27l-86 -31q0 -14 -1.5 -32.5t-7.5 -32.5l78 -66q8 -8 8 -18q0 -6 -2 -9t-4 -8l-51 -81q-10 -12 -16 -13 q-4 0 -11.5 3t-11.5 5l-82 37q-16 -14 -30.5 -24.5t-22.5 -14.5l4 -65q2 -16 2 -23.5v-11.5q0 -20 -24 -27l-76 -16q-20 -4 -25 -4q-6 0 -11 3t-9 15l-31 90q-41 4 -65 11l-62 -76q-8 -10 -18 -10q-8 0 -21 8l-80 49q-10 8 -10 16t6 21l37 86q-10 12 -18.5 22.5t-18.5 26.5 l-106 -4q-12 0 -17.5 6t-7.5 12l-14 76q-4 20 -4 27zM715 874l14 -67l107 8q12 -18 32.5 -46t36.5 -40l-49 -106l64 -37l71 88q18 -4 51 -10.5t58 -8.5l39 -102l65 14l-8 113q18 10 46 29.5t44 35.5l103 -45l32 54l-82 73q4 18 8.5 53t4.5 58l106 37l-14 72l-117 -11 q-6 18 -26.5 47t-32.5 41l47 105l-64 35l-69 -84q-18 4 -52 8t-57 4l-41 108l-65 -16l8 -113q-10 -4 -25.5 -14t-29.5 -20q-18 -12 -35 -27l-103 45l-34 -59l83 -72q-4 -18 -8 -53t-4 -53zM909 924q0 37 13.5 68.5t37 55t55.5 38t68 14.5q37 0 69 -14.5t55.5 -38t38 -55 t14.5 -68.5t-14.5 -69t-38 -55.5t-55.5 -36.5t-69 -13q-72 0 -123 51t-51 123zM948 924q0 -57 39 -96.5t96 -39.5t97.5 39t40.5 97q0 57 -40 97t-98 40q-57 0 -96 -40t-39 -97zM1073 1769q-2 5 -2 10t3 9q5 6 16 10l98 45q-1 20 -1 39.5t1 38.5l-94 45q-20 10 -21 29 q0 8 6 26l23 80q4 10 13 14.5t15 2.5l111 -17q4 10 11.5 22.5t17.5 26.5l-58 78q-23 31 -8 45l74 74q16 16 37 0l86 -61q16 10 22.5 13t22.5 11l-12 111q-2 14 4 20t12 8l94 27q18 4 26.5 2t14.5 -16l45 -99q10 2 37 3t37 -3l41 99q7 16 17 19q6 2 10 2q3 0 6 -1l98 -33 q12 -4 20.5 -10t4.5 -22l-17 -103q16 -8 26.5 -14t22.5 -14l90 61q18 14 35 -2l72 -72q6 -6 8 -15t-4 -17l-70 -91q12 -16 17.5 -24t15.5 -25l98 17q16 4 25.5 -2.5t11.5 -14.5l29 -102q1 -4 1 -8q0 -14 -13 -21l-103 -45q4 -14 4 -43t-4 -39l103 -45q13 -6 13 -19 q0 -4 -1 -10l-29 -106q-4 -10 -10 -11t-14 -1l-113 10q-10 -16 -14 -23.5t-17 -23.5l66 -86q16 -20 0 -37l-74 -74q-18 -18 -41 0l-82 66q-25 -18 -49 -29l12 -78q2 -10 3.5 -18t1.5 -19q0 -20 -25 -26l-90 -23q-14 -4 -21 -4q-5 0 -8 2q-6 4 -12 19l-37 98h-80l-47 -98 q-4 -11 -13 -17q-6 -4 -14 -4q-5 0 -12 2l-100 31q-14 4 -16.5 12t-0.5 21l17 106q-25 10 -41 25l-88 -62q-23 -16 -39 0l-74 78q-12 12 0 29l70 86q-10 16 -15.5 24.5t-13.5 24.5l-102 -12q-31 -4 -37 12zM1118 1769l21 -75l123 14q8 -18 24.5 -48t32.5 -46l-78 -101 l57 -55l99 74q16 -12 46 -29.5t48 -23.5l-21 -123l74 -25l51 113h142l43 -111l75 23l-16 123q18 6 49 23.5t49 29.5l99 -74l53 53l-74 103q12 18 29.5 47t28.5 47l125 -16l20 73l-117 54q4 12 5 31.5t1 29.5q0 16 -1 34.5t-5 35.5l119 49l-20 74l-125 -19q-10 18 -28.5 49 t-31.5 47l76 103l-55 57l-103 -74q-16 10 -45.5 26.5t-48.5 27.5l19 125l-76 22l-49 -119q-16 4 -35 4h-31q-16 0 -33.5 -1t-27.5 -3l-54 119l-77 -22l16 -125q-29 -16 -48.5 -26.5t-45.5 -27.5l-99 74l-55 -55l76 -101q-12 -18 -29.5 -48.5t-23.5 -49.5l-127 17l-21 -74 l111 -49q-2 -8 -3 -31t-1 -39q0 -10 1 -31.5t3 -29.5zM1417 1880q0 53 20.5 99t54.5 80t79 52.5t96 18.5t97 -18.5t80 -52.5t53.5 -80t19.5 -99q0 -51 -19.5 -96t-53.5 -79t-80 -54.5t-97 -20.5t-96 20.5t-79 54.5t-54.5 79t-20.5 96zM1456 1880q0 -43 16.5 -82t45 -67.5 t67.5 -45t82 -16.5t82 16.5t67.5 45t45 67.5t16.5 82t-16.5 82t-45 67.5t-67.5 45t-82 16.5t-82 -16.5t-67.5 -45t-45 -67.5t-16.5 -82z" />
<glyph unicode="L" d="M82 1434q0 197 51 380t144.5 342.5t223.5 290.5t289.5 224.5t343 144.5t382.5 51q197 0 380 -51t342.5 -144.5t290.5 -224.5t224.5 -290.5t144.5 -343t51 -379.5q0 -199 -51 -382.5t-144.5 -343t-224.5 -289.5t-290.5 -223.5t-343 -144.5t-379.5 -51q-199 0 -382.5 51 t-343 144.5t-289.5 223.5t-223.5 289.5t-144.5 343t-51 382.5zM119 1434q0 -193 50 -371t141 -334t218 -283t283 -218t334 -141t371 -50t370.5 50t333.5 141t283 218t218 283t141 334t50 371t-50 370.5t-141 333.5t-218 283t-283 218t-333.5 141t-370.5 50t-371 -50 t-334 -141t-283 -218t-218 -283t-141 -334t-50 -370zM696 1847l647 168l148 467q6 16 20 17q14 0 21 -17l147 -463l660 -174q22 -6 22 -23v-1q0 -6 -5 -12.5t-15 -6.5q-2 0 -19 4l-127 33l-114 -164h182q23 0 23 -22q0 -23 -23 -23h-543l37 -364l215 -748q4 -12 7 -23.5 t3 -21.5q0 -16 -16 -16q-8 0 -15 4t-20 18l-420 467l-421 -469q-4 -4 -13.5 -12t-19.5 -8q-18 0 -19 16q0 10 6 27q2 8 7 20l215 746l37 364h-543q-23 0 -23 23t23 22h186l-115 164l-114 -33q-6 -2 -14.5 -4t-14.5 -2q-22 0 -22 19q0 20 30 28zM877 1847l106 -151l115 213z M1024 1675h270l-151 217zM1102 553l385 430l-193 246zM1171 1925l140 -205l24 250zM1307 1303l176 151l-144 156zM1319 1262l192 -250l193 250l-188 163h-5zM1346 1679l137 148l-107 110zM1372 1630l139 -147l140 147h-279zM1389 2019h245l-123 389zM1393 1675h233l-115 119 zM1393 1974l118 -114l119 114h-237zM1540 983l381 -426l-192 672zM1540 1454l172 -151l-29 307zM1540 1827l135 -148l-24 258zM1688 1970l24 -254l143 209zM1733 1675h270l-119 217zM1925 1909l119 -213l106 151z" />
<glyph unicode="M" d="M82 1434q0 197 51 380t144.5 342.5t223.5 290.5t289.5 224.5t343 144.5t382.5 51q197 0 380 -51t342.5 -144.5t290.5 -224.5t224.5 -290.5t144.5 -343t51 -379.5q0 -199 -51 -382.5t-144.5 -343t-224.5 -289.5t-290.5 -223.5t-343 -144.5t-379.5 -51q-199 0 -382.5 51 t-343 144.5t-289.5 223.5t-223.5 289.5t-144.5 343t-51 382.5zM119 1434q0 -193 50 -371t141 -334t218 -283t283 -218t334 -141t371 -50t370.5 50t333.5 141t283 218t218 283t141 334t50 371t-50 370.5t-141 333.5t-218 283t-283 218t-333.5 141t-370.5 50t-371 -50 t-334 -141t-283 -218t-218 -283t-141 -334t-50 -370zM840 627v1155q0 33 20 49l627 487q10 8 16 12.5t15 4.5q8 0 14 -4t16 -13l246 -196v192q0 20 21 21h221q20 0 20 -21v-389l127 -98q12 -10 14.5 -18.5t2.5 -26.5v-1155q0 -20 -21 -21h-758q-20 0 -20 21v512h-295v-512 q0 -20 -21 -21h-225q-20 0 -20 21zM881 647h184v512q0 20 20 21h336q20 0 21 -21v-512h717v1151l-639 492l-639 -492v-1151zM1348 1647v299q0 20 20 20h303q20 0 21 -20v-299q0 -20 -21 -21h-303q-20 0 -20 21zM1389 1663h262v262h-262v-262zM1651 1077v303q0 20 20 21h303 q20 0 21 -21v-303q0 -20 -21 -20h-303q-20 0 -20 20zM1692 1098h262v262h-262v-262zM1835 2093l180 -135v336h-180v-201z" />
<glyph unicode="N" d="M82 1434q0 197 51 380t144.5 342.5t223.5 290.5t289.5 224.5t343 144.5t382.5 51q197 0 380 -51t342.5 -144.5t290.5 -224.5t224.5 -290.5t144.5 -343t51 -379.5q0 -199 -51 -382.5t-144.5 -343t-224.5 -289.5t-290.5 -223.5t-343 -144.5t-379.5 -51q-199 0 -382.5 51 t-343 144.5t-289.5 223.5t-223.5 289.5t-144.5 343t-51 382.5zM119 1434q0 -193 50 -371t141 -334t218 -283t283 -218t334 -141t371 -50t370.5 50t333.5 141t283 218t218 283t141 334t50 371t-50 370.5t-141 333.5t-218 283t-283 218t-333.5 141t-370.5 50t-371 -50 t-334 -141t-283 -218t-218 -283t-141 -334t-50 -370zM512 1726q0 23 19.5 64t46.5 70q10 12 23 21t30 11q10 0 35.5 1t55.5 2t57.5 1h43.5q49 92 83 140.5t75 56.5q43 8 102.5 15.5t129 11.5t144.5 7t152 3q158 0 302.5 -10.5t232.5 -30.5q37 -10 69.5 -56t81.5 -137 q47 -2 86 -2q35 0 67 -1t42 -1q16 0 36.5 -19.5t38 -47t30 -56t12.5 -49.5q0 -27 -17 -28q-6 -2 -29.5 -4t-53 -4.5t-59.5 -3.5t-50 -1l8 -18q12 -29 36.5 -43.5t47.5 -28.5q29 -16 44 -37.5t20 -56.5q2 -16 4 -53t4 -87t3 -108.5t1 -113.5v-45v-75t-1 -74t-5 -40 q-4 -8 -27 -13t-54.5 -8.5t-68.5 -5.5t-74 -2h-44t-42 2q-12 0 -21 18.5t-15.5 43t-9.5 51.5t-5 43q-16 -2 -67.5 -6t-129 -8t-179 -7t-216.5 -3q-117 0 -221 3t-184 7t-130 8t-59 4q-2 -16 -6 -42t-11 -50.5t-19.5 -43t-30.5 -18.5q-6 0 -21.5 -1t-44.5 -1 q-49 0 -109.5 3.5t-95.5 19.5q-16 8 -18 54t-2 93q0 55 2 122t5 130.5t6 114.5t5 74q4 31 15.5 63.5t40.5 48.5q18 10 40.5 21.5t35.5 34.5l16 30h-49t-57.5 1t-52 4.5t-34.5 7.5q-16 8 -16 34zM553 1729q6 -2 33.5 -3.5t59.5 -2.5t59.5 -2t35.5 -1q10 23 31 66t31 65h-26.5 h-51.5t-56.5 -1t-37.5 -3q-14 -2 -28.5 -20.5t-24.5 -40.5q-13 -24 -25 -57zM600 968q0 -38 2 -38q35 -10 98.5 -13.5t137.5 -3.5q8 0 16 24t12 52q6 33 11 76q4 0 62 -4t148.5 -8t202 -8.5t221.5 -4.5q111 0 220.5 4.5t199.5 10.5q104 6 203 14q4 -43 10 -78 q4 -29 10.5 -53.5t12.5 -24.5q23 -2 40 -2h31q8 0 32 1t50.5 3.5t54.5 5.5t46 9q2 0 2 19.5v54.5q0 53 -1 128.5t-3 150.5t-5.5 134.5t-5.5 79.5q-4 20 -14 34.5t-43 35.5q-29 16 -51.5 31.5t-34.5 48.5q-4 8 -18.5 40.5t-35 76.5t-46 92.5t-51 90.5t-49 69.5t-42.5 31.5 q-84 20 -222 29.5t-292 9.5t-293 -9.5t-225 -25.5q-25 -4 -56.5 -51t-65 -111.5t-66.5 -134t-62 -121.5q-8 -14 -25.5 -33.5t-53.5 -35.5q-29 -12 -34 -29.5t-10 -40.5q-4 -16 -6 -64.5t-5 -111t-5 -131t-2 -125.5v-95zM770 1272l4 182q0 25 23 25q4 0 10 -1t16 -3l170 -29 q8 -2 13.5 -4t9.5 -12l76 -152q4 -8 4 -16q0 -10 -5.5 -17.5t-17.5 -7.5l-278 12q-25 0 -25 23zM815 1290l227 -12l-61 127l-166 25v-140zM948 1665q0 6 4 14l95 193q4 10 12 19.5t28 13.5q25 6 59 10t82 7t113.5 5t153.5 2q176 0 280.5 -6t157.5 -18q20 -4 25.5 -13.5 t11.5 -19.5l90 -193q4 -8 4 -14q0 -10 -7 -14t-13 -4h-1077q-18 0 -19 18zM1004 1683h1003l-82 185q-37 6 -89 11t-111.5 8t-120 4t-109.5 1q-143 0 -234.5 -5t-166.5 -19zM1163 1442q0 20 21 20h655q25 0 25 -20q0 -8 -2 -13.5t-7 -13.5l-69 -158q-6 -16 -13.5 -20 t-23.5 -4h-467q-10 0 -18.5 3t-14.5 17l-78 162q-4 8 -6 13.5t-2 13.5zM1221 1421l69 -147h451l65 147h-585zM1927 1262q0 6 3 13t5 11l72 144q6 14 25 16l170 29q10 2 16 3t10 1q20 0 21 -25l4 -182q0 -23 -25 -23l-278 -12q-12 0 -17.5 7t-5.5 18zM1980 1278l228 12v140 l-166 -25zM2216 1851l61 -131l189 9q-14 33 -29 59q-12 23 -25.5 41t-23.5 18q-12 2 -41 3t-57 1h-74z" />
<glyph unicode="O" d="M82 1434q0 197 51 380t144.5 342.5t223.5 290.5t289.5 224.5t343 144.5t382.5 51q197 0 380 -51t342.5 -144.5t290.5 -224.5t224.5 -290.5t144.5 -343t51 -379.5q0 -199 -51 -382.5t-144.5 -343t-224.5 -289.5t-290.5 -223.5t-343 -144.5t-379.5 -51q-199 0 -382.5 51 t-343 144.5t-289.5 223.5t-223.5 289.5t-144.5 343t-51 382.5zM119 1434q0 -193 50 -371t141 -334t218 -283t283 -218t334 -141t371 -50t370.5 50t333.5 141t283 218t218 283t141 334t50 371t-50 370.5t-141 333.5t-218 283t-283 218t-333.5 141t-370.5 50t-371 -50 t-334 -141t-283 -218t-218 -283t-141 -334t-50 -370zM442 1006v829h303q131 0 214 -62.5t83 -185.5t-85 -191.5t-216 -68.5h-262v-321h-37zM479 1364h262q70 0 119 18.5t82 49t48.5 70.5t15.5 85t-14.5 83t-46.5 66.5t-81 45t-119 16.5h-266v-434zM1143 1368v467h37v-467 q0 -78 14 -140.5t48 -108.5t89 -70.5t135 -24.5t134.5 24.5t88 70.5t49 108.5t15.5 140.5v467h37v-467q0 -199 -85 -290t-239 -91t-238.5 91t-84.5 290zM1939 1006v829h304q131 0 214 -62.5t83 -185.5q0 -111 -67 -175t-175 -81l264 -325h-47l-258 321h-19h-262v-321h-37z M1976 1364h262q70 0 119 18.5t82 49t48.5 70.5t15.5 85t-14.5 83t-46.5 66.5t-81 45t-118 16.5h-267v-434z" />
<glyph unicode="P" d="M82 1434q0 197 51 380t144.5 342.5t223.5 290.5t289.5 224.5t343 144.5t382.5 51q197 0 380 -51t342.5 -144.5t290.5 -224.5t224.5 -290.5t144.5 -343t51 -379.5q0 -199 -51 -382.5t-144.5 -343t-224.5 -289.5t-290.5 -223.5t-343 -144.5t-379.5 -51q-199 0 -382.5 51 t-343 144.5t-289.5 223.5t-223.5 289.5t-144.5 343t-51 382.5zM119 1434q0 -193 50 -371t141 -334t218 -283t283 -218t334 -141t371 -50t370.5 50t333.5 141t283 218t218 283t141 334t50 371t-50 370.5t-141 333.5t-218 283t-283 218t-333.5 141t-370.5 50t-371 -50 t-334 -141t-283 -218t-218 -283t-141 -334t-50 -370zM428 1008v829h303q131 0 214 -62.5t83 -185.5t-85 -191.5t-216 -68.5h-262v-321h-37zM465 1366h262q70 0 119 18.5t82 49t48 70.5t15 85t-14 83t-46 66.5t-81 45t-119 16.5h-266v-434zM1122 1423q0 90 32 169t88 138.5 t136 93.5t176 34t176 -30t136.5 -86t88.5 -137t32 -182q0 -102 -32 -182t-88.5 -136t-136 -86t-176.5 -30q-96 0 -176 32t-136 90t-88 137t-32 175zM1159 1423q0 -98 33 -171.5t87 -124t126 -76t149 -25.5q74 0 144.5 21.5t126 69.5t90.5 123t35 183q0 100 -32 175 t-85 124.5t-126 74t-153 24.5t-152.5 -28t-125.5 -80t-85 -126t-32 -164zM2036 1837h41l233 -352q4 -6 12.5 -16.5t18.5 -10.5t18 10.5t13 16.5l233 352h39l-238 -362q-6 -10 -13 -19.5t-15 -13.5q10 -2 28 -33l230 -401h-39l-223 387q-6 10 -13.5 20t-19.5 10t-19.5 -10 t-13.5 -20l-225 -387h-37l229 401q18 31 29 33q-8 4 -15.5 13t-13.5 20z" />
<glyph unicode="Q" d="M82 1434q0 197 51 380t144.5 342.5t223.5 290.5t289.5 224.5t343 144.5t382.5 51q197 0 380 -51t342.5 -144.5t290.5 -224.5t224.5 -290.5t144.5 -343t51 -379.5q0 -199 -51 -382.5t-144.5 -343t-224.5 -289.5t-290.5 -223.5t-343 -144.5t-379.5 -51q-199 0 -382.5 51 t-343 144.5t-289.5 223.5t-223.5 289.5t-144.5 343t-51 382.5zM119 1434q0 -193 50 -371t141 -334t218 -283t283 -218t334 -141t371 -50t370.5 50t333.5 141t283 218t218 283t141 334t50 371t-50 370.5t-141 333.5t-218 283t-283 218t-333.5 141t-370.5 50t-371 -50 t-334 -141t-283 -218t-218 -283t-141 -334t-50 -370zM745 1290h37q2 -70 25.5 -117t63.5 -75.5t93.5 -41t112.5 -12.5q139 0 213 51.5t74 135.5q0 53 -33 88t-80 56.5t-99 33.5t-91 25q-43 12 -94.5 26.5t-95.5 39t-74.5 63.5t-30.5 98t25.5 100t67.5 65.5t93.5 35 t100.5 10.5q82 0 140 -19.5t97 -53.5t58.5 -78t21.5 -95h-37q-4 100 -78.5 154.5t-201.5 54.5q-45 0 -89 -8t-80 -28.5t-58.5 -54.5t-22.5 -83q0 -51 26.5 -83t66.5 -52.5t86 -33t87 -24.5q45 -14 102.5 -29.5t108.5 -40t86 -64.5t35 -103q0 -53 -24.5 -95t-68.5 -71 t-103.5 -43t-127.5 -14q-160 0 -243.5 70.5t-88.5 211.5zM1542 1026v829h37v-829h-37zM1749 1104v751h37v-745q0 -47 41 -47h454v-37h-454q-10 0 -23.5 2t-26 9t-20.5 22.5t-8 44.5z" />
<glyph unicode="R" d="M938 0l1051 1317q35 41 49 63.5t14 51.5t-14.5 52t-48.5 64l-1051 1319h55l1018 -1284q27 -33 54.5 -73t27.5 -78q0 -39 -27.5 -77t-54.5 -71l-1018 -1284h-55z" />
<glyph unicode="S" d="M82 1434q0 197 51 380t144.5 342.5t223.5 290.5t289.5 224.5t343 144.5t382.5 51q197 0 380 -51t342.5 -144.5t290.5 -224.5t224.5 -290.5t144.5 -343t51 -379.5q0 -199 -51 -382.5t-144.5 -343t-224.5 -289.5t-290.5 -223.5t-343 -144.5t-379.5 -51q-199 0 -382.5 51 t-343 144.5t-289.5 223.5t-223.5 289.5t-144.5 343t-51 382.5zM119 1434q0 -193 50 -371t141 -334t218 -283t283 -218t334 -141t371 -50t370.5 50t333.5 141t283 218t218 283t141 334t50 371t-50 370.5t-141 333.5t-218 283t-283 218t-333.5 141t-370.5 50t-371 -50 t-334 -141t-283 -218t-218 -283t-141 -334t-50 -370zM506 1763q0 10 7 15.5t15 5.5h717l246 692q8 23 25 23q14 0 22 -23l254 -692h713q20 0 20 -21q0 -12 -14 -22l-586 -416l215 -692q8 -25 8 -37q0 -16 -16 -16q-10 0 -24.5 9t-24.5 17l-567 404l-584 -416 q-20 -14 -29 -14q-18 0 -18 16q0 10 8 35l217 694l-584 412q-20 14 -20 26zM592 1741l567 -398l-215 -690l572 410l577 -412l-217 690l565 400h-678l-247 676l-242 -676h-682z" />
<glyph unicode="T" d="M289 737q0 16 11 28.5t28 12.5q16 0 28.5 -12t12.5 -29q0 -16 -12.5 -27.5t-28.5 -11.5q-39 0 -39 39zM289 1018q0 16 11 28.5t28 12.5q16 0 28.5 -12.5t12.5 -28.5t-12.5 -27.5t-28.5 -11.5q-39 0 -39 39zM289 1296q0 16 11 28.5t28 12.5q16 0 28.5 -12t12.5 -29 q0 -16 -12.5 -27.5t-28.5 -11.5q-39 0 -39 39zM289 1575q0 16 11 28.5t28 12.5q16 0 28.5 -12.5t12.5 -28.5t-12.5 -27.5t-28.5 -11.5q-39 0 -39 39zM289 1853q0 16 11 28.5t28 12.5q16 0 28.5 -12t12.5 -29q0 -16 -12.5 -27t-28.5 -11q-39 -1 -39 38zM289 2132 q0 16 11 28.5t28 12.5q16 0 28.5 -12.5t12.5 -28.5t-12.5 -27.5t-28.5 -11.5q-39 0 -39 39zM512 879q0 23 16.5 39t38.5 16q23 0 39.5 -16.5t16.5 -38.5q0 -23 -16.5 -39.5t-39.5 -16.5t-39 16.5t-16 39.5zM512 1157q0 23 16.5 39t38.5 16q23 0 39.5 -16t16.5 -39t-16.5 -39 t-39.5 -16t-39 16t-16 39zM512 1436q0 23 16.5 39t38.5 16q23 0 39.5 -16.5t16.5 -38.5q0 -23 -16.5 -39.5t-39.5 -16.5t-39 16.5t-16 39.5zM512 1716q0 23 16.5 39.5t38.5 16.5q23 0 39.5 -16.5t16.5 -39.5t-16.5 -39t-39.5 -16t-39 16t-16 39zM512 1995q0 23 16.5 39 t38.5 16q23 0 39.5 -16.5t16.5 -38.5q0 -23 -16.5 -39.5t-39.5 -16.5t-39 16.5t-16 39.5zM524 600q0 16 11.5 28.5t27.5 12.5t28.5 -12.5t12.5 -28.5t-12 -27.5t-29 -11.5q-39 0 -39 39zM524 2273q0 16 11.5 28.5t27.5 12.5t28.5 -12t12.5 -29q0 -16 -12 -27.5t-29 -11.5 q-39 0 -39 39zM733 1018q0 29 20.5 50.5t49.5 21.5t50 -21.5t21 -50.5t-21.5 -49.5t-49.5 -20.5q-29 0 -49.5 20.5t-20.5 49.5zM733 1296q0 29 20.5 50.5t49.5 21.5t50 -21.5t21 -50.5t-21.5 -49t-49.5 -20q-29 0 -49.5 20t-20.5 49zM733 1577q0 29 20.5 50.5t49.5 21.5 t50 -21.5t21 -50.5t-21.5 -49.5t-49.5 -20.5q-29 0 -49.5 20.5t-20.5 49.5zM733 1853q0 29 20.5 50.5t49.5 21.5t50 -21.5t21 -50.5t-21.5 -49t-49.5 -20q-29 0 -49.5 20t-20.5 49zM748 739q0 23 16 39.5t39 16.5t39 -16.5t16 -39.5t-16.5 -39t-38.5 -16q-23 0 -39 16 t-16 39zM748 2134q0 23 16 39t39 16t39 -16t16 -39t-16.5 -39t-38.5 -16q-23 0 -39 16t-16 39zM764 459q0 16 11 28.5t28 12.5q16 0 28.5 -12.5t12.5 -28.5t-12.5 -27.5t-28.5 -11.5q-39 0 -39 39zM764 2413q0 16 11 28.5t28 12.5q16 0 28.5 -12.5t12.5 -28.5t-12.5 -27.5 t-28.5 -11.5q-39 0 -39 39zM934 1157q0 45 31.5 77t76.5 32t77 -32t32 -77t-32 -76.5t-77 -31.5t-76.5 31.5t-31.5 76.5zM934 1436q0 45 31.5 76.5t76.5 31.5t77 -31.5t32 -76.5t-32 -77t-77 -32t-76.5 32t-31.5 77zM934 1716q0 45 31.5 77t76.5 32t77 -32t32 -77t-32 -76.5 t-77 -31.5t-76.5 31.5t-31.5 76.5zM971 1995q0 29 20.5 50t48.5 21q29 0 50.5 -21.5t21.5 -49.5q0 -29 -21.5 -49.5t-50.5 -20.5t-49 20.5t-20 49.5zM973 879q0 29 20.5 50t48.5 21q29 0 50.5 -21.5t21.5 -49.5q0 -29 -21.5 -49.5t-50.5 -20.5t-49 20.5t-20 49.5zM987 600 q0 23 16.5 39t38.5 16q23 0 39.5 -16t16.5 -39t-16.5 -39t-39.5 -16t-39 16t-16 39zM987 2273q0 23 16.5 39.5t38.5 16.5q23 0 39.5 -16.5t16.5 -39.5t-16.5 -39t-39.5 -16t-39 16t-16 39zM999 319q0 16 11.5 28.5t27.5 12.5t28.5 -12t12.5 -29q0 -16 -12 -27t-29 -11 q-39 -1 -39 38zM999 2552q0 16 11.5 28.5t27.5 12.5t28.5 -12.5t12.5 -28.5t-12 -27.5t-29 -11.5q-39 0 -39 39zM1169 1296q0 45 32 77t77 32t76.5 -32t31.5 -77t-31.5 -76.5t-76.5 -31.5t-77 31.5t-32 76.5zM1169 1577q0 45 32 77t77 32t76.5 -32t31.5 -77t-31.5 -77 t-76.5 -32t-77 32t-32 77zM1169 1853q0 45 32 77t77 32t76.5 -32t31.5 -77t-31.5 -76.5t-76.5 -31.5t-77 31.5t-32 76.5zM1171 1018q0 45 32 76.5t77 31.5t77 -31.5t32 -76.5t-32 -77t-77 -32t-77 32t-32 77zM1208 739q0 29 20.5 50.5t49.5 21.5t50.5 -21.5t21.5 -50.5 t-21.5 -49t-50.5 -20t-49.5 20t-20.5 49zM1208 2134q0 29 20.5 50.5t49.5 21.5t50.5 -21.5t21.5 -50.5t-21.5 -49.5t-50.5 -20.5t-49.5 20.5t-20.5 49.5zM1223 461q0 23 16 39t39 16t39 -16.5t16 -38.5q0 -23 -16.5 -39t-38.5 -16q-23 0 -39 16t-16 39zM1223 2413 q0 23 16 39t39 16t39 -16.5t16 -38.5q0 -23 -16.5 -39.5t-38.5 -16.5q-23 0 -39 16.5t-16 39.5zM1239 178q0 16 11.5 28.5t27.5 12.5t28.5 -12t12.5 -29q0 -16 -12.5 -27.5t-28.5 -11.5q-39 0 -39 39zM1239 2693q0 16 11.5 28.5t27.5 12.5t28.5 -12t12.5 -29 q0 -16 -12.5 -27.5t-28.5 -11.5q-39 0 -39 39zM1405 879q0 45 31.5 76.5t76.5 31.5t77 -31.5t32 -76.5t-31.5 -77t-77.5 -32q-45 0 -76.5 32t-31.5 77zM1405 1157q0 45 31.5 77t76.5 32t77 -32t32 -77t-31.5 -76.5t-77.5 -31.5q-45 0 -76.5 31.5t-31.5 76.5zM1405 1436 q0 45 31.5 76.5t76.5 31.5t77 -31.5t32 -76.5t-31.5 -77t-77.5 -32q-45 0 -76.5 32t-31.5 77zM1405 1716q0 45 31.5 77t76.5 32t77 -32t32 -77t-31.5 -76.5t-77.5 -31.5q-45 0 -76.5 31.5t-31.5 76.5zM1405 1995q0 45 31.5 76.5t76.5 31.5t77 -31.5t32 -76.5t-31.5 -77 t-77.5 -32q-45 0 -76.5 32t-31.5 77zM1444 600q0 29 20.5 50.5t48.5 21.5q29 0 50.5 -21.5t21.5 -50.5t-21.5 -49.5t-50.5 -20.5t-49 20.5t-20 49.5zM1444 2273q0 29 20.5 50.5t48.5 21.5q29 0 50.5 -21.5t21.5 -50.5t-21.5 -49t-50.5 -20t-49 20t-20 49zM1458 319 q0 23 16.5 39.5t38.5 16.5q23 0 39.5 -16.5t16.5 -39.5t-16.5 -39t-39.5 -16t-39 16t-16 39zM1458 2556q0 23 16.5 39t38.5 16q23 0 39.5 -16.5t16.5 -38.5q0 -23 -16.5 -39t-39.5 -16t-39 16t-16 39zM1475 39q0 16 11 28.5t27 12.5t28.5 -12.5t12.5 -28.5t-12 -27.5 t-29 -11.5q-38 0 -38 39zM1475 2832q0 16 11 28.5t27 12.5t28.5 -12t12.5 -29q0 -16 -12 -27.5t-29 -11.5q-38 0 -38 39zM1642 1018q0 45 32 76.5t77 31.5t77 -31.5t32 -76.5t-32 -77t-77 -32t-77 32t-32 77zM1642 1296q0 45 32 77t77 32t77 -32t32 -77t-32 -76.5t-77 -31.5 t-77 31.5t-32 76.5zM1642 1577q0 45 32 77t77 32t77 -32t32 -77t-32 -77t-77 -32t-77 32t-32 77zM1642 1853q0 45 32 77t77 32t77 -32t32 -77t-32 -76.5t-77 -31.5t-77 31.5t-32 76.5zM1681 739q0 29 20.5 50.5t49.5 21.5t50.5 -21.5t21.5 -50.5t-21.5 -49t-50.5 -20 t-49.5 20t-20.5 49zM1681 2132q0 29 20.5 50.5t49.5 21.5t50.5 -21.5t21.5 -50.5t-21.5 -49.5t-50.5 -20.5t-49.5 20.5t-20.5 49.5zM1696 461q0 23 16.5 39t38.5 16q23 0 39 -16.5t16 -38.5q0 -23 -16 -39t-39 -16t-39 16t-16 39zM1696 2413q0 23 16.5 39t38.5 16 q23 0 39 -16.5t16 -38.5q0 -23 -16 -39.5t-39 -16.5t-39 16.5t-16 39.5zM1712 178q0 16 11.5 28.5t27.5 12.5t28.5 -12t12.5 -29q0 -16 -12.5 -27.5t-28.5 -11.5q-39 0 -39 39zM1712 2693q0 16 11.5 28.5t27.5 12.5t28.5 -12t12.5 -29q0 -16 -12.5 -27.5t-28.5 -11.5 q-39 0 -39 39zM1880 1157q0 45 32 77t77 32t76.5 -32t31.5 -77t-31.5 -76.5t-76.5 -31.5t-77 31.5t-32 76.5zM1880 1436q0 45 32 76.5t77 31.5t76.5 -31.5t31.5 -76.5t-31.5 -77t-76.5 -32t-77 32t-32 77zM1880 1716q0 45 32 77t77 32t76.5 -32t31.5 -77t-31.5 -76.5 t-76.5 -31.5t-77 31.5t-32 76.5zM1919 879q0 29 20.5 50t49.5 21t50 -21.5t21 -49.5q0 -29 -21.5 -49.5t-49.5 -20.5q-29 0 -49.5 20.5t-20.5 49.5zM1919 1995q0 29 20.5 50t49.5 21t50 -21.5t21 -49.5q0 -29 -21.5 -49.5t-49.5 -20.5q-29 0 -49.5 20.5t-20.5 49.5z M1933 600q0 23 16.5 39t39.5 16t39 -16t16 -39t-16.5 -39t-38.5 -16q-23 0 -39.5 16t-16.5 39zM1933 2273q0 23 16.5 39.5t39.5 16.5t39 -16.5t16 -39.5t-16.5 -39t-38.5 -16q-23 0 -39.5 16t-16.5 39zM1950 319q0 16 11 28.5t28 12.5q16 0 28.5 -12t12.5 -29 q0 -16 -12.5 -27t-28.5 -11h-2q-37 0 -37 38zM1950 2552q0 16 11 28.5t28 12.5q16 0 28.5 -12.5t12.5 -28.5t-12.5 -27.5t-28.5 -11.5q-39 0 -39 39zM2157 1018q0 29 20.5 50.5t48.5 21.5q29 0 50.5 -21.5t21.5 -50.5t-21.5 -49.5t-50.5 -20.5t-49 20.5t-20 49.5zM2157 1296 q0 29 20.5 50.5t48.5 21.5q29 0 50.5 -21.5t21.5 -50.5t-21.5 -49t-50.5 -20t-49 20t-20 49zM2157 1577q0 29 20.5 50.5t48.5 21.5q29 0 50.5 -21.5t21.5 -50.5t-21.5 -49.5t-50.5 -20.5t-49 20.5t-20 49.5zM2157 1853q0 29 20.5 50.5t48.5 21.5q29 0 50.5 -21.5t21.5 -50.5 t-21.5 -49t-50.5 -20t-49 20t-20 49zM2171 739q0 23 16.5 39.5t38.5 16.5q23 0 39 -16.5t16 -39.5t-16 -39t-39 -16t-39 16t-16 39zM2171 2134q0 23 16.5 39t38.5 16q23 0 39 -16t16 -39t-16 -39t-39 -16t-39 16t-16 39zM2187 459q0 16 11.5 28.5t27.5 12.5t28.5 -12.5 t12.5 -28.5t-12 -27.5t-29 -11.5q-39 0 -39 39zM2187 2413q0 16 11.5 28.5t27.5 12.5t28.5 -12.5t12.5 -28.5t-12 -27.5t-29 -11.5q-39 0 -39 39zM2408 879q0 23 16.5 39t39.5 16t39 -16.5t16 -38.5q0 -23 -16.5 -39.5t-38.5 -16.5q-23 0 -39.5 16.5t-16.5 39.5zM2408 1157 q0 23 16.5 39t39.5 16t39 -16t16 -39t-16.5 -39t-38.5 -16q-23 0 -39.5 16t-16.5 39zM2408 1436q0 23 16.5 39t39.5 16t39 -16.5t16 -38.5q0 -23 -16.5 -39.5t-38.5 -16.5q-23 0 -39.5 16.5t-16.5 39.5zM2408 1716q0 23 16.5 39.5t39.5 16.5t39 -16.5t16 -39.5t-16.5 -39 t-38.5 -16q-23 0 -39.5 16t-16.5 39zM2408 1995q0 23 16.5 39t39.5 16t39 -16.5t16 -38.5q0 -23 -16.5 -39.5t-38.5 -16.5q-23 0 -39.5 16.5t-16.5 39.5zM2425 600q0 16 11 28.5t28 12.5q16 0 28.5 -12.5t12.5 -28.5t-12.5 -27.5t-28.5 -11.5q-39 0 -39 39zM2425 2273 q0 16 11 28.5t28 12.5q16 0 28.5 -12t12.5 -29q0 -16 -12.5 -27.5t-28.5 -11.5q-39 0 -39 39zM2662 737q0 16 11.5 28.5t27.5 12.5t28.5 -12t12.5 -29q0 -16 -12 -27.5t-29 -11.5q-39 0 -39 39zM2662 1018q0 16 11.5 28.5t27.5 12.5t28.5 -12.5t12.5 -28.5t-12 -27.5 t-29 -11.5q-39 0 -39 39zM2662 1296q0 16 11.5 28.5t27.5 12.5t28.5 -12t12.5 -29q0 -16 -12 -27.5t-29 -11.5q-39 0 -39 39zM2662 1575q0 16 11.5 28.5t27.5 12.5t28.5 -12.5t12.5 -28.5t-12 -27.5t-29 -11.5q-39 0 -39 39zM2662 1853q0 16 11.5 28.5t27.5 12.5t28.5 -12 t12.5 -29q0 -16 -12 -27t-29 -11h-2q-37 0 -37 38zM2662 2132q0 16 11.5 28.5t27.5 12.5t28.5 -12.5t12.5 -28.5t-12 -27.5t-29 -11.5q-39 0 -39 39z" />
<glyph unicode="U" horiz-adv-x="7544" d="M82 2177h330l460 -989l367 905q6 12 17.5 31.5t33 38t51 32t72.5 13.5q41 0 69.5 -14.5t49 -33t32 -38t15.5 -31.5l369 -901l458 987h332l-637 -1358q-29 -59 -61.5 -90t-91.5 -31t-93 33t-59 88l-383 860l-387 -860q-27 -59 -60.5 -90t-93.5 -31q-59 0 -93 31t-62 90z M2783 1425q0 178 68.5 322.5t178.5 247t246 158t273 55.5q135 0 270.5 -55.5t245 -158t178 -246.5t68.5 -323q0 -37 -2 -70.5t-6 -66.5h-1168q14 -72 54.5 -135t95.5 -110.5t124 -74t140 -26.5q70 0 119 14.5t87 41t68.5 61.5t61.5 78h375q-25 -70 -83 -157t-147.5 -163 t-209 -127t-271.5 -51q-137 0 -274 56.5t-246 159.5t-177.5 247.5t-68.5 322.5zM3131 1585h809q-18 68 -58 125t-94 99t-119.5 65.5t-135.5 23.5t-134.5 -21.5t-117.5 -62t-92 -99t-58 -130.5zM4375 2177h327l428 -956l432 956h326l-604 -1358q-25 -55 -59.5 -88t-94.5 -33 q-59 0 -93 33t-58 88zM5931 1425q0 178 68.5 322.5t178 247t247 158t274.5 55.5q135 0 272.5 -55.5t246 -158t177 -246.5t68.5 -323q0 -178 -68.5 -322.5t-178 -247.5t-246 -159.5t-271.5 -56.5q-137 0 -274.5 56.5t-247 159.5t-178 247.5t-68.5 322.5zM6259 1423 q0 -104 40 -192t102 -152.5t141 -100.5t157 -36q76 0 154.5 36t141 100.5t102.5 152.5t40 192q0 102 -40 189.5t-102.5 151t-141 99t-154.5 35.5q-78 0 -157 -35.5t-141 -99t-102 -150.5t-40 -190z" />
<glyph unicode="V" horiz-adv-x="10735" d="M82 737q0 16 11 28.5t28 12.5q16 0 28.5 -12t12.5 -29q0 -16 -12.5 -27.5t-28.5 -11.5q-39 0 -39 39zM82 1018q0 16 11 28.5t28 12.5q16 0 28.5 -12.5t12.5 -28.5t-12.5 -27.5t-28.5 -11.5q-39 0 -39 39zM82 1296q0 16 11 28.5t28 12.5q16 0 28.5 -12t12.5 -29 q0 -16 -12.5 -27.5t-28.5 -11.5q-39 0 -39 39zM82 1575q0 16 11 28.5t28 12.5q16 0 28.5 -12.5t12.5 -28.5t-12.5 -27.5t-28.5 -11.5q-39 0 -39 39zM82 1853q0 16 11 28.5t28 12.5q16 0 28.5 -12t12.5 -29q0 -16 -12.5 -27t-28.5 -11q-39 -1 -39 38zM82 2132q0 16 11 28.5 t28 12.5q16 0 28.5 -12.5t12.5 -28.5t-12.5 -27.5t-28.5 -11.5q-39 0 -39 39zM305 879q0 23 16.5 39t38.5 16q23 0 39.5 -16.5t16.5 -38.5q0 -23 -16.5 -39.5t-39.5 -16.5t-39 16.5t-16 39.5zM305 1157q0 23 16.5 39t38.5 16q23 0 39.5 -16t16.5 -39t-16.5 -39t-39.5 -16 t-39 16t-16 39zM305 1436q0 23 16.5 39t38.5 16q23 0 39.5 -16.5t16.5 -38.5q0 -23 -16.5 -39.5t-39.5 -16.5t-39 16.5t-16 39.5zM305 1716q0 23 16.5 39.5t38.5 16.5q23 0 39.5 -16.5t16.5 -39.5t-16.5 -39t-39.5 -16t-39 16t-16 39zM305 1995q0 23 16.5 39t38.5 16 q23 0 39.5 -16.5t16.5 -38.5q0 -23 -16.5 -39.5t-39.5 -16.5t-39 16.5t-16 39.5zM317 600q0 16 11.5 28.5t27.5 12.5t28.5 -12.5t12.5 -28.5t-12 -27.5t-29 -11.5q-39 0 -39 39zM317 2273q0 16 11.5 28.5t27.5 12.5t28.5 -12t12.5 -29q0 -16 -12 -27.5t-29 -11.5 q-39 0 -39 39zM526 1018q0 29 20.5 50.5t49.5 21.5t50.5 -21.5t21.5 -50.5t-21.5 -49.5t-50.5 -20.5t-49.5 20.5t-20.5 49.5zM526 1296q0 29 20.5 50.5t49.5 21.5t50.5 -21.5t21.5 -50.5t-21.5 -49t-50.5 -20t-49.5 20t-20.5 49zM526 1577q0 29 20.5 50.5t49.5 21.5 t50.5 -21.5t21.5 -50.5t-21.5 -49.5t-50.5 -20.5t-49.5 20.5t-20.5 49.5zM526 1853q0 29 20.5 50.5t49.5 21.5t50.5 -21.5t21.5 -50.5t-21.5 -49t-50.5 -20t-49.5 20t-20.5 49zM541 739q0 23 16 39.5t39 16.5t39 -16.5t16 -39.5t-16.5 -39t-38.5 -16q-23 0 -39 16t-16 39z M541 2134q0 23 16 39t39 16t39 -16t16 -39t-16.5 -39t-38.5 -16q-23 0 -39 16t-16 39zM557 459q0 16 11.5 28.5t27.5 12.5t28.5 -12.5t12.5 -28.5t-12.5 -27.5t-28.5 -11.5q-39 0 -39 39zM557 2413q0 16 11.5 28.5t27.5 12.5t28.5 -12.5t12.5 -28.5t-12.5 -27.5t-28.5 -11.5 q-39 0 -39 39zM727 1159q0 45 32 77t77 32t76.5 -32t31.5 -77t-31.5 -76.5t-76.5 -31.5t-77 31.5t-32 76.5zM727 1436q0 45 32 76.5t77 31.5t76.5 -31.5t31.5 -76.5t-31.5 -77t-76.5 -32t-77 32t-32 77zM727 1716q0 45 32 77t77 32t76.5 -32t31.5 -77t-31.5 -76.5 t-76.5 -31.5t-77 31.5t-32 76.5zM764 1995q0 29 20.5 50t49.5 21t50 -21.5t21 -49.5q0 -29 -21.5 -49.5t-49.5 -20.5q-29 0 -49.5 20.5t-20.5 49.5zM766 879q0 29 20.5 50t49.5 21t50 -21.5t21 -49.5q0 -29 -21.5 -49.5t-49.5 -20.5q-29 0 -49.5 20.5t-20.5 49.5zM780 600 q0 23 16.5 39t39.5 16t39 -16t16 -39t-16.5 -39t-38.5 -16q-23 0 -39.5 16t-16.5 39zM780 2273q0 23 16.5 39.5t39.5 16.5t39 -16.5t16 -39.5t-16.5 -39t-38.5 -16q-23 0 -39.5 16t-16.5 39zM793 319q0 16 11 28.5t27 12.5t28.5 -12t12.5 -29q0 -16 -12 -27t-29 -11 q-38 -1 -38 38zM793 2552q0 16 11 28.5t27 12.5t28.5 -12.5t12.5 -28.5t-12 -27.5t-29 -11.5q-38 0 -38 39zM963 1296q0 45 31.5 77t76.5 32t77 -32t32 -77t-32 -76.5t-77 -31.5t-76.5 31.5t-31.5 76.5zM963 1577q0 45 31.5 77t76.5 32t77 -32t32 -77t-32 -77t-77 -32 t-76.5 32t-31.5 77zM963 1853q0 45 31.5 77t76.5 32t77 -32t32 -77t-32 -76.5t-77 -31.5t-76.5 31.5t-31.5 76.5zM965 1018q0 45 31.5 76.5t76.5 31.5t77 -31.5t32 -76.5t-32 -77t-77 -32t-76.5 32t-31.5 77zM1001 739q0 29 20.5 50.5t49.5 21.5t50.5 -21.5t21.5 -50.5 t-21.5 -49t-50.5 -20t-49.5 20t-20.5 49zM1001 2134q0 29 20.5 50.5t49.5 21.5t50.5 -21.5t21.5 -50.5t-21.5 -49.5t-50.5 -20.5t-49.5 20.5t-20.5 49.5zM1016 461q0 23 16.5 39t38.5 16q23 0 39 -16.5t16 -38.5q0 -23 -16 -39t-39 -16t-39 16t-16 39zM1016 2413 q0 23 16.5 39t38.5 16q23 0 39 -16.5t16 -38.5q0 -23 -16 -39.5t-39 -16.5t-39 16.5t-16 39.5zM1032 178q0 16 11.5 28.5t27.5 12.5t28.5 -12t12.5 -29q0 -16 -12.5 -27.5t-28.5 -11.5q-39 0 -39 39zM1032 2693q0 16 11.5 28.5t27.5 12.5t28.5 -12t12.5 -29 q0 -16 -12.5 -27.5t-28.5 -11.5q-39 0 -39 39zM1198 879q0 45 32 76.5t77 31.5t76.5 -31.5t31.5 -76.5t-31.5 -77t-76.5 -32t-77 32t-32 77zM1198 1159q0 45 32 77t77 32t76.5 -32t31.5 -77t-31.5 -76.5t-76.5 -31.5t-77 31.5t-32 76.5zM1198 1436q0 45 32 76.5t77 31.5 t76.5 -31.5t31.5 -76.5t-31.5 -77t-76.5 -32t-77 32t-32 77zM1198 1716q0 45 32 77t77 32t76.5 -32t31.5 -77t-31.5 -76.5t-76.5 -31.5t-77 31.5t-32 76.5zM1198 1995q0 45 32 76.5t77 31.5t76.5 -31.5t31.5 -76.5t-31.5 -77t-76.5 -32t-77 32t-32 77zM1237 600 q0 29 20.5 50.5t49.5 21.5t50 -21.5t21 -50.5t-21.5 -49.5t-49.5 -20.5q-29 0 -49.5 20.5t-20.5 49.5zM1237 2273q0 29 20.5 50.5t49.5 21.5t50 -21.5t21 -50.5t-21.5 -49t-49.5 -20q-29 0 -49.5 20t-20.5 49zM1251 319q0 23 16.5 39.5t39.5 16.5t39 -16.5t16 -39.5 t-16.5 -39t-38.5 -16q-23 0 -39.5 16t-16.5 39zM1251 2556q0 23 16.5 39t39.5 16t39 -16.5t16 -38.5q0 -23 -16.5 -39t-38.5 -16q-23 0 -39.5 16t-16.5 39zM1268 39q0 16 11 28.5t28 12.5q16 0 28.5 -12.5t12.5 -28.5t-12.5 -27.5t-28.5 -11.5q-39 0 -39 39zM1268 2832 q0 16 11 28.5t28 12.5q16 0 28.5 -12t12.5 -29q0 -16 -12.5 -27.5t-28.5 -11.5q-39 0 -39 39zM1436 1018q0 45 31.5 76.5t76.5 31.5t77 -31.5t32 -76.5t-32 -77t-77 -32t-76.5 32t-31.5 77zM1436 1296q0 45 31.5 77t76.5 32t77 -32t32 -77t-32 -76.5t-77 -31.5t-76.5 31.5 t-31.5 76.5zM1436 1577q0 45 31.5 77t76.5 32t77 -32t32 -77t-32 -77t-77 -32t-76.5 32t-31.5 77zM1436 1853q0 45 31.5 77t76.5 32t77 -32t32 -77t-32 -76.5t-77 -31.5t-76.5 31.5t-31.5 76.5zM1475 739q0 29 20.5 50.5t48.5 21.5q29 0 50.5 -21.5t21.5 -50.5t-21.5 -49 t-50.5 -20t-49 20t-20 49zM1475 2132q0 29 20.5 50.5t48.5 21.5q29 0 50.5 -21.5t21.5 -50.5t-21.5 -49.5t-50.5 -20.5t-49 20.5t-20 49.5zM1489 461q0 23 16.5 39t38.5 16q23 0 39 -16.5t16 -38.5q0 -23 -16 -39t-39 -16t-39 16t-16 39zM1489 2413q0 23 16.5 39t38.5 16 q23 0 39 -16.5t16 -38.5q0 -23 -16 -39.5t-39 -16.5t-39 16.5t-16 39.5zM1505 178q0 16 11.5 28.5t27.5 12.5t28.5 -12t12.5 -29q0 -16 -12 -27.5t-29 -11.5q-39 0 -39 39zM1505 2693q0 16 11.5 28.5t27.5 12.5t28.5 -12t12.5 -29q0 -16 -12 -27.5t-29 -11.5q-39 0 -39 39z M1673 1157q0 45 32 77t77 32t76.5 -32t31.5 -77t-31.5 -76.5t-76.5 -31.5t-77 31.5t-32 76.5zM1673 1436q0 45 32 76.5t77 31.5t76.5 -31.5t31.5 -76.5t-31.5 -77t-76.5 -32t-77 32t-32 77zM1673 1716q0 45 32 77t77 32t76.5 -32t31.5 -77t-31.5 -76.5t-76.5 -31.5t-77 31.5 t-32 76.5zM1712 879q0 29 20.5 50t49.5 21t50 -21.5t21 -49.5q0 -29 -21.5 -49.5t-49.5 -20.5q-29 0 -49.5 20.5t-20.5 49.5zM1712 1995q0 29 20.5 50t49.5 21t50 -21.5t21 -49.5q0 -29 -21.5 -49.5t-49.5 -20.5q-29 0 -49.5 20.5t-20.5 49.5zM1726 600q0 23 16.5 39 t39.5 16t39 -16t16 -39t-16.5 -39t-38.5 -16q-23 0 -39.5 16t-16.5 39zM1726 2273q0 23 16.5 39.5t39.5 16.5t39 -16.5t16 -39.5t-16.5 -39t-38.5 -16q-23 0 -39.5 16t-16.5 39zM1743 319q0 16 11 28.5t28 12.5q16 0 28.5 -12t12.5 -29q0 -16 -12.5 -27t-28.5 -11h-2 q-37 0 -37 38zM1743 2552q0 16 11 28.5t28 12.5q16 0 28.5 -12.5t12.5 -28.5t-12.5 -27.5t-28.5 -11.5q-39 0 -39 39zM1950 1018q0 29 20.5 50.5t48.5 21.5q29 0 50.5 -21.5t21.5 -50.5t-21.5 -49.5t-50.5 -20.5t-49 20.5t-20 49.5zM1950 1296q0 29 20.5 50.5t48.5 21.5 q29 0 50.5 -21.5t21.5 -50.5t-21.5 -49t-50.5 -20t-49 20t-20 49zM1950 1577q0 29 20.5 50.5t48.5 21.5q29 0 50.5 -21.5t21.5 -50.5t-21.5 -49.5t-50.5 -20.5t-49 20.5t-20 49.5zM1950 1853q0 29 20.5 50.5t48.5 21.5q29 0 50.5 -21.5t21.5 -50.5t-21.5 -49t-50.5 -20 t-49 20t-20 49zM1964 739q0 23 16.5 39.5t38.5 16.5q23 0 39.5 -16.5t16.5 -39.5t-16.5 -39t-39.5 -16t-39 16t-16 39zM1964 2134q0 23 16.5 39t38.5 16q23 0 39.5 -16t16.5 -39t-16.5 -39t-39.5 -16t-39 16t-16 39zM1980 459q0 16 11.5 28.5t27.5 12.5t28.5 -12.5 t12.5 -28.5t-12 -27.5t-29 -11.5q-39 0 -39 39zM1980 2413q0 16 11.5 28.5t27.5 12.5t28.5 -12.5t12.5 -28.5t-12 -27.5t-29 -11.5q-39 0 -39 39zM2202 879q0 23 16 39t39 16t39 -16.5t16 -38.5q0 -23 -16.5 -39.5t-38.5 -16.5q-23 0 -39 16.5t-16 39.5zM2202 1157 q0 23 16 39t39 16t39 -16t16 -39t-16.5 -39t-38.5 -16q-23 0 -39 16t-16 39zM2202 1436q0 23 16 39t39 16t39 -16.5t16 -38.5q0 -23 -16.5 -39.5t-38.5 -16.5q-23 0 -39 16.5t-16 39.5zM2202 1716q0 23 16 39.5t39 16.5t39 -16.5t16 -39.5t-16.5 -39t-38.5 -16q-23 0 -39 16 t-16 39zM2202 1995q0 23 16 39t39 16t39 -16.5t16 -38.5q0 -23 -16.5 -39.5t-38.5 -16.5q-23 0 -39 16.5t-16 39.5zM2218 600q0 16 11.5 28.5t27.5 12.5t28.5 -12.5t12.5 -28.5t-12.5 -27.5t-28.5 -11.5q-39 0 -39 39zM2218 2273q0 16 11.5 28.5t27.5 12.5t28.5 -12 t12.5 -29q0 -16 -12.5 -27.5t-28.5 -11.5q-39 0 -39 39zM2456 737q0 16 11 28.5t27 12.5t28.5 -12t12.5 -29q0 -16 -12 -27.5t-29 -11.5q-38 0 -38 39zM2456 1018q0 16 11 28.5t27 12.5t28.5 -12.5t12.5 -28.5t-12 -27.5t-29 -11.5q-38 0 -38 39zM2456 1296q0 16 11 28.5 t27 12.5t28.5 -12t12.5 -29q0 -16 -12 -27.5t-29 -11.5q-38 0 -38 39zM2456 1575q0 16 11 28.5t27 12.5t28.5 -12.5t12.5 -28.5t-12 -27.5t-29 -11.5q-38 0 -38 39zM2456 1853q0 16 11 28.5t27 12.5t28.5 -12t12.5 -29q0 -16 -12 -27t-29 -11q-38 -1 -38 38zM2456 2132 q0 16 11 28.5t27 12.5t28.5 -12.5t12.5 -28.5t-12 -27.5t-29 -11.5q-38 0 -38 39zM3273 2177h329l461 -989l367 905q6 12 18.5 31.5t33 38t50 32t72.5 13.5q41 0 69.5 -14.5t49 -33t32 -38t15.5 -31.5l368 -901l459 987h332l-637 -1358q-29 -59 -61.5 -90t-92.5 -31 q-59 0 -93 33t-58 88l-383 860l-387 -860q-27 -59 -60.5 -90t-93.5 -31q-59 0 -93 31t-62 90zM5974 1425q0 178 68.5 322.5t178 247t246 158t273.5 55.5q135 0 270 -55.5t245 -158t178.5 -246.5t68.5 -323q0 -37 -2 -70.5t-6 -66.5h-1168q14 -72 54 -135t95.5 -110.5 t124 -74t140.5 -26.5q70 0 119 14.5t87 41t68.5 61.5t61.5 78h375q-25 -70 -83.5 -157t-147.5 -163t-208.5 -127t-271.5 -51q-137 0 -274.5 56.5t-246 159.5t-177 247.5t-68.5 322.5zM6322 1585h809q-18 68 -58 125t-94.5 99t-119.5 65.5t-135 23.5t-134.5 -21.5t-118 -62 t-92 -99t-57.5 -130.5zM7565 2177h328l428 -956l432 956h326l-604 -1358q-25 -55 -60 -88t-94 -33t-93 33t-59 88zM9122 1425q0 178 68.5 322.5t178 247t247 158t274.5 55.5q135 0 272 -55.5t245.5 -158t177.5 -246.5t69 -323q0 -178 -69 -322.5t-178.5 -247.5 t-245.5 -159.5t-271 -56.5q-137 0 -274.5 56.5t-247 159.5t-178 247.5t-68.5 322.5zM9449 1423q0 -104 40 -192t102.5 -152.5t141.5 -100.5t157 -36q76 0 154.5 36t141 100.5t102.5 152.5t40 192q0 102 -40 189.5t-102.5 151t-141 99t-154.5 35.5q-78 0 -157 -35.5 t-141.5 -99t-102.5 -150.5t-40 -190z" />
<glyph unicode="a" d="M82 1434q0 197 51 380t144.5 342.5t223.5 290.5t289.5 224.5t343 144.5t382.5 51q197 0 380 -51t342.5 -144.5t290.5 -224.5t224.5 -290.5t144.5 -343t51 -379.5q0 -199 -51 -382.5t-144.5 -343t-224.5 -289.5t-290.5 -223.5t-343 -144.5t-379.5 -51q-199 0 -382.5 51 t-343 144.5t-289.5 223.5t-223.5 289.5t-144.5 343t-51 382.5zM119 1434q0 -193 50 -371t141 -334t218 -283t283 -218t334 -141t371 -50t370.5 50t333.5 141t283 218t218 283t141 334t50 371t-50 370.5t-141 333.5t-218 283t-283 218t-333.5 141t-370.5 50t-371 -50 t-334 -141t-283 -218t-218 -283t-141 -334t-50 -370zM664 1430q0 176 67.5 331.5t183 272t270 184.5t331.5 68q176 0 331.5 -68t272 -184.5t184.5 -272t68 -331.5t-68 -331t-184.5 -270.5t-272 -183t-331.5 -67.5t-331 67.5t-270.5 183t-183 270t-67.5 331.5zM705 1430 q0 -168 63 -315.5t174 -258.5t258.5 -174.5t315.5 -63.5t316 63.5t259 174.5t175.5 258.5t64.5 315.5t-64.5 316t-175.5 259t-259 175.5t-316 64.5t-315.5 -64.5t-258.5 -175.5t-174 -259.5t-63 -315.5zM934 1430q0 23 15.5 38t37.5 15q23 0 38 -15.5t15 -37.5 q0 -23 -15 -38.5t-38 -15.5t-38 15.5t-15 38.5zM1200 1716l29 33l291 -283l213 205l28 -33l-245 -233zM1462 901q0 23 15.5 38t38.5 15t38 -15t15 -38t-15.5 -38t-37.5 -15q-23 0 -38.5 15t-15.5 38zM1462 1958q0 23 15.5 38t38.5 15t38 -15.5t15 -37.5q0 -23 -15.5 -38 t-37.5 -15q-23 0 -38.5 15t-15.5 38zM1991 1430q0 23 15 38t38 15t38 -15.5t15 -37.5q0 -23 -15.5 -38.5t-37.5 -15.5q-23 0 -38 15.5t-15 38.5z" />
<glyph unicode="b" d="M82 1434q0 197 51 380t144.5 342.5t223.5 290.5t289.5 224.5t343 144.5t382.5 51q197 0 380 -51t342.5 -144.5t290.5 -224.5t224.5 -290.5t144.5 -343t51 -379.5q0 -199 -51 -382.5t-144.5 -343t-224.5 -289.5t-290.5 -223.5t-343 -144.5t-379.5 -51q-199 0 -382.5 51 t-343 144.5t-289.5 223.5t-223.5 289.5t-144.5 343t-51 382.5zM119 1434q0 -193 50 -371t141 -334t218 -283t283 -218t334 -141t371 -50t370.5 50t333.5 141t283 218t218 283t141 334t50 371t-50 370.5t-141 333.5t-218 283t-283 218t-333.5 141t-370.5 50t-371 -50 t-334 -141t-283 -218t-218 -283t-141 -334t-50 -370zM684 877v49h1655v-49h-1655zM684 1630v49h725q199 0 325 40t196.5 114t96 181.5t25.5 242.5h49q0 -141 -27.5 -257t-104.5 -198t-212 -127t-348 -45h-725zM709 1126q0 23 15 38.5t38 15.5t38 -15.5t15 -38.5t-15.5 -38 t-37.5 -15q-23 0 -38 15t-15 38zM709 1430q0 23 15 38t38 15t38 -15.5t15 -37.5q0 -23 -15.5 -38.5t-37.5 -15.5q-23 0 -38 15.5t-15 38.5zM856 1278q0 23 15.5 38t37.5 15q23 0 38.5 -15.5t15.5 -37.5q0 -23 -15.5 -38t-38.5 -15t-38 15t-15 38zM1008 1126q0 23 15 38.5 t38 15.5t38 -15.5t15 -38.5t-15.5 -38t-37.5 -15q-23 0 -38 15t-15 38zM1008 1430q0 23 15 38t38 15t38 -15.5t15 -37.5q0 -23 -15.5 -38.5t-37.5 -15.5q-23 0 -38 15.5t-15 38.5zM1155 1278q0 23 15.5 38t37.5 15q23 0 38.5 -15.5t15.5 -37.5q0 -23 -15.5 -38t-38.5 -15 t-38 15t-15 38zM1311 1126q0 23 15 38.5t38 15.5t38 -15.5t15 -38.5t-15.5 -38t-37.5 -15q-23 0 -38 15t-15 38zM1311 1430q0 23 15 38t38 15t38 -15.5t15 -37.5q0 -23 -15.5 -38.5t-37.5 -15.5q-23 0 -38 15.5t-15 38.5zM1458 1278q0 23 15.5 38t37.5 15q23 0 38.5 -15.5 t15.5 -37.5q0 -23 -15.5 -38t-38.5 -15t-38 15t-15 38zM1606 1126q0 23 15 38.5t38 15.5t38 -15.5t15 -38.5t-15.5 -38t-37.5 -15q-23 0 -38 15t-15 38zM1606 1430q0 23 15 38t38 15t38 -15.5t15 -37.5q0 -23 -15.5 -38.5t-37.5 -15.5q-23 0 -38 15.5t-15 38.5zM1753 1278 q0 23 15.5 38t37.5 15q23 0 38.5 -15.5t15.5 -37.5q0 -23 -15.5 -38t-38.5 -15t-38 15t-15 38zM1909 1126q0 23 15 38.5t38 15.5t38 -15.5t15 -38.5t-15 -38t-38 -15t-38 15t-15 38zM1909 1430q0 23 15 38t38 15t38 -15.5t15 -37.5q0 -23 -15 -38.5t-38 -15.5t-38 15.5 t-15 38.5zM2056 1278q0 23 15.5 38t37.5 15q23 0 38.5 -15.5t15.5 -37.5q0 -23 -15.5 -38t-38.5 -15t-38 15t-15 38zM2208 1126q0 23 15 38.5t38 15.5t38 -15.5t15 -38.5t-15 -38t-38 -15t-38 15t-15 38zM2208 1430q0 23 15 38t38 15t38 -15.5t15 -37.5q0 -23 -15 -38.5 t-38 -15.5t-38 15.5t-15 38.5z" />
<glyph unicode="c" d="M82 1434q0 197 51 380t144.5 342.5t223.5 290.5t289.5 224.5t343 144.5t382.5 51q197 0 380 -51t342.5 -144.5t290.5 -224.5t224.5 -290.5t144.5 -343t51 -379.5q0 -199 -51 -382.5t-144.5 -343t-224.5 -289.5t-290.5 -223.5t-343 -144.5t-379.5 -51q-199 0 -382.5 51 t-343 144.5t-289.5 223.5t-223.5 289.5t-144.5 343t-51 382.5zM119 1434q0 -193 50 -371t141 -334t218 -283t283 -218t334 -141t371 -50t370.5 50t333.5 141t283 218t218 283t141 334t50 371t-50 370.5t-141 333.5t-218 283t-283 218t-333.5 141t-370.5 50t-371 -50 t-334 -141t-283 -218t-218 -283t-141 -334t-50 -370zM815 1348v761h41v-745l307 -295v-315h-45v295zM1458 979q0 23 15.5 38t37.5 15q23 0 38.5 -15.5t15.5 -37.5q0 -23 -15.5 -38t-38.5 -15t-38 15t-15 38zM1491 1208v901h41v-901h-41zM1647 1434q0 23 15 38t38 15 t38 -15.5t15 -37.5q0 -23 -15.5 -38.5t-37.5 -15.5q-23 0 -38 15.5t-15 38.5zM1647 1733q0 23 15 38t38 15t38 -15.5t15 -37.5q0 -23 -15.5 -38.5t-37.5 -15.5q-23 0 -38 15.5t-15 38.5zM1647 2040q0 23 15 38t38 15t38 -15.5t15 -37.5q0 -23 -15.5 -38t-37.5 -15 q-23 0 -38 15t-15 38zM1651 827q0 23 15 38.5t38 15.5t38 -15.5t15 -38.5t-15.5 -38t-37.5 -15q-23 0 -38 15t-15 38zM1651 1135q0 23 15 38t38 15t38 -15.5t15 -37.5q0 -23 -15.5 -38.5t-37.5 -15.5q-23 0 -38 15.5t-15 38.5zM1802 1282q0 23 15.5 38t37.5 15 q23 0 38.5 -15t15.5 -38t-15.5 -38t-38.5 -15t-38 15t-15 38zM1802 1585q0 23 15.5 38t37.5 15q23 0 38.5 -15t15.5 -38t-15.5 -38t-38.5 -15t-38 15t-15 38zM1802 1884q0 23 15.5 38t37.5 15q23 0 38.5 -15t15.5 -38t-15.5 -38t-38.5 -15t-38 15t-15 38zM1868 754v315 l307 295v745h41v-761l-303 -299v-295h-45zM1950 1434q0 23 15 38t38 15t38 -15.5t15 -37.5q0 -23 -15.5 -38.5t-37.5 -15.5q-23 0 -38 15.5t-15 38.5zM1950 1733q0 23 15 38t38 15t38 -15.5t15 -37.5q0 -23 -15.5 -38.5t-37.5 -15.5q-23 0 -38 15.5t-15 38.5zM1950 2040 q0 23 15 38t38 15t38 -15.5t15 -37.5q0 -23 -15.5 -38t-37.5 -15q-23 0 -38 15t-15 38z" />
<glyph unicode="d" d="M82 1434q0 197 51 380t144.5 342.5t223.5 290.5t289.5 224.5t343 144.5t382.5 51q197 0 380 -51t342.5 -144.5t290.5 -224.5t224.5 -290.5t144.5 -343t51 -379.5q0 -199 -51 -382.5t-144.5 -343t-224.5 -289.5t-290.5 -223.5t-343 -144.5t-379.5 -51q-199 0 -382.5 51 t-343 144.5t-289.5 223.5t-223.5 289.5t-144.5 343t-51 382.5zM119 1434q0 -193 50 -371t141 -334t218 -283t283 -218t334 -141t371 -50t370.5 50t333.5 141t283 218t218 283t141 334t50 371t-50 370.5t-141 333.5t-218 283t-283 218t-333.5 141t-370.5 50t-371 -50 t-334 -141t-283 -218t-218 -283t-141 -334t-50 -370zM528 1487v45h455v-45h-455zM528 1778v45h455v-45h-455zM1139 1004q0 109 57 193.5t147 133.5v766q0 72 47.5 120t118.5 48q72 0 121 -48t49 -120v-766q90 -49 147.5 -134t57.5 -193q0 -76 -29.5 -143.5t-81 -119 t-120 -81t-144.5 -29.5q-78 0 -144.5 29.5t-117.5 81t-79.5 119t-28.5 143.5zM1180 1004q0 -70 26.5 -130.5t70.5 -105.5t104 -70.5t128 -25.5q70 0 130.5 25.5t105.5 70.5t71.5 105.5t26.5 130.5q0 96 -54 177t-147 122v323h-262v-323q-92 -41 -146 -122t-54 -177z M1380 1667h262v430q0 49 -37 90t-96 41t-94 -41t-35 -90v-430zM1835 1847q0 37 26.5 63.5t63.5 26.5t63.5 -26.5t26.5 -63.5t-26.5 -63.5t-63.5 -26.5t-63.5 26.5t-26.5 63.5zM1864 1847q0 -25 18.5 -43t42.5 -18q25 0 43.5 18.5t18.5 42.5q0 25 -18.5 43.5t-43.5 18.5 t-43 -18.5t-18 -43.5zM2089 1712q0 31 8 71t32.5 76.5t71 61.5t121.5 25q51 0 87 -15.5t59.5 -37t36 -48t18.5 -47.5h-49q-12 53 -54 80t-98 27q-98 0 -143 -56.5t-45 -136.5q0 -53 16.5 -88t43 -56.5t59.5 -30.5t65 -9q76 0 110 35.5t46 83.5h49q-16 -72 -68.5 -116 t-136.5 -44q-39 0 -78.5 11t-73.5 38t-55.5 70t-21.5 106z" />
<glyph unicode="e" d="M82 1434q0 197 51 380t144.5 342.5t223.5 290.5t289.5 224.5t343 144.5t382.5 51q197 0 380 -51t342.5 -144.5t290.5 -224.5t224.5 -290.5t144.5 -343t51 -379.5q0 -199 -51 -382.5t-144.5 -343t-224.5 -289.5t-290.5 -223.5t-343 -144.5t-379.5 -51q-199 0 -382.5 51 t-343 144.5t-289.5 223.5t-223.5 289.5t-144.5 343t-51 382.5zM119 1434q0 -193 50 -371t141 -334t218 -283t283 -218t334 -141t371 -50t370.5 50t333.5 141t283 218t218 283t141 334t50 371t-50 370.5t-141 333.5t-218 283t-283 218t-333.5 141t-370.5 50t-371 -50 t-334 -141t-283 -218t-218 -283t-141 -334t-50 -370zM1139 2236v45h749v-45h-164l-122 -303h-177l-122 303h-164zM1217 807q0 96 33.5 184t80.5 185q27 57 56.5 118.5t53 129t39 142t15.5 158.5h37q0 -84 15.5 -158.5t39 -142t52 -129t57.5 -118.5q47 -96 80.5 -184.5 t33.5 -184.5q0 -59 -21.5 -112.5t-61 -95.5t-94 -66.5t-117.5 -24.5q-61 0 -115.5 23.5t-95.5 64.5t-64.5 95t-23.5 116zM1253 807q0 -55 20.5 -103.5t56.5 -83t84 -55t102 -20.5q53 0 100 21.5t82 57t55.5 83t20.5 100.5q0 86 -32 170t-79 178q-43 86 -83.5 179.5 t-63.5 197.5q-25 -104 -67 -197.5t-85 -179.5q-47 -94 -79 -178t-32 -170zM1348 2236l106 -262h119l106 262h-331z" />
<glyph unicode="f" d="M82 1434q0 197 51 380t144.5 342.5t223.5 290.5t289.5 224.5t343 144.5t382.5 51q197 0 380 -51t342.5 -144.5t290.5 -224.5t224.5 -290.5t144.5 -343t51 -379.5q0 -199 -51 -382.5t-144.5 -343t-224.5 -289.5t-290.5 -223.5t-343 -144.5t-379.5 -51q-199 0 -382.5 51 t-343 144.5t-289.5 223.5t-223.5 289.5t-144.5 343t-51 382.5zM119 1434q0 -193 50 -371t141 -334t218 -283t283 -218t334 -141t371 -50t370.5 50t333.5 141t283 218t218 283t141 334t50 371t-50 370.5t-141 333.5t-218 283t-283 218t-333.5 141t-370.5 50t-371 -50 t-334 -141t-283 -218t-218 -283t-141 -334t-50 -370zM684 2232v45h746v-45h-160l-123 -303h-172l-131 303h-160zM754 807q0 96 41 184t90 180q29 57 57.5 121t50 132.5t34.5 144.5t13 160h39q0 -170 48.5 -303.5t109.5 -254.5q49 -96 90 -182t41 -182q0 -59 -24.5 -112.5 t-66.5 -93.5t-97.5 -64.5t-118.5 -24.5t-118.5 22.5t-97.5 62.5t-66.5 94t-24.5 116zM799 807q0 -53 20.5 -100.5t56 -81t84 -53t101.5 -19.5t101 19.5t84 53t56.5 81t20.5 100.5q0 86 -36 170t-83 174t-86 179t-57 198q-12 -53 -26.5 -100.5t-32 -92.5t-38 -90t-46.5 -94 q-49 -92 -84 -175t-35 -169zM889 2232l110 -266h123l103 266h-336zM1589 2232v45h746v-45h-156l-135 -303h-172l-123 303h-160zM1769 1151q0 70 27 129t59.5 122.5t59.5 140.5t27 186h45q0 -109 26.5 -186t59 -140.5t59.5 -122.5t27 -129q0 -80 -53.5 -138.5t-139.5 -58.5 t-141.5 58.5t-55.5 138.5zM1794 2232l107 -266h118l115 266h-340zM1810 1151q0 -68 47.5 -112t108.5 -44t106.5 44t45.5 112q0 53 -19.5 105.5t-45 103.5t-51.5 102.5t-36 106.5q-10 -55 -35.5 -106.5t-52.5 -102.5t-47.5 -103.5t-20.5 -105.5z" />
<glyph unicode="g" d="M82 1434q0 197 51 380t144.5 342.5t223.5 290.5t289.5 224.5t343 144.5t382.5 51q197 0 380 -51t342.5 -144.5t290.5 -224.5t224.5 -290.5t144.5 -343t51 -379.5q0 -199 -51 -382.5t-144.5 -343t-224.5 -289.5t-290.5 -223.5t-343 -144.5t-379.5 -51q-199 0 -382.5 51 t-343 144.5t-289.5 223.5t-223.5 289.5t-144.5 343t-51 382.5zM119 1434q0 -193 50 -371t141 -334t218 -283t283 -218t334 -141t371 -50t370.5 50t333.5 141t283 218t218 283t141 334t50 371t-50 370.5t-141 333.5t-218 283t-283 218t-333.5 141t-370.5 50t-371 -50 t-334 -141t-283 -218t-218 -283t-141 -334t-50 -370zM537 1942v49h610v-49h-131v-1033q0 -72 -50.5 -122t-121.5 -50q-74 0 -125 50.5t-51 121.5v1033h-131zM713 909q0 -55 36 -91t95 -36q53 0 90 36t37 91v578h-258v-578zM713 1532h258v410h-258v-410zM1229 1942v49h594 v-49h-123v-1033q0 -35 -14.5 -66.5t-38 -55t-55 -37t-64.5 -13.5q-72 0 -122 50.5t-50 121.5v1033h-127zM1401 909q0 -55 36 -91t91 -36t91 36t36 91v279h-254v-279zM1401 1233h254v709h-254v-709zM1905 1942v49h606v-49h-127v-1033q0 -72 -52.5 -122t-123.5 -50 q-72 0 -122 50.5t-50 121.5v1033h-131zM2081 909q0 -55 37 -91t90 -36q59 0 95 36t36 91v733h-258v-733zM2081 1688h258v254h-258v-254z" />
<glyph unicode="h" d="M82 1434q0 197 51 380t144.5 342.5t223.5 290.5t289.5 224.5t343 144.5t382.5 51q197 0 380 -51t342.5 -144.5t290.5 -224.5t224.5 -290.5t144.5 -343t51 -379.5q0 -199 -51 -382.5t-144.5 -343t-224.5 -289.5t-290.5 -223.5t-343 -144.5t-379.5 -51q-199 0 -382.5 51 t-343 144.5t-289.5 223.5t-223.5 289.5t-144.5 343t-51 382.5zM119 1434q0 -193 50 -371t141 -334t218 -283t283 -218t334 -141t371 -50t370.5 50t333.5 141t283 218t218 283t141 334t50 371t-50 370.5t-141 333.5t-218 283t-283 218t-333.5 141t-370.5 50t-371 -50 t-334 -141t-283 -218t-218 -283t-141 -334t-50 -370zM811 729v942h1397v-942h-1397zM852 770h1315v860h-1315v-860zM1040 1307v196h41v-196q0 -35 26 -60.5t60 -25.5q53 0 88 -37t35 -86v-197h-41v197q0 35 -23.5 58.5t-58.5 23.5q-53 0 -90 36.5t-37 90.5zM1040 1798v197 q0 53 37 90t90 37q35 0 58.5 23.5t23.5 58.5v196h41v-196q0 -49 -34.5 -86t-88.5 -37q-35 0 -60.5 -25.5t-25.5 -60.5v-197h-41zM1384 1307v196h41v-196q0 -35 26 -60.5t60 -25.5q53 0 88 -37t35 -86v-197h-41v197q0 35 -23.5 58.5t-58.5 23.5q-53 0 -90 36.5t-37 90.5z M1384 1798v197q0 53 37 90t90 37q35 0 58.5 23.5t23.5 58.5v196h41v-196q0 -49 -34.5 -86t-88.5 -37q-35 0 -60.5 -25.5t-25.5 -60.5v-197h-41zM1737 1307v196h41v-196q0 -35 25.5 -60.5t60.5 -25.5q53 0 88 -37t35 -86v-197h-41v197q0 35 -24 58.5t-58 23.5q-53 0 -90 36.5 t-37 90.5zM1737 1798v197q0 53 36.5 90t90.5 37q35 0 58.5 23.5t23.5 58.5v196h41v-196q0 -49 -35 -86t-88 -37q-35 0 -60.5 -25.5t-25.5 -60.5v-197h-41z" />
<glyph unicode="i" d="M82 1434q0 197 51 380t144.5 342.5t223.5 290.5t289.5 224.5t343 144.5t382.5 51q197 0 380 -51t342.5 -144.5t290.5 -224.5t224.5 -290.5t144.5 -343t51 -379.5q0 -199 -51 -382.5t-144.5 -343t-224.5 -289.5t-290.5 -223.5t-343 -144.5t-379.5 -51q-199 0 -382.5 51 t-343 144.5t-289.5 223.5t-223.5 289.5t-144.5 343t-51 382.5zM119 1434q0 -193 50 -371t141 -334t218 -283t283 -218t334 -141t371 -50t370.5 50t333.5 141t283 218t218 283t141 334t50 371t-50 370.5t-141 333.5t-218 283t-283 218t-333.5 141t-370.5 50t-371 -50 t-334 -141t-283 -218t-218 -283t-141 -334t-50 -370zM664 811v795h299v229h294v221h1106v-790h-303v-230h-291v-225h-1105zM705 852h1024v713h-1024v-713zM1004 1606h765v-529h250v717h-1015v-188zM1298 1835h762v-528h262v708h-1024v-180z" />
<glyph unicode="j" d="M82 1434q0 197 51 380t144.5 342.5t223.5 290.5t289.5 224.5t343 144.5t382.5 51q197 0 380 -51t342.5 -144.5t290.5 -224.5t224.5 -290.5t144.5 -343t51 -379.5q0 -199 -51 -382.5t-144.5 -343t-224.5 -289.5t-290.5 -223.5t-343 -144.5t-379.5 -51q-199 0 -382.5 51 t-343 144.5t-289.5 223.5t-223.5 289.5t-144.5 343t-51 382.5zM119 1434q0 -193 50 -371t141 -334t218 -283t283 -218t334 -141t371 -50t370.5 50t333.5 141t283 218t218 283t141 334t50 371t-50 370.5t-141 333.5t-218 283t-283 218t-333.5 141t-370.5 50t-371 -50 t-334 -141t-283 -218t-218 -283t-141 -334t-50 -370zM664 885v1171h1024v-758h180v381h336l163 -397v-397h-229q-6 -61 -55 -106.5t-117 -45.5t-115 45t-53 107h-573q-6 -66 -54.5 -109t-113.5 -43q-66 0 -114 43t-54 109h-225zM705 926h184q6 61 54 106t114 45t114 -45 t54 -106h573q6 61 53 106t115 45t117 -45t55 -106h189v352l-148 360h-270v-381h-1204v-331zM705 1298h409v267h-409v-267zM705 1606h409v409h-409v-409zM926 901q0 -49 38 -90t93 -41t91 41t36 90q0 55 -36 93t-91 38t-93 -38t-38 -93zM1155 1298h492v717h-492v-717z M1843 901q0 -49 35 -88t88 -39t90 39t37 88q0 55 -37 93t-90 38t-88 -38t-35 -93z" />
<glyph unicode="k" d="M82 1434q0 197 51 380t144.5 342.5t223.5 290.5t289.5 224.5t343 144.5t382.5 51q197 0 380 -51t342.5 -144.5t290.5 -224.5t224.5 -290.5t144.5 -343t51 -379.5q0 -199 -51 -382.5t-144.5 -343t-224.5 -289.5t-290.5 -223.5t-343 -144.5t-379.5 -51q-199 0 -382.5 51 t-343 144.5t-289.5 223.5t-223.5 289.5t-144.5 343t-51 382.5zM119 1434q0 -193 50 -371t141 -334t218 -283t283 -218t334 -141t371 -50t370.5 50t333.5 141t283 218t218 283t141 334t50 371t-50 370.5t-141 333.5t-218 283t-283 218t-333.5 141t-370.5 50t-371 -50 t-334 -141t-283 -218t-218 -283t-141 -334t-50 -370zM836 2241v40h1351v-40h-946l442 -173q47 -18 77 -43.5t30 -66.5q0 -37 -29.5 -60.5t-77.5 -42.5l-327 -135q-35 -14 -54.5 -28.5t-19.5 -36.5q0 -23 19.5 -35t54.5 -27l327 -131q55 -23 87 -48t32 -62q0 -23 -18.5 -45.5 t-71.5 -44.5l-151 -66q-16 -6 -22.5 -14t-6.5 -27v-229h229v-496h-499v496h225v241q0 23 9 39.5t36 26.5l168 70q53 20 53 49q0 23 -19.5 37t-66.5 32l-332 131q-47 18 -74.5 43t-27.5 60q0 37 26.5 61.5t75.5 44.5l332 135q35 14 54.5 28.5t19.5 33.5q0 25 -19.5 41 t-54.5 29l-537 213h-294zM1307 475h409v406h-409v-406z" />
<glyph unicode="l" d="M82 1434q0 197 51 380t144.5 342.5t223.5 290.5t289.5 224.5t343 144.5t382.5 51q197 0 380 -51t342.5 -144.5t290.5 -224.5t224.5 -290.5t144.5 -343t51 -379.5q0 -199 -51 -382.5t-144.5 -343t-224.5 -289.5t-290.5 -223.5t-343 -144.5t-379.5 -51q-199 0 -382.5 51 t-343 144.5t-289.5 223.5t-223.5 289.5t-144.5 343t-51 382.5zM119 1434q0 -193 50 -371t141 -334t218 -283t283 -218t334 -141t371 -50t370.5 50t333.5 141t283 218t218 283t141 334t50 371t-50 370.5t-141 333.5t-218 283t-283 218t-333.5 141t-370.5 50t-371 -50 t-334 -141t-283 -218t-218 -283t-141 -334t-50 -370zM811 729v1393h299v131q0 20 20 20t21 -20v-131h713v131q0 20 20 20t21 -20v-131h299v-1393h-1393zM852 770h733v578h578v452h-1311v-1030zM852 1841h1311v240h-258v-127q0 -20 -21 -21q-20 0 -20 21v127h-713v-127 q0 -20 -21 -21q-20 0 -20 21v127h-258v-240zM1004 975q0 23 15 38t38 15t38 -15.5t15 -37.5q0 -23 -15.5 -38t-37.5 -15q-23 0 -38 15t-15 38zM1004 1278q0 23 15 38t38 15t38 -15.5t15 -37.5q0 -23 -15.5 -38t-37.5 -15q-23 0 -38 15t-15 38zM1303 975q0 23 15 38t38 15 t38 -15.5t15 -37.5q0 -23 -15.5 -38t-37.5 -15q-23 0 -38 15t-15 38zM1303 1278q0 23 15 38t38 15t38 -15.5t15 -37.5q0 -23 -15.5 -38t-37.5 -15q-23 0 -38 15t-15 38zM1303 1577q0 23 15 38t38 15t38 -15.5t15 -37.5q0 -23 -15.5 -38t-37.5 -15q-23 0 -38 15t-15 38z M1602 1577q0 23 15 38t38 15t38 -15.5t15 -37.5q0 -23 -15.5 -38t-37.5 -15q-23 0 -38 15t-15 38zM1626 782l528 525h-528v-525zM1683 770h480v479zM1901 1577q0 23 15 38t38 15t38 -15.5t15 -37.5q0 -23 -15.5 -38t-37.5 -15q-23 0 -38 15t-15 38z" />
<glyph unicode="m" d="M82 1434q0 197 51 380t144.5 342.5t223.5 290.5t289.5 224.5t343 144.5t382.5 51q197 0 380 -51t342.5 -144.5t290.5 -224.5t224.5 -290.5t144.5 -343t51 -379.5q0 -199 -51 -382.5t-144.5 -343t-224.5 -289.5t-290.5 -223.5t-343 -144.5t-379.5 -51q-199 0 -382.5 51 t-343 144.5t-289.5 223.5t-223.5 289.5t-144.5 343t-51 382.5zM119 1434q0 -193 50 -371t141 -334t218 -283t283 -218t334 -141t371 -50t370.5 50t333.5 141t283 218t218 283t141 334t50 371t-50 370.5t-141 333.5t-218 283t-283 218t-333.5 141t-370.5 50t-371 -50 t-334 -141t-283 -218t-218 -283t-141 -334t-50 -370zM840 582v45h1351v-45h-1351zM1065 1167q0 104 59.5 193.5t149.5 138.5v762q0 72 46 120t118 48t122 -48t50 -120v-762q90 -49 147.5 -136t57.5 -196q0 -76 -30 -143.5t-82 -118.5t-121 -80.5t-144 -29.5 q-76 0 -143.5 29.5t-119 80.5t-81 119t-29.5 143zM1110 1167q0 -70 25.5 -129t70.5 -103t104.5 -69.5t127.5 -25.5q70 0 130 25.5t105 69.5t70.5 103.5t25.5 128.5q0 96 -51 177t-137 118l-8 4v324h-262v-324q-92 -35 -146.5 -118.5t-54.5 -180.5zM1311 1831h262v430 q0 49 -40 90t-95 41q-59 0 -93 -41t-34 -90v-430zM1769 2007q0 37 27 63.5t64 26.5t63.5 -26.5t26.5 -63.5t-27 -63.5t-63 -26.5q-37 0 -64 26.5t-27 63.5zM1798 2007q0 -25 18.5 -43t43.5 -18t43 18t18 43t-18.5 43t-42.5 18q-25 0 -43.5 -18t-18.5 -43zM2023 1872 q0 31 8.5 70.5t33 76.5t70.5 61.5t122 24.5q51 0 87 -15t59.5 -36.5t35.5 -48.5t19 -47h-50q-12 53 -54 79.5t-97 26.5q-98 0 -143.5 -56t-45.5 -136q0 -53 16.5 -88t43 -56.5t59.5 -30.5t66 -9q76 0 109.5 35.5t45.5 82.5h50q-16 -72 -68.5 -115.5t-136.5 -43.5 q-39 0 -79 11t-74 37.5t-55.5 69.5t-21.5 107z" />
<glyph unicode="n" d="M82 1434q0 197 51 380t144.5 342.5t223.5 290.5t289.5 224.5t343 144.5t382.5 51q197 0 380 -51t342.5 -144.5t290.5 -224.5t224.5 -290.5t144.5 -343t51 -379.5q0 -199 -51 -382.5t-144.5 -343t-224.5 -289.5t-290.5 -223.5t-343 -144.5t-379.5 -51q-199 0 -382.5 51 t-343 144.5t-289.5 223.5t-223.5 289.5t-144.5 343t-51 382.5zM119 1434q0 -193 50 -371t141 -334t218 -283t283 -218t334 -141t371 -50t370.5 50t333.5 141t283 218t218 283t141 334t50 371t-50 370.5t-141 333.5t-218 283t-283 218t-333.5 141t-370.5 50t-371 -50 t-334 -141t-283 -218t-218 -283t-141 -334t-50 -370zM831 582v41h1356v-41h-1356zM905 1577q0 72 42 122t98.5 98t111.5 104.5t84 142.5l41 -12q-23 -53 -30 -101.5t-7 -95.5q0 -49 4 -95t4 -93q0 -41 -7 -84t-26.5 -77t-54.5 -55.5t-92 -21.5q-74 0 -121 48t-47 120z M946 1581q0 -72 42 -103.5t85 -31.5q47 0 75 20.5t42 51t18 68.5t4 73q0 31 -2 82t-2 94v39.5t4 26.5q-31 -37 -65.5 -68t-69.5 -59q-55 -47 -93 -89.5t-38 -103.5zM1139 963q0 72 42 122t98 98t111.5 104t84.5 143l41 -13q-23 -53 -30 -101t-7 -95q0 -49 4 -95.5t4 -93.5 q0 -41 -7 -84t-26.5 -76.5t-54.5 -55t-92 -21.5q-74 0 -121 48t-47 120zM1180 967q0 -72 42 -104t85 -32q47 0 74.5 20.5t42 51.5t18.5 69t4 72q0 31 -2 82.5t-2 94.5v39t4 26q-31 -37 -65.5 -67.5t-69.5 -59.5q-55 -47 -93 -89t-38 -103zM1499 1843q0 72 42 122t98.5 98 t111.5 104.5t84 142.5l41 -12q-23 -53 -30 -101.5t-7 -95.5q0 -49 4 -95t4 -93q0 -41 -7 -84t-26.5 -77t-54.5 -55.5t-92 -21.5q-74 0 -121 48.5t-47 119.5zM1540 1847q0 -72 42 -103.5t85 -31.5q47 0 74.5 20.5t42 51.5t18.5 68.5t4 72.5q0 31 -2 82t-2 94v39.5t4 26.5 q-31 -37 -65.5 -68t-69.5 -59q-55 -47 -93 -89t-38 -104zM1733 1229q0 72 42 122t98 98t111.5 104.5t83.5 142.5l41 -13q-23 -53 -29.5 -101t-6.5 -95q0 -49 4 -95t4 -94q0 -41 -7.5 -84t-26.5 -76.5t-54 -55t-92 -21.5q-74 0 -121 48t-47 120zM1774 1233q0 -72 42 -103.5 t85 -31.5q47 0 74.5 20.5t42 51t18.5 68.5t4 73q0 31 -2 82t-2 94v39t4 26q-31 -37 -66 -67.5t-69 -59.5q-55 -47 -93 -89t-38 -103z" />
<glyph unicode="o" d="M82 1434q0 197 51 380t144.5 342.5t223.5 290.5t289.5 224.5t343 144.5t382.5 51q197 0 380 -51t342.5 -144.5t290.5 -224.5t224.5 -290.5t144.5 -343t51 -379.5q0 -199 -51 -382.5t-144.5 -343t-224.5 -289.5t-290.5 -223.5t-343 -144.5t-379.5 -51q-199 0 -382.5 51 t-343 144.5t-289.5 223.5t-223.5 289.5t-144.5 343t-51 382.5zM119 1434q0 -193 50 -371t141 -334t218 -283t283 -218t334 -141t371 -50t370.5 50t333.5 141t283 218t218 283t141 334t50 371t-50 370.5t-141 333.5t-218 283t-283 218t-333.5 141t-370.5 50t-371 -50 t-334 -141t-283 -218t-218 -283t-141 -334t-50 -370zM815 1663l643 639l21 -37l-140 -139l885 -889q76 -76 76 -164q0 -51 -18.5 -97t-51 -81t-79 -55.5t-99.5 -20.5q-102 0 -176 74l-889 889l-143 -148zM819 991q0 61 23.5 116.5t52.5 115t52.5 128t23.5 156.5h33 q0 -88 23.5 -156.5t52 -128t52 -114.5t23.5 -117q0 -72 -48 -126t-120 -54t-120 51t-48 129zM840 586v41h1351v-41h-1351zM856 991q0 -59 39 -101t92 -42t92 44t39 99q0 43 -17.5 88t-40 91.5t-44 91.5t-29.5 90q-10 -45 -31.5 -90t-43 -91.5t-39 -91.5t-17.5 -88z M1018 1808l282 -280h576l-565 569zM1343 1483l562 -561q31 -31 68.5 -46.5t78.5 -15.5q86 0 145.5 59.5t59.5 153.5q0 74 -62 135l-278 275h-574z" />
<glyph unicode="p" d="M82 1434q0 197 51 380t144.5 342.5t223.5 290.5t289.5 224.5t343 144.5t382.5 51q197 0 380 -51t342.5 -144.5t290.5 -224.5t224.5 -290.5t144.5 -343t51 -379.5q0 -199 -51 -382.5t-144.5 -343t-224.5 -289.5t-290.5 -223.5t-343 -144.5t-379.5 -51q-199 0 -382.5 51 t-343 144.5t-289.5 223.5t-223.5 289.5t-144.5 343t-51 382.5zM119 1434q0 -193 50 -371t141 -334t218 -283t283 -218t334 -141t371 -50t370.5 50t333.5 141t283 218t218 283t141 334t50 371t-50 370.5t-141 333.5t-218 283t-283 218t-333.5 141t-370.5 50t-371 -50 t-334 -141t-283 -218t-218 -283t-141 -334t-50 -370zM713 1434q0 23 15 38t38 15t38 -15.5t15 -37.5q0 -23 -15.5 -38.5t-37.5 -15.5q-23 0 -38 15.5t-15 38.5zM840 733v41h1360v-41h-1360zM864 983q0 23 15.5 38t38.5 15t38 -15t15 -38t-15.5 -38t-37.5 -15q-23 0 -38.5 15 t-15.5 38zM864 1286q0 23 15.5 38t38.5 15t38 -15t15 -38t-15.5 -38t-37.5 -15q-23 0 -38.5 15t-15.5 38zM864 1585q0 23 15.5 38t38.5 15t38 -15t15 -38t-15.5 -38t-37.5 -15q-23 0 -38.5 15t-15.5 38zM1016 2040q0 23 15.5 38t37.5 15q23 0 38 -15.5t15 -37.5 q0 -23 -15 -38t-38 -15t-38 15t-15 38zM1159 983q0 23 15.5 38t37.5 15q23 0 38.5 -15t15.5 -38t-15.5 -38t-38.5 -15t-38 15t-15 38zM1159 1286q0 23 15.5 38t37.5 15q23 0 38.5 -15t15.5 -38t-15.5 -38t-38.5 -15t-38 15t-15 38zM1159 1585q0 23 15.5 38t37.5 15 q23 0 38.5 -15t15.5 -38t-15.5 -38t-38.5 -15t-38 15t-15 38zM1163 1884q0 23 15.5 38t38.5 15t38 -15t15 -38t-15.5 -38t-37.5 -15q-23 0 -38.5 15t-15.5 38zM1311 1737q0 23 15 38t38 15t38 -15.5t15 -37.5q0 -23 -15.5 -38.5t-37.5 -15.5q-23 0 -38 15.5t-15 38.5z M1311 2040q0 23 15 38t38 15t38 -15.5t15 -37.5q0 -23 -15.5 -38t-37.5 -15q-23 0 -38 15t-15 38zM1311 2339q0 23 15 38t38 15t38 -15.5t15 -37.5q0 -23 -15.5 -38t-37.5 -15q-23 0 -38 15t-15 38zM1315 1434q0 23 15.5 38t37.5 15q23 0 38 -15.5t15 -37.5q0 -23 -15 -38.5 t-38 -15.5t-38 15.5t-15 38.5zM1458 1884q0 23 15.5 38t37.5 15q23 0 38.5 -15t15.5 -38t-15.5 -38t-38.5 -15t-38 15t-15 38zM1466 983q0 23 15.5 38t38.5 15t38 -15t15 -38t-15.5 -38t-37.5 -15q-23 0 -38.5 15t-15.5 38zM1466 1286q0 23 15.5 38t38.5 15t38 -15t15 -38 t-15.5 -38t-37.5 -15q-23 0 -38.5 15t-15.5 38zM1466 1585q0 23 15.5 38t38.5 15t38 -15t15 -38t-15.5 -38t-37.5 -15q-23 0 -38.5 15t-15.5 38zM1466 2187q0 23 15.5 38.5t38.5 15.5t38 -15.5t15 -38.5t-15.5 -38t-37.5 -15q-23 0 -38.5 15t-15.5 38zM1610 1135q0 23 15 38 t38 15t38 -15.5t15 -37.5q0 -23 -15 -38.5t-38 -15.5t-38 15.5t-15 38.5zM1610 1434q0 23 15 38t38 15t38 -15.5t15 -37.5q0 -23 -15 -38.5t-38 -15.5t-38 15.5t-15 38.5zM1618 2040q0 23 15.5 38t37.5 15q23 0 38 -15.5t15 -37.5q0 -23 -15 -38t-38 -15t-38 15t-15 38z M1618 2339q0 23 15.5 38t37.5 15q23 0 38 -15.5t15 -37.5q0 -23 -15 -38t-38 -15t-38 15t-15 38zM1765 1884q0 23 15.5 38t38.5 15t38 -15t15 -38t-15.5 -38t-37.5 -15q-23 0 -38.5 15t-15.5 38zM1769 983q0 23 15.5 38t38.5 15t38 -15t15 -38t-15.5 -38t-37.5 -15 q-23 0 -38.5 15t-15.5 38zM1769 1286q0 23 15.5 38t38.5 15t38 -15t15 -38t-15.5 -38t-37.5 -15q-23 0 -38.5 15t-15.5 38zM1769 1585q0 23 15.5 38t38.5 15t38 -15t15 -38t-15.5 -38t-37.5 -15q-23 0 -38.5 15t-15.5 38zM1774 2187q0 23 15 38.5t38 15.5t38 -15.5t15 -38.5 t-15.5 -38t-37.5 -15q-23 0 -38 15t-15 38zM1917 1434q0 23 15.5 38t37.5 15q23 0 38 -15.5t15 -37.5q0 -23 -15 -38.5t-38 -15.5t-38 15.5t-15 38.5zM1917 1737q0 23 15.5 38t37.5 15q23 0 38 -15.5t15 -37.5q0 -23 -15 -38.5t-38 -15.5t-38 15.5t-15 38.5zM2068 983 q0 23 15.5 38t38.5 15t38 -15t15 -38t-15.5 -38t-37.5 -15q-23 0 -38.5 15t-15.5 38zM2068 1286q0 23 15.5 38t38.5 15t38 -15t15 -38t-15.5 -38t-37.5 -15q-23 0 -38.5 15t-15.5 38zM2068 1884q0 23 15.5 38t38.5 15t38 -15t15 -38t-15.5 -38t-37.5 -15q-23 0 -38.5 15 t-15.5 38zM2220 1434q0 23 15.5 38t37.5 15q23 0 38.5 -15.5t15.5 -37.5q0 -23 -15.5 -38.5t-38.5 -15.5t-38 15.5t-15 38.5z" />
<glyph unicode="q" d="M82 1434q0 197 51 380t144.5 342.5t223.5 290.5t289.5 224.5t343 144.5t382.5 51q197 0 380 -51t342.5 -144.5t290.5 -224.5t224.5 -290.5t144.5 -343t51 -379.5q0 -199 -51 -382.5t-144.5 -343t-224.5 -289.5t-290.5 -223.5t-343 -144.5t-379.5 -51q-199 0 -382.5 51 t-343 144.5t-289.5 223.5t-223.5 289.5t-144.5 343t-51 382.5zM119 1434q0 -193 50 -371t141 -334t218 -283t283 -218t334 -141t371 -50t370.5 50t333.5 141t283 218t218 283t141 334t50 371t-50 370.5t-141 333.5t-218 283t-283 218t-333.5 141t-370.5 50t-371 -50 t-334 -141t-283 -218t-218 -283t-141 -334t-50 -370zM836 2236v45h1355v-45h-1355zM946 1081q0 121 29 193t63.5 127t63 111.5t28.5 146.5q27 -20 59 -52t58.5 -70t45 -78t22.5 -75q0 33 7 118t43 186.5t112 199t215 156.5q-12 -31 -16.5 -58.5t-4.5 -56.5q0 -66 30 -122 t74 -110.5t95 -111.5t95 -125.5t73.5 -152.5t29.5 -193q0 -129 -67.5 -260t-226.5 -248h-172v41q72 66 103.5 122t31.5 99q0 63 -24.5 102.5t-56.5 73t-62.5 68.5t-45.5 88q-41 -47 -53 -111.5t-12 -130.5h-82q-4 18 -13.5 38t-27.5 32q-12 -25 -25.5 -41t-24 -34.5 t-17.5 -41t-7 -59.5q0 -84 43 -135t96 -70v-41h-172q-86 47 -153 115q-59 59 -106.5 148t-47.5 212zM987 1081q0 -102 36 -177t82 -127t91 -83.5t66 -46.5h86q-35 18 -69 74.5t-34 130.5q0 53 13.5 83t30 52.5t29.5 47t13 71.5q29 -25 51 -47q20 -20 38 -45t22 -47v-9v9 q-2 14 0 54t15 86t41 89t79 66q0 -63 31.5 -104.5t68.5 -81.5t69 -87t32 -121q0 -43 -30 -107.5t-89 -113.5h106q57 39 105.5 90t83.5 112.5t54.5 128t19.5 136.5q0 111 -30 195t-74 150.5t-95 120.5t-95 108.5t-74 113t-30 131.5q0 10 2 24.5t6 20.5q-94 -57 -149 -139 t-85 -168t-39 -163.5t-9 -123.5v-20h-82q-10 66 -39 112t-72 93q-16 -76 -44.5 -124t-58.5 -95t-51.5 -107.5t-21.5 -161.5z" />
<glyph unicode="r" d="M82 1434q0 197 51 380t144.5 342.5t223.5 290.5t289.5 224.5t343 144.5t382.5 51q197 0 380 -51t342.5 -144.5t290.5 -224.5t224.5 -290.5t144.5 -343t51 -379.5q0 -199 -51 -382.5t-144.5 -343t-224.5 -289.5t-290.5 -223.5t-343 -144.5t-379.5 -51q-199 0 -382.5 51 t-343 144.5t-289.5 223.5t-223.5 289.5t-144.5 343t-51 382.5zM119 1434q0 -193 50 -371t141 -334t218 -283t283 -218t334 -141t371 -50t370.5 50t333.5 141t283 218t218 283t141 334t50 371t-50 370.5t-141 333.5t-218 283t-283 218t-333.5 141t-370.5 50t-371 -50 t-334 -141t-283 -218t-218 -283t-141 -334t-50 -370zM836 733v37h1347v-37h-1347zM852 2085q135 129 304 195.5t351 66.5t353.5 -66.5t306.5 -195.5l-29 -29q-133 117 -294 183.5t-337 66.5t-336.5 -66.5t-289.5 -183.5zM1020 1917q96 104 219 154.5t268 50.5t270.5 -52.5 t221.5 -156.5l-27 -27q-96 96 -210.5 145.5t-254.5 49.5q-265 0 -458 -193zM1174 1092l30 30q66 -66 148 -96.5t155 -30.5q74 0 155 28t153 99l30 -32q-72 -66 -153 -101t-185 -35t-186 36t-147 102zM1174 1759q53 59 141 100.5t192 41.5t189.5 -38t150.5 -104l-28 -30 q-68 72 -153 101.5t-159 29.5t-153.5 -29t-151.5 -100zM1257 1425q0 51 19.5 97.5t53.5 80t79 53t98 19.5q51 0 97.5 -19.5t80 -53t53 -79.5t19.5 -98q0 -53 -19.5 -98t-53 -79t-79.5 -53t-98 -19q-53 0 -98 19t-79 53t-53.5 79t-19.5 98zM1298 1425q0 -43 16.5 -80.5 t45.5 -66.5t66.5 -45t80.5 -16t81 16t66.5 45t45 66.5t16.5 80.5t-16.5 81t-45 67t-66.5 45t-81 16t-80.5 -16t-66.5 -45t-45.5 -67t-16.5 -81z" />
<glyph unicode="s" d="M82 1434q0 197 51 380t144.5 342.5t223.5 290.5t289.5 224.5t343 144.5t382.5 51q197 0 380 -51t342.5 -144.5t290.5 -224.5t224.5 -290.5t144.5 -343t51 -379.5q0 -199 -51 -382.5t-144.5 -343t-224.5 -289.5t-290.5 -223.5t-343 -144.5t-379.5 -51q-199 0 -382.5 51 t-343 144.5t-289.5 223.5t-223.5 289.5t-144.5 343t-51 382.5zM119 1434q0 -193 50 -371t141 -334t218 -283t283 -218t334 -141t371 -50t370.5 50t333.5 141t283 218t218 283t141 334t50 371t-50 370.5t-141 333.5t-218 283t-283 218t-333.5 141t-370.5 50t-371 -50 t-334 -141t-283 -218t-218 -283t-141 -334t-50 -370zM831 729v37h1360v-37h-1360zM1192 1405l225 954h348l-127 -524l353 82l-449 -913q-10 -20 -18 -30.5t-19 -10.5q-23 0 -22 28v496zM1245 1458l277 78v-489l399 815l-328 -76l123 536h-270z" />
<glyph unicode="t" d="M82 1434q0 197 51 380t144.5 342.5t223.5 290.5t289.5 224.5t343 144.5t382.5 51q197 0 380 -51t342.5 -144.5t290.5 -224.5t224.5 -290.5t144.5 -343t51 -379.5q0 -199 -51 -382.5t-144.5 -343t-224.5 -289.5t-290.5 -223.5t-343 -144.5t-379.5 -51q-199 0 -382.5 51 t-343 144.5t-289.5 223.5t-223.5 289.5t-144.5 343t-51 382.5zM119 1434q0 -193 50 -371t141 -334t218 -283t283 -218t334 -141t371 -50t370.5 50t333.5 141t283 218t218 283t141 334t50 371t-50 370.5t-141 333.5t-218 283t-283 218t-333.5 141t-370.5 50t-371 -50 t-334 -141t-283 -218t-218 -283t-141 -334t-50 -370zM506 1350l31 30l536 -223q35 -14 61.5 -17t41.5 13q16 16 12 44t-17 60l-223 535l33 33l225 -551q22 -55 22 -88q0 -36 -24 -60q-22 -24 -58 -24h-2q-35 0 -87 22zM831 729v37h1369v-37h-1369zM1180 2265h45l221 -536 q12 -31 29.5 -53.5t40.5 -22.5t39 20.5t30 55.5l221 536h45l-229 -549q-23 -55 -49 -78.5t-57 -23.5t-57.5 23.5t-49.5 78.5zM1801 1186q0 34 22 88l225 551l33 -33l-223 -535q-12 -33 -16 -60.5t11 -43.5q14 -16 41 -13t62 17l536 223l31 -30l-551 -226q-51 -22 -86 -22h-2 q-36 1 -59 24q-24 24 -24 60z" />
<glyph unicode="u" d="M82 1434q0 197 51 380t144.5 342.5t223.5 290.5t289.5 224.5t343 144.5t382.5 51q197 0 380 -51t342.5 -144.5t290.5 -224.5t224.5 -290.5t144.5 -343t51 -379.5q0 -199 -51 -382.5t-144.5 -343t-224.5 -289.5t-290.5 -223.5t-343 -144.5t-379.5 -51q-199 0 -382.5 51 t-343 144.5t-289.5 223.5t-223.5 289.5t-144.5 343t-51 382.5zM119 1434q0 -193 50 -371t141 -334t218 -283t283 -218t334 -141t371 -50t370.5 50t333.5 141t283 218t218 283t141 334t50 371t-50 370.5t-141 333.5t-218 283t-283 218t-333.5 141t-370.5 50t-371 -50 t-334 -141t-283 -218t-218 -283t-141 -334t-50 -370zM827 958v41h1364v-41h-1364zM827 1405v41h1364v-41h-1364zM827 1860v41h1364v-41h-1364z" />
<glyph unicode="v" d="M82 1434q0 197 51 380t144.5 342.5t223.5 290.5t289.5 224.5t343 144.5t382.5 51q197 0 380 -51t342.5 -144.5t290.5 -224.5t224.5 -290.5t144.5 -343t51 -379.5q0 -199 -51 -382.5t-144.5 -343t-224.5 -289.5t-290.5 -223.5t-343 -144.5t-379.5 -51q-199 0 -382.5 51 t-343 144.5t-289.5 223.5t-223.5 289.5t-144.5 343t-51 382.5zM119 1434q0 -193 50 -371t141 -334t218 -283t283 -218t334 -141t371 -50t370.5 50t333.5 141t283 218t218 283t141 334t50 371t-50 370.5t-141 333.5t-218 283t-283 218t-333.5 141t-370.5 50t-371 -50 t-334 -141t-283 -218t-218 -283t-141 -334t-50 -370zM815 766l676 668l-676 671l29 29l672 -672l667 672l25 -29l-668 -671l668 -668l-25 -29l-667 672l-672 -672z" />
<glyph unicode="w" d="M82 1434q0 197 51 380t144.5 342.5t223.5 290.5t289.5 224.5t343 144.5t382.5 51q197 0 380 -51t342.5 -144.5t290.5 -224.5t224.5 -290.5t144.5 -343t51 -379.5q0 -199 -51 -382.5t-144.5 -343t-224.5 -289.5t-290.5 -223.5t-343 -144.5t-379.5 -51q-199 0 -382.5 51 t-343 144.5t-289.5 223.5t-223.5 289.5t-144.5 343t-51 382.5zM119 1434q0 -193 50 -371t141 -334t218 -283t283 -218t334 -141t371 -50t370.5 50t333.5 141t283 218t218 283t141 334t50 371t-50 370.5t-141 333.5t-218 283t-283 218t-333.5 141t-370.5 50t-371 -50 t-334 -141t-283 -218t-218 -283t-141 -334t-50 -370zM1118 983v901q0 74 33 117t94 43q47 0 88 -23.5t64 -35.5l725 -424q49 -29 75.5 -57.5t26.5 -69.5t-26.5 -68t-75.5 -55l-723 -424q-53 -33 -87 -46.5t-67 -13.5q-61 0 -94 42t-33 114zM1155 983q0 -53 23.5 -86 t66.5 -33q41 0 80 22.5t61 35.5l715 417q41 23 62.5 44.5t21.5 50.5t-21.5 50t-62.5 44l-715 418q-25 16 -65.5 38.5t-75.5 22.5q-43 0 -66.5 -34t-23.5 -89v-901z" />
<glyph unicode="x" d="M82 1434q0 197 51 380t144.5 342.5t223.5 290.5t289.5 224.5t343 144.5t382.5 51q197 0 380 -51t342.5 -144.5t290.5 -224.5t224.5 -290.5t144.5 -343t51 -379.5q0 -199 -51 -382.5t-144.5 -343t-224.5 -289.5t-290.5 -223.5t-343 -144.5t-379.5 -51q-199 0 -382.5 51 t-343 144.5t-289.5 223.5t-223.5 289.5t-144.5 343t-51 382.5zM119 1434q0 -193 50 -371t141 -334t218 -283t283 -218t334 -141t371 -50t370.5 50t333.5 141t283 218t218 283t141 334t50 371t-50 370.5t-141 333.5t-218 283t-283 218t-333.5 141t-370.5 50t-371 -50 t-334 -141t-283 -218t-218 -283t-141 -334t-50 -370zM971 1434q0 113 44 212t118.5 173.5t174 118.5t212.5 44q29 0 65.5 -2t48.5 -6l-250 307h50l204 -258q12 -18 26.5 -35.5t14.5 -41.5q0 -16 -14 -37t-27 -37l-204 -258h-50l250 315q-29 4 -57.5 6t-56.5 2 q-104 0 -196.5 -39.5t-162 -107.5t-109.5 -160t-40 -196q0 -106 40 -199.5t109.5 -163.5t161.5 -109.5t197 -39.5q106 0 199 39.5t163 109.5t110 163t40 200q0 102 -40 194t-112 166l29 29q164 -164 164 -389q0 -115 -44 -215.5t-120 -177t-176.5 -120.5t-212.5 -44 q-113 0 -212.5 44t-174 120.5t-118.5 177t-44 215.5z" />
<glyph unicode="y" d="M82 1434q0 197 51 380t144.5 342.5t223.5 290.5t289.5 224.5t343 144.5t382.5 51q197 0 380 -51t342.5 -144.5t290.5 -224.5t224.5 -290.5t144.5 -343t51 -379.5q0 -199 -51 -382.5t-144.5 -343t-224.5 -289.5t-290.5 -223.5t-343 -144.5t-379.5 -51q-199 0 -382.5 51 t-343 144.5t-289.5 223.5t-223.5 289.5t-144.5 343t-51 382.5zM119 1434q0 -193 50 -371t141 -334t218 -283t283 -218t334 -141t371 -50t370.5 50t333.5 141t283 218t218 283t141 334t50 371t-50 370.5t-141 333.5t-218 283t-283 218t-333.5 141t-370.5 50t-371 -50 t-334 -141t-283 -218t-218 -283t-141 -334t-50 -370zM1143 729v45l962 561q37 23 59.5 46.5t22.5 52.5t-22.5 52t-59.5 46l-962 565v45l987 -573q59 -35 80.5 -67t21.5 -68q0 -37 -21.5 -69t-80.5 -67z" />
<glyph unicode="z" d="M82 1434q0 197 51 380t144.5 342.5t223.5 290.5t289.5 224.5t343 144.5t382.5 51q197 0 380 -51t342.5 -144.5t290.5 -224.5t224.5 -290.5t144.5 -343t51 -379.5q0 -199 -51 -382.5t-144.5 -343t-224.5 -289.5t-290.5 -223.5t-343 -144.5t-379.5 -51q-199 0 -382.5 51 t-343 144.5t-289.5 223.5t-223.5 289.5t-144.5 343t-51 382.5zM119 1434q0 -193 50 -371t141 -334t218 -283t283 -218t334 -141t371 -50t370.5 50t333.5 141t283 218t218 283t141 334t50 371t-50 370.5t-141 333.5t-218 283t-283 218t-333.5 141t-370.5 50t-371 -50 t-334 -141t-283 -218t-218 -283t-141 -334t-50 -370zM840 1421v37h1392q-4 18 -19 39t-22 31l-352 442h53l328 -418q18 -25 35.5 -51t17.5 -63t-17.5 -61.5t-35.5 -49.5l-328 -418h-53l352 439q18 25 26.5 40t14.5 33h-1392z" />
<glyph unicode="&#x2000;" horiz-adv-x="1436" />
<glyph unicode="&#x2001;" horiz-adv-x="2873" />
<glyph unicode="&#x2002;" horiz-adv-x="1436" />
<glyph unicode="&#x2003;" horiz-adv-x="2873" />
<glyph unicode="&#x2004;" horiz-adv-x="957" />
<glyph unicode="&#x2005;" horiz-adv-x="718" />
<glyph unicode="&#x2006;" horiz-adv-x="478" />
<glyph unicode="&#x2007;" horiz-adv-x="478" />
<glyph unicode="&#x2008;" horiz-adv-x="359" />
<glyph unicode="&#x2009;" horiz-adv-x="574" />
<glyph unicode="&#x200a;" horiz-adv-x="159" />
<glyph unicode="&#x202f;" horiz-adv-x="574" />
<glyph unicode="&#x205f;" horiz-adv-x="718" />
<glyph unicode="&#x25fc;" horiz-adv-x="2867" d="M0 0v2867h2867v-2867h-2867z" />
</font>
</defs>
</svg>
