<?xml version="1.0" standalone="no"?>
<!DOCTYPE svg PUBLIC "-//W3C//DTD SVG 1.1//EN" "http://www.w3.org/Graphics/SVG/1.1/DTD/svg11.dtd" >
<svg xmlns="http://www.w3.org/2000/svg" xmlns:xlink="http://www.w3.org/1999/xlink" version="1.1">
<metadata>
Created by FontForge 20150318 at Fri May 29 12:14:47 2015
 By uniteet7
</metadata>
<defs>
<font id="WevoLightWeb" horiz-adv-x="620" >
  <font-face 
    font-family="WevoLightWeb"
    font-weight="300"
    font-stretch="normal"
    units-per-em="1000"
    panose-1="2 11 3 0 0 0 0 0 0 0"
    ascent="800"
    descent="-200"
    x-height="500"
    cap-height="700"
    bbox="-67 -231 1231 948"
    underline-thickness="50"
    underline-position="-50"
    unicode-range="U+0020-FB02"
  />
<missing-glyph horiz-adv-x="690" 
d="M100 0v700h490v-700h-490zM528 52v596h-366v-596h366z" />
    <glyph glyph-name=".notdef" horiz-adv-x="690" 
d="M100 0v700h490v-700h-490zM528 52v596h-366v-596h366z" />
    <glyph glyph-name=".null" horiz-adv-x="0" 
 />
    <glyph glyph-name="nonmarkingreturn" horiz-adv-x="300" 
 />
    <glyph glyph-name="space" unicode=" " horiz-adv-x="250" 
 />
    <glyph glyph-name="exclam" unicode="!" horiz-adv-x="253" 
d="M80 46q0 19 13 33t33 14q19 0 33 -14t14 -33q0 -20 -14 -33t-33 -13q-20 0 -33 13t-13 33zM93 700h62v-503h-62v503z" />
    <glyph glyph-name="quotedbl" unicode="&#x22;" horiz-adv-x="378" 
d="M158 500h-58v200h58v-200zM278 500h-58v200h58v-200z" />
    <glyph glyph-name="numbersign" unicode="#" horiz-adv-x="676" 
d="M53 163v46h102l38 265h-111v46h118l23 160h57l-23 -160h222l23 160h57l-23 -160h86v-46h-93l-38 -265h102v-46h-109l-23 -163h-57l23 163h-222l-23 -163h-57l23 163h-95zM212 209h222l38 265h-222z" />
    <glyph glyph-name="dollar" unicode="$" horiz-adv-x="650" 
d="M291 -18q-71 4 -120 24t-79 51.5t-43.5 72t-13.5 85.5h62q0 -33 9.5 -64.5t32 -56t59.5 -41t93 -20.5v300q-47 12 -90.5 25t-76.5 33t-53 51t-20 79q0 52 22.5 85t57 52.5t77 27t83.5 9.5v105h56v-107q71 -5 117 -29t72.5 -54.5t37 -63.5t10.5 -56h-62q0 17 -8 41
t-28.5 47t-54 40.5t-84.5 22.5v-266q52 -14 100.5 -28.5t85.5 -36t59.5 -54t22.5 -81.5q0 -37 -14 -71t-46 -61t-83 -44t-125 -19v-100h-56v102zM553 175q0 34 -17 56.5t-45.5 38.5t-66 27t-77.5 22v-287q63 1 103 13.5t63 32t31.5 44.5t8.5 53zM113 521q0 -32 14 -53
t38.5 -35t57 -24t68.5 -19v253q-33 -1 -65 -6.5t-57 -19t-40.5 -36.5t-15.5 -60z" />
    <glyph glyph-name="percent" unicode="%" horiz-adv-x="718" 
d="M92 521q0 -23 4.5 -45.5t15.5 -41.5t29.5 -30.5t46.5 -11.5t46.5 11.5t29.5 30t15.5 41t4.5 45.5q0 22 -4.5 45.5t-15.5 42.5t-29.5 31t-46.5 12t-46.5 -12t-29.5 -30.5t-15.5 -42t-4.5 -45.5zM40 521q0 32 8 63t26 55t46 39t68 15t68 -15t46 -39.5t26 -55.5t8 -63
t-8 -62.5t-26 -54.5t-46 -38.5t-68 -14.5t-68 15t-46 39t-26 54.5t-8 62.5zM98 -15l468 730h59l-468 -730h-59zM434 156q0 -23 4.5 -45.5t15.5 -41.5t29.5 -30.5t46.5 -11.5t46.5 11.5t29.5 30t15.5 41t4.5 45.5q0 22 -4.5 45.5t-15.5 42.5t-29.5 31t-46.5 12t-46.5 -12
t-29.5 -30.5t-15.5 -42t-4.5 -45.5zM382 156q0 32 8 63t26 55t46 39t68 15t68 -15t46 -39.5t26 -55.5t8 -63t-8 -62.5t-26 -54.5t-46 -38.5t-68 -14.5t-68 15t-46 39t-26 54.5t-8 62.5z" />
    <glyph glyph-name="ampersand" unicode="&#x26;" horiz-adv-x="625" 
d="M603 0h-79l-54 69q-31 -41 -81 -65t-128 -24q-63 0 -107 18.5t-71.5 46.5t-39.5 61t-12 63q0 40 10.5 68.5t33 53t57 50t82.5 60.5l-48 62q-21 28 -35.5 58.5t-14.5 63.5q0 18 6 41.5t23 44t49 35t85 14.5q54 0 88.5 -18t54.5 -43.5t27.5 -53.5t7.5 -47h-64
q0 12 -5.5 30.5t-18.5 35.5t-35 29.5t-55 12.5q-29 0 -49 -7t-32 -18.5t-17 -26t-5 -29.5q0 -27 16.5 -53t32.5 -46l231 -298q9 37 11 73t2 62h64q0 -51 -6.5 -100.5t-23.5 -93.5zM95 169q0 -21 9 -44.5t29 -43.5t51.5 -33.5t76.5 -13.5q67 0 107 24.5t62 62.5l-177 229
q-50 -34 -81 -59.5t-48 -46t-23 -38.5t-6 -37z" />
    <glyph glyph-name="quotesingle" unicode="'" horiz-adv-x="258" 
d="M100 700h58v-200h-58v200z" />
    <glyph glyph-name="parenleft" unicode="(" horiz-adv-x="318" 
d="M198 -220q-11 22 -30 68t-37.5 109t-32 139t-13.5 159t13.5 159.5t32.5 139t37.5 108.5t29.5 68h55q-11 -23 -31 -70.5t-39.5 -111.5t-33.5 -139.5t-14 -153.5t14 -153.5t33.5 -139.5t39.5 -111.5t31 -70.5h-55z" />
    <glyph glyph-name="parenright" unicode=")" horiz-adv-x="318" 
d="M85 -220q11 23 31 70.5t39.5 111.5t33.5 139.5t14 153.5t-14 153.5t-33.5 139.5t-39.5 111.5t-31 70.5h55q10 -22 29 -68t38 -108.5t32.5 -139t13.5 -159.5t-13.5 -159t-32 -139t-37.5 -109t-30 -68h-55z" />
    <glyph glyph-name="asterisk" unicode="*" horiz-adv-x="450" 
d="M251 434v-109h-52v109h52zM199 591v109h52v-109h-52zM306 496l94 -55l-26 -45l-94 55zM144 529l-94 55l26 45l94 -55zM280 574l94 54l26 -45l-94 -54zM170 451l-94 -54l-26 45l94 54z" />
    <glyph glyph-name="plus" unicode="+" horiz-adv-x="614" 
d="M281 500h52v-220h226v-52h-226v-228h-52v228h-226v52h226v220z" />
    <glyph glyph-name="comma" unicode="," horiz-adv-x="263" 
d="M80 51q0 20 14.5 36t36.5 16q20 0 36 -14.5t16 -47.5v-41q0 -51 -17.5 -86.5t-68.5 -62.5v49q8 6 16 11.5t14 16t10 27.5t4 45v1q-4 -1 -10 -1q-22 0 -36.5 14.5t-14.5 36.5z" />
    <glyph glyph-name="hyphen" unicode="-" horiz-adv-x="405" 
d="M80 295h245v-52h-245v52z" />
    <glyph glyph-name="period" unicode="." horiz-adv-x="253" 
d="M80 46q0 19 13 33t33 14q19 0 33 -14t14 -33q0 -20 -14 -33t-33 -13q-20 0 -33 13t-13 33z" />
    <glyph glyph-name="slash" unicode="/" horiz-adv-x="411" 
d="M10 -15l334 730h57l-334 -730h-57z" />
    <glyph glyph-name="zero" unicode="0" 
d="M309 695q54 0 101.5 -18t83 -59t55.5 -108.5t20 -167.5t-20 -168t-55.5 -110t-83 -60.5t-101.5 -18.5t-101.5 18.5t-82.5 60.5t-55 110t-20 168t20 167.5t55 108.5t82.5 59t101.5 18zM309 643q-45 0 -81.5 -16.5t-62 -52.5t-39.5 -93t-14 -139t14 -140t39.5 -94.5
t62 -53.5t81.5 -17t82 17t62.5 53.5t39.5 94.5t14 140t-14 139t-39.5 93t-62.5 52.5t-82 16.5z" />
    <glyph glyph-name="one" unicode="1" 
d="M299 0v599q0 15 -6 22t-21 7h-162v52h166q45 0 65 -21.5t20 -65.5v-593h-62z" />
    <glyph glyph-name="two" unicode="2" 
d="M539 0h-389q-27 0 -45 13t-18 39q0 19 8 34t32 36l198 175q28 28 53 52t43 48.5t28.5 52t10.5 63.5q0 24 -9 47.5t-28 41.5t-48.5 29.5t-71.5 11.5q-31 0 -60.5 -10.5t-53 -33t-38 -56.5t-14.5 -82h-62q0 61 19 105.5t50.5 73t73 42t85.5 13.5q54 0 95 -14t68.5 -39
t41.5 -58t14 -71q0 -43 -14.5 -78.5t-37.5 -66.5t-53 -60t-60 -59l-193 -169q-5 -4 -8.5 -8.5t-3.5 -9.5q0 -6 3.5 -8t8.5 -2h375v-52z" />
    <glyph glyph-name="three" unicode="3" 
d="M91 680h370q23 0 36 -12.5t13 -34.5q0 -13 -4.5 -23.5t-18.5 -21.5l-226 -166q-11 -8 -14.5 -14.5t-3.5 -13.5t4.5 -11t10.5 -4q7 0 11.5 2.5t11.5 6.5q23 14 50 19.5t55 5.5q34 0 64 -12t52.5 -35.5t35.5 -57.5t13 -79q0 -75 -25 -122.5t-63 -74.5t-83.5 -37t-85.5 -10
q-37 0 -80 10t-79.5 36t-60.5 71t-24 116h62q0 -41 10.5 -70.5t27 -49.5t37 -32t41 -18.5t38.5 -8.5t29 -2q31 0 65 9.5t62.5 31.5t47.5 59t19 92q0 31 -9 55.5t-23.5 41.5t-33.5 26t-40 9q-29 0 -46.5 -5.5t-31 -12.5t-25.5 -12.5t-30 -5.5q-28 0 -46.5 16.5t-18.5 46.5
q0 31 17.5 51t40.5 37l209 152h-361v52z" />
    <glyph glyph-name="four" unicode="4" 
d="M388 0v162h-293q-19 0 -36 8.5t-17 36.5q0 8 4 21t20 36l251 360q14 20 30.5 38t40.5 18q26 0 42 -17t16 -52v-401h115v-48h-115v-162h-58zM102 218q0 -8 11 -8h275v401q0 8 -6 8q-4 0 -12 -11l-256 -367l-8 -12t-4 -11z" />
    <glyph glyph-name="five" unicode="5" 
d="M298 37q39 0 73.5 12t60 36t40 60.5t14.5 85.5q0 46 -11.5 78.5t-32 52.5t-50 29t-65.5 9q-26 0 -43.5 -3t-31 -9t-23.5 -15t-20 -20q-8 -9 -14.5 -17t-13 -14.5t-15 -10t-21.5 -3.5q-21 0 -40.5 12.5t-19.5 44.5q0 9 1.5 18.5t3.5 21.5l58 275h365v-52h-318l-47 -228
q-1 -4 -2.5 -11t-1.5 -9q0 -9 10 -9q5 0 9.5 7t6.5 10q24 34 59 53t98 19q47 0 87 -12.5t69.5 -39.5t46.5 -69t18 -100v-10q-2 -63 -21 -109t-52 -76t-78 -44.5t-99 -14.5q-53 0 -93.5 14.5t-69.5 40t-47 61.5t-25 79h62q7 -30 20.5 -56.5t34.5 -45.5t50.5 -30t67.5 -11z
" />
    <glyph glyph-name="six" unicode="6" 
d="M482 529q-12 36 -29 58t-37.5 34.5t-43 17t-45.5 4.5q-59 0 -97 -25.5t-61 -67t-32 -94.5t-9 -107q32 57 81 83t108 26q53 0 98.5 -15.5t79.5 -44.5t53 -72t19 -98t-19 -100t-52.5 -76.5t-79.5 -49t-99 -17.5q-62 0 -110 19t-81 60t-50 104.5t-17 152.5q0 67 11.5 134
t41.5 120.5t82 86.5t134 33q182 0 221 -166h-67zM505 228q0 81 -47 129.5t-141 48.5q-40 0 -74 -13t-59.5 -36.5t-40 -57.5t-14.5 -76q0 -36 12 -70t35.5 -59.5t58.5 -41t82 -15.5t82 15.5t58.5 41.5t35.5 61t12 73z" />
    <glyph glyph-name="seven" unicode="7" 
d="M169 0l282 581q5 11 10 22.5t5 15.5q0 9 -13 9h-383v52h385q45 0 59.5 -15t14.5 -37q0 -11 -5.5 -25.5t-15.5 -34.5l-276 -568h-63z" />
    <glyph glyph-name="eight" unicode="8" 
d="M309 -15q-51 0 -96.5 11.5t-80 35.5t-54.5 62t-20 91q0 69 35.5 113.5t101.5 61.5q-58 18 -87 57.5t-29 93.5q0 51 21.5 86t54.5 56.5t74 31.5t80 10t80 -10t75 -31.5t55.5 -56.5t21.5 -86q0 -55 -30.5 -93.5t-80.5 -57.5q60 -18 95.5 -62t35.5 -113q0 -53 -20.5 -91
t-55 -62t-80 -35.5t-96.5 -11.5zM309 37q88 0 139 39.5t51 108.5t-51 107.5t-139 38.5q-89 0 -139 -38.5t-50 -107.5t50.5 -108.5t138.5 -39.5zM309 383q29 0 59.5 8t55 23.5t40 39.5t15.5 57t-13.5 57.5t-36.5 41t-54 25t-66 8.5q-29 0 -58.5 -7.5t-54 -23.5t-40 -41
t-15.5 -60q0 -33 15 -57t39 -39.5t54 -23.5t60 -8z" />
    <glyph glyph-name="nine" unicode="9" 
d="M142 146q13 -32 31 -53t38.5 -33.5t43 -17.5t45.5 -5q58 0 96 26t60.5 68.5t31.5 96t9 108.5q-25 -48 -76.5 -76t-120.5 -28q-51 0 -96.5 15t-79.5 44t-54 73t-20 101q0 54 19.5 96.5t53.5 72.5t79.5 45.5t97.5 15.5q75 0 124.5 -26t79.5 -71.5t42.5 -107t12.5 -131.5
q0 -68 -10 -134.5t-38.5 -120t-79 -86.5t-132.5 -33q-91 0 -143.5 43t-75.5 118h62zM488 463q0 40 -13.5 73t-38 57t-59 37t-77.5 13t-77.5 -13t-59 -36.5t-38 -56t-13.5 -72.5t13.5 -73t38 -57t59 -37.5t77.5 -13.5t77.5 13t59 37t38 57t13.5 72z" />
    <glyph glyph-name="colon" unicode=":" horiz-adv-x="253" 
d="M80 46q0 19 13 33t33 14q19 0 33 -14t14 -33q0 -20 -14 -33t-33 -13q-20 0 -33 13t-13 33zM80 453q0 19 13 33t33 14q19 0 33 -14t14 -33q0 -20 -14 -33t-33 -13q-20 0 -33 13t-13 33z" />
    <glyph glyph-name="semicolon" unicode=";" horiz-adv-x="263" 
d="M85 453q0 19 13 33t33 14q19 0 33 -14t14 -33q0 -20 -14 -33t-33 -13q-20 0 -33 13t-13 33zM80 51q0 20 14.5 36t36.5 16q20 0 36 -14.5t16 -47.5v-41q0 -51 -17.5 -86.5t-68.5 -62.5v49q8 6 16 11.5t14 16t10 27.5t4 45v1q-4 -1 -10 -1q-22 0 -36.5 14.5t-14.5 36.5z
" />
    <glyph glyph-name="less" unicode="&#x3c;" horiz-adv-x="613" 
d="M533 63v-63l-363 184q-38 19 -64 39t-26 53t26 53t64 39l363 184v-63l-354 -181q-25 -13 -32 -18t-7 -14t7 -14.5t32 -17.5z" />
    <glyph glyph-name="equal" unicode="=" horiz-adv-x="674" 
d="M80 366h514v-52h-514v52zM80 182h514v-52h-514v52z" />
    <glyph glyph-name="greater" unicode="&#x3e;" horiz-adv-x="613" 
d="M434 244q25 13 32 18t7 14t-7 14t-32 18l-354 181v63l363 -184q38 -19 64 -39t26 -53t-26 -53t-64 -39l-363 -184v63z" />
    <glyph glyph-name="question" unicode="?" horiz-adv-x="525" 
d="M212 25q0 19 13 33t33 14q19 0 33 -14t14 -33q0 -20 -14 -33t-33 -13q-20 0 -33 13t-13 33zM227 182v59q0 35 8.5 55.5t28.5 38.5l94 86q26 24 45.5 52t19.5 62q0 20 -5.5 41t-22.5 38t-47.5 28t-79.5 11q-45 0 -78 -12.5t-55 -33.5t-32.5 -48.5t-10.5 -58.5h-62
q0 8 1.5 26t9 41t22.5 47.5t41.5 44.5t66 33t97.5 13q67 0 109.5 -15.5t66.5 -39.5t32.5 -54.5t8.5 -60.5q0 -49 -26 -86.5t-59 -69.5l-93 -88q-11 -10 -14.5 -20t-3.5 -30v-59h-62z" />
    <glyph glyph-name="at" unicode="@" horiz-adv-x="840" 
d="M755 132q-15 -17 -41 -42t-64.5 -48.5t-91.5 -40t-122 -16.5q-81 0 -150 23t-119 68.5t-78.5 114t-28.5 159.5t33.5 159.5t88 114t124.5 68.5t143 23q82 0 144 -23.5t103.5 -65t62.5 -97.5t21 -121q0 -60 -18 -109t-48.5 -84t-70.5 -54t-84 -19q-20 0 -34 7.5t-22 18
t-11.5 22t-3.5 20.5q-23 -33 -58 -50.5t-69 -17.5q-40 0 -69 13.5t-47.5 37t-27 55t-8.5 66.5q0 52 18 101t50.5 87t76.5 60.5t96 22.5q25 0 44 -6t33 -15t23.5 -19.5t16.5 -19.5l14 41h59l-100 -305q-4 -12 -5 -21t-1 -15q0 -13 8.5 -25.5t28.5 -12.5q31 0 59.5 17t50 47
t34 70t12.5 87q0 54 -15.5 101.5t-49.5 83t-86.5 56.5t-126.5 21q-60 0 -120 -18.5t-108 -57.5t-78 -99.5t-30 -144.5q0 -82 24 -142t66.5 -99.5t102 -59t130.5 -19.5q49 0 88 8t70.5 22t56 32.5t45.5 39.5h59zM548 467q-5 12 -13 25t-20 23.5t-27 17.5t-33 7
q-45 0 -79 -20.5t-57 -53t-35 -72.5t-12 -80q0 -26 4.5 -49t15 -40.5t27.5 -27.5t42 -10q32 0 55 13t39.5 32.5t26.5 42t16 42.5z" />
    <glyph glyph-name="A" unicode="A" horiz-adv-x="729" 
d="M546 223h-365l-94 -223h-67l268 637q14 34 31.5 48.5t44.5 14.5q26 0 44.5 -15t32.5 -48l268 -637h-69zM205 281h318l-138 331q-6 15 -10.5 20.5t-10.5 5.5t-10 -5.5t-10 -20.5z" />
    <glyph glyph-name="B" unicode="B" horiz-adv-x="735" 
d="M653 518q0 -55 -28 -98.5t-88 -59.5q30 -7 55.5 -24t44 -40.5t28.5 -51t10 -56.5q0 -48 -17 -81t-43 -54t-58 -32t-61.5 -15.5t-53.5 -5t-34 -0.5h-308v700h292q60 0 108.5 -10.5t82 -32.5t52 -56.5t18.5 -82.5zM607 188q0 28 -10.5 54t-34.5 45.5t-62 31t-92 11.5h-244
v-276h244q7 0 24.5 0.5t40 4t46 11.5t43.5 23t32.5 38t12.5 57zM164 646v-262h245q25 0 56 5t57.5 20t44.5 41t18 68q0 63 -52 95.5t-141 32.5h-228z" />
    <glyph glyph-name="C" unicode="C" horiz-adv-x="842" 
d="M762 244q-16 -81 -52.5 -131.5t-82.5 -79t-96 -38.5t-93 -10q-36 0 -77.5 5.5t-82 20.5t-78.5 41t-66.5 66.5t-46 97.5t-17.5 135q0 77 17 133.5t46 97t67 66.5t79 41t83 20.5t80 5.5q48 0 98.5 -13t95 -42t78.5 -77t48 -117h-69q-13 53 -39 89.5t-60 59t-73.5 32.5
t-78.5 10q-46 0 -99 -12t-98.5 -46t-76 -93.5t-30.5 -154.5q0 -64 14 -111.5t37.5 -82t54 -56.5t64 -35t67 -18t63.5 -5q33 0 71.5 7t74 28.5t65 61t44.5 104.5h69z" />
    <glyph glyph-name="D" unicode="D" horiz-adv-x="764" 
d="M100 700h234q40 0 82.5 -4.5t84 -17.5t78.5 -36.5t64.5 -62.5t44 -95t16.5 -134t-16.5 -134t-44 -95t-64.5 -62.5t-78.5 -36.5t-84 -17.5t-82.5 -4.5h-234v700zM164 54h170q49 0 103 9.5t99 40.5t74.5 89.5t29.5 156.5t-29.5 156.5t-74.5 89.5t-99 40.5t-103 9.5h-170
v-592z" />
    <glyph glyph-name="E" unicode="E" horiz-adv-x="682" 
d="M164 54h458v-54h-522v700h522v-54h-458v-267h367v-54h-367v-271z" />
    <glyph glyph-name="F" unicode="F" horiz-adv-x="654" 
d="M164 379h350v-54h-350v-325h-64v700h494v-54h-430v-267z" />
    <glyph glyph-name="G" unicode="G" horiz-adv-x="853" 
d="M390 300v58h363v-358h-64v116q-15 -26 -38 -49.5t-55.5 -41.5t-74 -29t-93.5 -11q-36 0 -77.5 5.5t-82 20.5t-78.5 41t-66.5 66.5t-46 97.5t-17.5 135q0 75 17 131t46 96.5t67 67t79 42t83 21.5t80 6q48 0 98.5 -13t95 -42t78.5 -77t48 -117h-69q-13 53 -39 89.5t-60 59
t-73.5 32.5t-78.5 10q-49 0 -102.5 -12t-98.5 -46t-74 -93.5t-29 -154.5q0 -66 13.5 -114.5t36 -83t52.5 -56t63.5 -33.5t68 -16.5t66.5 -4.5q44 0 88 11t80.5 40t61.5 78.5t31 127.5h-299z" />
    <glyph glyph-name="H" unicode="H" horiz-adv-x="790" 
d="M164 326v-326h-64v700h64v-320h462v320h64v-700h-64v326h-462z" />
    <glyph glyph-name="I" unicode="I" horiz-adv-x="264" 
d="M100 700h64v-700h-64v700z" />
    <glyph glyph-name="J" unicode="J" horiz-adv-x="545" 
d="M84 220q0 -35 8 -67.5t25.5 -58t45.5 -40.5t69 -15q34 0 63.5 8t50.5 32t33 67t12 112v442h64v-428q0 -87 -14.5 -142.5t-43 -88t-70 -44.5t-95.5 -12q-56 0 -96.5 18t-66 50t-37.5 74.5t-12 92.5h64z" />
    <glyph glyph-name="K" unicode="K" horiz-adv-x="751" 
d="M633 0l-285 318l-57 -57q-17 -17 -34.5 -27t-50.5 -10h-42v-224h-64v700h64v-422h42q12 0 24 4.5t20 14.5l368 403h77l-307 -337l323 -363h-78z" />
    <glyph glyph-name="L" unicode="L" horiz-adv-x="611" 
d="M164 700v-617q0 -15 6 -22t21 -7h400v-54h-406q-45 0 -65 21.5t-20 65.5v613h64z" />
    <glyph glyph-name="M" unicode="M" horiz-adv-x="932" 
d="M100 0v623q0 38 20.5 57.5t51.5 19.5q36 0 58.5 -27t36.5 -65l184 -519q3 -8 6.5 -17.5t8.5 -9.5t8.5 9.5t6.5 17.5l189 519q14 38 32 65t54 27q31 0 53.5 -19t22.5 -57v-624h-64v611q0 9 -1.5 18t-10.5 9q-8 0 -13 -8t-9 -19l-205 -560q-7 -17 -22 -34t-41 -17
q-27 0 -42 17t-21 34l-205 560q-4 11 -9 19t-13 8q-9 0 -10.5 -9t-1.5 -18v-611h-64z" />
    <glyph glyph-name="N" unicode="N" horiz-adv-x="800" 
d="M100 0v630q0 30 16.5 50t47.5 20q26 0 46.5 -13.5t44.5 -51.5l350 -557q4 -6 8 -11t12 -5q6 0 8.5 4.5t2.5 9.5v624h64v-624q0 -9 -2 -22t-9 -25t-20.5 -20.5t-37.5 -8.5q-29 0 -52 23t-43 55l-341 543q-3 5 -8.5 10.5t-10.5 5.5q-8 0 -10 -5.5t-2 -10.5v-621h-64z" />
    <glyph glyph-name="O" unicode="O" horiz-adv-x="865" 
d="M433 657q-71 0 -127.5 -21t-96 -60.5t-60.5 -96.5t-21 -128t21 -128t60.5 -97t96 -61.5t127.5 -21.5t127.5 21.5t95.5 61.5t60 97t21 128t-21 128t-60 96.5t-95.5 60.5t-127.5 21zM433 715q86 0 155 -27t117 -75t74 -115t26 -147t-26 -147t-74 -116t-117 -76t-155 -27
t-155 27t-117.5 76t-74.5 116t-26 147t26 147t74.5 115t117.5 75t155 27z" />
    <glyph glyph-name="P" unicode="P" horiz-adv-x="700" 
d="M100 0v700h284q73 0 124 -19t82.5 -50.5t45.5 -71.5t14 -82t-14.5 -82.5t-46.5 -72.5t-83 -51.5t-124 -19.5h-218v-251h-64zM164 305h218q55 0 93 16t62 40.5t34.5 55t10.5 60.5t-10.5 60t-34 54t-61.5 39.5t-92 15.5h-220v-341z" />
    <glyph glyph-name="Q" unicode="Q" horiz-adv-x="865" 
d="M433 715q86 0 155 -27t117 -75t74 -115t26 -147q0 -102 -41 -181.5t-116 -127.5q35 -13 88 -13v-58q-52 0 -89 10.5t-66 27.5q-33 -11 -70 -17.5t-78 -6.5q-86 0 -155 27t-117.5 76t-74.5 116t-26 147t26 147t74.5 115t117.5 75t155 27zM433 657q-71 0 -127.5 -21
t-96 -60.5t-60.5 -96.5t-21 -128q0 -60 15 -111q20 8 48 15.5t61 7.5q61 0 104 -11.5t75 -30t55.5 -42.5t45.5 -48q13 -15 26 -29t29 -26q72 35 111 105.5t39 169.5q0 71 -21 128t-60 96.5t-95.5 60.5t-127.5 21zM252 205q-26 0 -48.5 -6t-39.5 -12q36 -69 104.5 -106.5
t164.5 -37.5q52 0 92 10q-19 19 -37 40q-18 20 -38.5 40t-48 36t-64 26t-85.5 10z" />
    <glyph glyph-name="R" unicode="R" horiz-adv-x="713" 
d="M589 0l-202 251h-223v-251h-64v700h289q49 0 96 -12t84 -39t59 -69.5t22 -102.5q0 -50 -15 -87t-41 -63.5t-60.5 -43t-73.5 -24.5l208 -259h-79zM164 305h229q37 0 71.5 10.5t61.5 32t43.5 54t16.5 75.5t-16.5 75t-43.5 53t-61.5 31t-71.5 10h-229v-341z" />
    <glyph glyph-name="S" unicode="S" horiz-adv-x="692" 
d="M124 215q0 -36 12 -68t39 -56t70 -38t105 -14t103.5 12t67 31.5t36.5 44.5t11 52q0 33 -18.5 55.5t-49.5 38.5t-71.5 27.5t-83.5 23.5q-51 13 -100 29.5t-87.5 40.5t-62 58t-23.5 84q0 56 24.5 91t62.5 54.5t83.5 26.5t87.5 7q85 0 138 -22t82.5 -53.5t40 -65.5t10.5 -59
h-64q0 19 -9 44t-32.5 47.5t-63.5 38.5t-102 16q-31 0 -65.5 -4t-63 -17.5t-47 -38t-18.5 -65.5q0 -36 19 -60.5t50.5 -41.5t72.5 -29t85 -24q53 -14 101.5 -29t86 -37t59.5 -54.5t22 -81.5q0 -37 -14 -72t-47 -62t-87 -43.5t-134 -16.5q-81 0 -136.5 18t-89.5 49.5
t-49 73.5t-15 89h64z" />
    <glyph glyph-name="T" unicode="T" horiz-adv-x="642" 
d="M15 646v54h612v-54h-274v-646h-64v646h-274z" />
    <glyph glyph-name="U" unicode="U" horiz-adv-x="763" 
d="M154 700v-385q0 -18 1.5 -46t8 -58.5t20.5 -61t39 -55t63.5 -40t94.5 -15.5t94.5 15.5t64 40t39.5 55t20.5 61t8 58t1.5 46.5v385h64v-371q0 -23 -1.5 -57.5t-9.5 -72.5t-26 -76.5t-50 -69t-82 -49.5t-123 -19t-122.5 19t-82 49.5t-50 69t-25.5 76.5t-9.5 72.5t-1.5 57.5
v371h64z" />
    <glyph glyph-name="V" unicode="V" horiz-adv-x="729" 
d="M640 700h69l-262 -637q-14 -33 -35.5 -48t-47.5 -15q-27 0 -47.5 14.5t-34.5 48.5l-262 637h67l253 -612q6 -15 11 -20.5t13 -5.5t13.5 5.5t11.5 20.5z" />
    <glyph glyph-name="W" unicode="W" horiz-adv-x="1107" 
d="M818 0q-27 0 -44 15t-28 50l-182 582q-1 3 -3 7.5t-7 4.5t-7.5 -4.5t-3.5 -7.5l-182 -582q-11 -35 -28.5 -50t-43.5 -15t-43.5 15t-28.5 50l-193 635h66l186 -614q5 -14 7.5 -19t5.5 -5t6 4t8 20l176 561q13 42 29.5 57.5t45.5 15.5q24 0 42.5 -15.5t31.5 -57.5l177 -561
q5 -16 7.5 -20t5.5 -4t6 5t8 19l185 614h66l-193 -635q-11 -37 -28.5 -51t-43.5 -14z" />
    <glyph glyph-name="X" unicode="X" horiz-adv-x="657" 
d="M347 319q-3 5 -7 9t-12 4t-11.5 -3.5t-8.5 -12.5l-175 -316h-72l193 346q4 6 8 11.5t12 8.5q-8 4 -12 8.5t-8 10.5l-199 315h73l179 -281q4 -6 8.5 -12.5t12.5 -6.5t12 6.5t8 12.5l181 281h73l-200 -315q-3 -5 -7 -10.5t-11 -8.5q7 -2 11.5 -7.5t6.5 -8.5l193 -350h-72z
" />
    <glyph glyph-name="Y" unicode="Y" horiz-adv-x="662" 
d="M299 0v253q-12 5 -21 14.5t-18 24.5l-250 408h75l228 -372q8 -14 18 -14q9 0 17 14l228 372h76l-251 -408q-16 -28 -38 -39v-253h-64z" />
    <glyph glyph-name="Z" unicode="Z" horiz-adv-x="666" 
d="M67 700h483q29 0 44 -17.5t15 -37.5q0 -14 -5 -26t-13 -21l-476 -532q-2 -2 -3.5 -4t-1.5 -4q0 -1 1 -2q2 -2 4 -2h501v-54h-506q-32 0 -46 16.5t-14 39.5q0 14 4.5 24.5t17.5 25.5l472 529q4 4 4 7q0 4 -4 4h-477v54z" />
    <glyph glyph-name="bracketleft" unicode="[" horiz-adv-x="280" 
d="M157 -135q0 -15 6 -22t21 -7h76v-47h-75q-45 0 -65 21.5t-20 65.5v772q0 44 20 65.5t65 21.5h75v-47h-76q-15 0 -21 -7t-6 -22v-794z" />
    <glyph glyph-name="backslash" unicode="\" horiz-adv-x="414" 
d="M347 -15l-337 730h57l337 -730h-57z" />
    <glyph glyph-name="bracketright" unicode="]" horiz-adv-x="280" 
d="M123 659q0 15 -6 22t-21 7h-76v47h75q45 0 65 -21.5t20 -65.5v-772q0 -44 -20 -65.5t-65 -21.5h-75v47h76q15 0 21 7t6 22v794z" />
    <glyph glyph-name="asciicircum" unicode="^" horiz-adv-x="632" 
d="M103 247h-63l184 363q19 38 39 64t53 26t53 -26t39 -64l184 -363h-63l-181 354q-13 25 -18 32t-14 7t-14.5 -7t-17.5 -32z" />
    <glyph glyph-name="underscore" unicode="_" horiz-adv-x="520" 
d="M10 -125v52h500v-52h-500z" />
    <glyph glyph-name="grave" unicode="`" horiz-adv-x="283" 
d="M119 700l134 -144h-69l-134 144h69z" />
    <glyph glyph-name="a" unicode="a" horiz-adv-x="572" 
d="M68 356q3 44 28 79q10 15 26 29.5t39.5 25.5t54 18t71.5 7q69 0 107 -21.5t55 -51.5t20 -60.5t3 -48.5v-222q0 -26 10 -39.5t50 -13.5v-58q-31 0 -52 5.5t-34.5 16t-21 27t-10.5 37.5q-14 -24 -36 -43t-48 -31.5t-55 -19.5t-58 -7q-82 0 -127 36.5t-45 102.5
q0 53 27 82.5t67.5 46.5t88 25t88 17.5t67.5 25t27 47.5q0 11 -3 27t-15.5 31t-37 26t-67.5 11q-58 0 -89.5 -17t-46.5 -37q-18 -24 -21 -53h-62zM217 37q41 0 76 12.5t61 35.5t41 55t15 71v71q-20 -15 -50 -23.5t-63.5 -15t-67.5 -13.5t-61 -19.5t-44 -33t-17 -53.5
q0 -35 25.5 -61t84.5 -26z" />
    <glyph glyph-name="b" unicode="b" horiz-adv-x="628" 
d="M152 700v-287q30 49 75 75.5t107 26.5q64 0 110.5 -20.5t76 -56t43.5 -83t14 -101.5q0 -53 -14 -102t-43 -86t-75.5 -59t-110.5 -22q-63 0 -105.5 26t-77.5 83v-94h-62v700h62zM152 257q0 -42 10.5 -81.5t32.5 -70.5t56.5 -49.5t83.5 -18.5t83 18t56 48.5t32 69.5t10 81
t-10 79.5t-32 66.5t-56.5 46t-83.5 17q-48 0 -82 -16t-55.5 -43.5t-32.5 -65.5t-12 -81z" />
    <glyph glyph-name="c" unicode="c" horiz-adv-x="567" 
d="M517 173q0 -27 -10.5 -60t-35.5 -61.5t-67.5 -47.5t-105.5 -19q-71 0 -119 21.5t-76.5 58t-40.5 84t-12 100.5q0 40 7 86.5t32.5 86.5t75 66.5t133.5 26.5q64 0 106 -21t67 -50.5t35.5 -61.5t10.5 -55h-62q0 16 -7 39t-24.5 44.5t-48 37t-77.5 15.5q-64 0 -101 -22
t-56 -54t-24 -69.5t-5 -68.5q0 -41 8.5 -79.5t29.5 -68t57 -47t91 -17.5q48 0 78.5 15t48 36t24 44.5t6.5 40.5h62z" />
    <glyph glyph-name="d" unicode="d" horiz-adv-x="626" 
d="M536 700v-700h-62v84q-32 -48 -74 -73.5t-108 -25.5q-65 0 -110.5 22t-75 59t-43 86t-13.5 102q0 54 14 101.5t43 83t75 56t111 20.5q62 0 105.5 -22t75.5 -70v277h62zM474 257q-1 43 -11.5 81t-32.5 65.5t-55.5 43.5t-81.5 16q-49 0 -83.5 -17t-56 -46t-31.5 -66.5
t-10 -79.5t10 -81t31.5 -69.5t55.5 -48.5t83 -18t83.5 18.5t56.5 49.5t32 70.5t10 81.5z" />
    <glyph glyph-name="e" unicode="e" horiz-adv-x="570" 
d="M112 228q0 -62 17 -99.5t43.5 -57.5t59 -27t63.5 -7q40 0 67.5 11.5t46 29.5t28.5 39.5t15 42.5h63q-6 -29 -20 -60t-40 -56.5t-65.5 -42t-94.5 -16.5q-38 0 -80.5 7.5t-79.5 34.5t-61 79.5t-24 141.5q0 65 14.5 110t37 74.5t50 46.5t53.5 25t48 9.5t33 1.5t33 -1.5
t48 -9.5t53 -25.5t49.5 -49t36.5 -81t14 -120.5h-408zM286 463q-15 0 -43.5 -4.5t-57.5 -22.5t-50.5 -55t-21.5 -101h343q0 64 -21 101t-49.5 55t-57 22.5t-42.5 4.5z" />
    <glyph glyph-name="f" unicode="f" horiz-adv-x="299" 
d="M15 500h86v42q0 33 4 62t16.5 50.5t36.5 33.5t64 12h62v-52h-62q-21 0 -33 -7.5t-17.5 -21t-7 -31t-1.5 -36.5v-52h111v-52h-111v-448h-62v448h-86v52z" />
    <glyph glyph-name="g" unicode="g" horiz-adv-x="609" 
d="M50 276q0 54 15 98t44.5 75.5t73.5 48.5t103 17q31 0 58 -8t48.5 -22t37.5 -32.5t27 -39.5v87h62v-445q0 -55 -12.5 -100t-39.5 -77.5t-70.5 -50t-106.5 -17.5q-71 0 -113 18.5t-64 44.5t-29 54t-7 46h63q1 -31 17 -56q14 -21 44 -38t89 -17q90 0 128.5 52t38.5 141v73
q-22 -42 -63 -70t-109 -28q-112 0 -173.5 66t-61.5 180zM112 276q0 -44 10 -79.5t31 -61t54 -39.5t78 -14q46 0 79 15.5t53.5 41.5t30 60.5t9.5 72.5t-10 72.5t-30.5 61t-53 42t-77.5 15.5q-89 0 -131.5 -49.5t-42.5 -137.5z" />
    <glyph glyph-name="h" unicode="h" horiz-adv-x="603" 
d="M90 0v700h62v-287q24 46 67.5 74t99.5 28q61 0 100 -18t61 -49t30 -71t8 -84v-293h-62v303q0 32 -5 61t-20 51t-42 35t-70 13q-40 0 -71 -15t-52.5 -40.5t-32.5 -59.5t-11 -72v-276h-62z" />
    <glyph glyph-name="i" unicode="i" horiz-adv-x="242" 
d="M152 0h-62v500h62v-500zM75 673q0 19 13 33t33 14q19 0 33 -14t14 -33q0 -20 -14 -33t-33 -13q-20 0 -33 13t-13 33z" />
    <glyph glyph-name="j" unicode="j" horiz-adv-x="242" 
d="M151 500v-502q0 -46 -3 -81t-19 -59t-49.5 -36t-94.5 -12v52q38 0 59 8t31 24.5t12 42.5t2 61v502h62zM74 674q0 19 13 33t33 14q19 0 33 -14t14 -33q0 -20 -14 -33t-33 -13q-20 0 -33 13t-13 33z" />
    <glyph glyph-name="k" unicode="k" horiz-adv-x="581" 
d="M481 0l-178 253l-37 -38q-12 -12 -23 -21t-24 -15t-29 -9t-38 -3v-167h-62v700h62v-481q19 0 31.5 2.5t22 7.5t17.5 13t17 19l213 239h74l-184 -204l213 -296h-75z" />
    <glyph glyph-name="l" unicode="l" horiz-adv-x="242" 
d="M90 700h62v-700h-62v700z" />
    <glyph glyph-name="m" unicode="m" horiz-adv-x="899" 
d="M90 0v500h62v-87q12 21 28 39.5t37.5 32.5t50 22t64.5 8q54 0 93 -29.5t50 -77.5q13 22 30 41.5t38.5 34t49 23t60.5 8.5q47 0 78 -15t49.5 -40.5t26 -58.5t7.5 -69v-332h-62v305q0 22 -2 49.5t-12 51.5t-32.5 40.5t-62.5 16.5t-70 -19t-50 -49.5t-30 -69.5t-10 -79v-246
h-62v305q0 24 -2 51.5t-12 51t-32.5 39.5t-62.5 16t-70 -19t-50 -49.5t-30 -69.5t-10 -79v-246h-62z" />
    <glyph glyph-name="n" unicode="n" horiz-adv-x="603" 
d="M90 0v500h62v-87q24 46 67.5 74t99.5 28q61 0 100 -18t61 -49t30 -71t8 -84v-293h-62v303q0 32 -5 61t-20 51t-42 35t-70 13q-40 0 -71 -15t-52.5 -40.5t-32.5 -59.5t-11 -72v-276h-62z" />
    <glyph glyph-name="o" unicode="o" horiz-adv-x="600" 
d="M112 257q0 -42 10 -81.5t32 -70.5t58 -49.5t88 -18.5t88 18t58 48.5t32 69.5t10 81t-10 79.5t-32 66.5t-58 46t-88 17t-88 -16.5t-58 -45t-32 -65.5t-10 -79zM50 257q0 54 15 101t46 82t78 55t111 20t111 -20.5t78 -56t46 -83t15 -101.5q0 -53 -15 -102t-46 -86t-78 -59
t-111 -22t-111 22.5t-78 60t-46 87t-15 102.5z" />
    <glyph glyph-name="p" unicode="p" horiz-adv-x="626" 
d="M90 500h62v-87q26 48 71 75t110 27q64 0 110.5 -21.5t75.5 -58t43 -85t14 -101.5q0 -54 -13.5 -102t-43 -84t-75.5 -57t-110 -21q-63 0 -109.5 26.5t-72.5 71.5v-273h-62v690zM333 463q-48 0 -82 -18t-56 -47t-32.5 -65.5t-10.5 -74.5v-15q0 -41 10.5 -78t33 -65.5
t56.5 -45.5t82 -17q49 0 83 17.5t55.5 46.5t31.5 67.5t10 80.5t-10 80.5t-32 68.5t-56 47.5t-83 17.5z" />
    <glyph glyph-name="q" unicode="q" horiz-adv-x="626" 
d="M536 -190h-62v273q-26 -45 -71 -71.5t-111 -26.5q-65 0 -110.5 21t-75 57t-43 84t-13.5 102q0 53 14 101.5t43 85t75 58t111 21.5t110 -27t71 -75v87h62v-690zM293 463q-49 0 -83.5 -17.5t-56 -47.5t-31.5 -68.5t-10 -80.5t10 -80.5t31.5 -67.5t55.5 -46.5t83 -17.5
q48 0 82 17t56.5 45.5t33 65.5t10.5 78v15q0 38 -10.5 74.5t-32.5 65.5t-56 47t-82 18z" />
    <glyph glyph-name="r" unicode="r" horiz-adv-x="377" 
d="M90 0v500h62v-87q12 23 31.5 41.5t42.5 32t49 21t52 7.5h25v-52h-25q-31 0 -62 -12t-56 -35.5t-41 -57.5t-16 -78v-280h-62z" />
    <glyph glyph-name="s" unicode="s" horiz-adv-x="516" 
d="M113 158q0 -27 8 -49.5t26 -38.5t47 -24.5t72 -8.5q72 0 105 28t33 72q0 22 -11.5 37.5t-30.5 26.5t-44 18t-53 13q-38 8 -73.5 18.5t-63 27.5t-44 42.5t-16.5 64.5q0 24 9 47.5t30 42t56 29.5t88 11q42 0 78 -9.5t62 -27.5t41 -45.5t15 -63.5h-65q0 40 -33 67t-98 27
q-36 0 -59.5 -6t-37 -16t-19 -24.5t-5.5 -30.5q0 -26 12.5 -42t33 -26t47 -16t54.5 -13q41 -10 75.5 -21t60 -27.5t39.5 -41t14 -62.5q0 -32 -12 -59.5t-36.5 -48t-62 -32.5t-89.5 -12q-67 0 -109 15t-66 40t-32.5 55.5t-8.5 62.5h63z" />
    <glyph glyph-name="t" unicode="t" horiz-adv-x="382" 
d="M25 500h115v200h62v-200h135v-52h-135v-334q0 -9 1 -20t6 -20.5t16 -15.5t32 -6h56v-52h-56q-44 0 -67.5 12.5t-34.5 31t-13 40.5t-2 40v324h-115v52z" />
    <glyph glyph-name="u" unicode="u" horiz-adv-x="599" 
d="M147 500v-308q0 -32 6 -60t22 -49t43.5 -33.5t70.5 -12.5q45 0 75.5 14t48.5 38.5t26 58t8 71.5v281h62v-500h-62v82q-20 -41 -60.5 -69t-107.5 -28q-58 0 -95.5 17.5t-59.5 47t-30.5 69t-8.5 83.5v298h62z" />
    <glyph glyph-name="v" unicode="v" horiz-adv-x="547" 
d="M462 500h65l-179 -437q-14 -33 -31.5 -48t-43.5 -15q-27 0 -43.5 14.5t-30.5 48.5l-179 437h63l170 -419q6 -15 10 -20.5t10 -5.5t10.5 5.5t10.5 20.5z" />
    <glyph glyph-name="w" unicode="w" horiz-adv-x="987" 
d="M904 500h65l-185 -437q-14 -32 -27.5 -47.5t-40.5 -15.5q-28 0 -41.5 15t-27.5 48l-154 382l-161 -382q-14 -34 -28.5 -48.5t-40.5 -14.5q-14 0 -24 3t-17.5 10t-14.5 19t-14 31l-175 437h65l161 -414q7 -17 10.5 -21t8.5 -4t8 4t11 21l162 390q6 14 17.5 26.5t31.5 12.5
t31.5 -12.5t17.5 -26.5l154 -390q7 -17 11 -21t9 -4t8 4t10 21z" />
    <glyph glyph-name="x" unicode="x" horiz-adv-x="504" 
d="M272 209q-6 11 -10.5 14.5t-9.5 3.5q-9 0 -20 -18l-121 -209h-66l135 228q9 15 15.5 21t14.5 10q-11 4 -19 14.5t-11 15.5l-135 211h67l120 -192q8 -14 12 -16.5t8 -2.5q5 0 8 3t12 17l120 191h67l-135 -211q-11 -17 -15.5 -21.5t-12.5 -9.5q8 -3 16 -13t12 -17l135 -228
h-66z" />
    <glyph glyph-name="y" unicode="y" horiz-adv-x="570" 
d="M304 58l179 442h62l-246 -605q-11 -27 -27.5 -43.5t-37.5 -25.5t-45.5 -12.5t-49.5 -3.5h-49v52h54q42 0 66.5 13t39.5 50l31 75h-10q-23 0 -38 13.5t-24 36.5l-184 450h62l169 -418q6 -14 11 -19t19 -5h18z" />
    <glyph glyph-name="z" unicode="z" horiz-adv-x="506" 
d="M61 500h320q23 0 37.5 -6.5t23 -15.5t11.5 -19t3 -17q0 -23 -13 -41.5t-27 -31.5l-296 -285l-7.5 -7.5t-3.5 -9.5q0 -15 20 -15h326v-52h-326q-37 0 -58 16t-21 47q0 13 7.5 27.5t32.5 37.5l291 283q5 5 9.5 10t4.5 10q0 10 -7 13.5t-16 3.5h-311v52z" />
    <glyph glyph-name="braceleft" unicode="{" horiz-adv-x="394" 
d="M329 -231h-63q-56 0 -77 33t-21 110v242q0 23 -4.5 33t-12.5 18l-50 44q-10 8 -13 15t-3 15t3 15t13 17l49 47q12 12 15 22.5t3 29.5v216q0 20 2.5 43t12.5 42.5t29.5 32t53.5 12.5h63v-48h-67q-12 0 -19.5 -6.5t-11 -17t-4.5 -22.5t-1 -22v-230q0 -16 -1 -28.5
t-4.5 -23.5t-10.5 -21.5t-20 -22.5l-36 -35l34 -28q20 -17 29 -38t9 -59v-256q0 -45 8 -63t28 -18h67v-48z" />
    <glyph glyph-name="bar" unicode="|" horiz-adv-x="232" 
d="M142 -205h-52v991h52v-991z" />
    <glyph glyph-name="braceright" unicode="}" horiz-adv-x="394" 
d="M65 -183h67q20 0 28 18t8 63v256q0 38 9 59t29 38l34 28l-36 35q-13 12 -20 22.5t-10.5 21.5t-4.5 23.5t-1 28.5v230q0 10 -1 22t-4.5 22.5t-11 17t-19.5 6.5h-67v48h63q34 0 53.5 -12.5t29.5 -32t12.5 -42.5t2.5 -43v-216q0 -19 3 -29.5t15 -22.5l49 -47q10 -10 13 -17
t3 -15t-3 -15t-13 -15l-50 -44q-8 -8 -12.5 -18t-4.5 -33v-242q0 -77 -21 -110t-77 -33h-63v48z" />
    <glyph glyph-name="asciitilde" unicode="~" horiz-adv-x="539" 
d="M27 179q5 39 20 71q13 26 38 48.5t70 22.5q37 0 70 -13t65 -33q24 -15 47.5 -26.5t49.5 -11.5q23 0 36.5 13t19.5 29q7 18 9 42h58q-3 -40 -16 -71q-12 -27 -36.5 -49t-70.5 -22q-36 0 -61.5 11t-48.5 25l-28 16q-23 12 -45.5 22t-48.5 10q-24 0 -38 -13t-21 -29
q-8 -18 -10 -42h-59z" />
    <glyph glyph-name="uni00A0" unicode="&#xa0;" horiz-adv-x="0" 
 />
    <glyph glyph-name="exclamdown" unicode="&#xa1;" horiz-adv-x="253" 
d="M80 469.003q0 -18.999 13 -32.998t33 -13.999q19 0 33 13.999t14 32.998q0 19.999 -14 32.998t-33 12.999q-20 0 -33 -12.999t-13 -32.998zM93 -184.957h62v502.969h-62v-502.969z" />
    <glyph glyph-name="cent" unicode="&#xa2;" horiz-adv-x="571" 
d="M521 173q0 -26 -10 -58t-34 -60t-63.5 -47.5t-98.5 -22.5v-85h-44v86q-63 5 -105 28t-68 58.5t-37 81t-11 95.5q0 38 7 82.5t30 83t66.5 66.5t117.5 33v86h44v-85q59 -3 98.5 -24.5t63.5 -50.5t34 -60t10 -53h-62q0 15 -6.5 37t-23 43t-44.5 36.5t-70 18.5v-425
q43 3 71 18t44 36t22.5 43t6.5 39h62zM112 249q0 -39 7.5 -74.5t26 -64t49 -47.5t76.5 -24v422q-54 -6 -85.5 -28.5t-48 -53.5t-21 -66t-4.5 -64z" />
    <glyph glyph-name="sterling" unicode="&#xa3;" horiz-adv-x="606" 
d="M462 535q0 29 -12.5 50t-32 34.5t-43.5 19.5t-48 6q-53 0 -82.5 -16t-43.5 -40.5t-17 -53.5t-3 -55v-67h143v-53h-142v-152q0 -27 -5.5 -46t-13.5 -32.5t-18.5 -22t-19.5 -14.5q-9 -7 -16 -12.5t-7 -13.5q0 -14 13 -14h254q28 0 52 7t41.5 22.5t27.5 40.5t10 61h63
q0 -49 -13.5 -83.5t-37 -57t-53.5 -33t-63 -10.5h-303q-29 0 -45.5 17t-16.5 45q0 34 39 61q17 11 32.5 28t15.5 55v154h-81v53h81v68q0 37 6.5 76t28.5 70.5t63.5 52t110.5 20.5q35 0 70.5 -8.5t64 -28t46.5 -51t18 -77.5h-63z" />
    <glyph glyph-name="yen" unicode="&#xa5;" horiz-adv-x="684" 
d="M85 387h124l-189 293h73l228 -349q10 -17 21 -17q7 0 11 4.5t9 12.5l228 349h74l-190 -293h125v-50h-157l-29 -45q-19 -29 -40 -39v-30h226v-50h-226v-173h-62v173h-226v50h226v30q-22 10 -41 39l-29 45h-156v50z" />
    <glyph glyph-name="brokenbar" unicode="&#xa6;" horiz-adv-x="252" 
d="M100 700h52v-261h-52v261zM100 246h52v-261h-52v261z" />
    <glyph glyph-name="section" unicode="&#xa7;" horiz-adv-x="543" 
d="M137 0q0 -18 3.5 -44.5t18 -52t42.5 -43.5t77 -18q56 0 85.5 29t29.5 76q0 23 -9.5 42t-23 34t-30 26.5t-29.5 20.5l-160 101q-13 8 -32 22t-37 35t-30.5 49.5t-12.5 65.5q0 29 8.5 53t22 43t30 33t31.5 23q-27 27 -34 52t-7 45q0 29 11 55t34 46t57 31.5t81 11.5
q91 0 142.5 -49t51.5 -146h-63q0 37 -10 64t-28 44.5t-42 26t-51 8.5q-60 0 -90 -26.5t-30 -60.5q0 -23 13 -46.5t53 -47.5l192 -118q15 -9 34.5 -23t37 -35t29.5 -49.5t12 -66.5q0 -30 -10 -53.5t-25 -42t-33 -32t-34 -22.5q20 -21 32 -49.5t12 -64.5q0 -31 -12 -59.5
t-35 -50.5t-56 -35t-75 -13q-45 0 -78 11t-55.5 29t-36.5 41t-21.5 46.5t-10 45.5t-2.5 38h63zM362 104q11 5 26 14t29 22.5t24 31t10 39.5q0 25 -8.5 44.5t-21.5 34.5t-27.5 26t-27.5 19l-196 119q-9 -4 -22.5 -12.5t-25.5 -22t-21 -32.5t-9 -44t9.5 -45t23.5 -35.5
t29 -26.5t27 -18z" />
    <glyph glyph-name="dieresis" unicode="&#xa8;" horiz-adv-x="289" 
d="M10 821q0 19 13 33t33 14q19 0 33 -14t14 -33q0 -20 -14 -33t-33 -13q-20 0 -33 13t-13 33zM186 821q0 19 13 33t33 14q19 0 33 -14t14 -33q0 -20 -14 -33t-33 -13q-20 0 -33 13t-13 33z" />
    <glyph glyph-name="copyright" unicode="&#xa9;" horiz-adv-x="884" 
d="M642 282q-4 -26 -18.5 -53.5t-38.5 -50.5t-58 -37.5t-76 -14.5q-50 0 -90.5 15t-70 44.5t-45.5 71.5t-16 96q0 49 15 89.5t43.5 69.5t69.5 45t93 16q48 0 82 -15.5t57 -38.5t35.5 -50t16.5 -49h-60q-4 19 -13 37.5t-25 33t-39 23.5t-54 9q-34 0 -63.5 -9t-51 -29
t-34 -52.5t-12.5 -79.5t12.5 -80.5t34 -55t51 -31.5t64.5 -10q24 0 46 8t39.5 22.5t29 33.5t15.5 42h61zM446 670q-54 0 -113 -17.5t-107.5 -55.5t-80.5 -98.5t-32 -147.5t31 -148t79.5 -99.5t106.5 -56t112 -17.5t112 17.5t106.5 56t79.5 99.5t31 148t-30.5 147.5t-78 98.5
t-105 55.5t-111.5 17.5zM446 715q63 0 130 -20.5t122 -64t90.5 -113t35.5 -166.5q0 -98 -36 -167t-92 -113.5t-123.5 -65t-130.5 -20.5t-130.5 20.5t-123.5 65t-92 113.5t-36 167q0 97 36.5 166.5t93.5 113t125 64t131 20.5z" />
    <glyph glyph-name="ordfeminine" unicode="&#xaa;" horiz-adv-x="360" 
d="M54 599q0 12 4.5 28.5t17.5 31.5t37.5 25.5t64.5 10.5q41 0 63.5 -13.5t33 -31.5t12.5 -37t2 -29v-131q0 -17 5.5 -25t30.5 -8v-45q-38 0 -57.5 13.5t-24.5 39.5q-34 -58 -104 -58q-51 0 -75 22.5t-24 61.5q0 24 10 40t27.5 27t39.5 18.5t46 13.5q38 9 58 18.5t20 36.5
q0 6 -2 14t-8.5 15t-19 11.5t-33.5 4.5q-27 0 -42.5 -6.5t-23 -15.5t-9 -18t-1.5 -14h-48zM145 412q43 0 69.5 25.5t26.5 63.5v41q-18 -12 -31 -17t-39 -12q-21 -5 -36.5 -9.5t-26 -11t-15.5 -15.5t-5 -23q0 -21 13.5 -31.5t43.5 -10.5z" />
    <glyph glyph-name="guillemotleft" unicode="&#xab;" horiz-adv-x="545" 
d="M285 500l-138 -172q-6 -8 -12.5 -17.5t-6.5 -18.5t6.5 -17.5t12.5 -16.5l138 -167h-64l-128 154q-5 6 -14 18.5t-9 28.5q0 14 8 26t14 20l129 162h64zM465 500l-138 -172q-6 -8 -12.5 -17.5t-6.5 -18.5t6.5 -17.5t12.5 -16.5l138 -167h-64l-128 154q-5 6 -14 18.5
t-9 28.5q0 14 8 26t14 20l129 162h64z" />
    <glyph glyph-name="logicalnot" unicode="&#xac;" horiz-adv-x="654" 
d="M80 360h494v-257h-52v205h-442v52z" />
    <glyph glyph-name="uni00AD" unicode="&#xad;" horiz-adv-x="405" 
d="M80 295h245v-52h-245v52z" />
    <glyph glyph-name="registered" unicode="&#xae;" horiz-adv-x="876" 
d="M293 138v424h165q28 0 54.5 -8t47 -24.5t33 -41t12.5 -58.5q0 -60 -31.5 -96.5t-91.5 -44.5l130 -151h-65l-129 150h-72v-150h-53zM346 333h112q48 0 71 29t23 68t-23 63t-71 24h-112v-184zM442 669q-53 0 -111 -18t-106.5 -56t-80 -98.5t-31.5 -145.5t31 -146t78.5 -100
t105 -57t110.5 -18t110.5 18t105 57t78.5 100t31 146t-30 145.5t-77 98.5t-104 56t-110 18zM442 715q62 0 128.5 -20.5t121 -65t89.5 -113.5t35 -165t-35.5 -165.5t-91 -114t-122.5 -65.5t-129 -21t-129 21t-122.5 65.5t-91 114t-35.5 165.5t36.5 165t92.5 113.5t123.5 65
t129.5 20.5z" />
    <glyph glyph-name="macron" unicode="&#xaf;" horiz-adv-x="347" 
d="M10 650h327v-52h-327v52z" />
    <glyph glyph-name="degree" unicode="&#xb0;" horiz-adv-x="366" 
d="M277 552q0 38 -26 66.5t-68 28.5q-19 0 -36 -8t-30 -21.5t-21 -30.5t-8 -35q0 -21 8 -39t21 -31t30 -20t36 -7q41 0 67.5 28t26.5 69zM326 552q0 -30 -11 -56.5t-30 -46t-45.5 -31t-56.5 -11.5t-56 11t-45.5 30.5t-30.5 46t-11 57.5q0 29 11 55t30.5 45.5t45.5 31
t56 11.5t56 -11.5t45.5 -31t30.5 -45.5t11 -55z" />
    <glyph glyph-name="plusminus" unicode="&#xb1;" horiz-adv-x="520" 
d="M465 52v-52h-410v52h410zM233 500h52v-170h180v-52h-180v-178h-52v178h-177v52h177v170z" />
    <glyph glyph-name="twosuperior" unicode="&#xb2;" horiz-adv-x="410" 
d="M340 277h-229q-20 0 -31 11.5t-11 26.5q0 11 4.5 21.5t19.5 24.5l117 100q37 31 50.5 52.5t13.5 53.5q0 29 -18 50t-58 21q-16 0 -30.5 -3t-26 -13t-18.5 -27.5t-7 -46.5h-56q0 37 11.5 64t30 44t43.5 25.5t52 8.5q66 0 99 -33t33 -90q0 -39 -20 -71t-60 -65l-106 -89
l-5.5 -5.5t-2.5 -5.5q0 -6 8 -6h197v-48z" />
    <glyph glyph-name="threesuperior" unicode="&#xb3;" horiz-adv-x="414" 
d="M85 680h217q28 0 28 -28q0 -7 -3.5 -14.5t-12.5 -14.5l-124 -101q-10 -8 -10 -17t9 -9q3 0 5.5 2t7.5 4q14 8 28.5 14.5t34.5 6.5q42 0 65.5 -27.5t23.5 -81.5q0 -40 -14.5 -67t-37 -43.5t-48.5 -23.5t-50 -7q-22 0 -47.5 6t-47 21.5t-35.5 42.5t-14 68h54
q0 -31 10.5 -49t25 -27t29.5 -11.5t25 -2.5q18 0 35.5 4t31 14t22 28t8.5 47t-12 46t-36 17q-15 0 -23.5 -3.5t-15.5 -8t-14 -8t-18 -3.5q-18 0 -32.5 10t-14.5 35q0 17 8 30.5t25 27.5l89 75h-172v48z" />
    <glyph glyph-name="acute" unicode="&#xb4;" horiz-adv-x="283" 
d="M273 700l-134 -144h-69l134 144h69z" />
    <glyph glyph-name="mu" unicode="&#xb5;" horiz-adv-x="608" 
d="M90 500h62v-303q0 -32 6.5 -61t22.5 -51t44 -35t71 -13q45 0 75.5 15t49.5 40.5t27 59.5t8 72v276h62v-500h-62v87q-10 -20 -25 -38.5t-36 -32.5t-48 -22.5t-61 -8.5q-27 0 -48 4t-36.5 10.5t-27.5 15t-22 18.5v-223h-62v690z" />
    <glyph glyph-name="mu" unicode="&#x3bc;" horiz-adv-x="608" 
d="M90 500h62v-303q0 -32 6.5 -61t22.5 -51t44 -35t71 -13q45 0 75.5 15t49.5 40.5t27 59.5t8 72v276h62v-500h-62v87q-10 -20 -25 -38.5t-36 -32.5t-48 -22.5t-61 -8.5q-27 0 -48 4t-36.5 10.5t-27.5 15t-22 18.5v-223h-62v690z" />
    <glyph glyph-name="paragraph" unicode="&#xb6;" horiz-adv-x="596" 
d="M274 -190v448h-45q-44 0 -82.5 11.5t-66.5 38t-44 68.5t-16 103t18.5 103t49.5 68t71 38t84 12h263v-890h-62v838h-108v-838h-62zM82 479q0 -50 11.5 -82.5t31.5 -52t46.5 -27t57.5 -7.5h45v338h-31q-32 0 -61 -7.5t-51 -27t-35.5 -52t-13.5 -82.5z" />
    <glyph glyph-name="periodcentered" unicode="&#xb7;" horiz-adv-x="253" 
d="M80 300q0 19 13 33t33 14q19 0 33 -14t14 -33q0 -20 -14 -33t-33 -13q-20 0 -33 13t-13 33z" />
    <glyph glyph-name="cedilla" unicode="&#xb8;" horiz-adv-x="301" 
d="M122 -10l-17 -48h64q33 0 57.5 -13.5t24.5 -50.5t-24.5 -52.5t-57.5 -15.5h-113v45h113q26 0 26 23q0 9 -7 15t-19 6h-85q-17 0 -25.5 4.5t-8.5 18.5q0 9 3 17t5 13l19 49z" />
    <glyph glyph-name="onesuperior" unicode="&#xb9;" horiz-adv-x="271" 
d="M138 277v331q0 19 -20 19h-78v53h106q18 0 31.5 -10.5t13.5 -33.5v-359h-53z" />
    <glyph glyph-name="ordmasculine" unicode="&#xba;" horiz-adv-x="386" 
d="M87 535q0 -25 5.5 -47.5t17.5 -40t32.5 -27.5t50.5 -10t50.5 10t32.5 27t17.5 39.5t5.5 47.5t-5.5 46.5t-17.5 37.5t-32.5 25.5t-50.5 9.5t-50.5 -9t-32.5 -25t-17.5 -37.5t-5.5 -46.5zM40 535q0 33 9 62t28 50.5t48 34.5t68 13t68 -13t48 -35t28 -51.5t9 -61.5t-9 -62
t-28 -53t-48 -37t-68 -14t-68 14t-48 37.5t-28 53.5t-9 62z" />
    <glyph glyph-name="guillemotright" unicode="&#xbb;" horiz-adv-x="554" 
d="M143 500l129 -162q6 -8 14 -20t8 -26q0 -16 -8 -27t-15 -19l-128 -155h-63l138 167q6 7 12.5 16t6.5 18t-6.5 18.5t-12.5 17.5l-138 172h63zM333 500l129 -162q6 -8 14 -20t8 -26q0 -16 -8 -27t-15 -19l-128 -155h-63l138 167q6 7 12.5 16t6.5 18t-6.5 18.5t-12.5 17.5
l-138 172h63z" />
    <glyph glyph-name="onequarter" unicode="&#xbc;" horiz-adv-x="761" 
d="M138 277v331q0 19 -20 19h-78v53h106q18 0 31.5 -10.5t13.5 -33.5v-359h-53zM96 -15l468 730h63l-468 -730h-63zM578 0v83h-157q-20 0 -31 11.5t-11 28.5q0 15 6 27t16 26l127 197q8 13 20.5 25.5t29.5 12.5q29 0 39.5 -17t10.5 -40v-226h73v-45h-73v-83h-50zM433 135
q0 -7 8 -7h137v221q0 5 -4 5q-3 0 -7 -6l-128 -201q-6 -9 -6 -12z" />
    <glyph glyph-name="onehalf" unicode="&#xbd;" horiz-adv-x="836" 
d="M138 277v331q0 19 -20 19h-78v53h106q18 0 31.5 -10.5t13.5 -33.5v-359h-53zM96 -15l468 730h63l-468 -730h-63zM766 0h-229q-20 0 -31 11.5t-11 26.5q0 11 4.5 21.5t19.5 24.5l117 106q36 32 50 53t14 53q0 29 -18 50t-58 21q-16 0 -30.5 -3t-26 -13t-18.5 -27.5
t-7 -46.5h-56q0 37 11.5 64t30 44t43.5 25.5t52 8.5q66 0 99 -33t33 -90q0 -39 -21 -70t-59 -66l-106 -95l-5.5 -5.5t-2.5 -5.5q0 -6 8 -6h197v-48z" />
    <glyph glyph-name="threequarters" unicode="&#xbe;" horiz-adv-x="881" 
d="M189 -15l468 730h63l-468 -730h-63zM698 0v83h-157q-20 0 -31 11.5t-11 28.5q0 15 6 27t16 26l127 197q8 13 20.5 25.5t29.5 12.5q29 0 39.5 -17t10.5 -40v-226h73v-45h-73v-83h-50zM553 135q0 -7 8 -7h137v221q0 5 -4 5q-3 0 -7 -6l-128 -201q-6 -9 -6 -12zM64 680h217
q28 0 28 -28q0 -7 -3.5 -14.5t-12.5 -14.5l-124 -101q-10 -8 -10 -17t9 -9q3 0 5.5 2t7.5 4q14 8 28.5 14.5t34.5 6.5q42 0 65.5 -27.5t23.5 -81.5q0 -40 -14.5 -67t-37 -43.5t-48.5 -23.5t-50 -7q-22 0 -47.5 6t-47 21.5t-35.5 42.5t-14 68h54q0 -31 10.5 -49t25 -27
t29.5 -11.5t25 -2.5q18 0 35.5 4t31 14t22 28t8.5 47t-12 46t-36 17q-15 0 -23.5 -3.5t-15.5 -8t-14 -8t-18 -3.5q-18 0 -32.5 10t-14.5 35q0 17 8 30.5t25 27.5l89 75h-172v48z" />
    <glyph glyph-name="questiondown" unicode="&#xbf;" horiz-adv-x="525" 
d="M212 490.002q0 -18.999 13 -32.998q13 -14 33 -14q19 0 33 14q14 13.999 14 32.998q0 19.998 -14 32.998q-14 12.999 -33 12.999q-20 0 -33 -12.999q-13 -13 -13 -32.998zM227 333.011v-58.9961q0 -34.998 8.5 -55.4961q8.5 -20.499 28.5 -38.498l94 -85.9951
q26 -23.998 45.5 -51.9961q19.5 -27.999 19.5 -61.9971q0 -19.998 -5.5 -40.9971t-22.5 -37.998t-47.5 -27.998t-79.5 -10.999q-45 0 -78 12.499t-55 33.498t-32.5 48.4971t-10.5 58.4961h-62q0 -7.99902 1.5 -25.998t9 -40.998q7.5 -22.998 22.5 -47.4971
q15 -24.498 41.5 -44.4971t66 -32.998t97.5 -12.999q67 0 109.5 15.499t66.5 39.498q24 23.998 32.5 54.4961t8.5 60.4961q0 48.9971 -26 86.4951t-59 69.4961l-93 87.9941q-11 10 -14.5 19.999t-3.5 29.998v58.9961h-62z" />
    <glyph glyph-name="Agrave" unicode="&#xc0;" horiz-adv-x="729" 
d="M546 223h-365l-94 -223h-67l268 637q14 34 31.5 48.5t44.5 14.5q26 0 44.5 -15t32.5 -48l268 -637h-69zM205 281h318l-138 331q-6 15 -10.5 20.5t-10.5 5.5t-10 -5.5t-10 -20.5zM316 894l134 -144h-69l-134 144h69z" />
    <glyph glyph-name="Aacute" unicode="&#xc1;" horiz-adv-x="729" 
d="M546 223h-365l-94 -223h-67l268 637q14 34 31.5 48.5t44.5 14.5q26 0 44.5 -15t32.5 -48l268 -637h-69zM205 281h318l-138 331q-6 15 -10.5 20.5t-10.5 5.5t-10 -5.5t-10 -20.5zM479 894l-134 -144h-69l134 144h69z" />
    <glyph glyph-name="Acircumflex" unicode="&#xc2;" horiz-adv-x="729" 
d="M546 223h-365l-94 -223h-67l268 637q14 34 31.5 48.5t44.5 14.5q26 0 44.5 -15t32.5 -48l268 -637h-69zM205 281h318l-138 331q-6 15 -10.5 20.5t-10.5 5.5t-10 -5.5t-10 -20.5zM375 821q-8 10 -11 14t-6 4t-5.5 -4t-10.5 -14l-53 -71h-59l89 117q11 14 19.5 20.5
t19.5 6.5t19 -6.5t19 -20.5l91 -117h-59z" />
    <glyph glyph-name="Atilde" unicode="&#xc3;" horiz-adv-x="729" 
d="M546 223h-365l-94 -223h-67l268 637q14 34 31.5 48.5t44.5 14.5q26 0 44.5 -15t32.5 -48l268 -637h-69zM205 281h318l-138 331q-6 15 -10.5 20.5t-10.5 5.5t-10 -5.5t-10 -20.5zM201 770q0 20 5.5 40t17.5 35.5t30 25t43 9.5q27 0 46.5 -12t36.5 -26q12 -10 20.5 -16
t22.5 -6q12 0 20 5.5t13.5 14.5t7.5 19.5t2 20.5h50q0 -19 -5 -38.5t-16 -35.5t-28 -26t-41 -10q-30 0 -48.5 11.5t-34.5 25.5q-10 9 -21 16t-25 7q-27 0 -36.5 -19t-9.5 -41h-50z" />
    <glyph glyph-name="Adieresis" unicode="&#xc4;" horiz-adv-x="729" 
d="M546 223h-365l-94 -223h-67l268 637q14 34 31.5 48.5t44.5 14.5q26 0 44.5 -15t32.5 -48l268 -637h-69zM205 281h318l-138 331q-6 15 -10.5 20.5t-10.5 5.5t-10 -5.5t-10 -20.5zM224 825q0 19 13 33t33 14q19 0 33 -14t14 -33q0 -20 -14 -33t-33 -13q-20 0 -33 13t-13 33
zM400 825q0 19 13 33t33 14q19 0 33 -14t14 -33q0 -20 -14 -33t-33 -13q-20 0 -33 13t-13 33z" />
    <glyph glyph-name="Aring" unicode="&#xc5;" horiz-adv-x="729" 
d="M546 223h-365l-94 -223h-67l268 637q14 34 31.5 48.5t44.5 14.5q26 0 44.5 -15t32.5 -48l268 -637h-69zM205 281h318l-138 331q-6 15 -10.5 20.5t-10.5 5.5t-10 -5.5t-10 -20.5zM260 850q0 42 28 70t70 28t70 -28t28 -70t-28 -70t-70 -28t-70 28t-28 70zM303 850
q0 -23 16 -39t39 -16t39 16t16 39t-16 39t-39 16t-39 -16t-16 -39z" />
    <glyph glyph-name="AE" unicode="&#xc6;" horiz-adv-x="1115" 
d="M587 58h468v-58h-536v226h-288l-141 -226h-70l401 650q30 50 82 50h552v-58h-468v-261h377v-58h-377v-265zM265 284h254v358h-3q-18 0 -29 -8.5t-25 -31.5z" />
    <glyph glyph-name="Ccedilla" unicode="&#xc7;" horiz-adv-x="842" 
d="M762 244q-16 -81 -52.5 -132.5t-82.5 -80.5t-96 -40t-93 -11q-38 0 -78 6l-15 -44h64q33 0 57.5 -13.5t24.5 -50.5t-24.5 -52.5t-57.5 -15.5h-123v45h123q26 0 26 23q0 9 -7 15t-19 6h-85q-17 0 -25.5 4.5t-8.5 18.5q0 9 3 17t5 13l17 44q-46 12 -90 36.5t-78.5 66.5
t-55.5 104t-21 148q0 77 17 134t46 98t67 67.5t79 42t83 21.5t80 6q48 0 98.5 -13.5t95 -44t78.5 -79t48 -117.5h-69q-13 53 -39 90.5t-60 61t-73.5 34t-78.5 10.5q-46 0 -99 -13t-98.5 -47.5t-76 -95t-30.5 -155.5q0 -96 30.5 -157t75.5 -95.5t97.5 -47.5t96.5 -13
q33 0 71.5 8t74 30.5t65 62.5t44.5 105h69z" />
    <glyph glyph-name="Egrave" unicode="&#xc8;" horiz-adv-x="682" 
d="M164 54h458v-54h-522v700h522v-54h-458v-267h367v-54h-367v-271zM336 894l134 -144h-69l-134 144h69z" />
    <glyph glyph-name="Eacute" unicode="&#xc9;" horiz-adv-x="682" 
d="M164 54h458v-54h-522v700h522v-54h-458v-267h367v-54h-367v-271zM496 894l-134 -144h-69l134 144h69z" />
    <glyph glyph-name="Ecircumflex" unicode="&#xca;" horiz-adv-x="682" 
d="M164 54h458v-54h-522v700h522v-54h-458v-267h367v-54h-367v-271zM374 821q-8 10 -11 14t-6 4t-5.5 -4t-10.5 -14l-53 -71h-59l89 117q11 14 19.5 20.5t19.5 6.5t19 -6.5t19 -20.5l91 -117h-59z" />
    <glyph glyph-name="Edieresis" unicode="&#xcb;" horiz-adv-x="682" 
d="M164 54h458v-54h-522v700h522v-54h-458v-267h367v-54h-367v-271zM224 825q0 19 13 33t33 14q19 0 33 -14t14 -33q0 -20 -14 -33t-33 -13q-20 0 -33 13t-13 33zM400 825q0 19 13 33t33 14q19 0 33 -14t14 -33q0 -20 -14 -33t-33 -13q-20 0 -33 13t-13 33z" />
    <glyph glyph-name="Igrave" unicode="&#xcc;" horiz-adv-x="264" 
d="M100 700h64v-700h-64v700zM70 894l134 -144h-69l-134 144h69z" />
    <glyph glyph-name="Iacute" unicode="&#xcd;" horiz-adv-x="264" 
d="M100 700h64v-700h-64v700zM265 894l-134 -144h-69l134 144h69z" />
    <glyph glyph-name="Icircumflex" unicode="&#xce;" horiz-adv-x="264" 
d="M100 700h64v-700h-64v700zM149 821q-8 10 -11 14t-6 4t-5.5 -4t-10.5 -14l-53 -71h-59l89 117q11 14 19.5 20.5t19.5 6.5t19 -6.5t19 -20.5l91 -117h-59z" />
    <glyph glyph-name="Idieresis" unicode="&#xcf;" horiz-adv-x="264" 
d="M100 700h64v-700h-64v700zM1 825q0 19 13 33t33 14q19 0 33 -14t14 -33q0 -20 -14 -33t-33 -13q-20 0 -33 13t-13 33zM177 825q0 19 13 33t33 14q19 0 33 -14t14 -33q0 -20 -14 -33t-33 -13q-20 0 -33 13t-13 33z" />
    <glyph glyph-name="Eth" unicode="&#xd0;" horiz-adv-x="805" 
d="M141 323h-131v52h131v325h234q40 0 82.5 -4.5t84 -17.5t78.5 -36.5t64.5 -62.5t44 -95t16.5 -134t-16.5 -134t-44 -95t-64.5 -62.5t-78.5 -36.5t-84 -17.5t-82.5 -4.5h-234v323zM205 375h155v-52h-155v-269h170q49 0 103 9.5t99 40.5t74.5 89.5t29.5 156.5t-29.5 156.5
t-74.5 89.5t-99 40.5t-103 9.5h-170v-271z" />
    <glyph glyph-name="Ntilde" unicode="&#xd1;" horiz-adv-x="808" 
d="M104 0v630q0 30 16.5 50t47.5 20q26 0 46.5 -13.5t44.5 -51.5l350 -557q4 -6 8 -11t12 -5q6 0 8.5 4.5t2.5 9.5v624h64v-624q0 -9 -2 -22t-9 -25t-20.5 -20.5t-37.5 -8.5q-29 0 -52 23t-43 55l-341 543q-3 5 -8.5 10.5t-10.5 5.5q-8 0 -10 -5.5t-2 -10.5v-621h-64z
M241 770q0 20 5.5 40t17.5 35.5t30 25t43 9.5q27 0 46.5 -12t36.5 -26q12 -10 20.5 -16t22.5 -6q12 0 20 5.5t13.5 14.5t7.5 19.5t2 20.5h50q0 -19 -5 -38.5t-16 -35.5t-28 -26t-41 -10q-30 0 -48.5 11.5t-34.5 25.5q-10 9 -21 16t-25 7q-27 0 -36.5 -19t-9.5 -41h-50z" />
    <glyph glyph-name="Ograve" unicode="&#xd2;" horiz-adv-x="865" 
d="M433 657q-71 0 -127.5 -21t-96 -60.5t-60.5 -96.5t-21 -128t21 -128t60.5 -97t96 -61.5t127.5 -21.5t127.5 21.5t95.5 61.5t60 97t21 128t-21 128t-60 96.5t-95.5 60.5t-127.5 21zM433 715q86 0 155 -27t117 -75t74 -115t26 -147t-26 -147t-74 -116t-117 -76t-155 -27
t-155 27t-117.5 76t-74.5 116t-26 147t26 147t74.5 115t117.5 75t155 27zM410 894l134 -144h-69l-134 144h69z" />
    <glyph glyph-name="Oacute" unicode="&#xd3;" horiz-adv-x="865" 
d="M433 657q-71 0 -127.5 -21t-96 -60.5t-60.5 -96.5t-21 -128t21 -128t60.5 -97t96 -61.5t127.5 -21.5t127.5 21.5t95.5 61.5t60 97t21 128t-21 128t-60 96.5t-95.5 60.5t-127.5 21zM433 715q86 0 155 -27t117 -75t74 -115t26 -147t-26 -147t-74 -116t-117 -76t-155 -27
t-155 27t-117.5 76t-74.5 116t-26 147t26 147t74.5 115t117.5 75t155 27zM523 894l-134 -144h-69l134 144h69z" />
    <glyph glyph-name="Ocircumflex" unicode="&#xd4;" horiz-adv-x="865" 
d="M433 657q-71 0 -127.5 -21t-96 -60.5t-60.5 -96.5t-21 -128t21 -128t60.5 -97t96 -61.5t127.5 -21.5t127.5 21.5t95.5 61.5t60 97t21 128t-21 128t-60 96.5t-95.5 60.5t-127.5 21zM433 715q86 0 155 -27t117 -75t74 -115t26 -147t-26 -147t-74 -116t-117 -76t-155 -27
t-155 27t-117.5 76t-74.5 116t-26 147t26 147t74.5 115t117.5 75t155 27zM449 821q-8 10 -11 14t-6 4t-5.5 -4t-10.5 -14l-53 -71h-59l89 117q11 14 19.5 20.5t19.5 6.5t19 -6.5t19 -20.5l91 -117h-59z" />
    <glyph glyph-name="Otilde" unicode="&#xd5;" horiz-adv-x="865" 
d="M433 657q-71 0 -127.5 -21t-96 -60.5t-60.5 -96.5t-21 -128t21 -128t60.5 -97t96 -61.5t127.5 -21.5t127.5 21.5t95.5 61.5t60 97t21 128t-21 128t-60 96.5t-95.5 60.5t-127.5 21zM433 715q86 0 155 -27t117 -75t74 -115t26 -147t-26 -147t-74 -116t-117 -76t-155 -27
t-155 27t-117.5 76t-74.5 116t-26 147t26 147t74.5 115t117.5 75t155 27zM275 770q0 20 5.5 40t17.5 35.5t30 25t43 9.5q27 0 46.5 -12t36.5 -26q12 -10 20.5 -16t22.5 -6q12 0 20 5.5t13.5 14.5t7.5 19.5t2 20.5h50q0 -19 -5 -38.5t-16 -35.5t-28 -26t-41 -10
q-30 0 -48.5 11.5t-34.5 25.5q-10 9 -21 16t-25 7q-27 0 -36.5 -19t-9.5 -41h-50z" />
    <glyph glyph-name="Odieresis" unicode="&#xd6;" horiz-adv-x="865" 
d="M433 657q-71 0 -127.5 -21t-96 -60.5t-60.5 -96.5t-21 -128t21 -128t60.5 -97t96 -61.5t127.5 -21.5t127.5 21.5t95.5 61.5t60 97t21 128t-21 128t-60 96.5t-95.5 60.5t-127.5 21zM433 715q86 0 155 -27t117 -75t74 -115t26 -147t-26 -147t-74 -116t-117 -76t-155 -27
t-155 27t-117.5 76t-74.5 116t-26 147t26 147t74.5 115t117.5 75t155 27zM298 825q0 19 13 33t33 14q19 0 33 -14t14 -33q0 -20 -14 -33t-33 -13q-20 0 -33 13t-13 33zM474 825q0 19 13 33t33 14q19 0 33 -14t14 -33q0 -20 -14 -33t-33 -13q-20 0 -33 13t-13 33z" />
    <glyph glyph-name="multiply" unicode="&#xd7;" horiz-adv-x="576" 
d="M521 62l-37 -37l-197 197l-195 -195l-37 37l195 195l-189 189l37 37l189 -189l191 191l37 -37l-191 -191z" />
    <glyph glyph-name="Oslash" unicode="&#xd8;" horiz-adv-x="865" 
d="M433 715q68 0 124.5 -16.5t101.5 -47.5l41 49h68l-68 -82q51 -49 78 -117t27 -150q0 -80 -26 -147t-74 -116t-117 -76t-155 -27q-62 0 -114.5 13.5t-95.5 39.5l-44 -53h-68l69 84q-58 50 -89 122t-31 160q0 80 26 147t74.5 115t117.5 75t155 27zM433 657
q-71 0 -127.5 -21t-96 -60.5t-60.5 -96.5t-21 -128q0 -76 23 -135t68 -100l402 488q-37 26 -84 39.5t-104 13.5zM737 351q0 69 -19.5 124t-56.5 95l-399 -485q69 -42 171 -42q71 0 127.5 21.5t95.5 61.5t60 97t21 128z" />
    <glyph glyph-name="Ugrave" unicode="&#xd9;" horiz-adv-x="763" 
d="M154 700v-385q0 -18 1.5 -46t8 -58.5t20.5 -61t39 -55t63.5 -40t94.5 -15.5t94.5 15.5t64 40t39.5 55t20.5 61t8 58t1.5 46.5v385h64v-371q0 -23 -1.5 -57.5t-9.5 -72.5t-26 -76.5t-50 -69t-82 -49.5t-123 -19t-122.5 19t-82 49.5t-50 69t-25.5 76.5t-9.5 72.5t-1.5 57.5
v371h64zM359 894l134 -144h-69l-134 144h69z" />
    <glyph glyph-name="Uacute" unicode="&#xda;" horiz-adv-x="763" 
d="M154 700v-385q0 -18 1.5 -46t8 -58.5t20.5 -61t39 -55t63.5 -40t94.5 -15.5t94.5 15.5t64 40t39.5 55t20.5 61t8 58t1.5 46.5v385h64v-371q0 -23 -1.5 -57.5t-9.5 -72.5t-26 -76.5t-50 -69t-82 -49.5t-123 -19t-122.5 19t-82 49.5t-50 69t-25.5 76.5t-9.5 72.5t-1.5 57.5
v371h64zM473 894l-134 -144h-69l134 144h69z" />
    <glyph glyph-name="Ucircumflex" unicode="&#xdb;" horiz-adv-x="763" 
d="M154 700v-385q0 -18 1.5 -46t8 -58.5t20.5 -61t39 -55t63.5 -40t94.5 -15.5t94.5 15.5t64 40t39.5 55t20.5 61t8 58t1.5 46.5v385h64v-371q0 -23 -1.5 -57.5t-9.5 -72.5t-26 -76.5t-50 -69t-82 -49.5t-123 -19t-122.5 19t-82 49.5t-50 69t-25.5 76.5t-9.5 72.5t-1.5 57.5
v371h64zM398 821q-8 10 -11 14t-6 4t-5.5 -4t-10.5 -14l-53 -71h-59l89 117q11 14 19.5 20.5t19.5 6.5t19 -6.5t19 -20.5l91 -117h-59z" />
    <glyph glyph-name="Udieresis" unicode="&#xdc;" horiz-adv-x="763" 
d="M154 700v-385q0 -18 1.5 -46t8 -58.5t20.5 -61t39 -55t63.5 -40t94.5 -15.5t94.5 15.5t64 40t39.5 55t20.5 61t8 58t1.5 46.5v385h64v-371q0 -23 -1.5 -57.5t-9.5 -72.5t-26 -76.5t-50 -69t-82 -49.5t-123 -19t-122.5 19t-82 49.5t-50 69t-25.5 76.5t-9.5 72.5t-1.5 57.5
v371h64zM247 825q0 19 13 33t33 14q19 0 33 -14t14 -33q0 -20 -14 -33t-33 -13q-20 0 -33 13t-13 33zM423 825q0 19 13 33t33 14q19 0 33 -14t14 -33q0 -20 -14 -33t-33 -13q-20 0 -33 13t-13 33z" />
    <glyph glyph-name="Yacute" unicode="&#xdd;" horiz-adv-x="662" 
d="M299 0v253q-12 5 -21 14.5t-18 24.5l-250 408h75l228 -372q8 -14 18 -14q9 0 17 14l228 372h76l-251 -408q-16 -28 -38 -39v-253h-64zM462 894l-134 -144h-69l134 144h69z" />
    <glyph glyph-name="Thorn" unicode="&#xde;" horiz-adv-x="670" 
d="M100 0v700h64v-110h220q73 0 124 -19t82.5 -50.5t45.5 -71.5t14 -82t-14.5 -82.5t-46.5 -72.5t-83 -51.5t-124 -19.5h-218v-141h-64zM164 195h218q55 0 93 16t62 40.5t34.5 55t10.5 60.5t-10.5 60t-34 54t-61.5 39.5t-92 15.5h-220v-341z" />
    <glyph glyph-name="germandbls" unicode="&#xdf;" horiz-adv-x="586" 
d="M85 0v488q0 20 1.5 44.5t7.5 49.5t18.5 49t35 42.5t55.5 30t81 11.5q66 0 106.5 -19.5t62 -46.5t29 -55t7.5 -45q0 -42 -14.5 -70t-37 -46t-49.5 -29t-52 -20q-5 -2 -13 -6.5t-8 -11.5t8 -9.5t13 -4.5q28 -6 61.5 -15t62 -27t47.5 -47.5t19 -77.5q0 -66 -25.5 -103
t-63 -55.5t-79.5 -22.5t-75 -4h-61v52h52q25 0 58 3t62.5 15.5t49.5 39.5t20 75q0 34 -14 54.5t-35.5 32.5t-46.5 19t-47 13q-62 17 -62 63q0 23 16 37.5t44 25.5q17 7 36 15t35 21t26.5 32.5t10.5 50.5q0 12 -5 31.5t-20 38t-43 31.5t-75 13q-51 0 -78.5 -19.5t-40.5 -47
t-15.5 -57.5t-2.5 -51v-488h-62z" />
    <glyph glyph-name="agrave" unicode="&#xe0;" horiz-adv-x="572" 
d="M68 356q3 44 28 79q10 15 26 29.5t39.5 25.5t54 18t71.5 7q69 0 107 -21.5t55 -51.5t20 -60.5t3 -48.5v-222q0 -26 10 -39.5t50 -13.5v-58q-31 0 -52 5.5t-34.5 16t-21 27t-10.5 37.5q-14 -24 -36 -43t-48 -31.5t-55 -19.5t-58 -7q-82 0 -127 36.5t-45 102.5
q0 53 27 82.5t67.5 46.5t88 25t88 17.5t67.5 25t27 47.5q0 11 -3 27t-15.5 31t-37 26t-67.5 11q-58 0 -89.5 -17t-46.5 -37q-18 -24 -21 -53h-62zM217 37q41 0 76 12.5t61 35.5t41 55t15 71v71q-20 -15 -50 -23.5t-63.5 -15t-67.5 -13.5t-61 -19.5t-44 -33t-17 -53.5
q0 -35 25.5 -61t84.5 -26zM233 700l134 -144h-69l-134 144h69z" />
    <glyph glyph-name="aacute" unicode="&#xe1;" horiz-adv-x="572" 
d="M68 356q3 44 28 79q10 15 26 29.5t39.5 25.5t54 18t71.5 7q69 0 107 -21.5t55 -51.5t20 -60.5t3 -48.5v-222q0 -26 10 -39.5t50 -13.5v-58q-31 0 -52 5.5t-34.5 16t-21 27t-10.5 37.5q-14 -24 -36 -43t-48 -31.5t-55 -19.5t-58 -7q-82 0 -127 36.5t-45 102.5
q0 53 27 82.5t67.5 46.5t88 25t88 17.5t67.5 25t27 47.5q0 11 -3 27t-15.5 31t-37 26t-67.5 11q-58 0 -89.5 -17t-46.5 -37q-18 -24 -21 -53h-62zM217 37q41 0 76 12.5t61 35.5t41 55t15 71v71q-20 -15 -50 -23.5t-63.5 -15t-67.5 -13.5t-61 -19.5t-44 -33t-17 -53.5
q0 -35 25.5 -61t84.5 -26zM372 700l-134 -144h-69l134 144h69z" />
    <glyph glyph-name="acircumflex" unicode="&#xe2;" horiz-adv-x="572" 
d="M68 356q3 44 28 79q10 15 26 29.5t39.5 25.5t54 18t71.5 7q69 0 107 -21.5t55 -51.5t20 -60.5t3 -48.5v-222q0 -26 10 -39.5t50 -13.5v-58q-31 0 -52 5.5t-34.5 16t-21 27t-10.5 37.5q-14 -24 -36 -43t-48 -31.5t-55 -19.5t-58 -7q-82 0 -127 36.5t-45 102.5
q0 53 27 82.5t67.5 46.5t88 25t88 17.5t67.5 25t27 47.5q0 11 -3 27t-15.5 31t-37 26t-67.5 11q-58 0 -89.5 -17t-46.5 -37q-18 -24 -21 -53h-62zM217 37q41 0 76 12.5t61 35.5t41 55t15 71v71q-20 -15 -50 -23.5t-63.5 -15t-67.5 -13.5t-61 -19.5t-44 -33t-17 -53.5
q0 -35 25.5 -61t84.5 -26zM281 627q-8 10 -11 14t-6 4t-5.5 -4t-10.5 -14l-53 -71h-59l89 117q11 14 19.5 20.5t19.5 6.5t19 -6.5t19 -20.5l91 -117h-59z" />
    <glyph glyph-name="atilde" unicode="&#xe3;" horiz-adv-x="572" 
d="M68 356q3 44 28 79q10 15 26 29.5t39.5 25.5t54 18t71.5 7q69 0 107 -21.5t55 -51.5t20 -60.5t3 -48.5v-222q0 -26 10 -39.5t50 -13.5v-58q-31 0 -52 5.5t-34.5 16t-21 27t-10.5 37.5q-14 -24 -36 -43t-48 -31.5t-55 -19.5t-58 -7q-82 0 -127 36.5t-45 102.5
q0 53 27 82.5t67.5 46.5t88 25t88 17.5t67.5 25t27 47.5q0 11 -3 27t-15.5 31t-37 26t-67.5 11q-58 0 -89.5 -17t-46.5 -37q-18 -24 -21 -53h-62zM217 37q41 0 76 12.5t61 35.5t41 55t15 71v71q-20 -15 -50 -23.5t-63.5 -15t-67.5 -13.5t-61 -19.5t-44 -33t-17 -53.5
q0 -35 25.5 -61t84.5 -26zM111 591q0 20 5.5 40t17.5 35.5t30 25t43 9.5q27 0 46.5 -12t36.5 -26q12 -10 20.5 -16t22.5 -6q12 0 20 5.5t13.5 14.5t7.5 19.5t2 20.5h50q0 -19 -5 -38.5t-16 -35.5t-28 -26t-41 -10q-30 0 -48.5 11.5t-34.5 25.5q-10 9 -21 16t-25 7
q-27 0 -36.5 -19t-9.5 -41h-50z" />
    <glyph glyph-name="adieresis" unicode="&#xe4;" horiz-adv-x="572" 
d="M68 356q3 44 28 79q10 15 26 29.5t39.5 25.5t54 18t71.5 7q69 0 107 -21.5t55 -51.5t20 -60.5t3 -48.5v-222q0 -26 10 -39.5t50 -13.5v-58q-31 0 -52 5.5t-34.5 16t-21 27t-10.5 37.5q-14 -24 -36 -43t-48 -31.5t-55 -19.5t-58 -7q-82 0 -127 36.5t-45 102.5
q0 53 27 82.5t67.5 46.5t88 25t88 17.5t67.5 25t27 47.5q0 11 -3 27t-15.5 31t-37 26t-67.5 11q-58 0 -89.5 -17t-46.5 -37q-18 -24 -21 -53h-62zM217 37q41 0 76 12.5t61 35.5t41 55t15 71v71q-20 -15 -50 -23.5t-63.5 -15t-67.5 -13.5t-61 -19.5t-44 -33t-17 -53.5
q0 -35 25.5 -61t84.5 -26zM141 669q0 19 13 33t33 14q19 0 33 -14t14 -33q0 -20 -14 -33t-33 -13q-20 0 -33 13t-13 33zM317 669q0 19 13 33t33 14q19 0 33 -14t14 -33q0 -20 -14 -33t-33 -13q-20 0 -33 13t-13 33z" />
    <glyph glyph-name="aring" unicode="&#xe5;" horiz-adv-x="572" 
d="M68 356q3 44 28 79q10 15 26 29.5t39.5 25.5t54 18t71.5 7q69 0 107 -21.5t55 -51.5t20 -60.5t3 -48.5v-222q0 -26 10 -39.5t50 -13.5v-58q-31 0 -52 5.5t-34.5 16t-21 27t-10.5 37.5q-14 -24 -36 -43t-48 -31.5t-55 -19.5t-58 -7q-82 0 -127 36.5t-45 102.5
q0 53 27 82.5t67.5 46.5t88 25t88 17.5t67.5 25t27 47.5q0 11 -3 27t-15.5 31t-37 26t-67.5 11q-58 0 -89.5 -17t-46.5 -37q-18 -24 -21 -53h-62zM217 37q41 0 76 12.5t61 35.5t41 55t15 71v71q-20 -15 -50 -23.5t-63.5 -15t-67.5 -13.5t-61 -19.5t-44 -33t-17 -53.5
q0 -35 25.5 -61t84.5 -26zM168 667q0 42 28 70t70 28t70 -28t28 -70t-28 -70t-70 -28t-70 28t-28 70zM211 667q0 -23 16 -39t39 -16t39 16t16 39t-16 39t-39 16t-39 -16t-16 -39z" />
    <glyph glyph-name="ae" unicode="&#xe6;" horiz-adv-x="938" 
d="M476 228q0 -62 17 -99.5t44 -57.5t60 -27t64 -7q42 0 71 13t48 32.5t28.5 43t13.5 44.5h63q-5 -30 -18.5 -62.5t-40 -59.5t-67 -45t-98.5 -18q-29 0 -61 4t-62.5 17t-57 37.5t-43.5 65.5q-14 -23 -33 -45t-45.5 -39.5t-61 -28.5t-80.5 -11q-82 0 -127 36.5t-45 102.5
q0 53 27.5 83.5t68.5 48t88.5 26.5t88.5 19.5t68.5 26.5t27.5 48q0 11 -3.5 26t-16.5 28.5t-37.5 23t-67.5 9.5q-58 0 -89.5 -17t-47.5 -37q-18 -24 -22 -53h-62q4 44 29 79q10 15 26.5 29.5t39.5 25.5t54 18t72 7q39 0 68 -7.5t49.5 -20t33 -28.5t20.5 -33q22 32 50.5 50
t56 26.5t50.5 10.5t35 2q11 0 33 -1.5t48 -9.5t53.5 -25.5t50 -49t37 -81t14.5 -120.5h-412zM217 37q41 0 77 12.5t62.5 35.5t42 55t15.5 71v79q-20 -15 -50.5 -24t-64.5 -16.5t-68 -15.5t-61.5 -21t-45 -34.5t-17.5 -54.5q0 -35 25.5 -61t84.5 -26zM652 463q-15 0 -44 -4.5
t-58 -22.5t-51 -55t-22 -101h347q0 64 -21.5 101t-50 55t-57.5 22.5t-43 4.5z" />
    <glyph glyph-name="ccedilla" unicode="&#xe7;" horiz-adv-x="575" 
d="M523 173q0 -27 -11 -60.5t-36.5 -63t-68 -49.5t-105.5 -20q-11 0 -21 0.5t-20 1.5l-14 -40h64q33 0 57.5 -13.5t24.5 -50.5t-24.5 -52.5t-57.5 -15.5h-113v45h113q26 0 26 23q0 9 -7 15t-19 6h-85q-17 0 -25.5 4.5t-8.5 18.5q0 9 3 17t5 13l15 39q-46 13 -77 38.5t-50 60
t-27.5 75t-8.5 84.5q0 40 7.5 87.5t33.5 88t75.5 68t133.5 27.5q64 0 106.5 -21.5t68 -52t36 -63.5t10.5 -56h-62q0 16 -7 40t-25 46.5t-49 38.5t-78 16q-64 0 -101 -22.5t-56.5 -56t-25 -71.5t-5.5 -69q0 -41 9 -80t30.5 -69.5t57.5 -49t91 -18.5q48 0 79 15.5t48.5 37.5
t24.5 46.5t7 41.5h62z" />
    <glyph glyph-name="egrave" unicode="&#xe8;" horiz-adv-x="570" 
d="M112 228q0 -62 17 -99.5t43.5 -57.5t59 -27t63.5 -7q40 0 67.5 11.5t46 29.5t28.5 39.5t15 42.5h63q-6 -29 -20 -60t-40 -56.5t-65.5 -42t-94.5 -16.5q-38 0 -80.5 7.5t-79.5 34.5t-61 79.5t-24 141.5q0 65 14.5 110t37 74.5t50 46.5t53.5 25t48 9.5t33 1.5t33 -1.5
t48 -9.5t53 -25.5t49.5 -49t36.5 -81t14 -120.5h-408zM286 463q-15 0 -43.5 -4.5t-57.5 -22.5t-50.5 -55t-21.5 -101h343q0 64 -21 101t-49.5 55t-57 22.5t-42.5 4.5zM267 700l134 -144h-69l-134 144h69z" />
    <glyph glyph-name="eacute" unicode="&#xe9;" horiz-adv-x="570" 
d="M112 228q0 -62 17 -99.5t43.5 -57.5t59 -27t63.5 -7q40 0 67.5 11.5t46 29.5t28.5 39.5t15 42.5h63q-6 -29 -20 -60t-40 -56.5t-65.5 -42t-94.5 -16.5q-38 0 -80.5 7.5t-79.5 34.5t-61 79.5t-24 141.5q0 65 14.5 110t37 74.5t50 46.5t53.5 25t48 9.5t33 1.5t33 -1.5
t48 -9.5t53 -25.5t49.5 -49t36.5 -81t14 -120.5h-408zM286 463q-15 0 -43.5 -4.5t-57.5 -22.5t-50.5 -55t-21.5 -101h343q0 64 -21 101t-49.5 55t-57 22.5t-42.5 4.5zM389 700l-134 -144h-69l134 144h69z" />
    <glyph glyph-name="ecircumflex" unicode="&#xea;" horiz-adv-x="570" 
d="M112 228q0 -62 17 -99.5t43.5 -57.5t59 -27t63.5 -7q40 0 67.5 11.5t46 29.5t28.5 39.5t15 42.5h63q-6 -29 -20 -60t-40 -56.5t-65.5 -42t-94.5 -16.5q-38 0 -80.5 7.5t-79.5 34.5t-61 79.5t-24 141.5q0 65 14.5 110t37 74.5t50 46.5t53.5 25t48 9.5t33 1.5t33 -1.5
t48 -9.5t53 -25.5t49.5 -49t36.5 -81t14 -120.5h-408zM286 463q-15 0 -43.5 -4.5t-57.5 -22.5t-50.5 -55t-21.5 -101h343q0 64 -21 101t-49.5 55t-57 22.5t-42.5 4.5zM305 627q-8 10 -11 14t-6 4t-5.5 -4t-10.5 -14l-53 -71h-59l89 117q11 14 19.5 20.5t19.5 6.5t19 -6.5
t19 -20.5l91 -117h-59z" />
    <glyph glyph-name="edieresis" unicode="&#xeb;" horiz-adv-x="570" 
d="M112 228q0 -62 17 -99.5t43.5 -57.5t59 -27t63.5 -7q40 0 67.5 11.5t46 29.5t28.5 39.5t15 42.5h63q-6 -29 -20 -60t-40 -56.5t-65.5 -42t-94.5 -16.5q-38 0 -80.5 7.5t-79.5 34.5t-61 79.5t-24 141.5q0 65 14.5 110t37 74.5t50 46.5t53.5 25t48 9.5t33 1.5t33 -1.5
t48 -9.5t53 -25.5t49.5 -49t36.5 -81t14 -120.5h-408zM286 463q-15 0 -43.5 -4.5t-57.5 -22.5t-50.5 -55t-21.5 -101h343q0 64 -21 101t-49.5 55t-57 22.5t-42.5 4.5zM156 669q0 19 13 33t33 14q19 0 33 -14t14 -33q0 -20 -14 -33t-33 -13q-20 0 -33 13t-13 33zM332 669
q0 19 13 33t33 14q19 0 33 -14t14 -33q0 -20 -14 -33t-33 -13q-20 0 -33 13t-13 33z" />
    <glyph glyph-name="igrave" unicode="&#xec;" horiz-adv-x="242" 
d="M152 0h-62v500h62v-500zM57 700l134 -144h-69l-134 144h69z" />
    <glyph glyph-name="iacute" unicode="&#xed;" horiz-adv-x="242" 
d="M152 0h-62v500h62v-500zM256 700l-134 -144h-69l134 144h69z" />
    <glyph glyph-name="icircumflex" unicode="&#xee;" horiz-adv-x="242" 
d="M152 0h-62v500h62v-500zM138 627q-8 10 -11 14t-6 4t-5.5 -4t-10.5 -14l-53 -71h-59l89 117q11 14 19.5 20.5t19.5 6.5t19 -6.5t19 -20.5l91 -117h-59z" />
    <glyph glyph-name="idieresis" unicode="&#xef;" horiz-adv-x="242" 
d="M152 0h-62v500h62v-500zM-12 669q0 19 13 33t33 14q19 0 33 -14t14 -33q0 -20 -14 -33t-33 -13q-20 0 -33 13t-13 33zM164 669q0 19 13 33t33 14q19 0 33 -14t14 -33q0 -20 -14 -33t-33 -13q-20 0 -33 13t-13 33z" />
    <glyph glyph-name="eth" unicode="&#xf0;" horiz-adv-x="584" 
d="M336 620h154v-52h-107l49 -53q62 -67 87.5 -132t25.5 -136q0 -46 -14 -93.5t-44.5 -86t-78.5 -63t-116 -24.5t-115.5 25.5t-77.5 65t-44 87.5t-14 92q0 54 14.5 102.5t45 86t78 59.5t113.5 22q13 0 35 -2.5t45 -11.5l-59 62h-181v52h131l-95 100h76zM103 250
q0 -39 10 -78t32.5 -70t58.5 -50.5t88 -19.5q53 0 89.5 19.5t59 50t32.5 69t10 76.5q0 45 -10.5 85t-33 70t-59 48t-88.5 18t-88 -17.5t-58.5 -47t-32.5 -69t-10 -84.5z" />
    <glyph glyph-name="ntilde" unicode="&#xf1;" horiz-adv-x="603" 
d="M90 0v500h62v-87q24 46 67.5 74t99.5 28q61 0 100 -18t61 -49t30 -71t8 -84v-293h-62v303q0 32 -5 61t-20 51t-42 35t-70 13q-40 0 -71 -15t-52.5 -40.5t-32.5 -59.5t-11 -72v-276h-62zM146 580q0 20 5.5 40t17.5 35.5t30 25t43 9.5q27 0 46.5 -12t36.5 -26
q12 -10 20.5 -16t22.5 -6q12 0 20 5.5t13.5 14.5t7.5 19.5t2 20.5h50q0 -19 -5 -38.5t-16 -35.5t-28 -26t-41 -10q-30 0 -48.5 11.5t-34.5 25.5q-10 9 -21 16t-25 7q-27 0 -36.5 -19t-9.5 -41h-50z" />
    <glyph glyph-name="ograve" unicode="&#xf2;" horiz-adv-x="600" 
d="M112 257q0 -42 10 -81.5t32 -70.5t58 -49.5t88 -18.5t88 18t58 48.5t32 69.5t10 81t-10 79.5t-32 66.5t-58 46t-88 17t-88 -16.5t-58 -45t-32 -65.5t-10 -79zM50 257q0 54 15 101t46 82t78 55t111 20t111 -20.5t78 -56t46 -83t15 -101.5q0 -53 -15 -102t-46 -86t-78 -59
t-111 -22t-111 22.5t-78 60t-46 87t-15 102.5zM277 700l134 -144h-69l-134 144h69z" />
    <glyph glyph-name="oacute" unicode="&#xf3;" horiz-adv-x="600" 
d="M112 257q0 -42 10 -81.5t32 -70.5t58 -49.5t88 -18.5t88 18t58 48.5t32 69.5t10 81t-10 79.5t-32 66.5t-58 46t-88 17t-88 -16.5t-58 -45t-32 -65.5t-10 -79zM50 257q0 54 15 101t46 82t78 55t111 20t111 -20.5t78 -56t46 -83t15 -101.5q0 -53 -15 -102t-46 -86t-78 -59
t-111 -22t-111 22.5t-78 60t-46 87t-15 102.5zM391 700l-134 -144h-69l134 144h69z" />
    <glyph glyph-name="ocircumflex" unicode="&#xf4;" horiz-adv-x="600" 
d="M112 257q0 -42 10 -81.5t32 -70.5t58 -49.5t88 -18.5t88 18t58 48.5t32 69.5t10 81t-10 79.5t-32 66.5t-58 46t-88 17t-88 -16.5t-58 -45t-32 -65.5t-10 -79zM50 257q0 54 15 101t46 82t78 55t111 20t111 -20.5t78 -56t46 -83t15 -101.5q0 -53 -15 -102t-46 -86t-78 -59
t-111 -22t-111 22.5t-78 60t-46 87t-15 102.5zM317 627q-8 10 -11 14t-6 4t-5.5 -4t-10.5 -14l-53 -71h-59l89 117q11 14 19.5 20.5t19.5 6.5t19 -6.5t19 -20.5l91 -117h-59z" />
    <glyph glyph-name="otilde" unicode="&#xf5;" horiz-adv-x="600" 
d="M112 257q0 -42 10 -81.5t32 -70.5t58 -49.5t88 -18.5t88 18t58 48.5t32 69.5t10 81t-10 79.5t-32 66.5t-58 46t-88 17t-88 -16.5t-58 -45t-32 -65.5t-10 -79zM50 257q0 54 15 101t46 82t78 55t111 20t111 -20.5t78 -56t46 -83t15 -101.5q0 -53 -15 -102t-46 -86t-78 -59
t-111 -22t-111 22.5t-78 60t-46 87t-15 102.5zM143 580q0 20 5.5 40t17.5 35.5t30 25t43 9.5q27 0 46.5 -12t36.5 -26q12 -10 20.5 -16t22.5 -6q12 0 20 5.5t13.5 14.5t7.5 19.5t2 20.5h50q0 -19 -5 -38.5t-16 -35.5t-28 -26t-41 -10q-30 0 -48.5 11.5t-34.5 25.5
q-10 9 -21 16t-25 7q-27 0 -36.5 -19t-9.5 -41h-50z" />
    <glyph glyph-name="odieresis" unicode="&#xf6;" horiz-adv-x="600" 
d="M112 257q0 -42 10 -81.5t32 -70.5t58 -49.5t88 -18.5t88 18t58 48.5t32 69.5t10 81t-10 79.5t-32 66.5t-58 46t-88 17t-88 -16.5t-58 -45t-32 -65.5t-10 -79zM50 257q0 54 15 101t46 82t78 55t111 20t111 -20.5t78 -56t46 -83t15 -101.5q0 -53 -15 -102t-46 -86t-78 -59
t-111 -22t-111 22.5t-78 60t-46 87t-15 102.5zM166 669q0 19 13 33t33 14q19 0 33 -14t14 -33q0 -20 -14 -33t-33 -13q-20 0 -33 13t-13 33zM342 669q0 19 13 33t33 14q19 0 33 -14t14 -33q0 -20 -14 -33t-33 -13q-20 0 -33 13t-13 33z" />
    <glyph glyph-name="divide" unicode="&#xf7;" horiz-adv-x="604" 
d="M255 46q0 19 13 33t33 14q19 0 33 -14t14 -33q0 -20 -14 -33t-33 -13q-20 0 -33 13t-13 33zM255 453q0 19 13 33t33 14q19 0 33 -14t14 -33q0 -20 -14 -33t-33 -13q-20 0 -33 13t-13 33zM56 226v52h494v-52h-494z" />
    <glyph glyph-name="oslash" unicode="&#xf8;" horiz-adv-x="617" 
d="M498 435q29 -36 43.5 -82.5t14.5 -98.5q0 -53 -15.5 -102.5t-47 -87.5t-79 -61t-111.5 -23q-48 0 -87 13.5t-68 36.5l-26 -30h-67l57 66q-32 38 -47 87.5t-15 103.5t15.5 101.5t47 83.5t79 57t111.5 21q49 0 88 -13t69 -36l38 44h69zM113 257q0 -40 8.5 -77.5t28.5 -68.5
l274 318q-23 18 -52.5 28t-68.5 10q-52 0 -88.5 -17t-59 -46t-32.5 -67t-10 -80zM493 254q0 38 -8.5 72t-26.5 63l-274 -317q22 -18 51.5 -28.5t67.5 -10.5q52 0 88.5 19t59 49.5t32.5 70.5t10 82z" />
    <glyph glyph-name="ugrave" unicode="&#xf9;" horiz-adv-x="599" 
d="M147 500v-308q0 -32 6 -60t22 -49t43.5 -33.5t70.5 -12.5q45 0 75.5 14t48.5 38.5t26 58t8 71.5v281h62v-500h-62v82q-20 -41 -60.5 -69t-107.5 -28q-58 0 -95.5 17.5t-59.5 47t-30.5 69t-8.5 83.5v298h62zM261 700l134 -144h-69l-134 144h69z" />
    <glyph glyph-name="uacute" unicode="&#xfa;" horiz-adv-x="599" 
d="M147 500v-308q0 -32 6 -60t22 -49t43.5 -33.5t70.5 -12.5q45 0 75.5 14t48.5 38.5t26 58t8 71.5v281h62v-500h-62v82q-20 -41 -60.5 -69t-107.5 -28q-58 0 -95.5 17.5t-59.5 47t-30.5 69t-8.5 83.5v298h62zM396 700l-134 -144h-69l134 144h69z" />
    <glyph glyph-name="ucircumflex" unicode="&#xfb;" horiz-adv-x="599" 
d="M147 500v-308q0 -32 6 -60t22 -49t43.5 -33.5t70.5 -12.5q45 0 75.5 14t48.5 38.5t26 58t8 71.5v281h62v-500h-62v82q-20 -41 -60.5 -69t-107.5 -28q-58 0 -95.5 17.5t-59.5 47t-30.5 69t-8.5 83.5v298h62zM317 627q-8 10 -11 14t-6 4t-5.5 -4t-10.5 -14l-53 -71h-59
l89 117q11 14 19.5 20.5t19.5 6.5t19 -6.5t19 -20.5l91 -117h-59z" />
    <glyph glyph-name="udieresis" unicode="&#xfc;" horiz-adv-x="599" 
d="M147 500v-308q0 -32 6 -60t22 -49t43.5 -33.5t70.5 -12.5q45 0 75.5 14t48.5 38.5t26 58t8 71.5v281h62v-500h-62v82q-20 -41 -60.5 -69t-107.5 -28q-58 0 -95.5 17.5t-59.5 47t-30.5 69t-8.5 83.5v298h62zM154 669q0 19 13 33t33 14q19 0 33 -14t14 -33q0 -20 -14 -33
t-33 -13q-20 0 -33 13t-13 33zM330 669q0 19 13 33t33 14q19 0 33 -14t14 -33q0 -20 -14 -33t-33 -13q-20 0 -33 13t-13 33z" />
    <glyph glyph-name="yacute" unicode="&#xfd;" horiz-adv-x="570" 
d="M304 58l179 442h62l-246 -605q-11 -27 -27.5 -43.5t-37.5 -25.5t-45.5 -12.5t-49.5 -3.5h-49v52h54q42 0 66.5 13t39.5 50l31 75h-10q-23 0 -38 13.5t-24 36.5l-184 450h62l169 -418q6 -14 11 -19t19 -5h18zM428 700l-134 -144h-69l134 144h69z" />
    <glyph glyph-name="thorn" unicode="&#xfe;" horiz-adv-x="630" 
d="M90 700h62v-287q26 48 72 75t111 27q64 0 110.5 -21.5t76.5 -58t44 -85t14 -101.5q0 -54 -14 -102t-43.5 -84t-76 -57t-110.5 -21q-63 0 -110.5 26.5t-73.5 71.5v-273h-62v890zM335 463q-48 0 -82.5 -18t-57 -47t-33 -65.5t-10.5 -74.5v-15q0 -41 11 -78t33.5 -65.5
t57 -45.5t82.5 -17q49 0 83.5 17.5t56.5 46.5t32 67.5t10 80.5t-10.5 80.5t-32.5 68.5t-56.5 47.5t-83.5 17.5z" />
    <glyph glyph-name="ydieresis" unicode="&#xff;" horiz-adv-x="570" 
d="M304 58l179 442h62l-246 -605q-11 -27 -27.5 -43.5t-37.5 -25.5t-45.5 -12.5t-49.5 -3.5h-49v52h54q42 0 66.5 13t39.5 50l31 75h-10q-23 0 -38 13.5t-24 36.5l-184 450h62l169 -418q6 -14 11 -19t19 -5h18zM156 625q0 19 13 33t33 14q19 0 33 -14t14 -33q0 -20 -14 -33
t-33 -13q-20 0 -33 13t-13 33zM332 625q0 19 13 33t33 14q19 0 33 -14t14 -33q0 -20 -14 -33t-33 -13q-20 0 -33 13t-13 33z" />
    <glyph glyph-name="dotlessi" unicode="&#x131;" horiz-adv-x="211" 
d="M137 0h-62v500h62v-500z" />
    <glyph glyph-name="Lslash" unicode="&#x141;" horiz-adv-x="611" 
d="M164 700v-286l190 121v-63l-190 -121v-268q0 -15 6 -22t21 -7h400v-54h-406q-45 0 -65 21.5t-20 65.5v224l-80 -50v63l80 50v326h64z" />
    <glyph glyph-name="lslash" unicode="&#x142;" horiz-adv-x="240" 
d="M150 423v-423h-62v384l-68 -42v63l68 42v253h62v-214l70 44v-63z" />
    <glyph glyph-name="OE" unicode="&#x152;" horiz-adv-x="1291" 
d="M743 58h488v-58h-556v57q-47 -37 -107.5 -54.5t-134.5 -17.5q-86 0 -155 27t-117.5 76t-74.5 116t-26 147t26 147t74.5 115t117.5 75t155 27q149 0 242 -72v57h556v-58h-488v-261h397v-58h-397v-265zM433 657q-71 0 -127.5 -21t-96 -60.5t-60.5 -96.5t-21 -128t21 -128
t60.5 -97t96 -61.5t127.5 -21.5q81 0 142 25.5t100 76.5v411q-39 51 -100 76t-142 25z" />
    <glyph glyph-name="oe" unicode="&#x153;" horiz-adv-x="1017" 
d="M555 228q0 -62 17 -99.5t44 -57.5t60 -27t64 -7q42 0 71 13t48 32.5t28.5 43t13.5 44.5h63q-5 -30 -18.5 -62.5t-40 -59.5t-67 -45t-98.5 -18q-28 0 -59.5 3.5t-61.5 15.5t-56.5 35.5t-43.5 62.5q-30 -54 -83.5 -85.5t-132.5 -31.5q-64 0 -111.5 22.5t-79 60t-47 87
t-15.5 102.5q0 54 15.5 101t47 82t79 55t111.5 20q81 0 136 -31.5t84 -86.5q21 43 51.5 67t61 35.5t56.5 13.5t39 2q11 0 33 -1.5t48 -9.5t53.5 -25.5t50 -49t37 -81t14.5 -120.5h-412zM113 257q0 -42 10 -81.5t32.5 -70t59 -49t88.5 -18.5t88.5 18t59 48t32.5 69t10 81
t-10 79.5t-32.5 66t-59 45.5t-88.5 17t-88.5 -16.5t-59 -44.5t-32.5 -65t-10 -79zM731 463q-15 0 -44 -4.5t-58 -22.5t-51 -55t-22 -101h347q0 64 -21.5 101t-50 55t-57.5 22.5t-43 4.5z" />
    <glyph glyph-name="Scaron" unicode="&#x160;" horiz-adv-x="692" 
d="M124 215q0 -36 12 -68t39 -56t70 -38t105 -14t103.5 12t67 31.5t36.5 44.5t11 52q0 33 -18.5 55.5t-49.5 38.5t-71.5 27.5t-83.5 23.5q-51 13 -100 29.5t-87.5 40.5t-62 58t-23.5 84q0 56 24.5 91t62.5 54.5t83.5 26.5t87.5 7q85 0 138 -22t82.5 -53.5t40 -65.5t10.5 -59
h-64q0 19 -9 44t-32.5 47.5t-63.5 38.5t-102 16q-31 0 -65.5 -4t-63 -17.5t-47 -38t-18.5 -65.5q0 -36 19 -60.5t50.5 -41.5t72.5 -29t85 -24q53 -14 101.5 -29t86 -37t59.5 -54.5t22 -81.5q0 -37 -14 -72t-47 -62t-87 -43.5t-134 -16.5q-81 0 -136.5 18t-89.5 49.5
t-49 73.5t-15 89h64zM405 890h59l-91 -117q-11 -14 -19 -20.5t-19 -6.5t-19.5 6.5t-19.5 20.5l-89 117h59l53 -71q8 -10 10.5 -14t5.5 -4t6 4t11 14z" />
    <glyph glyph-name="scaron" unicode="&#x161;" horiz-adv-x="524" 
d="M117 158q0 -27 8 -49.5t26 -38.5t47 -24.5t72 -8.5q72 0 105 28t33 72q0 22 -11.5 37.5t-30.5 26.5t-44 18t-53 13q-38 8 -73.5 18.5t-63 27.5t-44 42.5t-16.5 64.5q0 24 9 47.5t30 42t56 29.5t88 11q42 0 78 -9.5t62 -27.5t41 -45.5t15 -63.5h-65q0 40 -33 67t-98 27
q-36 0 -59.5 -6t-37 -16t-19 -24.5t-5.5 -30.5q0 -26 12.5 -42t33 -26t47 -16t54.5 -13q41 -10 75.5 -21t60 -27.5t39.5 -41t14 -62.5q0 -32 -12 -59.5t-36.5 -48t-62 -32.5t-89.5 -12q-67 0 -109 15t-66 40t-32.5 55.5t-8.5 62.5h63zM332 700h59l-91 -117
q-11 -14 -19 -20.5t-19 -6.5t-19.5 6.5t-19.5 20.5l-89 117h59l53 -71q8 -10 10.5 -14t5.5 -4t6 4t11 14z" />
    <glyph glyph-name="Ydieresis" unicode="&#x178;" horiz-adv-x="662" 
d="M299 0v253q-12 5 -21 14.5t-18 24.5l-250 408h75l228 -372q8 -14 18 -14q9 0 17 14l228 372h76l-251 -408q-16 -28 -38 -39v-253h-64zM196 825q0 19 13 33t33 14q19 0 33 -14t14 -33q0 -20 -14 -33t-33 -13q-20 0 -33 13t-13 33zM372 825q0 19 13 33t33 14q19 0 33 -14
t14 -33q0 -20 -14 -33t-33 -13q-20 0 -33 13t-13 33z" />
    <glyph glyph-name="Zcaron" unicode="&#x17d;" horiz-adv-x="666" 
d="M67 700h483q29 0 44 -17.5t15 -37.5q0 -14 -5 -26t-13 -21l-476 -532q-2 -2 -3.5 -4t-1.5 -4q0 -1 1 -2q2 -2 4 -2h501v-54h-506q-32 0 -46 16.5t-14 39.5q0 14 4.5 24.5t17.5 25.5l472 529q4 4 4 7q0 4 -4 4h-477v54zM450 894h59l-91 -117q-11 -14 -19 -20.5t-19 -6.5
t-19.5 6.5t-19.5 20.5l-89 117h59l53 -71q8 -10 10.5 -14t5.5 -4t6 4t11 14z" />
    <glyph glyph-name="zcaron" unicode="&#x17e;" horiz-adv-x="506" 
d="M61 500h320q23 0 37.5 -6.5t23 -15.5t11.5 -19t3 -17q0 -23 -13 -41.5t-27 -31.5l-296 -285l-7.5 -7.5t-3.5 -9.5q0 -15 20 -15h326v-52h-326q-37 0 -58 16t-21 47q0 13 7.5 27.5t32.5 37.5l291 283q5 5 9.5 10t4.5 10q0 10 -7 13.5t-16 3.5h-311v52zM329 700h59
l-91 -117q-11 -14 -19 -20.5t-19 -6.5t-19.5 6.5t-19.5 20.5l-89 117h59l53 -71q8 -10 10.5 -14t5.5 -4t6 4t11 14z" />
    <glyph glyph-name="florin" unicode="&#x192;" horiz-adv-x="396" 
d="M221 500h98v-52h-107l-87 -486q-5 -30 -12.5 -57.5t-22.5 -48.5t-40 -33.5t-65 -12.5h-52v52h52q22 0 36 8t23 22t14 32.5t9 39.5l85 484h-92v52h101l9 49q5 30 12.5 57t22.5 48t40 33.5t66 12.5h52v-52h-50q-23 0 -37 -8t-23 -22t-14 -32t-9 -39z" />
    <glyph glyph-name="circumflex" unicode="&#x2c6;" horiz-adv-x="237" 
d="M135 627q-8 10 -11 14t-6 4t-5.5 -4t-10.5 -14l-53 -71h-59l89 117q11 14 19.5 20.5t19.5 6.5t19 -6.5t19 -20.5l91 -117h-59z" />
    <glyph glyph-name="caron" unicode="&#x2c7;" horiz-adv-x="244" 
d="M192 700h59l-91 -117q-11 -14 -19 -20.5t-19 -6.5t-19.5 6.5t-19.5 20.5l-89 117h59l53 -71q8 -10 10.5 -14t5.5 -4t6 4t11 14z" />
    <glyph glyph-name="breve" unicode="&#x2d8;" horiz-adv-x="286" 
d="M70 700q0 -32 19.5 -49.5t49.5 -17.5t53.5 17.5t23.5 49.5h60q0 -20 -9 -40.5t-26 -37.5t-42.5 -28t-59.5 -11t-58.5 11t-40 28t-23 37.5t-7.5 40.5h60z" />
    <glyph glyph-name="dotaccent" unicode="&#x2d9;" horiz-adv-x="113" 
d="M10 653q0 19 13 33t33 14q19 0 33 -14t14 -33q0 -20 -14 -33t-33 -13q-20 0 -33 13t-13 33z" />
    <glyph glyph-name="ring" unicode="&#x2da;" horiz-adv-x="216" 
d="M10 617q0 42 28 70t70 28t70 -28t28 -70t-28 -70t-70 -28t-70 28t-28 70zM53 617q0 -23 16 -39t39 -16t39 16t16 39t-16 39t-39 16t-39 -16t-16 -39z" />
    <glyph glyph-name="ogonek" unicode="&#x2db;" horiz-adv-x="200" 
d="M164 0l-67 -65q-15 -15 -24.5 -25.5t-9.5 -26.5q0 -13 9.5 -21t26.5 -8q23 0 36 9t27 21l28 -35q-16 -14 -38 -26.5t-53 -12.5q-45 0 -67 20.5t-22 47.5q0 23 10 39t25 30l57 53h62z" />
    <glyph glyph-name="tilde" unicode="&#x2dc;" horiz-adv-x="335" 
d="M10 620q0 20 5.5 40t17.5 35.5t30 25t43 9.5q27 0 46.5 -12t36.5 -26q12 -10 20.5 -16t22.5 -6q12 0 20 5.5t13.5 14.5t7.5 19.5t2 20.5h50q0 -19 -5 -38.5t-16 -35.5t-28 -26t-41 -10q-30 0 -48.5 11.5t-34.5 25.5q-10 9 -21 16t-25 7q-27 0 -36.5 -19t-9.5 -41h-50z
" />
    <glyph glyph-name="hungarumlaut" unicode="&#x2dd;" horiz-adv-x="315" 
d="M224 700l-134 -144h-69l134 144h69zM355 700l-134 -144h-69l134 144h69z" />
    <glyph glyph-name="Delta" unicode="&#x394;" horiz-adv-x="633" 
d="M552 60q11 0 16 5t5 11q0 5 -3 11l-238 549q-8 19 -17 19t-17 -19l-236 -549q-2 -6 -2 -9q0 -7 4.5 -12.5t15.5 -5.5h472zM80 0q-42 0 -61 24.5t-19 53.5q0 17 6 32l238 550q11 27 26.5 41t44.5 14q28 0 44 -14t27 -41l239 -552q8 -18 8 -32q0 -31 -20.5 -53.5
t-60.5 -22.5h-472z" />
    <glyph glyph-name="Delta" unicode="&#x2206;" horiz-adv-x="633" 
d="M552 60q11 0 16 5t5 11q0 5 -3 11l-238 549q-8 19 -17 19t-17 -19l-236 -549q-2 -6 -2 -9q0 -7 4.5 -12.5t15.5 -5.5h472zM80 0q-42 0 -61 24.5t-19 53.5q0 17 6 32l238 550q11 27 26.5 41t44.5 14q28 0 44 -14t27 -41l239 -552q8 -18 8 -32q0 -31 -20.5 -53.5
t-60.5 -22.5h-472z" />
    <glyph glyph-name="Omega" unicode="&#x3a9;" horiz-adv-x="695" 
d="M54 52h186q10 0 10 13v56q0 5 -3.5 7t-8.5 4q-36 14 -72.5 37t-65.5 56.5t-47.5 79t-18.5 103.5q0 83 29 141.5t75 95.5t102.5 54t110.5 17t109.5 -17t100 -54t72.5 -95.5t28 -141.5q0 -58 -17.5 -103.5t-47 -80t-67 -58t-77.5 -37.5q-2 -1 -4 -2.5t-2 -5.5v-56
q0 -13 10 -13h186v-52h-186q-14 0 -27 2.5t-23 10t-16 20t-6 32.5v51q0 18 5.5 29.5t13.5 19t17 11.5t17 7q31 11 60 28t51.5 44.5t36.5 67t14 95.5q0 67 -22.5 113.5t-58.5 76t-80 43t-87 13.5t-88.5 -13.5t-82.5 -43t-60.5 -76t-23.5 -113.5q0 -56 14.5 -95t38 -66
t53.5 -44t60 -29q7 -3 16 -7t16.5 -11.5t12.5 -19.5t5 -30v-51q0 -20 -6 -32.5t-16 -20t-23 -10t-27 -2.5h-186v52z" />
    <glyph glyph-name="Omega" unicode="&#x2126;" horiz-adv-x="695" 
d="M54 52h186q10 0 10 13v56q0 5 -3.5 7t-8.5 4q-36 14 -72.5 37t-65.5 56.5t-47.5 79t-18.5 103.5q0 83 29 141.5t75 95.5t102.5 54t110.5 17t109.5 -17t100 -54t72.5 -95.5t28 -141.5q0 -58 -17.5 -103.5t-47 -80t-67 -58t-77.5 -37.5q-2 -1 -4 -2.5t-2 -5.5v-56
q0 -13 10 -13h186v-52h-186q-14 0 -27 2.5t-23 10t-16 20t-6 32.5v51q0 18 5.5 29.5t13.5 19t17 11.5t17 7q31 11 60 28t51.5 44.5t36.5 67t14 95.5q0 67 -22.5 113.5t-58.5 76t-80 43t-87 13.5t-88.5 -13.5t-82.5 -43t-60.5 -76t-23.5 -113.5q0 -56 14.5 -95t38 -66
t53.5 -44t60 -29q7 -3 16 -7t16.5 -11.5t12.5 -19.5t5 -30v-51q0 -20 -6 -32.5t-16 -20t-23 -10t-27 -2.5h-186v52z" />
    <glyph glyph-name="pi" unicode="&#x3c0;" horiz-adv-x="566" 
d="M444 448v-290q0 -20 1.5 -37t7 -30.5t17.5 -21t33 -7.5h43v-62h-43q-44 0 -68 13t-36 34.5t-14.5 50t-2.5 60.5v290h-208v-448h-62v448h-102v52h536v-52h-102z" />
    <glyph glyph-name="endash" unicode="&#x2013;" horiz-adv-x="670" 
d="M80 293h510v-52h-510v52z" />
    <glyph glyph-name="emdash" unicode="&#x2014;" horiz-adv-x="890" 
d="M810 242h-730v52h730v-52z" />
    <glyph glyph-name="quoteleft" unicode="&#x2018;" horiz-adv-x="263" 
d="M183.005 508.003q0 -19.999 -14.499 -35.998t-36.498 -15.999q-19.999 0 -35.998 14.5q-15.999 14.499 -15.999 47.4971v40.9971q0 50.9971 17.499 86.4951q17.499 35.4971 68.4961 62.4961v-48.9971q-7.99902 -6 -15.999 -11.5q-7.99902 -5.49902 -13.999 -15.999
q-6 -10.499 -9.99902 -27.498q-4 -16.999 -4 -44.9971v-1q4 1 9.99902 1q21.999 0 36.498 -14.499t14.499 -36.498z" />
    <glyph glyph-name="quoteright" unicode="&#x2019;" horiz-adv-x="263" 
d="M80 648q0 20 14.5 36t36.5 16q20 0 36 -14.5t16 -47.5v-41q0 -51 -17.5 -86.5t-68.5 -62.5v49q8 6 16 11.5t14 16t10 27.5t4 45v1q-4 -1 -10 -1q-22 0 -36.5 14.5t-14.5 36.5z" />
    <glyph glyph-name="quotesinglbase" unicode="&#x201a;" horiz-adv-x="263" 
d="M80 51q0 20 14.5 36t36.5 16q20 0 36 -14.5t16 -47.5v-41q0 -51 -17.5 -86.5t-68.5 -62.5v49q8 6 16 11.5t14 16t10 27.5t4 45v1q-4 -1 -10 -1q-22 0 -36.5 14.5t-14.5 36.5z" />
    <glyph glyph-name="quotedblleft" unicode="&#x201c;" horiz-adv-x="423" 
d="M183.005 500.003q0 -19.999 -14.499 -35.998t-36.498 -15.999q-19.999 0 -35.998 14.5q-15.999 14.499 -15.999 47.4971v40.9971q0 50.9971 17.499 86.4951q17.499 35.4971 68.4961 62.4961v-48.9971q-7.99902 -6 -15.999 -11.5q-7.99902 -5.49902 -13.999 -15.999
q-6 -10.499 -9.99902 -27.498q-4 -16.999 -4 -44.9971v-1q4 1 9.99902 1q21.999 0 36.498 -14.499t14.499 -36.498zM343.005 500.003q0 -19.999 -14.499 -35.998t-36.498 -15.999q-19.999 0 -35.998 14.5q-15.999 14.499 -15.999 47.4971v40.9971q0 50.9971 17.499 86.4951
q17.499 35.4971 68.4961 62.4961v-48.9971q-7.99902 -6 -15.999 -11.5q-7.99902 -5.49902 -13.999 -15.999q-6 -10.499 -9.99902 -27.498q-4 -16.999 -4 -44.9971v-1q4 1 9.99902 1q21.999 0 36.498 -14.499t14.499 -36.498z" />
    <glyph glyph-name="quotedblright" unicode="&#x201d;" horiz-adv-x="423" 
d="M80 648q0 20 14.5 36t36.5 16q20 0 36 -14.5t16 -47.5v-41q0 -51 -17.5 -86.5t-68.5 -62.5v49q8 6 16 11.5t14 16t10 27.5t4 45v1q-4 -1 -10 -1q-22 0 -36.5 14.5t-14.5 36.5zM240 648q0 20 14.5 36t36.5 16q20 0 36 -14.5t16 -47.5v-41q0 -51 -17.5 -86.5t-68.5 -62.5
v49q8 6 16 11.5t14 16t10 27.5t4 45v1q-4 -1 -10 -1q-22 0 -36.5 14.5t-14.5 36.5z" />
    <glyph glyph-name="quotedblbase" unicode="&#x201e;" horiz-adv-x="423" 
d="M80 51q0 20 14.5 36t36.5 16q20 0 36 -14.5t16 -47.5v-41q0 -51 -17.5 -86.5t-68.5 -62.5v49q8 6 16 11.5t14 16t10 27.5t4 45v1q-4 -1 -10 -1q-22 0 -36.5 14.5t-14.5 36.5zM240 51q0 20 14.5 36t36.5 16q20 0 36 -14.5t16 -47.5v-41q0 -51 -17.5 -86.5t-68.5 -62.5v49
q8 6 16 11.5t14 16t10 27.5t4 45v1q-4 -1 -10 -1q-22 0 -36.5 14.5t-14.5 36.5z" />
    <glyph glyph-name="dagger" unicode="&#x2020;" horiz-adv-x="522" 
d="M292 -190h-62v636h-220v54h220v215h62v-215h220v-54h-220v-636z" />
    <glyph glyph-name="daggerdbl" unicode="&#x2021;" horiz-adv-x="522" 
d="M293 0v-214h-64v214h-219v54h219v392h-219v54h219v239h64v-239h219v-54h-219v-392h219v-54h-219z" />
    <glyph glyph-name="bullet" unicode="&#x2022;" horiz-adv-x="430" 
d="M55 355q0 33 12.5 62t34.5 51t51 34.5t62 12.5t62 -12.5t51 -34.5t34.5 -51t12.5 -62t-12.5 -62t-34.5 -51t-51 -34.5t-62 -12.5t-62 12.5t-51 34.5t-34.5 51t-12.5 62zM107 355q0 -22 8.5 -41.5t23.5 -34.5t34.5 -23.5t41.5 -8.5t41.5 8.5t34.5 23.5t23.5 34.5t8.5 41.5
t-8.5 41.5t-23.5 34.5t-34.5 23.5t-41.5 8.5t-41.5 -8.5t-34.5 -23.5t-23.5 -34.5t-8.5 -41.5z" />
    <glyph glyph-name="ellipsis" unicode="&#x2026;" horiz-adv-x="596" 
d="M80 46q0 19 13 33t33 14q19 0 33 -14t14 -33q0 -20 -14 -33t-33 -13q-20 0 -33 13t-13 33zM251 46q0 19 13 33t33 14q19 0 33 -14t14 -33q0 -20 -14 -33t-33 -13q-20 0 -33 13t-13 33zM423 46q0 19 13 33t33 14q19 0 33 -14t14 -33q0 -20 -14 -33t-33 -13q-20 0 -33 13
t-13 33z" />
    <glyph glyph-name="perthousand" unicode="&#x2030;" horiz-adv-x="1068" 
d="M92 521q0 -23 4.5 -45.5t15.5 -41.5t29.5 -30.5t46.5 -11.5t46.5 11.5t29.5 30t15.5 41t4.5 45.5q0 22 -4.5 45.5t-15.5 42.5t-29.5 31t-46.5 12t-46.5 -12t-29.5 -30.5t-15.5 -42t-4.5 -45.5zM40 521q0 32 8 63t26 55t46 39t68 15t68 -15t46 -39.5t26 -55.5t8 -63
t-8 -62.5t-26 -54.5t-46 -38.5t-68 -14.5t-68 15t-46 39t-26 54.5t-8 62.5zM96 -15l468 730h63l-468 -730h-63zM434 156q0 -23 4.5 -45.5t15.5 -41.5t29.5 -30.5t46.5 -11.5t46.5 11.5t29.5 30t15.5 41t4.5 45.5q0 22 -4.5 45.5t-15.5 42.5t-29.5 31t-46.5 12t-46.5 -12
t-29.5 -30.5t-15.5 -42t-4.5 -45.5zM382 156q0 32 8 63t26 55t46 39t68 15t68 -15t46 -39.5t26 -55.5t8 -63t-8 -62.5t-26 -54.5t-46 -38.5t-68 -14.5t-68 15t-46 39t-26 54.5t-8 62.5zM784 156q0 -23 4.5 -45.5t15.5 -41.5t29.5 -30.5t46.5 -11.5t46.5 11.5t29.5 30
t15.5 41t4.5 45.5q0 22 -4.5 45.5t-15.5 42.5t-29.5 31t-46.5 12t-46.5 -12t-29.5 -30.5t-15.5 -42t-4.5 -45.5zM732 156q0 32 8 63t26 55t46 39t68 15t68 -15t46 -39.5t26 -55.5t8 -63t-8 -62.5t-26 -54.5t-46 -38.5t-68 -14.5t-68 15t-46 39t-26 54.5t-8 62.5z" />
    <glyph glyph-name="guilsinglleft" unicode="&#x2039;" horiz-adv-x="365" 
d="M285 500l-138 -172q-6 -8 -12.5 -17.5t-6.5 -18.5t6.5 -17.5t12.5 -16.5l138 -167h-64l-128 154q-5 6 -14 18.5t-9 28.5q0 14 8 26t14 20l129 162h64z" />
    <glyph glyph-name="guilsinglright" unicode="&#x203a;" horiz-adv-x="364" 
d="M143 500l129 -162q6 -8 14 -20t8 -26q0 -16 -8 -27t-15 -19l-128 -155h-63l138 167q6 7 12.5 16t6.5 18t-6.5 18.5t-12.5 17.5l-138 172h63z" />
    <glyph glyph-name="fraction" unicode="&#x2044;" horiz-adv-x="554" 
d="M475 715h69l-465 -730h-69z" />
    <glyph glyph-name="Euro" unicode="&#x20ac;" horiz-adv-x="694" 
d="M154 238q16 -62 46.5 -101t68 -61t78 -30.5t76.5 -8.5q28 0 56.5 4.5t57.5 16.5t58.5 32t58.5 51v-72q-26 -24 -56 -40t-61 -26t-60.5 -14t-53.5 -4q-36 0 -85.5 10t-98 37.5t-89 77t-58.5 128.5h-82v48h74q-2 15 -3 31.5t-1 33.5v26h-70v48h75q8 60 29.5 103t50.5 73
t63 48.5t68.5 28.5t67 13.5t58.5 3.5q128 0 226 -63l-22 -53q-26 17 -54 29.5t-55 20t-51.5 11t-43.5 3.5q-33 0 -75.5 -7t-83 -29.5t-72.5 -66t-44 -115.5h406l-21 -48h-389q-1 -7 -1 -13v-13q0 -18 1 -34t3 -31h346l-21 -48h-317z" />
    <glyph glyph-name="trademark" unicode="&#x2122;" horiz-adv-x="893" 
d="M15 655v45h314v-45h-130v-355h-53v355h-131zM390 300v329q0 45 17.5 58.5t43.5 13.5q22 0 34.5 -13.5t22.5 -39.5l105 -276l107 276q10 26 22.5 39.5t33.5 13.5q26 0 43 -13.5t17 -58.5v-329h-53v329q0 5 -1 9t-6 4t-7 -3.5t-4 -9.5l-113 -289q-2 -5 -4.5 -11.5t-6.5 -13
t-11 -11t-17 -4.5q-11 0 -17.5 4.5t-11 11t-7 13t-4.5 11.5l-111 289q-4 13 -11 13q-5 0 -6.5 -4t-1.5 -9v-329h-53z" />
    <glyph glyph-name="partialdiff" unicode="&#x2202;" horiz-adv-x="671" 
d="M83 531q22 85 83 134.5t164 49.5q54 0 95 -17t71 -46t50.5 -67.5t32.5 -82.5t17 -90.5t5 -90.5q0 -62 -12.5 -122.5t-43.5 -108t-83 -76.5t-131 -29q-53 0 -100.5 16.5t-83 48t-56.5 75.5t-21 100q0 57 21 101.5t56.5 75t83 46.5t100.5 16q30 0 60 -6.5t57 -19t49.5 -30
t38.5 -39.5q-2 53 -13 104.5t-35.5 92.5t-63 66.5t-93.5 25.5q-23 0 -50.5 -4.5t-53 -18t-47.5 -38.5t-35 -66h-62zM530 227q0 44 -16 78.5t-43 58t-63.5 36t-76.5 12.5q-42 0 -78.5 -13t-63.5 -37t-42 -58.5t-15 -78.5t16 -79t43 -59t63 -37t77 -13q40 0 76.5 13t63.5 38
t43 60t16 79z" />
    <glyph glyph-name="product" unicode="&#x220f;" horiz-adv-x="690" 
d="M162 648v-838h-62v890h490v-890h-62v838h-366z" />
    <glyph glyph-name="summation" unicode="&#x2211;" horiz-adv-x="610" 
d="M575 -190h-469q-26 0 -43 15t-17 41q0 17 9.5 30t17.5 24l247 327l6 8t3 10q0 5 -3 8.5t-6 7.5l-257 320q-6 8 -11.5 18t-5.5 25q0 26 16.5 41t42.5 15h443v-52h-443q-4 0 -4 -4q0 -2 1.5 -4.5t3.5 -4.5l262 -324q12 -14 16 -23.5t4 -22.5t-4 -22t-16 -25l-259 -340
q-2 -2 -4.5 -5t-2.5 -7t8 -4h465v-52z" />
    <glyph glyph-name="minus" unicode="&#x2212;" horiz-adv-x="654" 
d="M80 226v52h494v-52h-494z" />
    <glyph glyph-name="radical" unicode="&#x221a;" horiz-adv-x="679" 
d="M10 372l94 26l141 -306q6 -13 11.5 -22.5t16.5 -9.5q13 0 20 12t11 22l302 710h63l-306 -720q-2 -6 -8 -19.5t-16.5 -28t-26.5 -25.5t-39 -11q-20 0 -33 7t-22 18t-16.5 26t-14.5 32l-114 246l-45 -12z" />
    <glyph glyph-name="infinity" unicode="&#x221e;" horiz-adv-x="796" 
d="M40 300q0 27 8 58t28 57t54 43.5t85 17.5q32 0 59 -10.5t49.5 -28.5t42.5 -41.5t39 -50.5q20 27 39.5 50.5t41 41.5t47 28.5t56.5 10.5q51 0 83.5 -17.5t51 -43.5t25.5 -57t7 -58t-7.5 -58t-27 -57t-53 -43.5t-84.5 -17.5q-31 0 -56.5 9.5t-47.5 25.5t-40.5 37.5
t-36.5 45.5q-38 -48 -83.5 -83t-104.5 -35q-51 0 -85 17.5t-54 43.5t-28 57t-8 58zM102 300q0 -18 5 -39.5t18 -40.5t35 -31.5t55 -12.5q22 0 42 9.5t39 25.5t36.5 37t34.5 44q-17 25 -34 48.5t-35.5 42t-39 30t-43.5 11.5q-33 0 -55 -12.5t-35 -31.5t-18 -40.5t-5 -39.5z
M589 424q-23 0 -42.5 -11.5t-37.5 -30.5t-34.5 -42t-33.5 -47q16 -23 32 -44t33 -37t36.5 -26t41.5 -10q33 0 54 12.5t33.5 31.5t17.5 40.5t5 39.5t-4 39.5t-15.5 40.5t-32 31.5t-53.5 12.5z" />
    <glyph glyph-name="integral" unicode="&#x222b;" horiz-adv-x="310" 
d="M300 648h-55q-20 0 -31.5 -7.5t-17.5 -20.5t-8 -29.5t-2 -35.5v-584q0 -32 -2 -61.5t-13.5 -51.5t-36 -35t-69.5 -13h-55v52h55q20 0 31.5 7.5t17.5 20t8 29.5t2 36v584q0 32 2 61.5t13.5 51.5t36 35t69.5 13h55v-52z" />
    <glyph glyph-name="approxequal" unicode="&#x2248;" horiz-adv-x="565" 
d="M80 381q14 14 35.5 25.5t52.5 11.5q38 0 68 -12.5t59 -29.5l5 -3q23 -13 47.5 -24t52.5 -11q19 0 34.5 7t26.5 16q13 10 24 23v-66q-14 -13 -35 -22.5t-50 -9.5q-38 0 -68 13t-63 32q-24 14 -49 24.5t-52 10.5q-21 0 -37.5 -7.5t-27.5 -16.5q-13 -11 -23 -23v62zM80 205
q14 14 35.5 25.5t52.5 11.5q38 0 68 -12.5t59 -29.5l5 -3q23 -13 47.5 -24t52.5 -11q19 0 34.5 7t26.5 16q13 10 24 23v-66q-14 -13 -35 -22.5t-50 -9.5q-38 0 -67 12t-57 28l-7 4q-24 14 -49 25t-52 11q-21 0 -37.5 -7.5t-27.5 -16.5q-13 -11 -23 -23v62z" />
    <glyph glyph-name="notequal" unicode="&#x2260;" horiz-adv-x="674" 
d="M80 366h252l71 133h69l-71 -133h193v-52h-220l-71 -132h291v-52h-318l-69 -130h-69l69 130h-127v52h154l70 132h-224v52z" />
    <glyph glyph-name="lessequal" unicode="&#x2264;" horiz-adv-x="664" 
d="M96 0v52h488v-52h-488zM163 297l421 -137v-62l-468 161q-10 4 -23 11.5t-13 26.5t13 28t23 12l468 153v-60z" />
    <glyph glyph-name="greaterequal" unicode="&#x2265;" horiz-adv-x="664" 
d="M80 0v52h488v-52h-488zM80 430v60l468 -153q10 -3 23 -12t13 -28t-13 -26.5t-23 -11.5l-468 -161v62l421 137z" />
    <glyph glyph-name="lozenge" unicode="&#x25ca;" horiz-adv-x="474" 
d="M424 407q8 -14 11.5 -28.5t3.5 -23.5q0 -14 -4.5 -26t-10.5 -24l-149 -287q-7 -13 -14 -25.5t-24 -12.5t-23.5 12.5t-13.5 25.5l-149 284q-6 11 -11 25t-5 28q0 23 16 54l151 277q6 11 12 22.5t23 11.5t24 -11.5t13 -22.5zM237 642l-135 -255q-10 -20 -10 -32
q0 -10 11 -32l134 -265l136 270q9 16 9 27q0 12 -9 30z" />
    <glyph glyph-name="fi" unicode="&#xfb01;" horiz-adv-x="543" 
d="M15 500h86v42q0 33 4 62t16.5 50.5t36.5 33.5t64 12h62v-52h-62q-21 0 -33 -7.5t-17.5 -21t-7 -31t-1.5 -36.5v-52h111v-52h-111v-448h-62v448h-86v52zM452 0h-62v500h62v-500zM375 668q0 19 13 33t33 14q19 0 33 -14t14 -33q0 -20 -14 -33t-33 -13q-20 0 -33 13t-13 33z
" />
    <glyph glyph-name="fl" unicode="&#xfb02;" horiz-adv-x="535" 
d="M15 500h86v42q0 33 4 62t16.5 50.5t36.5 33.5t64 12h62v-52h-62q-21 0 -33 -7.5t-17.5 -21t-7 -31t-1.5 -36.5v-52h111v-52h-111v-448h-62v448h-86v52zM383 700h62v-700h-62v700z" />
    </font>
</defs>
</svg>
