<?xml version="1.0" standalone="no"?>
<!DOCTYPE svg PUBLIC "-//W3C//DTD SVG 1.1//EN" "http://www.w3.org/Graphics/SVG/1.1/DTD/svg11.dtd" >
<svg xmlns="http://www.w3.org/2000/svg" xmlns:xlink="http://www.w3.org/1999/xlink" version="1.1">
<metadata>
Created by FontForge 20150318 at Fri May 29 12:15:14 2015
 By uniteet7
</metadata>
<defs>
<font id="WevoUltraLightWeb" horiz-adv-x="180" >
  <font-face 
    font-family="WevoUltraLightWeb"
    font-weight="250"
    font-stretch="normal"
    units-per-em="1000"
    panose-1="2 11 2 0 0 0 0 0 0 0"
    ascent="800"
    descent="-200"
    x-height="500"
    cap-height="700"
    bbox="-50 -220 1165 948"
    underline-thickness="20"
    underline-position="-80"
    unicode-range="U+0020-FB02"
  />
<missing-glyph horiz-adv-x="650" 
d="M90 0v700h470v-700h-470zM540 20v660h-430v-660h430z" />
    <glyph glyph-name=".notdef" horiz-adv-x="650" 
d="M90 0v700h470v-700h-470zM540 20v660h-430v-660h430z" />
    <glyph glyph-name=".null" horiz-adv-x="0" 
 />
    <glyph glyph-name="nonmarkingreturn" horiz-adv-x="300" 
 />
    <glyph glyph-name="space" unicode=" " horiz-adv-x="300" 
 />
    <glyph glyph-name="exclam" unicode="!" horiz-adv-x="291" 
d="M135 700h20v-503h-20v503zM120 25q0 11 7 18.5t18 7.5t18.5 -7.5t7.5 -18.5t-7.5 -18t-18.5 -7t-18 7t-7 18z" />
    <glyph glyph-name="quotedbl" unicode="&#x22;" horiz-adv-x="322" 
d="M120 500h-20v200h20v-200zM222 500h-20v200h20v-200z" />
    <glyph glyph-name="numbersign" unicode="#" horiz-adv-x="676" 
d="M83 500h136l26 180h20l-26 -180h252l26 180h20l-26 -180h110v-20h-113l-40 -280h125v-20h-128l-25 -180h-20l25 180h-252l-25 -180h-20l25 180h-118v20h121l40 280h-133v20zM196 200h252l40 280h-252z" />
    <glyph glyph-name="dollar" unicode="$" horiz-adv-x="642" 
d="M75 215q0 -36 11 -72.5t38 -66.5t72.5 -49.5t114.5 -21.5v337q-43 12 -82.5 25t-70 32.5t-49 48t-18.5 72.5q0 52 20 85.5t52 53.5t71 28t77 8v105h20v-106q62 -1 107 -17.5t74 -42t43 -57t14 -62.5h-20q0 3 -1.5 15t-7.5 29.5t-19.5 36.5t-38 36t-61.5 28.5t-90 13.5
v-316l37 -10q42 -12 81.5 -25t70 -32.5t49 -48.5t18.5 -72q0 -35 -14.5 -68t-45.5 -58.5t-79.5 -41.5t-116.5 -17v-105h-20v105q-75 2 -124.5 23.5t-78.5 54t-41 72.5t-12 80h20zM331 336v-331q63 0 107.5 14.5t73 37.5t42 52.5t13.5 60.5q0 37 -17 62.5t-45 42.5t-65 29
t-76 23zM111 520q0 -37 16.5 -62t44 -42.5t64 -29.5t75.5 -23v312q-34 0 -69.5 -7t-64.5 -24.5t-47.5 -47.5t-18.5 -76z" />
    <glyph glyph-name="percent" unicode="%" horiz-adv-x="718" 
d="M120 -15l464 730h23l-464 -730h-23zM60 521q0 -28 7 -55t22 -48.5t39.5 -34.5t59.5 -13t59.5 13t39.5 34t22 48t7 55t-7 55.5t-22 49t-39.5 35t-59.5 13.5t-59.5 -13t-39.5 -34.5t-22 -49t-7 -55.5zM40 521q0 32 8 63t26 55t46 39t68 15t68 -15t46 -39.5t26 -55.5t8 -63
t-8 -62.5t-26 -54.5t-46 -38.5t-68 -14.5t-68 15t-46 39t-26 54.5t-8 62.5zM402 156q0 -28 7 -55t22 -48.5t39.5 -34.5t59.5 -13t59.5 13t39.5 34t22 48t7 55t-7 55.5t-22 49t-39.5 35t-59.5 13.5t-59.5 -13t-39.5 -34.5t-22 -49t-7 -55.5zM382 156q0 32 8 63t26 55t46 39
t68 15t68 -15t46 -39.5t26 -55.5t8 -63t-8 -62.5t-26 -54.5t-46 -38.5t-68 -14.5t-68 15t-46 39t-26 54.5t-8 62.5z" />
    <glyph glyph-name="ampersand" unicode="&#x26;" horiz-adv-x="632" 
d="M554 0l-86 111q-32 -60 -85 -93t-122 -33q-57 0 -96 17.5t-63.5 43.5t-35.5 56.5t-11 56.5q0 25 5 49t24 50.5t56.5 58.5t102.5 74l6 4l-64 83q-19 25 -32 53.5t-13 57.5q0 15 6.5 36.5t23 41.5t45.5 34t74 14t73 -15.5t43.5 -37t21.5 -44t6 -36.5h-20q0 12 -5 31
t-18.5 37.5t-37.5 31.5t-63 13t-64.5 -12t-39.5 -28.5t-19.5 -34.5t-5.5 -31q0 -26 11.5 -51t29.5 -48l262 -341q26 64 26 150h20q0 -98 -32 -168l102 -131h-25zM261 5q66 0 115 32t78 92l-194 251l-7 -5q-62 -40 -97.5 -70t-53.5 -54.5t-22.5 -46.5t-4.5 -45t10 -50t32 -50
t57.5 -38.5t86.5 -15.5z" />
    <glyph glyph-name="quotesingle" unicode="'" horiz-adv-x="220" 
d="M100 700h20v-200h-20v200z" />
    <glyph glyph-name="parenleft" unicode="(" horiz-adv-x="318" 
d="M215 -220q-32 64 -58 140q-22 65 -39.5 150.5t-17.5 184.5q0 98 17.5 184t39.5 151q26 76 58 140h23q-33 -65 -59 -142q-23 -66 -41 -151.5t-18 -181.5q0 -97 18 -182t41 -151q26 -77 59 -142h-23z" />
    <glyph glyph-name="parenright" unicode=")" horiz-adv-x="318" 
d="M80 -220q33 65 59 142q22 66 40.5 151t18.5 182q0 96 -18.5 181.5t-40.5 151.5q-26 77 -59 142h23q31 -64 57 -140q22 -65 40 -151t18 -184q0 -99 -18 -184.5t-40 -150.5q-26 -76 -57 -140h-23z" />
    <glyph glyph-name="asterisk" unicode="*" horiz-adv-x="394" 
d="M207 520v-83h-20v83h20zM187 617v83h20v-83h-20zM244 553l72 -42l-10 -17l-72 42zM150 584l-72 42l10 17l72 -42zM234 601l72 42l10 -17l-72 -42zM160 536l-72 -42l-10 17l72 42z" />
    <glyph glyph-name="plus" unicode="+" horiz-adv-x="614" 
d="M297 500h20v-236h242v-20h-242v-244h-20v244h-242v20h242v236z" />
    <glyph glyph-name="comma" unicode="," horiz-adv-x="254" 
d="M149 98v-98q0 -45 -9.5 -73.5t-34.5 -45.5v30q13 13 18.5 30.5t5.5 58.5v98h20z" />
    <glyph glyph-name="hyphen" unicode="-" horiz-adv-x="365" 
d="M80 278h205v-20h-205v20z" />
    <glyph glyph-name="period" unicode="." horiz-adv-x="211" 
d="M80 25q0 11 7 18.5t18 7.5t18.5 -7.5t7.5 -18.5t-7.5 -18t-18.5 -7t-18 7t-7 18z" />
    <glyph glyph-name="slash" unicode="/" horiz-adv-x="377" 
d="M10 -15l334 730h23l-334 -730h-23z" />
    <glyph glyph-name="zero" unicode="0" horiz-adv-x="620" 
d="M309 675q-50 0 -94 -19t-77 -59.5t-52 -103.5t-19 -151q0 -96 22 -160.5t57 -103.5t78 -56t85 -17t85 17t78 56t57.5 103.5t22.5 160.5q0 88 -19 151t-52 103.5t-77.5 59.5t-94.5 19zM309 695q55 0 103 -20t83.5 -63t56 -110t20.5 -160q0 -102 -24 -170.5t-62 -110
t-85 -59t-92 -17.5t-92 17.5t-84.5 59t-61.5 110t-24 170.5q0 93 20.5 160t56 110t83 63t102.5 20z" />
    <glyph glyph-name="one" unicode="1" horiz-adv-x="620" 
d="M323 0v636q0 11 -3.5 17.5t-17.5 6.5h-162v20h162q28 0 34.5 -12t6.5 -32v-636h-20z" />
    <glyph glyph-name="two" unicode="2" horiz-adv-x="620" 
d="M531 0h-410q-21 0 -27.5 9t-6.5 20q0 17 21 34l-1 -1l297 265q6 6 21 21.5t30.5 39t27.5 54t12 65.5q0 37 -11.5 68t-35.5 53t-61 34.5t-88 12.5q-40 0 -75.5 -11.5t-61.5 -37t-41.5 -66t-15.5 -99.5h-20q0 64 16.5 108.5t45.5 72.5t68 40.5t84 12.5q57 0 97.5 -14
t67 -38.5t39 -59t12.5 -76.5q0 -41 -14 -75t-31 -59.5t-32.5 -41t-19.5 -18.5l-298 -266q-13 -11 -13 -18q0 -3 2.5 -6t11.5 -3h410v-20z" />
    <glyph glyph-name="three" unicode="3" horiz-adv-x="620" 
d="M133 680h339q28 0 28 -26q0 -14 -16 -29l-247 -218q-4 -4 -8 -9t-4 -12q0 -8 4.5 -11t10.5 -3q8 0 14.5 3.5t14.5 8.5q15 10 37 19t61 9q46 0 80 -16t55.5 -43t32 -63.5t10.5 -76.5q0 -62 -22.5 -105.5t-56.5 -70.5t-75 -39.5t-78 -12.5q-34 0 -75.5 11t-78 38t-61 71.5
t-24.5 112.5h20q0 -62 22.5 -102.5t56 -65.5t71.5 -35t69 -10q34 0 71.5 11t68.5 36t51.5 64.5t20.5 96.5q0 37 -9 69.5t-28.5 57t-49.5 38.5t-71 14q-35 0 -54 -8t-32 -16q-11 -7 -20 -11.5t-21 -4.5q-15 0 -25 8t-10 26q0 14 6.5 23t14.5 15l244 216l7 7t3 7q0 6 -8 6
h-339v20z" />
    <glyph glyph-name="four" unicode="4" horiz-adv-x="620" 
d="M413 0v176h-312q-19 0 -25 9t-6 18q0 8 4 16.5t12 19.5l291 419q5 8 13 15t19 7q14 0 19 -9.5t5 -18.5v-456h123v-20h-123v-176h-20zM90 204q0 -8 11 -8h312v456q0 8 -6 8q-4 0 -8 -6q-2 -3 -4 -5l-293 -422l-8 -12t-4 -11z" />
    <glyph glyph-name="five" unicode="5" horiz-adv-x="620" 
d="M518 660h-333l-60 -289q-2 -10 -2 -12q0 -13 12 -13q8 0 16.5 8.5t16.5 20.5q10 13 23 28t32 28t45.5 21t63.5 8q44 0 83 -15t68 -44.5t46 -72.5t17 -99q0 -62 -18 -108t-49.5 -76t-74.5 -45t-92 -15q-59 0 -103.5 19.5t-74 51.5t-44.5 74.5t-15 87.5h20q0 -42 14 -80.5
t41 -68t67.5 -47t94.5 -17.5q45 0 84 14t68 41.5t45.5 69.5t16.5 99q0 51 -15.5 90.5t-41.5 66.5t-61.5 40.5t-75.5 13.5q-34 0 -58 -7.5t-41 -19t-28.5 -25t-20.5 -25.5q-12 -16 -22.5 -26.5t-26.5 -10.5q-13 0 -22.5 6.5t-9.5 26.5q0 5 0.5 8.5t1.5 7.5l64 305h349v-20z
" />
    <glyph glyph-name="six" unicode="6" horiz-adv-x="620" 
d="M538 223q0 45 -17.5 82.5t-47.5 64.5t-70 42.5t-85 15.5t-85 -15.5t-70 -42.5t-47.5 -64.5t-17.5 -82.5t16 -84.5t45.5 -69t70 -47t88.5 -17.5t88.5 17.5t70 47t45.5 69t16 84.5zM516 529q-10 46 -32.5 74.5t-50.5 44.5t-58.5 21.5t-56.5 5.5q-71 0 -115.5 -34
t-69.5 -86.5t-34 -115.5t-9 -121q0 -8 0.5 -15.5t0.5 -15.5q7 36 28.5 65.5t52 51t68 33t78.5 11.5q44 0 87 -15.5t77 -44.5t55 -71t21 -94q0 -51 -18.5 -94.5t-51 -75.5t-76 -50t-94.5 -18q-38 0 -70 9.5t-57 25.5t-44 35.5t-32 39.5q-29 45 -37 102.5t-8 123.5
q0 63 11 129.5t39 121t76 89t123 34.5q44 0 81.5 -12.5t66 -34.5t46.5 -52.5t23 -66.5h-20z" />
    <glyph glyph-name="seven" unicode="7" horiz-adv-x="620" 
d="M193 0l296 619q2 5 5.5 13t3.5 13q0 6 -3.5 10.5t-17.5 4.5h-391v20h391q28 0 35.5 -10t7.5 -19q0 -10 -4 -21t-7 -17l-292 -613h-24z" />
    <glyph glyph-name="eight" unicode="8" horiz-adv-x="620" 
d="M309 -15q-113 0 -177.5 52t-64.5 147q0 78 42 123.5t114 61.5q-27 7 -51.5 20.5t-43 32.5t-29.5 44.5t-11 57.5q0 47 21.5 79.5t54 53t71.5 29.5t74 9q43 0 83.5 -10.5t71.5 -31.5t49.5 -53t18.5 -76q0 -32 -11.5 -57.5t-30.5 -44.5t-44.5 -32.5t-52.5 -20.5
q73 -16 116 -61.5t43 -123.5q0 -95 -65.5 -147t-177.5 -52zM309 5q103 0 163 46.5t60 132.5q0 44 -16.5 76.5t-46 54t-70.5 32t-90 10.5q-50 0 -90.5 -10.5t-70 -32t-45.5 -54t-16 -76.5q0 -86 59 -132.5t163 -46.5zM309 377q33 0 69 8.5t65.5 26t49 45.5t19.5 67t-17 67
t-45 47t-65 28t-76 9q-32 0 -67.5 -8t-65 -25.5t-49 -46.5t-19.5 -71q0 -39 18.5 -67t48 -45.5t65 -26t69.5 -8.5z" />
    <glyph glyph-name="nine" unicode="9" horiz-adv-x="620" 
d="M102 149q10 -46 33.5 -74.5t52.5 -44t60 -20.5t57 -5q73 0 117.5 35.5t69.5 90t33.5 119.5t8.5 123v20q-8 -36 -29.5 -65.5t-52.5 -51t-68.5 -33t-78.5 -11.5q-47 0 -90 16t-76.5 45t-53.5 71t-20 95q0 51 20 94t53 74.5t76.5 49.5t90.5 18q35 0 66 -9.5t57.5 -25.5
t46.5 -35.5t33 -39.5q30 -45 38 -102.5t8 -123.5q0 -63 -11 -129.5t-39.5 -121t-76.5 -89t-123 -34.5q-47 0 -85.5 12t-67 34t-46.5 52t-23 66h20zM525 457q0 45 -17.5 84.5t-47.5 69t-70 47t-85 17.5t-85 -17t-70 -46.5t-47.5 -68.5t-17.5 -84t17 -82.5t46.5 -65.5
t69.5 -43.5t87 -15.5q45 0 85 15.5t70 42.5t47.5 64.5t17.5 82.5z" />
    <glyph glyph-name="colon" unicode=":" horiz-adv-x="171" 
d="M60 25q0 11 7 18.5t18 7.5t18.5 -7.5t7.5 -18.5t-7.5 -18t-18.5 -7t-18 7t-7 18zM60 474q0 11 7 18.5t18 7.5t18.5 -7.5t7.5 -18.5t-7.5 -18t-18.5 -7t-18 7t-7 18z" />
    <glyph glyph-name="semicolon" unicode=";" 
d="M60 474q0 11 7 18.5t18 7.5t18.5 -7.5t7.5 -18.5t-7.5 -18t-18.5 -7t-18 7t-7 18zM95 98v-98q0 -45 -9.5 -73.5t-34.5 -45.5v30q13 13 18.5 30.5t5.5 58.5v98h20z" />
    <glyph glyph-name="less" unicode="&#x3c;" horiz-adv-x="628" 
d="M119 284q-25 -12 -32 -18t-7 -16t7 -15.5t32 -17.5l429 -208v-22l-438 211q-26 13 -38 23t-12 29t12 29.5t38 23.5l438 211v-22z" />
    <glyph glyph-name="equal" unicode="=" horiz-adv-x="674" 
d="M80 330v20h514v-20h-514zM80 146v20h514v-20h-514z" />
    <glyph glyph-name="greater" unicode="&#x3e;" horiz-adv-x="628" 
d="M80 492v22l438 -211q26 -13 38 -23.5t12 -29.5t-12 -29t-38 -23l-438 -211v22l429 208q25 12 32 17.5t7 15.5t-7 16t-32 18z" />
    <glyph glyph-name="question" unicode="?" horiz-adv-x="514" 
d="M228 25q0 11 7 18.5t18 7.5t18.5 -7.5t7.5 -18.5t-7.5 -18t-18.5 -7t-18 7t-7 18zM243 182v69q0 21 7 37t24 32l86 81q31 29 55 62.5t24 77.5q0 24 -6.5 48.5t-25.5 44.5t-53.5 33t-90.5 13q-50 0 -87 -14.5t-61.5 -39t-36.5 -57.5t-12 -69h-20q0 6 1.5 23.5t8 40
t20 46.5t38 44t60.5 33t89 13q62 0 100.5 -15t59.5 -38t28.5 -51t7.5 -55q0 -23 -7 -44.5t-19 -40.5t-27.5 -36.5t-31.5 -32.5l-86 -81q-15 -14 -20 -26t-5 -29v-69h-20z" />
    <glyph glyph-name="at" unicode="@" horiz-adv-x="807" 
d="M711 132q-15 -19 -41 -44t-62 -48t-82.5 -39t-103.5 -16q-76 0 -142 25t-115 72t-77 114.5t-28 153.5q0 85 31.5 153t83 115t117 72t133.5 25q69 0 127.5 -22.5t102 -63.5t68 -97.5t24.5 -123.5q0 -50 -18.5 -99.5t-48.5 -88.5t-68.5 -63.5t-78.5 -24.5q-21 0 -33.5 6
t-19 14.5t-8.5 18t-2 16.5v5q-19 -22 -51 -41t-82 -19q-37 0 -62.5 13.5t-41 34.5t-22.5 47t-7 52q0 51 14.5 102t43 92.5t71 67t98.5 25.5q51 0 79.5 -21t47.5 -51l16 51h22l-96 -307q-5 -14 -7.5 -25.5t-2.5 -25.5q0 -5 1.5 -11t6 -11t13 -9t22.5 -4q36 0 71 22.5t62 59
t44 82t17 92.5q0 63 -23 115.5t-63.5 91t-96 59.5t-119.5 21q-65 0 -126.5 -23.5t-110.5 -68t-78.5 -108.5t-29.5 -145t26.5 -145t73 -108.5t108.5 -68t134 -23.5q49 0 90 13t74 32t58 41.5t41 40.5h26zM550 468q-8 16 -18 30t-24 24.5t-33 17t-44 6.5q-51 0 -89.5 -24
t-64.5 -62.5t-39.5 -86t-13.5 -94.5q0 -22 6 -44.5t19 -41t34.5 -30t53.5 -11.5q38 0 64.5 13t44 30.5t26.5 35.5t12 28z" />
    <glyph glyph-name="A" unicode="A" horiz-adv-x="686" 
d="M543 247h-400l-101 -247h-22l271 650q11 27 22 38.5t30 11.5t30.5 -11.5t22.5 -38.5l270 -650h-22zM151 267h384l-158 374q-11 26 -17.5 33t-16.5 7t-16 -7t-17 -33z" />
    <glyph glyph-name="B" unicode="B" horiz-adv-x="691" 
d="M609 530q0 -38 -11.5 -67t-30 -50.5t-43.5 -34.5t-52 -19q77 -12 118 -57t41 -111q0 -47 -15.5 -79.5t-39.5 -53.5t-53 -33t-56 -17.5t-48.5 -6.5t-30.5 -1h-308v700h292q109 0 173 -42.5t64 -127.5zM611 191q0 33 -12 61.5t-38.5 49.5t-69 33t-103.5 12h-288v-327h288
q8 0 28 1t44.5 6t51 15.5t49 29.5t36.5 48t14 71zM100 680v-313h289q29 0 64 6.5t65 24.5t50.5 49.5t20.5 82.5q0 75 -58.5 112.5t-158.5 37.5h-272z" />
    <glyph glyph-name="C" unicode="C" horiz-adv-x="787" 
d="M725 244q-17 -80 -54 -130.5t-82.5 -79t-94.5 -39t-90 -10.5q-34 0 -72.5 7t-76.5 23.5t-73.5 43.5t-62.5 67.5t-43 96t-16 128.5q0 108 34.5 178.5t87 111.5t113 57.5t113.5 16.5q41 0 90.5 -14.5t95 -45t81.5 -77.5t50 -112h-21q-14 59 -47.5 102.5t-76.5 71.5
t-89 41.5t-83 13.5q-50 0 -107 -15.5t-106.5 -54.5t-82 -105.5t-32.5 -168.5q0 -69 15 -121t40.5 -90.5t59 -64.5t69.5 -41.5t72 -22t68 -6.5q37 0 82.5 9.5t88 35.5t77.5 72.5t52 121.5h21z" />
    <glyph glyph-name="D" unicode="D" horiz-adv-x="715" 
d="M80 700h224q26 0 62 -2t75 -12t77.5 -31t68.5 -60t49 -98.5t19 -146.5q0 -75 -16 -130t-43 -94t-63 -63.5t-75.5 -38.5t-80.5 -19t-78 -5h-219v700zM100 20h199q53 0 112 12t109 47.5t82.5 100t32.5 170.5q0 82 -17.5 138t-46.5 93t-65 57t-72.5 29.5t-71 11t-58.5 1.5
h-204v-660z" />
    <glyph glyph-name="E" unicode="E" horiz-adv-x="648" 
d="M100 20h488v-20h-508v700h508v-20h-488v-318h397v-20h-397v-322z" />
    <glyph glyph-name="F" unicode="F" horiz-adv-x="590" 
d="M100 362h350v-20h-350v-342h-20v700h450v-20h-430v-318z" />
    <glyph glyph-name="G" unicode="G" horiz-adv-x="814" 
d="M724 0v228q-14 -42 -39 -85.5t-63.5 -78.5t-92 -57t-124.5 -22q-102 0 -169 36t-106 91t-54.5 119t-15.5 121q0 38 6.5 79.5t22 82t41 77t64 64t90.5 44t120 16.5q55 0 97.5 -11t75 -28.5t56 -40t40.5 -45.5q38 -55 51 -124h-20q-11 64 -47 114q-15 21 -37.5 42t-53 37
t-71 26t-91.5 10q-96 0 -159 -33.5t-99.5 -84.5t-51 -111t-14.5 -114t14.5 -114.5t51.5 -112.5t100 -86t159 -34q60 0 106.5 16.5t81.5 43.5t59.5 61t40 69.5t23 69t8.5 59.5h-299v20h319v-344h-20z" />
    <glyph glyph-name="H" unicode="H" horiz-adv-x="730" 
d="M100 343v-343h-20v700h20v-337h530v337h20v-700h-20v343h-530z" />
    <glyph glyph-name="I" unicode="I" 
d="M80 700h20v-700h-20v700z" />
    <glyph glyph-name="J" unicode="J" horiz-adv-x="485" 
d="M50 172q0 -35 9.5 -65.5t30 -53t53 -35.5t79.5 -13q44 0 78 9t57.5 35.5t35.5 74t12 124.5v452h20v-452q0 -83 -13.5 -134.5t-39.5 -80t-64 -38.5t-86 -10q-52 0 -88.5 14.5t-59.5 39.5t-33.5 59.5t-10.5 73.5h20z" />
    <glyph glyph-name="K" unicode="K" horiz-adv-x="675" 
d="M619 0l-314 350l-72 -78q-13 -14 -30.5 -23.5t-42.5 -9.5h-60v-239h-20v700h20v-441h60q35 0 59 27l380 414h27l-308 -335l327 -365h-26z" />
    <glyph glyph-name="L" unicode="L" horiz-adv-x="547" 
d="M100 700v-637q0 -43 41 -43h386v-20h-386q-61 0 -61 63v637h20z" />
    <glyph glyph-name="M" unicode="M" horiz-adv-x="852" 
d="M80 0v657q0 25 9.5 34t22.5 9q15 0 26 -15.5t16 -28.5l249 -612q4 -9 9 -16.5t14 -7.5t14 7.5t9 16.5l252 617q5 13 15 26t24 13q13 0 22.5 -9t9.5 -34v-657h-20v657q0 23 -12 23q-7 0 -12 -9t-9 -18l-252 -617q-5 -12 -14.5 -24t-26.5 -12t-26.5 12t-14.5 24l-249 612
q-4 10 -10 21t-14 11q-12 0 -12 -23v-657h-20z" />
    <glyph glyph-name="N" unicode="N" horiz-adv-x="720" 
d="M80 0v664q0 17 7.5 26.5t24.5 9.5q11 0 21 -8.5t15 -16.5l442 -639q4 -5 9 -10.5t11 -5.5q4 0 7 3.5t3 14.5v662h20v-662q0 -22 -9.5 -30t-20.5 -8q-15 0 -23.5 9t-13.5 17l-441 637q-4 5 -9.5 11t-10.5 6q-12 0 -12 -16v-664h-20z" />
    <glyph glyph-name="O" unicode="O" horiz-adv-x="847" 
d="M428 695q-77 0 -140.5 -25t-110 -70.5t-72 -109t-25.5 -139.5q0 -77 25 -140.5t70.5 -109t108.5 -71t140 -25.5q76 0 139.5 25.5t108.5 71t70 109t25 140.5q0 76 -24.5 139.5t-68.5 109t-107 70.5t-139 25zM428 715q81 0 147 -26.5t113.5 -74.5t73 -115t25.5 -148
t-26.5 -148.5t-74 -115.5t-114.5 -75t-148 -27t-148 27t-115 75t-74.5 115.5t-26.5 148.5t27 148t76 115t116.5 74.5t148.5 26.5z" />
    <glyph glyph-name="P" unicode="P" horiz-adv-x="626" 
d="M80 0v700h264q66 0 112.5 -18.5t75 -48.5t41.5 -67.5t13 -74.5q0 -38 -13 -76t-42.5 -69.5t-76 -51t-112.5 -19.5h-242v-275h-20zM100 295h242q61 0 103.5 18t69.5 46.5t39 63t12 68.5t-12 67.5t-38 60.5t-68.5 44t-103.5 17h-244v-385z" />
    <glyph glyph-name="Q" unicode="Q" horiz-adv-x="847" 
d="M428 715q81 0 147 -26.5t113.5 -74.5t73 -115t25.5 -148q0 -111 -47.5 -194t-131.5 -128q22 -9 48 -14t60 -5v-20q-42 0 -74 7t-57 20q-36 -15 -76 -23.5t-85 -8.5q-81 0 -148 27t-115 75t-74.5 115.5t-26.5 148.5t27 148t76 115t116.5 74.5t148.5 26.5zM428 695
q-77 0 -140.5 -25t-110 -70.5t-72 -109t-25.5 -139.5q0 -78 24 -139q14 7 48.5 19.5t79.5 12.5q57 0 98 -11t71 -29t52 -40.5t43 -45.5q20 -22 41 -42.5t49 -35.5q85 41 133 121.5t48 189.5q0 76 -24.5 139.5t-68.5 109t-107 70.5t-139 25zM232 224q-42 0 -74.5 -12
t-45.5 -19q40 -88 121 -138t191 -50q77 0 139 25q-24 16 -43 35t-38 39q-20 22 -41 43.5t-49.5 38.5t-67 27.5t-92.5 10.5z" />
    <glyph glyph-name="R" unicode="R" horiz-adv-x="636" 
d="M571 0l-221 275h-250v-275h-20v700h269q45 0 88 -13t76 -39t53.5 -66.5t20.5 -94.5q0 -51 -17.5 -89t-47 -64t-68 -40.5t-79.5 -17.5l222 -276h-26zM100 295h249q41 0 80.5 11.5t70 35.5t49 60t18.5 85t-18.5 85.5t-49 60.5t-70 35.5t-80.5 11.5h-249v-385z" />
    <glyph glyph-name="S" unicode="S" horiz-adv-x="663" 
d="M75 215q0 -37 13 -74.5t43 -67.5t79.5 -49t123.5 -19q68 0 116.5 14t79 37.5t44.5 53t14 60.5q0 41 -21.5 68.5t-57 47t-80.5 33.5t-92 26q-50 13 -97.5 27.5t-85 36t-60 53t-22.5 78.5q0 53 24 87t61 53.5t80 27t81 7.5q48 0 85 -8.5t64.5 -22.5t46.5 -32t31 -37
q29 -44 34 -100h-20q-5 50 -32 90q-12 17 -29.5 33t-42.5 29t-59 20.5t-78 7.5q-35 0 -74.5 -6.5t-73.5 -24t-56 -47.5t-22 -77q0 -41 21.5 -69t56.5 -47.5t80.5 -33t92.5 -25.5q49 -13 97 -27.5t85 -36t60 -53t23 -78.5q0 -35 -15.5 -68t-48.5 -59t-85 -42t-125 -16
q-80 0 -133.5 20.5t-86 53.5t-46 74t-13.5 82h20z" />
    <glyph glyph-name="T" unicode="T" horiz-adv-x="624" 
d="M30 680v20h564v-20h-272v-680h-20v680h-272z" />
    <glyph glyph-name="U" unicode="U" horiz-adv-x="673" 
d="M85 700v-395q0 -20 1.5 -50t8.5 -63.5t22.5 -66.5t43.5 -60t70.5 -43.5t104.5 -16.5t104.5 16.5t70.5 43.5t43.5 60t23 66.5t9 63.5t1.5 50v395h20v-395q0 -22 -1.5 -54t-9.5 -67.5t-25 -71t-47 -64t-76 -46t-113 -17.5t-113 17.5t-76 46t-46.5 64t-24.5 71t-9.5 67.5
t-1.5 54v395h20z" />
    <glyph glyph-name="V" unicode="V" horiz-adv-x="666" 
d="M624 700h22l-260 -650q-11 -27 -22.5 -38.5t-30.5 -11.5t-30 11.5t-22 38.5l-261 650h22l258 -641q11 -26 17 -32.5t16 -6.5t16.5 6.5t17.5 32.5z" />
    <glyph glyph-name="W" unicode="W" horiz-adv-x="1020" 
d="M767 0q-19 0 -31.5 11t-20.5 39l-184 609q-3 9 -8 15t-13 6t-13 -6t-8 -15l-183 -609q-8 -27 -21 -38.5t-32 -11.5t-31.5 11.5t-20.5 38.5l-191 650h22l188 -641q8 -26 15.5 -32.5t17.5 -6.5t18 6.5t16 32.5l183 605q3 9 12 22.5t28 13.5q17 0 26 -10t13 -24l185 -607
q8 -26 15.5 -32.5t17.5 -6.5t18 6.5t16 32.5l187 641h22l-190 -650q-8 -28 -21 -39t-32 -11z" />
    <glyph glyph-name="X" unicode="X" horiz-adv-x="562" 
d="M314 326q-13 22 -19 26t-14 4t-14 -4t-19 -26l-190 -326h-22l193 334q14 24 24 32q-9 7 -24 32l-199 302h22l196 -294q7 -11 12 -17t8 -9t6 -3.5t7 -0.5q10 0 14.5 3.5t18.5 23.5l196 297h22l-199 -302l-13 -19.5t-11 -12.5q7 -5 12.5 -13.5t11.5 -18.5l193 -334h-22z
" />
    <glyph glyph-name="Y" unicode="Y" horiz-adv-x="634" 
d="M307 0v271q-11 2 -23 10t-21 23l-243 396h23l236 -384q18 -26 38 -26t37 26l236 384h24l-244 -396q-9 -15 -20.5 -23t-22.5 -10v-271h-20z" />
    <glyph glyph-name="Z" unicode="Z" horiz-adv-x="624" 
d="M65 700h461q20 0 29.5 -11t9.5 -24q0 -11 -4 -19.5t-9 -15.5l-469 -567q-13 -16 -13 -27q0 -5 4.5 -10.5t15.5 -5.5h484v-20h-484q-21 0 -30.5 11t-9.5 25q0 10 3 18.5t14 20.5l469 567q4 5 6.5 10.5t2.5 12.5q0 5 -5 10t-14 5h-461v20z" />
    <glyph glyph-name="bracketleft" unicode="[" horiz-adv-x="285" 
d="M235 715h-74q-7 0 -14 -3t-7 -19v-861q0 -16 7 -19t14 -3h74v-20h-74q-6 0 -13.5 1t-13.5 5t-10 12.5t-4 23.5v861q0 15 4 23.5t10 12.5t13.5 5t13.5 1h74v-20z" />
    <glyph glyph-name="backslash" unicode="\" horiz-adv-x="380" 
d="M347 -15l-337 730h23l337 -730h-23z" />
    <glyph glyph-name="bracketright" unicode="]" horiz-adv-x="285" 
d="M50 735h74q6 0 13.5 -1t13.5 -5t10 -12.5t4 -23.5v-861q0 -15 -4 -23.5t-10 -12.5t-13.5 -5t-13.5 -1h-74v20h74q7 0 14 3t7 19v861q0 16 -7 19t-14 3h-74v20z" />
    <glyph glyph-name="asciicircum" unicode="^" horiz-adv-x="570" 
d="M72 247h-22l181 403q12 26 23.5 38t30.5 12t30.5 -12t23.5 -38l181 -403h-22l-178 394q-11 25 -18 32t-17 7t-17 -7t-18 -32z" />
    <glyph glyph-name="underscore" unicode="_" horiz-adv-x="520" 
d="M10 -125v20h500v-20h-500z" />
    <glyph glyph-name="grave" unicode="`" horiz-adv-x="283" 
d="M89 700l134 -144h-29l-134 144h29z" />
    <glyph glyph-name="a" unicode="a" horiz-adv-x="539" 
d="M82 360q0 3 1 16t6.5 30.5t17.5 36.5t34 35t55 26.5t82 10.5q62 0 96.5 -20.5t51 -47.5t20 -54.5t3.5 -41.5v-276q0 -12 2 -22t8 -17.5t18 -11.5t32 -4v-20q-27 0 -42.5 5.5t-24 15.5t-11 24t-2.5 30v32q-26 -54 -79.5 -88t-128.5 -34q-50 0 -82.5 12t-51 30.5t-25.5 41
t-7 42.5q0 35 18 59t46.5 40t65 27t73.5 20q31 7 61 16t54 21t39 28t17 38q0 16 -5 39t-20.5 44.5t-45.5 36.5t-80 15q-66 0 -102 -19.5t-52.5 -44t-19 -46t-2.5 -25.5h-20zM221 5q46 0 84.5 14.5t66 39.5t42.5 58.5t15 71.5v120q-12 -14 -30 -25t-40 -19t-47 -15t-50 -13
q-35 -9 -68.5 -18.5t-59.5 -23.5t-42.5 -34t-16.5 -50q0 -17 6 -36t22.5 -34.5t45 -25.5t72.5 -10z" />
    <glyph glyph-name="b" unicode="b" horiz-adv-x="598" 
d="M100 700v-331q12 31 31 58t46 46.5t61 30.5t76 11q59 0 103 -22t73 -59t43.5 -84t14.5 -96q0 -50 -14 -98t-43 -86t-73 -61.5t-103 -23.5q-42 0 -76.5 12.5t-61 33.5t-46 49.5t-31.5 61.5v-142h-20v700h20zM100 257q0 -46 13.5 -91t40 -81t67 -58t94.5 -22t94 21.5
t66.5 57t39.5 80t13 90.5t-13 89t-40 77t-67 54.5t-94 20.5q-53 0 -92.5 -19.5t-66 -52t-40.5 -75.5t-15 -91z" />
    <glyph glyph-name="c" unicode="c" horiz-adv-x="554" 
d="M501 173q0 -18 -9.5 -49.5t-33.5 -62.5t-65 -53.5t-104 -22.5q-66 0 -111.5 23t-74 60.5t-41 84.5t-12.5 96q0 37 8.5 83.5t34 87t72.5 68t124 27.5q56 0 96.5 -20.5t66 -50t37.5 -61.5t12 -56h-20q0 21 -11 50t-34 55.5t-59.5 44.5t-87.5 18q-71 0 -114 -25.5t-66 -63
t-31 -80.5t-8 -77q0 -45 11.5 -89t37.5 -78.5t68 -55.5t102 -21q57 0 94 20.5t59 48t30.5 55.5t8.5 44h20z" />
    <glyph glyph-name="d" unicode="d" horiz-adv-x="598" 
d="M498 0v142q-12 -33 -31.5 -61.5t-46.5 -49.5t-61 -33.5t-76 -12.5q-59 0 -103 23.5t-73 61.5t-43 86t-14 98q0 49 14.5 96t43.5 84t73 59t103 22q42 0 76 -11t60.5 -30.5t46 -46.5t31.5 -58v331h20v-700h-20zM498 257q0 46 -13 89t-40 76t-67 53t-94 20t-94 -20.5
t-67 -54.5t-40 -77t-13 -89t13 -90.5t39.5 -80t66.5 -57t94 -21.5q52 0 92 21t66.5 55.5t40.5 78t16 88.5v9z" />
    <glyph glyph-name="e" unicode="e" horiz-adv-x="562" 
d="M70 244q0 -79 23 -126t56.5 -72t71.5 -33t70 -8q48 0 82.5 18t58 43.5t36.5 54t17 49.5h20q-4 -24 -18 -56t-40 -60.5t-64.5 -48.5t-91.5 -20q-35 0 -76.5 8.5t-78.5 36.5t-61.5 79.5t-24.5 138.5q0 65 14.5 110.5t36.5 75t49.5 46t53 24.5t47 9.5t31.5 1.5t31 -1.5
t46.5 -9.5t52.5 -24.5t49.5 -46.5t36.5 -76t14 -113h-442zM282 495q-9 0 -27.5 -1.5t-41.5 -8t-47.5 -21t-45 -40t-34.5 -65t-16 -95.5h422q-1 56 -15 95t-34 64.5t-44.5 40t-47.5 21.5t-41.5 8.5t-27.5 1.5z" />
    <glyph glyph-name="f" unicode="f" horiz-adv-x="250" 
d="M10 500h86v63q0 27 2 52t12 44t30 30t56 11h41v-20h-41q-29 0 -45 -9.5t-23.5 -25.5t-9.5 -37t-2 -45v-63h111v-20h-111v-480h-20v480h-86v20z" />
    <glyph glyph-name="g" unicode="g" horiz-adv-x="578" 
d="M50 276q0 52 15.5 96t44.5 76t71 49.5t96 17.5q38 0 70 -10t57.5 -28t44 -42.5t29.5 -52.5v118h20v-455q0 -54 -13 -97t-39 -74t-64.5 -47.5t-90.5 -16.5q-39 0 -69 7t-52.5 18t-38 26t-25.5 30q-24 36 -28 82h20q3 -40 25 -72q18 -27 57.5 -49t110.5 -22q93 0 140 58.5
t47 156.5v117q-23 -58 -75.5 -97.5t-131.5 -39.5q-51 0 -92 19.5t-69.5 53.5t-44 79.5t-15.5 98.5zM70 276q0 -48 14 -90t40 -73.5t63 -49.5t84 -18q52 0 90.5 19.5t64.5 52t39 73t13 82.5t-12.5 82t-37.5 71.5t-63 50.5t-88 19q-49 0 -87.5 -16t-65 -45.5t-40.5 -69.5
t-14 -88z" />
    <glyph glyph-name="h" unicode="h" horiz-adv-x="561" 
d="M80 0v700h20v-309q22 55 70 89.5t126 34.5q55 0 91.5 -16.5t58.5 -44.5t31 -64t9 -76v-314h-20v314q0 36 -8 69t-27.5 57.5t-52.5 39.5t-82 15q-51 0 -88 -16.5t-61 -45t-35.5 -66t-11.5 -80.5v-287h-20z" />
    <glyph glyph-name="i" unicode="i" 
d="M100 0h-20v500h20v-500zM65 674q0 11 7 18.5t18 7.5t18.5 -7.5t7.5 -18.5t-7.5 -18t-18.5 -7t-18 7t-7 18z" />
    <glyph glyph-name="j" unicode="j" horiz-adv-x="184" 
d="M69 674q0 11 7 18.5t18 7.5t18.5 -7.5t7.5 -18.5t-7.5 -18t-18.5 -7t-18 7t-7 18zM104 500v-513q0 -44 -2.5 -77t-14.5 -55t-37 -33.5t-70 -11.5v20q38 0 59 9.5t31 28.5t12 48.5t2 70.5v513h20z" />
    <glyph glyph-name="k" unicode="k" horiz-adv-x="561" 
d="M484 0l-233 279l-65 -63q-14 -14 -33.5 -23.5t-39.5 -9.5h-13v-183h-20v700h20v-497h13q18 0 32 7t27 20l275 270h28l-210 -207l245 -293h-26z" />
    <glyph glyph-name="l" unicode="l" 
d="M80 700h20v-700h-20v700z" />
    <glyph glyph-name="m" unicode="m" horiz-adv-x="837" 
d="M80 0v500h20v-115q20 57 61.5 93.5t109.5 36.5q43 0 71.5 -12t46.5 -31.5t27 -44.5t12 -51q9 30 24.5 55t37 44t49.5 29.5t63 10.5q55 0 87 -19.5t48.5 -49t20.5 -64t4 -64.5v-318h-20v318q0 27 -3.5 58t-17.5 57.5t-42 44t-77 17.5q-46 0 -78.5 -20t-53 -52.5t-30 -74.5
t-9.5 -86v-262h-20v318q0 27 -3.5 58t-17.5 57.5t-42 44t-77 17.5q-46 0 -78.5 -20t-53 -52.5t-30 -74.5t-9.5 -86v-262h-20z" />
    <glyph glyph-name="n" unicode="n" horiz-adv-x="561" 
d="M80 0v500h20v-109q22 55 70 89.5t126 34.5q55 0 91.5 -16.5t58.5 -44.5t31 -64t9 -76v-314h-20v314q0 36 -8 69t-27.5 57.5t-52.5 39.5t-82 15q-51 0 -88 -16.5t-61 -45t-35.5 -66t-11.5 -80.5v-287h-20z" />
    <glyph glyph-name="o" unicode="o" horiz-adv-x="584" 
d="M70 257q0 -46 13 -91t40.5 -81t69.5 -58t99 -22t99 21.5t69.5 57t40.5 80t13 90.5t-13 89t-40.5 77t-69.5 54.5t-99 20.5t-99 -20t-69.5 -53t-40.5 -76t-13 -89zM50 257q0 49 14.5 95.5t44 82.5t75 58t108.5 22t108.5 -22t75 -59t44 -84t14.5 -96q0 -50 -14.5 -98
t-44 -86t-75 -61.5t-108.5 -23.5t-108.5 24t-75 62.5t-44 87t-14.5 98.5z" />
    <glyph glyph-name="p" unicode="p" horiz-adv-x="598" 
d="M80 500h20v-138q12 32 31.5 60t46 48.5t60.5 32.5t76 12q59 0 103 -23t73 -60.5t43.5 -85.5t14.5 -97q0 -50 -14 -97t-43 -84.5t-73 -60t-103 -22.5q-42 0 -76.5 11.5t-61 32t-46 48.5t-31.5 61v-328h-20v690zM314 495q-53 0 -93 -21.5t-67 -55.5t-40.5 -76t-13.5 -84
v-15q0 -45 14 -87.5t41 -76t67 -54t93 -20.5q54 0 94 21t66.5 55.5t39.5 78t13 89.5t-13 90t-40 78.5t-67 56t-94 21.5z" />
    <glyph glyph-name="q" unicode="q" horiz-adv-x="598" 
d="M518 -190h-20v328q-12 -33 -31.5 -61t-46 -48.5t-61 -32t-76.5 -11.5q-59 0 -103 22.5t-73 60t-43 84.5t-14 97q0 49 14.5 97t43.5 85.5t73 60.5t103 23q42 0 76 -12t60.5 -32.5t46 -48.5t31.5 -60v138h20v-690zM284 495q-54 0 -94 -21.5t-67 -56t-40 -78.5t-13 -90
t13 -89.5t39.5 -78t66.5 -55.5t94 -21q53 0 93 20.5t67 54t41 76t14 87.5v15q0 42 -13.5 84t-40.5 76t-67 55.5t-93 21.5z" />
    <glyph glyph-name="r" unicode="r" horiz-adv-x="310" 
d="M80 0v500h20v-130q10 38 29.5 65.5t45 45t56.5 26t65 8.5h4v-20h-4q-35 0 -69.5 -11.5t-63 -41t-46 -79.5t-17.5 -128v-235h-20z" />
    <glyph glyph-name="s" unicode="s" horiz-adv-x="515" 
d="M80 158q0 -15 5.5 -41t25 -51t56.5 -43t100 -18q83 0 125.5 35t42.5 88q0 28 -14 46.5t-37.5 30.5t-53 19.5t-60.5 13.5q-35 7 -69 16t-60.5 24t-43 38.5t-16.5 61.5q0 24 9 48.5t29 44t53 32t80 12.5q85 0 136 -35.5t51 -100.5h-20q0 56 -45.5 86t-121.5 30
q-42 0 -71 -10.5t-46.5 -27.5t-25.5 -38t-8 -41q0 -31 15 -51t39.5 -33t55.5 -21t63 -15q34 -7 66.5 -15.5t58 -22.5t41 -36t15.5 -56q0 -62 -47.5 -102.5t-140.5 -40.5q-70 0 -111 20.5t-62 48.5t-27.5 57t-6.5 47h20z" />
    <glyph glyph-name="t" unicode="t" horiz-adv-x="325" 
d="M15 500h115v176h20v-176h135v-20h-135v-377q0 -12 1 -26.5t8.5 -27t22.5 -21t44 -8.5h35v-20h-35q-36 0 -55.5 10.5t-28.5 26t-10.5 33.5t-1.5 33v377h-115v20z" />
    <glyph glyph-name="u" unicode="u" horiz-adv-x="561" 
d="M95 500v-314q0 -36 8 -69t27.5 -57.5t52.5 -39.5t82 -15q50 0 87 16.5t61 45t36 66t12 80.5v287h20v-500h-20v109q-23 -55 -70.5 -89.5t-125.5 -34.5q-55 0 -91.5 16.5t-58.5 44t-31 64t-9 76.5v314h20z" />
    <glyph glyph-name="v" unicode="v" horiz-adv-x="518" 
d="M466 500h22l-177 -453q-9 -24 -21 -35.5t-31 -11.5t-30 12t-22 39l-177 449h22l174 -441q10 -26 17.5 -33t15.5 -7t16.5 7t18.5 33z" />
    <glyph glyph-name="w" unicode="w" horiz-adv-x="991" 
d="M939 500h22l-175 -449q-11 -27 -23 -39t-31 -12t-30 12t-22 39l-172 411q-8 18 -13 18q-6 0 -13 -18l-169 -411q-11 -27 -23 -39t-31 -12t-30 12t-22 39l-177 449h22l174 -441q10 -26 17.5 -32.5t15.5 -6.5q10 0 16.5 6.5t17.5 32.5l172 414q5 11 12 19t18 8t18 -8
t12 -19l174 -414q11 -26 18 -32.5t15 -6.5t16 6.5t18 32.5z" />
    <glyph glyph-name="x" unicode="x" horiz-adv-x="435" 
d="M249 220q-13 21 -19 24.5t-16 3.5q-8 0 -14 -3.5t-19 -24.5l-129 -220h-22l132 228q7 11 13 18.5t11 12.5q-9 7 -24 30l-132 211h22l129 -203q13 -22 19 -25.5t14 -3.5q10 0 15.5 3.5t19.5 25.5l134 203h22l-137 -211q-15 -24 -25 -30q6 -5 12 -12.5t13 -18.5l137 -228
h-22z" />
    <glyph glyph-name="y" unicode="y" horiz-adv-x="533" 
d="M278 20l198 480h22l-251 -618q-11 -26 -24.5 -40.5t-30 -21.5t-36.5 -8.5t-42 -1.5h-33v20h33q25 0 42.5 1.5t31 8.5t24 20t19.5 36l42 104h-14q-19 0 -30 11.5t-22 38.5l-172 450h22l169 -442q10 -26 17.5 -32t15.5 -6h19z" />
    <glyph glyph-name="z" unicode="z" horiz-adv-x="432" 
d="M40 500h326q17 0 26.5 -9t9.5 -24q0 -14 -5 -23t-10 -14l-320 -363q-17 -19 -17 -33q0 -3 2.5 -8.5t13.5 -5.5h336v-20h-336q-12 0 -19.5 4t-11 9.5t-4.5 11t-1 9.5q0 14 5.5 25t16.5 22l321 363q3 4 6 9t3 13q0 14 -16 14h-326v20z" />
    <glyph glyph-name="braceleft" unicode="{" horiz-adv-x="381" 
d="M296 -210h-46q-44 0 -60.5 28t-16.5 94v242q0 29 -6 42.5t-18 24.5l-28 25q-20 18 -20 33q0 17 19 36l29 28q16 16 20 29.5t4 37.5v216q0 17 2 36t10 35.5t23 27t42 10.5h46v-20h-46q-20 0 -31.5 -8.5t-17 -22t-7 -29t-1.5 -29.5v-216q0 -28 -4.5 -44.5t-25.5 -36.5
l-29 -28q-13 -12 -13 -22q0 -8 12 -18l30 -26q15 -14 22.5 -31t7.5 -50v-242q0 -56 12.5 -79t44.5 -23h46v-20z" />
    <glyph glyph-name="bar" unicode="|" horiz-adv-x="200" 
d="M110 -205h-20v991h20v-991z" />
    <glyph glyph-name="braceright" unicode="}" horiz-adv-x="381" 
d="M85 -190h46q32 0 44.5 23t12.5 79v242q0 33 7.5 50t22.5 31l30 26q12 10 12 18q0 10 -13 22l-29 28q-21 20 -25.5 36.5t-4.5 44.5v216q0 14 -1.5 29.5t-7 29t-17 22t-31.5 8.5h-46v20h46q27 0 42 -10.5t23 -27t10 -35.5t2 -36v-216q0 -24 3.5 -37.5t20.5 -29.5l29 -28
q11 -11 15 -19.5t4 -16.5q0 -15 -20 -33l-28 -25q-12 -11 -18 -24.5t-6 -42.5v-242q0 -66 -16.5 -94t-60.5 -28h-46v20z" />
    <glyph glyph-name="asciitilde" unicode="~" horiz-adv-x="539" 
d="M50 200q4 28 16 50q11 19 31.5 34.5t57.5 15.5q35 0 64 -12.5t61 -30.5q25 -14 51 -25.5t56 -11.5t46.5 12.5t24.5 27.5q9 18 11 40h20q-2 -28 -13 -50q-10 -19 -30.5 -34.5t-58.5 -15.5q-35 0 -62.5 12.5t-53.5 26.5q-27 14 -54.5 27.5t-61.5 13.5q-30 0 -47 -12.5
t-25 -27.5q-10 -18 -13 -40h-20z" />
    <glyph glyph-name="uni00A0" unicode="&#xa0;" horiz-adv-x="0" 
 />
    <glyph glyph-name="exclamdown" unicode="&#xa1;" horiz-adv-x="291" 
d="M135 -184.957h20v502.969h-20v-502.969zM120 490.002q0 -11 7 -18.499q7 -7.5 18 -7.5t18.5 7.5q7.5 7.49902 7.5 18.499q0 10.999 -7.5 17.998q-7.5 7 -18.5 7t-18 -7q-7 -6.99902 -7 -17.998z" />
    <glyph glyph-name="cent" unicode="&#xa2;" horiz-adv-x="554" 
d="M501 173q0 -18 -9 -48.5t-32 -60.5t-62 -53t-99 -25v-86h-20v85q-63 2 -106.5 25.5t-71 60.5t-39.5 83.5t-12 94.5q0 36 8 81.5t32.5 85.5t69.5 68t119 30v86h20v-85q53 -2 91.5 -23t63 -50t36 -60.5t11.5 -54.5h-20q0 21 -10.5 49t-32.5 53.5t-56.5 44.5t-82.5 21v-490
q54 2 89 22.5t55.5 48t29 55t8.5 42.5h20zM70 249q0 -44 11 -87t35.5 -77.5t64.5 -56t98 -23.5v489q-67 -2 -108 -28t-63.5 -63t-30 -79t-7.5 -75z" />
    <glyph glyph-name="sterling" unicode="&#xa3;" horiz-adv-x="595" 
d="M470 545q0 39 -15.5 64.5t-39.5 41.5t-53 22.5t-57 6.5q-54 0 -85 -16.5t-46.5 -42t-19.5 -56.5t-4 -61v-101h143v-20h-143v-224q0 -23 -5.5 -39t-13.5 -27.5t-18.5 -19t-19.5 -13.5q-9 -7 -16 -12.5t-7 -13.5q0 -14 13 -14h312q57 0 93.5 28t36.5 88h20q0 -68 -42 -102
t-108 -34h-312q-13 0 -23 8t-10 26q0 12 6 20t26 22q17 11 32.5 28t15.5 55v224h-61v20h61v102q0 33 4.5 67.5t21.5 63t52 46.5t97 18q31 0 63.5 -7.5t59.5 -25.5t44.5 -47.5t17.5 -74.5h-20z" />
    <glyph glyph-name="yen" unicode="&#xa5;" horiz-adv-x="604" 
d="M313 226v-226h-20v226h-247v20h247v54q-14 4 -21 15t-21 31l-17 24h-188v20h174l-200 290h22l228 -325q14 -20 19.5 -27.5t13.5 -7.5t13.5 7.5t19.5 27.5l226 325h22l-199 -290h175v-20h-189l-16 -24q-14 -20 -21 -31t-21 -15v-54h247v-20h-247z" />
    <glyph glyph-name="brokenbar" unicode="&#xa6;" 
d="M80 700h20v-261h-20v261zM80 246h20v-261h-20v261z" />
    <glyph glyph-name="section" unicode="&#xa7;" horiz-adv-x="543" 
d="M116 0q0 -18 4 -46.5t20 -56t48.5 -47.5t89.5 -20q33 0 58.5 10.5t43 27.5t26.5 39t9 45q0 27 -10.5 48.5t-26 37.5t-33.5 28.5t-33 21.5l-160 101q-12 7 -29 19.5t-33.5 31t-28 44.5t-11.5 59t12 58t29 43t35.5 29.5t30.5 17.5q-32 28 -41 51t-9 50q0 25 9 47t28 39
t48.5 27t70.5 10q81 0 126.5 -45t45.5 -129h-20q0 75 -40 114.5t-112 39.5q-71 0 -103.5 -30.5t-32.5 -72.5q0 -14 2.5 -26.5t10.5 -25t21.5 -26t36.5 -29.5l192 -118q13 -8 31 -21t34 -31.5t27 -44t11 -59.5q0 -31 -13 -55t-32 -42t-39 -29.5t-33 -17.5q23 -20 41 -47.5
t18 -67.5q0 -27 -10.5 -52.5t-31 -45.5t-49.5 -32t-66 -12q-64 0 -100.5 22t-54.5 53t-22.5 63t-4.5 52h20zM323 104q8 -5 17.5 -11t18.5 -13q8 3 27 12t38.5 25t34 39.5t14.5 54.5q0 30 -9.5 53t-24 40t-31.5 28.5t-31 20.5l-191 116l-13 9q-7 -3 -24 -12t-34.5 -25.5
t-31 -40.5t-13.5 -57q0 -29 11 -52t26.5 -40.5t32.5 -30t30 -20.5z" />
    <glyph glyph-name="dieresis" unicode="&#xa8;" horiz-adv-x="237" 
d="M5 821q0 11 7 18.5t18 7.5t18.5 -7.5t7.5 -18.5t-7.5 -18t-18.5 -7t-18 7t-7 18zM181 821q0 11 7 18.5t18 7.5t18.5 -7.5t7.5 -18.5t-7.5 -18t-18.5 -7t-18 7t-7 18z" />
    <glyph glyph-name="copyright" unicode="&#xa9;" horiz-adv-x="868" 
d="M634 282q-4 -26 -18.5 -53.5t-38.5 -50.5t-58 -37.5t-76 -14.5q-50 0 -90.5 15t-70 44.5t-45.5 71.5t-16 96q0 49 15 89.5t43.5 69.5t69.5 45t93 16q48 0 82 -15.5t57 -38.5t35.5 -50t16.5 -49h-20q-4 19 -15 42t-31.5 43.5t-51 34t-73.5 13.5q-47 0 -84.5 -14.5
t-63.5 -41t-39.5 -63t-13.5 -81.5q0 -50 14.5 -88.5t41.5 -64.5t64 -40t82 -14q38 0 68 13t51.5 32.5t34 43.5t16.5 47h21zM438 695q-55 0 -117.5 -19.5t-116 -61.5t-89 -107t-35.5 -156t35 -156.5t87.5 -107.5t114.5 -62t117 -20t117 20t114.5 62t87.5 107.5t35 156.5
t-34 156t-86 107t-113.5 61.5t-116.5 19.5zM438 715q58 0 123 -20.5t120 -65t91 -113.5t36 -165q0 -64 -17 -116t-45.5 -93t-66.5 -70.5t-79.5 -48.5t-84.5 -28.5t-81 -9.5t-81 9.5t-84.5 28.5t-79.5 48.5t-66.5 70.5t-45.5 93t-17 116q0 96 37.5 165t94 113.5t122.5 65
t124 20.5z" />
    <glyph glyph-name="ordfeminine" unicode="&#xaa;" horiz-adv-x="358" 
d="M55 589q0 9 3.5 26.5t16 35t37 31t66.5 13.5q39 0 61 -12.5t32.5 -29t12.5 -33t2 -25.5v-170q0 -13 5.5 -21.5t26.5 -8.5v-20q-17 0 -27.5 4t-16 10.5t-7 16.5t-1.5 22q-18 -27 -49 -42.5t-73 -15.5q-32 0 -52 7.5t-31.5 19.5t-16 26t-4.5 27q0 22 11 37.5t28.5 26
t40 17.5t45.5 14q18 5 36.5 9.5t32.5 10.5t23 14.5t9 21.5q0 9 -3 21.5t-12 24.5t-26.5 20t-46.5 8q-38 0 -59 -12t-30.5 -27t-11.5 -29t-2 -18h-20zM144 390q54 0 88 29t34 74v66q-17 -14 -42 -20t-53 -14q-21 -6 -40.5 -12.5t-35.5 -14.5t-25.5 -20t-9.5 -28
q0 -10 3.5 -20.5t12.5 -19.5t25.5 -14.5t42.5 -5.5z" />
    <glyph glyph-name="guillemotleft" unicode="&#xab;" horiz-adv-x="477" 
d="M247 500l-138 -172q-6 -8 -12.5 -17.5t-6.5 -18.5q0 -8 7 -18t12 -16l138 -167h-26l-128 154q-5 6 -14 18.5t-9 28.5q0 14 8 26t14 20l129 162h26zM397 500l-138 -172q-6 -8 -12.5 -17.5t-6.5 -18.5q0 -8 7 -18t12 -16l138 -167h-26l-128 154q-5 6 -14 18.5t-9 28.5
q0 14 8 26t14 20l129 162h26z" />
    <glyph glyph-name="logicalnot" unicode="&#xac;" horiz-adv-x="604" 
d="M55 360h494v-257h-20v237h-474v20z" />
    <glyph glyph-name="uni00AD" unicode="&#xad;" horiz-adv-x="365" 
d="M80 278h205v-20h-205v20z" />
    <glyph glyph-name="registered" unicode="&#xae;" horiz-adv-x="868" 
d="M438 695q-55 0 -117.5 -19.5t-116 -61.5t-89 -107t-35.5 -156t35 -156.5t87.5 -107.5t114.5 -62t117 -20t117 20t114.5 62t87.5 107.5t35 156.5t-34 156t-86 107t-113.5 61.5t-116.5 19.5zM438 715q58 0 123 -20.5t120 -65t91 -113.5t36 -165q0 -64 -17 -116t-45.5 -93
t-66.5 -70.5t-79.5 -48.5t-84.5 -28.5t-81 -9.5t-81 9.5t-84.5 28.5t-79.5 48.5t-66.5 70.5t-45.5 93t-17 116q0 96 37.5 165t94 113.5t122.5 65t124 20.5zM289 138v424h165q28 0 54.5 -8t47 -24.5t33 -41t12.5 -58.5q0 -30 -10 -53t-27 -39t-39.5 -25.5t-46.5 -12.5
l130 -162h-26l-129 161h-144v-161h-20zM309 319h145q24 0 47 6.5t40.5 20.5t28.5 34.5t11 49.5q0 28 -11 49.5t-28.5 35t-40.5 20.5t-47 7h-145v-223z" />
    <glyph glyph-name="macron" unicode="&#xaf;" horiz-adv-x="347" 
d="M10 650h327v-20h-327v20z" />
    <glyph glyph-name="degree" unicode="&#xb0;" horiz-adv-x="366" 
d="M306 552q0 25 -9 47t-25.5 39t-39 27t-49.5 10q-25 0 -47 -10t-39 -27.5t-27 -39.5t-10 -46q0 -27 10 -50t27 -39.5t39 -26t47 -9.5q26 0 48.5 9.5t39 26.5t26 40t9.5 49zM326 552q0 -30 -11 -56.5t-30 -46t-45.5 -31t-56.5 -11.5t-56 11t-45.5 30.5t-30.5 46t-11 57.5
q0 29 11 55t30.5 45.5t45.5 31t56 11.5t56 -11.5t45.5 -31t30.5 -45.5t11 -55z" />
    <glyph glyph-name="plusminus" unicode="&#xb1;" horiz-adv-x="614" 
d="M512 20v-20h-410v20h410zM102 308h195v192h20v-192h195v-20h-195v-198h-20v198h-195v20z" />
    <glyph glyph-name="twosuperior" unicode="&#xb2;" horiz-adv-x="390" 
d="M60 548q0 10 2.5 33.5t16 47.5t42.5 42.5t82 18.5q7 0 27 -3t41 -14t37.5 -34t16.5 -62q0 -21 -5.5 -39t-14.5 -33t-19.5 -27t-20.5 -20l-177 -147q-2 -1 -4 -3q-3 -3 -3 -6q0 -5 8 -5h241v-20h-241q-17 0 -23 6t-6 16q0 6 2.5 11t5.5 9l8 8l176 147q18 15 35.5 41.5
t17.5 61.5q0 32 -14 50.5t-32 28t-35.5 12t-23.5 2.5q-44 0 -68 -15.5t-35.5 -35.5t-14 -40.5t-2.5 -30.5h-20z" />
    <glyph glyph-name="threesuperior" unicode="&#xb3;" horiz-adv-x="393" 
d="M92 680h186q19 0 25.5 -11t6.5 -18q0 -13 -7 -20t-17 -15l-123 -93q-5 -4 -9 -8.5t-4 -9.5q0 -7 7 -7q5 0 10.5 2.5t11.5 5.5q11 5 24.5 10t33.5 5q44 0 71 -31t27 -83q0 -38 -13.5 -63.5t-33.5 -41.5t-45 -22.5t-47 -6.5q-20 0 -44.5 6t-46.5 22t-36.5 42t-14.5 67h20
q0 -35 12.5 -57.5t31.5 -35.5t40 -18.5t38 -5.5q19 0 40.5 5.5t38.5 19t28.5 35.5t11.5 54q0 43 -21.5 68.5t-56.5 25.5q-17 0 -28.5 -4t-19.5 -9t-15 -7.5t-17 -2.5q-13 0 -20 8.5t-7 18.5q0 11 6.5 19t14.5 15l127 96q4 3 8 7t4 9q0 2 -2.5 5.5t-9.5 3.5h-186v20z" />
    <glyph glyph-name="acute" unicode="&#xb4;" horiz-adv-x="283" 
d="M223 700l-134 -144h-29l134 144h29z" />
    <glyph glyph-name="mu" unicode="&#xb5;" horiz-adv-x="566" 
d="M80 -190v690h20v-334q0 -27 8 -55.5t27.5 -52t52.5 -38.5t82 -15q52 0 89 17.5t61 47t35 69t11 83.5v278h20v-500h-20v109q-23 -55 -70.5 -89.5t-125.5 -34.5q-71 0 -111 27t-59 65v-267h-20z" />
    <glyph glyph-name="mu" unicode="&#x3bc;" horiz-adv-x="566" 
d="M80 -190v690h20v-334q0 -27 8 -55.5t27.5 -52t52.5 -38.5t82 -15q52 0 89 17.5t61 47t35 69t11 83.5v278h20v-500h-20v109q-23 -55 -70.5 -89.5t-125.5 -34.5q-71 0 -111 27t-59 65v-267h-20z" />
    <glyph glyph-name="paragraph" unicode="&#xb6;" horiz-adv-x="574" 
d="M304 -190v480h-66q-40 0 -74 11.5t-59.5 36t-40 63.5t-14.5 94t17 94t45 63.5t64.5 36t75.5 11.5h242v-890h-20v870h-150v-870h-20zM70 495q0 -50 13 -85t35.5 -57.5t53.5 -32.5t66 -10h66v370h-52q-36 0 -68.5 -10t-58 -32.5t-40.5 -57.5t-15 -85z" />
    <glyph glyph-name="periodcentered" unicode="&#xb7;" horiz-adv-x="171" 
d="M60 300q0 11 7 18.5t18 7.5t18.5 -7.5t7.5 -18.5t-7.5 -18t-18.5 -7t-18 7t-7 18z" />
    <glyph glyph-name="cedilla" unicode="&#xb8;" horiz-adv-x="270" 
d="M92 0l-15 -39q-4 -10 -4 -13q0 -4 6 -4h65q35 0 55.5 -15t20.5 -42t-20.5 -43t-55.5 -16h-92v20h92q26 0 41 10.5t15 28.5t-15 27.5t-41 9.5h-71q-14 0 -18.5 5t-4.5 12q0 4 2 9.5t4 10.5l15 39h21z" />
    <glyph glyph-name="onesuperior" unicode="&#xb9;" horiz-adv-x="250" 
d="M170 277v369q0 9 -3.5 11.5t-11.5 2.5h-95v20h95q18 0 26.5 -5.5t8.5 -28.5v-369h-20z" />
    <glyph glyph-name="ordmasculine" unicode="&#xba;" horiz-adv-x="376" 
d="M60 530q0 -26 7.5 -51.5t23.5 -45.5t40 -32.5t57 -12.5t57 12.5t40 32.5t23.5 45.5t7.5 51.5t-7.5 52t-23.5 46.5t-40 33.5t-57 13t-57 -13t-40 -33.5t-23.5 -46.5t-7.5 -52zM40 530q0 30 9 59.5t27 53t46 38t66 14.5t66 -14.5t46 -38t27 -53t9 -59.5t-9 -59t-27 -52
t-46 -37t-66 -14t-66 14t-46 37t-27 52t-9 59z" />
    <glyph glyph-name="guillemotright" unicode="&#xbb;" horiz-adv-x="477" 
d="M106 500l129 -162q6 -8 14 -20t8 -26t-8 -26t-13 -18l-130 -157h-26l139 168q5 5 11.5 15t6.5 18q0 9 -6.5 18.5t-12.5 17.5l-138 172h26zM256 500l129 -162q6 -8 14 -20t8 -26t-8 -26t-13 -18l-130 -157h-26l139 168q5 5 11.5 15t6.5 18q0 9 -6.5 18.5t-12.5 17.5
l-138 172h26z" />
    <glyph glyph-name="onequarter" unicode="&#xbc;" horiz-adv-x="733" 
d="M170 277v369q0 9 -3.5 11.5t-11.5 2.5h-95v20h95q18 0 26.5 -5.5t8.5 -28.5v-369h-20zM582 0v103h-185q-14 0 -18 5t-4 13q0 6 4 13.5t8 12.5l175 251q8 13 21 13t16 -6.5t3 -14.5v-267h71v-20h-71v-103h-20zM398 126q0 -3 5 -3h179v258q0 5 -2 5t-5 -5l-171 -244
q-6 -8 -6 -11zM560 715h23l-465 -730h-23z" />
    <glyph glyph-name="onehalf" unicode="&#xbd;" horiz-adv-x="793" 
d="M170 277v369q0 9 -3.5 11.5t-11.5 2.5h-95v20h95q18 0 26.5 -5.5t8.5 -28.5v-369h-20zM463 277v6q0 13 3.5 36t18 45t43 38.5t78.5 16.5q7 0 27 -3t41 -14t37.5 -34t16.5 -62q0 -21 -5.5 -39t-14.5 -33t-19.5 -26.5t-20.5 -20.5l-177 -153q-2 -1 -4 -3q-3 -3 -3 -6
q0 -5 8 -5h241v-20h-241q-29 0 -29 22q0 6 2.5 11t5.5 9l8 8l176 153q18 15 35.5 41.5t17.5 61.5q0 32 -14 50.5t-32 28t-35.5 12t-23.5 2.5q-42 0 -66 -13.5t-36 -32t-15 -38t-3 -30.5v-8h-20zM560 715h23l-465 -730h-23z" />
    <glyph glyph-name="threequarters" unicode="&#xbe;" horiz-adv-x="853" 
d="M702 0v103h-185q-14 0 -18 5t-4 13q0 6 4 13.5t8 12.5l175 251q8 13 21 13t16 -6.5t3 -14.5v-267h71v-20h-71v-103h-20zM518 126q0 -3 5 -3h179v258q0 5 -2 5t-5 -5l-171 -244q-6 -8 -6 -11zM680 715h23l-465 -730h-23zM92 680h186q19 0 25.5 -11t6.5 -18q0 -13 -7 -20
t-17 -15l-123 -93q-5 -4 -9 -8.5t-4 -9.5q0 -7 7 -7q5 0 10.5 2.5t11.5 5.5q11 5 24.5 10t33.5 5q44 0 71 -31t27 -83q0 -38 -13.5 -63.5t-33.5 -41.5t-45 -22.5t-47 -6.5q-20 0 -44.5 6t-46.5 22t-36.5 42t-14.5 67h20q0 -35 12.5 -57.5t31.5 -35.5t40 -18.5t38 -5.5
q19 0 40.5 5.5t38.5 19t28.5 35.5t11.5 54q0 43 -21.5 68.5t-56.5 25.5q-17 0 -28.5 -4t-19.5 -9t-15 -7.5t-17 -2.5q-13 0 -20 8.5t-7 18.5q0 11 6.5 19t14.5 15l127 96q4 3 8 7t4 9q0 2 -2.5 5.5t-9.5 3.5h-186v20z" />
    <glyph glyph-name="questiondown" unicode="&#xbf;" horiz-adv-x="514" 
d="M228 490.002q0 -11 7 -18.499q7 -7.5 18 -7.5t18.5 7.5q7.5 7.49902 7.5 18.499q0 10.999 -7.5 17.998q-7.5 7 -18.5 7t-18 -7q-7 -6.99902 -7 -17.998zM243 333.011v-68.9951q0 -20.999 7 -36.998t24 -31.998l86 -80.9951q31 -28.998 55 -62.4961t24 -77.4951
q0 -23.999 -6.5 -48.4971q-6.5 -24.499 -25.5 -44.4971q-19 -19.999 -53.5 -32.998q-34.5 -13 -90.5 -13q-50 0 -87 14.5q-37 14.499 -61.5 38.9971q-24.5 24.499 -36.5 57.4971t-12 68.9951h-20q0 -5.99902 1.5 -23.498t8 -39.998q6.5 -22.498 20 -46.4971
q13.5 -23.998 38 -43.9971t60.5 -32.998t89 -12.999q62 0 100.5 14.999t59.5 37.9971q21 22.999 28.5 50.9971q7.5 27.999 7.5 54.9971q0 22.998 -7 44.4971t-19 40.4971q-12 18.999 -27.5 36.498t-31.5 32.498l-86 80.9951q-15 13.999 -20 25.999q-5 11.999 -5 28.998
v68.9951h-20z" />
    <glyph glyph-name="Agrave" unicode="&#xc0;" horiz-adv-x="686" 
d="M543 247h-400l-101 -247h-22l271 650q11 27 22 38.5t30 11.5t30.5 -11.5t22.5 -38.5l270 -650h-22zM151 267h384l-158 374q-11 26 -17.5 33t-16.5 7t-16 -7t-17 -33zM271 894l134 -144h-29l-134 144h29z" />
    <glyph glyph-name="Aacute" unicode="&#xc1;" horiz-adv-x="686" 
d="M543 247h-400l-101 -247h-22l271 650q11 27 22 38.5t30 11.5t30.5 -11.5t22.5 -38.5l270 -650h-22zM151 267h384l-158 374q-11 26 -17.5 33t-16.5 7t-16 -7t-17 -33zM445 894l-134 -144h-29l134 144h29z" />
    <glyph glyph-name="Acircumflex" unicode="&#xc2;" horiz-adv-x="686" 
d="M543 247h-400l-101 -247h-22l271 650q11 27 22 38.5t30 11.5t30.5 -11.5t22.5 -38.5l270 -650h-22zM151 267h384l-158 374q-11 26 -17.5 33t-16.5 7t-16 -7t-17 -33zM375 835q-15 23 -20.5 31t-13.5 8t-13 -8t-20 -31l-52 -85h-24l71 117q17 27 38 27q11 0 19 -5.5
t18 -21.5l72 -117h-24z" />
    <glyph glyph-name="Atilde" unicode="&#xc3;" horiz-adv-x="686" 
d="M543 247h-400l-101 -247h-22l271 650q11 27 22 38.5t30 11.5t30.5 -11.5t22.5 -38.5l270 -650h-22zM151 267h384l-158 374q-11 26 -17.5 33t-16.5 7t-16 -7t-17 -33zM210 770q0 15 3.5 29t11.5 25.5t21.5 18.5t34.5 7q25 0 40.5 -9.5t29.5 -22.5q11 -11 25 -19.5t34 -8.5
q13 0 21.5 5.5t14 14.5t7.5 19.5t2 20.5h20q0 -14 -3 -28t-10.5 -25.5t-20 -19t-31.5 -7.5q-26 0 -42.5 10.5t-30.5 22.5q-12 11 -25 19t-31 8q-29 0 -40 -19t-11 -41h-20z" />
    <glyph glyph-name="Adieresis" unicode="&#xc4;" horiz-adv-x="686" 
d="M543 247h-400l-101 -247h-22l271 650q11 27 22 38.5t30 11.5t30.5 -11.5t22.5 -38.5l270 -650h-22zM151 267h384l-158 374q-11 26 -17.5 33t-16.5 7t-16 -7t-17 -33zM230 825q0 11 7 18.5t18 7.5t18.5 -7.5t7.5 -18.5t-7.5 -18t-18.5 -7t-18 7t-7 18zM406 825
q0 11 7 18.5t18 7.5t18.5 -7.5t7.5 -18.5t-7.5 -18t-18.5 -7t-18 7t-7 18z" />
    <glyph glyph-name="Aring" unicode="&#xc5;" horiz-adv-x="686" 
d="M543 247h-400l-101 -247h-22l271 650q11 27 22 38.5t30 11.5t30.5 -11.5t22.5 -38.5l270 -650h-22zM151 267h384l-158 374q-11 26 -17.5 33t-16.5 7t-16 -7t-17 -33zM244 850q0 42 28 70t70 28t70 -28t28 -70t-28 -70t-70 -28t-70 28t-28 70zM264 850q0 -32 23 -55
t55 -23t55 23t23 55t-23 55t-55 23t-55 -23t-23 -55z" />
    <glyph glyph-name="AE" unicode="&#xc6;" horiz-adv-x="1051" 
d="M503 20h488v-20h-508v247h-285l-154 -247h-24l401 650q15 25 29 37.5t33 12.5h508v-20h-488v-318h397v-20h-397v-322zM209 267h274v414q-10 0 -19.5 -8.5t-23.5 -31.5z" />
    <glyph glyph-name="Ccedilla" unicode="&#xc7;" horiz-adv-x="787" 
d="M725 244q-17 -80 -54 -130.5t-82.5 -79t-94.5 -39t-90 -10.5q-13 0 -27 1t-28 3l-18 -45h74q35 0 55.5 -15t20.5 -42t-20.5 -43t-55.5 -16h-92v20h92q26 0 41 10.5t15 28.5t-15 27.5t-41 9.5h-71q-14 0 -18.5 5t-4.5 12q0 4 2 10t4 10l12 32q-47 9 -95 32t-86.5 65.5
t-63 106.5t-24.5 154q0 108 34.5 178.5t87 111.5t113 57.5t113.5 16.5q41 0 90.5 -14.5t95 -45t81.5 -77.5t50 -112h-21q-14 59 -47.5 102.5t-76.5 71.5t-89 41.5t-83 13.5q-50 0 -107 -15.5t-106.5 -54.5t-82 -105.5t-32.5 -168.5q0 -69 15 -121t40.5 -90.5t59 -64.5
t69.5 -41.5t72 -22t68 -6.5q37 0 82.5 9.5t88 35.5t77.5 72.5t52 121.5h21z" />
    <glyph glyph-name="Egrave" unicode="&#xc8;" horiz-adv-x="648" 
d="M100 20h488v-20h-508v700h508v-20h-488v-318h397v-20h-397v-322zM266 894l134 -144h-29l-134 144h29z" />
    <glyph glyph-name="Eacute" unicode="&#xc9;" horiz-adv-x="648" 
d="M100 20h488v-20h-508v700h508v-20h-488v-318h397v-20h-397v-322zM406 894l-134 -144h-29l134 144h29z" />
    <glyph glyph-name="Ecircumflex" unicode="&#xca;" horiz-adv-x="648" 
d="M100 20h488v-20h-508v700h508v-20h-488v-318h397v-20h-397v-322zM351 835q-15 23 -20.5 31t-13.5 8t-13 -8t-20 -31l-52 -85h-24l71 117q17 27 38 27q11 0 19 -5.5t18 -21.5l72 -117h-24z" />
    <glyph glyph-name="Edieresis" unicode="&#xcb;" horiz-adv-x="648" 
d="M100 20h488v-20h-508v700h508v-20h-488v-318h397v-20h-397v-322zM205 825q0 11 7 18.5t18 7.5t18.5 -7.5t7.5 -18.5t-7.5 -18t-18.5 -7t-18 7t-7 18zM381 825q0 11 7 18.5t18 7.5t18.5 -7.5t7.5 -18.5t-7.5 -18t-18.5 -7t-18 7t-7 18z" />
    <glyph glyph-name="Igrave" unicode="&#xcc;" horiz-adv-x="200" 
d="M90 700h20v-700h-20v700zM19 894l134 -144h-29l-134 144h29z" />
    <glyph glyph-name="Iacute" unicode="&#xcd;" horiz-adv-x="200" 
d="M90 700h20v-700h-20v700zM213 894l-134 -144h-29l134 144h29z" />
    <glyph glyph-name="Icircumflex" unicode="&#xce;" horiz-adv-x="200" 
d="M90 700h20v-700h-20v700zM135 835q-15 23 -20.5 31t-13.5 8t-13 -8t-20 -31l-52 -85h-24l71 117q17 27 38 27q11 0 19 -5.5t18 -21.5l72 -117h-24z" />
    <glyph glyph-name="Idieresis" unicode="&#xcf;" horiz-adv-x="200" 
d="M90 700h20v-700h-20v700zM-12 825q0 11 7 18.5t18 7.5t18.5 -7.5t7.5 -18.5t-7.5 -18t-18.5 -7t-18 7t-7 18zM164 825q0 11 7 18.5t18 7.5t18.5 -7.5t7.5 -18.5t-7.5 -18t-18.5 -7t-18 7t-7 18z" />
    <glyph glyph-name="Eth" unicode="&#xd0;" horiz-adv-x="800" 
d="M15 360h150v340h237q27 0 63 -2t73.5 -12.5t73.5 -32t64.5 -59.5t46 -96t17.5 -141q0 -104 -34.5 -172.5t-87.5 -109.5t-115.5 -58t-118.5 -17h-219v340h-150v20zM185 360h150v-20h-150v-320h199q53 0 112 16t109 55t82.5 103.5t32.5 162.5q0 79 -16.5 133t-43 90t-61 56
t-70 30t-69 12t-59.5 2h-216v-320z" />
    <glyph glyph-name="Ntilde" unicode="&#xd1;" horiz-adv-x="720" 
d="M80 0v664q0 17 7.5 26.5t24.5 9.5q11 0 21 -8.5t15 -16.5l442 -639q4 -5 9 -10.5t11 -5.5q4 0 7 3.5t3 14.5v662h20v-662q0 -22 -9.5 -30t-20.5 -8q-15 0 -23.5 9t-13.5 17l-441 637q-4 5 -9.5 11t-10.5 6q-12 0 -12 -16v-664h-20zM237 770q0 15 3.5 29t11.5 25.5
t21.5 18.5t34.5 7q25 0 40.5 -9.5t29.5 -22.5q11 -11 25 -19.5t34 -8.5q13 0 21.5 5.5t14 14.5t7.5 19.5t2 20.5h20q0 -14 -3 -28t-10.5 -25.5t-20 -19t-31.5 -7.5q-26 0 -42.5 10.5t-30.5 22.5q-12 11 -25 19t-31 8q-29 0 -40 -19t-11 -41h-20z" />
    <glyph glyph-name="Ograve" unicode="&#xd2;" horiz-adv-x="847" 
d="M428 695q-77 0 -140.5 -25t-110 -70.5t-72 -109t-25.5 -139.5q0 -77 25 -140.5t70.5 -109t108.5 -71t140 -25.5q76 0 139.5 25.5t108.5 71t70 109t25 140.5q0 76 -24.5 139.5t-68.5 109t-107 70.5t-139 25zM428 715q81 0 147 -26.5t113.5 -74.5t73 -115t25.5 -148
t-26.5 -148.5t-74 -115.5t-114.5 -75t-148 -27t-148 27t-115 75t-74.5 115.5t-26.5 148.5t27 148t76 115t116.5 74.5t148.5 26.5zM371 894l134 -144h-29l-134 144h29z" />
    <glyph glyph-name="Oacute" unicode="&#xd3;" horiz-adv-x="847" 
d="M428 695q-77 0 -140.5 -25t-110 -70.5t-72 -109t-25.5 -139.5q0 -77 25 -140.5t70.5 -109t108.5 -71t140 -25.5q76 0 139.5 25.5t108.5 71t70 109t25 140.5q0 76 -24.5 139.5t-68.5 109t-107 70.5t-139 25zM428 715q81 0 147 -26.5t113.5 -74.5t73 -115t25.5 -148
t-26.5 -148.5t-74 -115.5t-114.5 -75t-148 -27t-148 27t-115 75t-74.5 115.5t-26.5 148.5t27 148t76 115t116.5 74.5t148.5 26.5zM505 894l-134 -144h-29l134 144h29z" />
    <glyph glyph-name="Ocircumflex" unicode="&#xd4;" horiz-adv-x="847" 
d="M428 695q-77 0 -140.5 -25t-110 -70.5t-72 -109t-25.5 -139.5q0 -77 25 -140.5t70.5 -109t108.5 -71t140 -25.5q76 0 139.5 25.5t108.5 71t70 109t25 140.5q0 76 -24.5 139.5t-68.5 109t-107 70.5t-139 25zM428 715q81 0 147 -26.5t113.5 -74.5t73 -115t25.5 -148
t-26.5 -148.5t-74 -115.5t-114.5 -75t-148 -27t-148 27t-115 75t-74.5 115.5t-26.5 148.5t27 148t76 115t116.5 74.5t148.5 26.5zM455 831q-15 23 -20.5 31t-13.5 8t-13 -8t-20 -31l-52 -85h-24l71 117q17 27 38 27q11 0 19 -5.5t18 -21.5l72 -117h-24z" />
    <glyph glyph-name="Otilde" unicode="&#xd5;" horiz-adv-x="847" 
d="M428 695q-77 0 -140.5 -25t-110 -70.5t-72 -109t-25.5 -139.5q0 -77 25 -140.5t70.5 -109t108.5 -71t140 -25.5q76 0 139.5 25.5t108.5 71t70 109t25 140.5q0 76 -24.5 139.5t-68.5 109t-107 70.5t-139 25zM428 715q81 0 147 -26.5t113.5 -74.5t73 -115t25.5 -148
t-26.5 -148.5t-74 -115.5t-114.5 -75t-148 -27t-148 27t-115 75t-74.5 115.5t-26.5 148.5t27 148t76 115t116.5 74.5t148.5 26.5zM295 770q0 15 3.5 29t11.5 25.5t21.5 18.5t34.5 7q25 0 40.5 -9.5t29.5 -22.5q11 -11 25 -19.5t34 -8.5q13 0 21.5 5.5t14 14.5t7.5 19.5
t2 20.5h20q0 -14 -3 -28t-10.5 -25.5t-20 -19t-31.5 -7.5q-26 0 -42.5 10.5t-30.5 22.5q-12 11 -25 19t-31 8q-29 0 -40 -19t-11 -41h-20z" />
    <glyph glyph-name="Odieresis" unicode="&#xd6;" horiz-adv-x="847" 
d="M428 695q-77 0 -140.5 -25t-110 -70.5t-72 -109t-25.5 -139.5q0 -77 25 -140.5t70.5 -109t108.5 -71t140 -25.5q76 0 139.5 25.5t108.5 71t70 109t25 140.5q0 76 -24.5 139.5t-68.5 109t-107 70.5t-139 25zM428 715q81 0 147 -26.5t113.5 -74.5t73 -115t25.5 -148
t-26.5 -148.5t-74 -115.5t-114.5 -75t-148 -27t-148 27t-115 75t-74.5 115.5t-26.5 148.5t27 148t76 115t116.5 74.5t148.5 26.5zM310 825q0 11 7 18.5t18 7.5t18.5 -7.5t7.5 -18.5t-7.5 -18t-18.5 -7t-18 7t-7 18zM486 825q0 11 7 18.5t18 7.5t18.5 -7.5t7.5 -18.5
t-7.5 -18t-18.5 -7t-18 7t-7 18z" />
    <glyph glyph-name="multiply" unicode="&#xd7;" horiz-adv-x="508" 
d="M69 457l185 -190l185 190l14 -14l-185 -190l185 -190l-14 -14l-185 189l-185 -189l-14 14l185 190l-185 190z" />
    <glyph glyph-name="Oslash" unicode="&#xd8;" horiz-adv-x="847" 
d="M428 715q62 0 115 -15.5t96 -44.5l34 45h23l-42 -56q63 -48 98 -123t35 -170q0 -81 -26.5 -148.5t-74 -115.5t-114.5 -75t-148 -27q-63 0 -117.5 16.5t-99.5 46.5l-47 -63h-23l55 74q-63 48 -97.5 123t-34.5 169q0 81 27 148t76 115t116.5 74.5t148.5 26.5zM767 351
q0 90 -32.5 160.5t-92.5 116.5l-423 -564q42 -29 93.5 -44t111.5 -15q76 0 139.5 25.5t108.5 71t70 109t25 140.5zM428 695q-77 0 -140.5 -25t-110 -70.5t-72 -109t-25.5 -139.5q0 -89 32.5 -159.5t92.5 -116.5l422 563q-41 27 -91 42t-108 15z" />
    <glyph glyph-name="Ugrave" unicode="&#xd9;" horiz-adv-x="673" 
d="M85 700v-395q0 -20 1.5 -50t8.5 -63.5t22.5 -66.5t43.5 -60t70.5 -43.5t104.5 -16.5t104.5 16.5t70.5 43.5t43.5 60t23 66.5t9 63.5t1.5 50v395h20v-395q0 -22 -1.5 -54t-9.5 -67.5t-25 -71t-47 -64t-76 -46t-113 -17.5t-113 17.5t-76 46t-46.5 64t-24.5 71t-9.5 67.5
t-1.5 54v395h20zM284 894l134 -144h-29l-134 144h29z" />
    <glyph glyph-name="Uacute" unicode="&#xda;" horiz-adv-x="673" 
d="M85 700v-395q0 -20 1.5 -50t8.5 -63.5t22.5 -66.5t43.5 -60t70.5 -43.5t104.5 -16.5t104.5 16.5t70.5 43.5t43.5 60t23 66.5t9 63.5t1.5 50v395h20v-395q0 -22 -1.5 -54t-9.5 -67.5t-25 -71t-47 -64t-76 -46t-113 -17.5t-113 17.5t-76 46t-46.5 64t-24.5 71t-9.5 67.5
t-1.5 54v395h20zM418 894l-134 -144h-29l134 144h29z" />
    <glyph glyph-name="Ucircumflex" unicode="&#xdb;" horiz-adv-x="673" 
d="M85 700v-395q0 -20 1.5 -50t8.5 -63.5t22.5 -66.5t43.5 -60t70.5 -43.5t104.5 -16.5t104.5 16.5t70.5 43.5t43.5 60t23 66.5t9 63.5t1.5 50v395h20v-395q0 -22 -1.5 -54t-9.5 -67.5t-25 -71t-47 -64t-76 -46t-113 -17.5t-113 17.5t-76 46t-46.5 64t-24.5 71t-9.5 67.5
t-1.5 54v395h20zM368 831q-15 23 -20.5 31t-13.5 8t-13 -8t-20 -31l-52 -85h-24l71 117q17 27 38 27q11 0 19 -5.5t18 -21.5l72 -117h-24z" />
    <glyph glyph-name="Udieresis" unicode="&#xdc;" horiz-adv-x="673" 
d="M85 700v-395q0 -20 1.5 -50t8.5 -63.5t22.5 -66.5t43.5 -60t70.5 -43.5t104.5 -16.5t104.5 16.5t70.5 43.5t43.5 60t23 66.5t9 63.5t1.5 50v395h20v-395q0 -22 -1.5 -54t-9.5 -67.5t-25 -71t-47 -64t-76 -46t-113 -17.5t-113 17.5t-76 46t-46.5 64t-24.5 71t-9.5 67.5
t-1.5 54v395h20zM223 825q0 11 7 18.5t18 7.5t18.5 -7.5t7.5 -18.5t-7.5 -18t-18.5 -7t-18 7t-7 18zM399 825q0 11 7 18.5t18 7.5t18.5 -7.5t7.5 -18.5t-7.5 -18t-18.5 -7t-18 7t-7 18z" />
    <glyph glyph-name="Yacute" unicode="&#xdd;" horiz-adv-x="634" 
d="M307 0v271q-11 2 -23 10t-21 23l-243 396h23l236 -384q18 -26 38 -26t37 26l236 384h24l-244 -396q-9 -15 -20.5 -23t-22.5 -10v-271h-20zM398 894l-134 -144h-29l134 144h29z" />
    <glyph glyph-name="Thorn" unicode="&#xde;" horiz-adv-x="626" 
d="M80 0v700h20v-120h244q66 0 112.5 -18.5t75 -48.5t41.5 -67.5t13 -74.5q0 -33 -9.5 -71t-36.5 -70.5t-74.5 -53.5t-123.5 -21h-242v-155h-20zM100 175h242q70 0 113.5 19t68 48.5t33.5 64t9 64.5q0 34 -12 67.5t-38 60.5t-68.5 44t-103.5 17h-244v-385z" />
    <glyph glyph-name="germandbls" unicode="&#xdf;" horiz-adv-x="518" 
d="M80 0v513q0 27 3 62t20 66t53 52.5t102 21.5q60 0 96.5 -19t56 -45t25.5 -52t6 -40q0 -39 -11.5 -65.5t-29.5 -44.5t-39 -28.5t-40 -18.5q-18 -8 -30.5 -14.5t-12.5 -15.5q0 -13 17.5 -20t40.5 -14q24 -7 49 -16t45.5 -26.5t34 -45t13.5 -70.5q0 -63 -24.5 -99t-60.5 -54
t-75.5 -22.5t-69.5 -4.5h-32v20h31q28 0 64.5 4t69 20t55 48t22.5 88q0 37 -12.5 61t-31 39t-41 23.5t-43.5 14.5q-30 9 -51 19t-21 35q0 20 16 29.5t39 18.5q17 7 36 16t35 24.5t26.5 39t10.5 59.5q0 12 -5.5 35t-23 45.5t-49.5 39t-86 16.5q-59 0 -91 -19.5t-47 -47.5
t-17.5 -59.5t-2.5 -55.5v-513h-20z" />
    <glyph glyph-name="agrave" unicode="&#xe0;" horiz-adv-x="539" 
d="M82 360q0 3 1 16t6.5 30.5t17.5 36.5t34 35t55 26.5t82 10.5q62 0 96.5 -20.5t51 -47.5t20 -54.5t3.5 -41.5v-276q0 -12 2 -22t8 -17.5t18 -11.5t32 -4v-20q-27 0 -42.5 5.5t-24 15.5t-11 24t-2.5 30v32q-26 -54 -79.5 -88t-128.5 -34q-50 0 -82.5 12t-51 30.5t-25.5 41
t-7 42.5q0 35 18 59t46.5 40t65 27t73.5 20q31 7 61 16t54 21t39 28t17 38q0 16 -5 39t-20.5 44.5t-45.5 36.5t-80 15q-66 0 -102 -19.5t-52.5 -44t-19 -46t-2.5 -25.5h-20zM221 5q46 0 84.5 14.5t66 39.5t42.5 58.5t15 71.5v120q-12 -14 -30 -25t-40 -19t-47 -15t-50 -13
q-35 -9 -68.5 -18.5t-59.5 -23.5t-42.5 -34t-16.5 -50q0 -17 6 -36t22.5 -34.5t45 -25.5t72.5 -10zM214 700l134 -144h-29l-134 144h29z" />
    <glyph glyph-name="aacute" unicode="&#xe1;" horiz-adv-x="539" 
d="M82 360q0 3 1 16t6.5 30.5t17.5 36.5t34 35t55 26.5t82 10.5q62 0 96.5 -20.5t51 -47.5t20 -54.5t3.5 -41.5v-276q0 -12 2 -22t8 -17.5t18 -11.5t32 -4v-20q-27 0 -42.5 5.5t-24 15.5t-11 24t-2.5 30v32q-26 -54 -79.5 -88t-128.5 -34q-50 0 -82.5 12t-51 30.5t-25.5 41
t-7 42.5q0 35 18 59t46.5 40t65 27t73.5 20q31 7 61 16t54 21t39 28t17 38q0 16 -5 39t-20.5 44.5t-45.5 36.5t-80 15q-66 0 -102 -19.5t-52.5 -44t-19 -46t-2.5 -25.5h-20zM221 5q46 0 84.5 14.5t66 39.5t42.5 58.5t15 71.5v120q-12 -14 -30 -25t-40 -19t-47 -15t-50 -13
q-35 -9 -68.5 -18.5t-59.5 -23.5t-42.5 -34t-16.5 -50q0 -17 6 -36t22.5 -34.5t45 -25.5t72.5 -10zM353 700l-134 -144h-29l134 144h29z" />
    <glyph glyph-name="acircumflex" unicode="&#xe2;" horiz-adv-x="539" 
d="M82 360q0 3 1 16t6.5 30.5t17.5 36.5t34 35t55 26.5t82 10.5q62 0 96.5 -20.5t51 -47.5t20 -54.5t3.5 -41.5v-276q0 -12 2 -22t8 -17.5t18 -11.5t32 -4v-20q-27 0 -42.5 5.5t-24 15.5t-11 24t-2.5 30v32q-26 -54 -79.5 -88t-128.5 -34q-50 0 -82.5 12t-51 30.5t-25.5 41
t-7 42.5q0 35 18 59t46.5 40t65 27t73.5 20q31 7 61 16t54 21t39 28t17 38q0 16 -5 39t-20.5 44.5t-45.5 36.5t-80 15q-66 0 -102 -19.5t-52.5 -44t-19 -46t-2.5 -25.5h-20zM221 5q46 0 84.5 14.5t66 39.5t42.5 58.5t15 71.5v120q-12 -14 -30 -25t-40 -19t-47 -15t-50 -13
q-35 -9 -68.5 -18.5t-59.5 -23.5t-42.5 -34t-16.5 -50q0 -17 6 -36t22.5 -34.5t45 -25.5t72.5 -10zM302 641q-15 23 -20.5 31t-13.5 8t-13 -8t-20 -31l-52 -85h-24l71 117q17 27 38 27q11 0 19 -5.5t18 -21.5l72 -117h-24z" />
    <glyph glyph-name="atilde" unicode="&#xe3;" horiz-adv-x="539" 
d="M82 360q0 3 1 16t6.5 30.5t17.5 36.5t34 35t55 26.5t82 10.5q62 0 96.5 -20.5t51 -47.5t20 -54.5t3.5 -41.5v-276q0 -12 2 -22t8 -17.5t18 -11.5t32 -4v-20q-27 0 -42.5 5.5t-24 15.5t-11 24t-2.5 30v32q-26 -54 -79.5 -88t-128.5 -34q-50 0 -82.5 12t-51 30.5t-25.5 41
t-7 42.5q0 35 18 59t46.5 40t65 27t73.5 20q31 7 61 16t54 21t39 28t17 38q0 16 -5 39t-20.5 44.5t-45.5 36.5t-80 15q-66 0 -102 -19.5t-52.5 -44t-19 -46t-2.5 -25.5h-20zM221 5q46 0 84.5 14.5t66 39.5t42.5 58.5t15 71.5v120q-12 -14 -30 -25t-40 -19t-47 -15t-50 -13
q-35 -9 -68.5 -18.5t-59.5 -23.5t-42.5 -34t-16.5 -50q0 -17 6 -36t22.5 -34.5t45 -25.5t72.5 -10zM124 600q0 15 3.5 29t11.5 25.5t21.5 18.5t34.5 7q25 0 40.5 -9.5t29.5 -22.5q11 -11 25 -19.5t34 -8.5q13 0 21.5 5.5t14 14.5t7.5 19.5t2 20.5h20q0 -14 -3 -28
t-10.5 -25.5t-20 -19t-31.5 -7.5q-26 0 -42.5 10.5t-30.5 22.5q-12 11 -25 19t-31 8q-29 0 -40 -19t-11 -41h-20z" />
    <glyph glyph-name="adieresis" unicode="&#xe4;" horiz-adv-x="539" 
d="M82 360q0 3 1 16t6.5 30.5t17.5 36.5t34 35t55 26.5t82 10.5q62 0 96.5 -20.5t51 -47.5t20 -54.5t3.5 -41.5v-276q0 -12 2 -22t8 -17.5t18 -11.5t32 -4v-20q-27 0 -42.5 5.5t-24 15.5t-11 24t-2.5 30v32q-26 -54 -79.5 -88t-128.5 -34q-50 0 -82.5 12t-51 30.5t-25.5 41
t-7 42.5q0 35 18 59t46.5 40t65 27t73.5 20q31 7 61 16t54 21t39 28t17 38q0 16 -5 39t-20.5 44.5t-45.5 36.5t-80 15q-66 0 -102 -19.5t-52.5 -44t-19 -46t-2.5 -25.5h-20zM221 5q46 0 84.5 14.5t66 39.5t42.5 58.5t15 71.5v120q-12 -14 -30 -25t-40 -19t-47 -15t-50 -13
q-35 -9 -68.5 -18.5t-59.5 -23.5t-42.5 -34t-16.5 -50q0 -17 6 -36t22.5 -34.5t45 -25.5t72.5 -10zM153 625q0 11 7 18.5t18 7.5t18.5 -7.5t7.5 -18.5t-7.5 -18t-18.5 -7t-18 7t-7 18zM329 625q0 11 7 18.5t18 7.5t18.5 -7.5t7.5 -18.5t-7.5 -18t-18.5 -7t-18 7t-7 18z" />
    <glyph glyph-name="aring" unicode="&#xe5;" horiz-adv-x="539" 
d="M82 360q0 3 1 16t6.5 30.5t17.5 36.5t34 35t55 26.5t82 10.5q62 0 96.5 -20.5t51 -47.5t20 -54.5t3.5 -41.5v-276q0 -12 2 -22t8 -17.5t18 -11.5t32 -4v-20q-27 0 -42.5 5.5t-24 15.5t-11 24t-2.5 30v32q-26 -54 -79.5 -88t-128.5 -34q-50 0 -82.5 12t-51 30.5t-25.5 41
t-7 42.5q0 35 18 59t46.5 40t65 27t73.5 20q31 7 61 16t54 21t39 28t17 38q0 16 -5 39t-20.5 44.5t-45.5 36.5t-80 15q-66 0 -102 -19.5t-52.5 -44t-19 -46t-2.5 -25.5h-20zM221 5q46 0 84.5 14.5t66 39.5t42.5 58.5t15 71.5v120q-12 -14 -30 -25t-40 -19t-47 -15t-50 -13
q-35 -9 -68.5 -18.5t-59.5 -23.5t-42.5 -34t-16.5 -50q0 -17 6 -36t22.5 -34.5t45 -25.5t72.5 -10zM179 667q0 42 28 70t70 28t70 -28t28 -70t-28 -70t-70 -28t-70 28t-28 70zM199 667q0 -32 23 -55t55 -23t55 23t23 55t-23 55t-55 23t-55 -23t-23 -55z" />
    <glyph glyph-name="ae" unicode="&#xe6;" horiz-adv-x="941" 
d="M449 244q0 -79 23 -126t56.5 -72t71.5 -33t70 -8q48 0 82.5 18t58 43.5t36.5 54t17 49.5h20q-4 -24 -18 -56t-40 -60.5t-64.5 -48.5t-91.5 -20q-29 0 -63 5.5t-66.5 23t-59 49.5t-40.5 85q-17 -74 -72.5 -118.5t-147.5 -44.5q-50 0 -82.5 12.5t-51 31.5t-25.5 41.5
t-7 42.5q0 36 17.5 60.5t46 41.5t65 29t73.5 23q34 10 64.5 19t54 20.5t37.5 26.5t16 38q0 17 -5 38.5t-20.5 40t-45.5 31.5t-80 13q-43 0 -73 -10t-49.5 -25t-30 -33.5t-16 -35t-6.5 -29.5t-1 -17h-20q0 10 4.5 38t23.5 57.5t58.5 52.5t109.5 23q55 0 88.5 -15t51.5 -37
t24 -45.5t7 -41.5v-4q19 51 49.5 80t62.5 43t60 17t40 3q10 0 31 -1.5t46.5 -9.5t52.5 -24.5t49.5 -47t36.5 -76.5t14 -112h-442zM661 494q-9 0 -27.5 -1.5t-41.5 -8t-47.5 -20.5t-45 -39.5t-34.5 -64.5t-16 -96h422q-1 56 -15 95t-34 64.5t-44.5 39.5t-47.5 21t-41.5 8.5
t-27.5 1.5zM221 5q46 0 84.5 15t66 41t42.5 61t15 75v122q-12 -14 -30 -24.5t-39.5 -18.5t-46.5 -15l-50 -14q-35 -10 -68.5 -21t-60 -26.5t-43 -36t-16.5 -50.5q0 -17 6 -36t22.5 -35t45 -26.5t72.5 -10.5z" />
    <glyph glyph-name="ccedilla" unicode="&#xe7;" horiz-adv-x="544" 
d="M501 173q0 -18 -9.5 -49.5t-33.5 -62.5t-65 -53.5t-104 -22.5q-36 0 -64 7l-14 -36q-3 -8 -3 -9q0 -3 5 -3h67q35 0 55.5 -15t20.5 -42t-20.5 -43t-55.5 -16h-82v20h82q26 0 41 10.5t15 28.5t-15 27.5t-41 9.5h-71q-13 0 -18 5t-5 12q0 5 4 15l16 41q-42 13 -72 39
t-48.5 60t-27 73.5t-8.5 79.5q0 37 8.5 83.5t34 87t72.5 68t124 27.5q56 0 96.5 -20.5t66 -50t37.5 -61.5t12 -56h-20q0 21 -11 50t-34 55.5t-59.5 44.5t-87.5 18q-71 0 -114 -25.5t-66 -63t-31 -80.5t-8 -77q0 -45 11.5 -89t37.5 -78.5t68 -55.5t102 -21q57 0 94 20.5
t59 48t30.5 55.5t8.5 44h20z" />
    <glyph glyph-name="egrave" unicode="&#xe8;" horiz-adv-x="557" 
d="M70 244q0 -79 23 -126t56.5 -72t71.5 -33t70 -8q48 0 82.5 18t58 43.5t36.5 54t17 49.5h20q-4 -24 -18 -56t-40 -60.5t-64.5 -48.5t-91.5 -20q-35 0 -76.5 8.5t-78.5 36.5t-61.5 79.5t-24.5 138.5q0 65 14.5 110.5t36.5 75t49.5 46t53 24.5t47 9.5t31.5 1.5t31 -1.5
t46.5 -9.5t52.5 -24.5t49.5 -46.5t36.5 -76t14 -113h-442zM282 495q-9 0 -27.5 -1.5t-41.5 -8t-47.5 -21t-45 -40t-34.5 -65t-16 -95.5h422q-1 56 -15 95t-34 64.5t-44.5 40t-47.5 21.5t-41.5 8.5t-27.5 1.5zM228 700l134 -144h-29l-134 144h29z" />
    <glyph glyph-name="eacute" unicode="&#xe9;" horiz-adv-x="557" 
d="M70 244q0 -79 23 -126t56.5 -72t71.5 -33t70 -8q48 0 82.5 18t58 43.5t36.5 54t17 49.5h20q-4 -24 -18 -56t-40 -60.5t-64.5 -48.5t-91.5 -20q-35 0 -76.5 8.5t-78.5 36.5t-61.5 79.5t-24.5 138.5q0 65 14.5 110.5t36.5 75t49.5 46t53 24.5t47 9.5t31.5 1.5t31 -1.5
t46.5 -9.5t52.5 -24.5t49.5 -46.5t36.5 -76t14 -113h-442zM282 495q-9 0 -27.5 -1.5t-41.5 -8t-47.5 -21t-45 -40t-34.5 -65t-16 -95.5h422q-1 56 -15 95t-34 64.5t-44.5 40t-47.5 21.5t-41.5 8.5t-27.5 1.5zM340 700l-134 -144h-29l134 144h29z" />
    <glyph glyph-name="ecircumflex" unicode="&#xea;" horiz-adv-x="557" 
d="M70 244q0 -79 23 -126t56.5 -72t71.5 -33t70 -8q48 0 82.5 18t58 43.5t36.5 54t17 49.5h20q-4 -24 -18 -56t-40 -60.5t-64.5 -48.5t-91.5 -20q-35 0 -76.5 8.5t-78.5 36.5t-61.5 79.5t-24.5 138.5q0 65 14.5 110.5t36.5 75t49.5 46t53 24.5t47 9.5t31.5 1.5t31 -1.5
t46.5 -9.5t52.5 -24.5t49.5 -46.5t36.5 -76t14 -113h-442zM282 495q-9 0 -27.5 -1.5t-41.5 -8t-47.5 -21t-45 -40t-34.5 -65t-16 -95.5h422q-1 56 -15 95t-34 64.5t-44.5 40t-47.5 21.5t-41.5 8.5t-27.5 1.5zM313 641q-15 23 -20.5 31t-13.5 8t-13 -8t-20 -31l-52 -85h-24
l71 117q17 27 38 27q11 0 19 -5.5t18 -21.5l72 -117h-24z" />
    <glyph glyph-name="edieresis" unicode="&#xeb;" horiz-adv-x="557" 
d="M70 244q0 -79 23 -126t56.5 -72t71.5 -33t70 -8q48 0 82.5 18t58 43.5t36.5 54t17 49.5h20q-4 -24 -18 -56t-40 -60.5t-64.5 -48.5t-91.5 -20q-35 0 -76.5 8.5t-78.5 36.5t-61.5 79.5t-24.5 138.5q0 65 14.5 110.5t36.5 75t49.5 46t53 24.5t47 9.5t31.5 1.5t31 -1.5
t46.5 -9.5t52.5 -24.5t49.5 -46.5t36.5 -76t14 -113h-442zM282 495q-9 0 -27.5 -1.5t-41.5 -8t-47.5 -21t-45 -40t-34.5 -65t-16 -95.5h422q-1 56 -15 95t-34 64.5t-44.5 40t-47.5 21.5t-41.5 8.5t-27.5 1.5zM168 625q0 11 7 18.5t18 7.5t18.5 -7.5t7.5 -18.5t-7.5 -18
t-18.5 -7t-18 7t-7 18zM344 625q0 11 7 18.5t18 7.5t18.5 -7.5t7.5 -18.5t-7.5 -18t-18.5 -7t-18 7t-7 18z" />
    <glyph glyph-name="igrave" unicode="&#xec;" 
d="M100 0h-20v500h20v-500zM-1 700l134 -144h-29l-134 144h29z" />
    <glyph glyph-name="iacute" unicode="&#xed;" 
d="M100 0h-20v500h20v-500zM203 700l-134 -144h-29l134 144h29z" />
    <glyph glyph-name="icircumflex" unicode="&#xee;" 
d="M100 0h-20v500h20v-500zM125 641q-15 23 -20.5 31t-13.5 8t-13 -8t-20 -31l-52 -85h-24l71 117q17 27 38 27q11 0 19 -5.5t18 -21.5l72 -117h-24z" />
    <glyph glyph-name="idieresis" unicode="&#xef;" 
d="M100 0h-20v500h20v-500zM-22 625q0 11 7 18.5t18 7.5t18.5 -7.5t7.5 -18.5t-7.5 -18t-18.5 -7t-18 7t-7 18zM154 625q0 11 7 18.5t18 7.5t18.5 -7.5t7.5 -18.5t-7.5 -18t-18.5 -7t-18 7t-7 18z" />
    <glyph glyph-name="eth" unicode="&#xf0;" horiz-adv-x="584" 
d="M352 579q42 -43 82.5 -88t68.5 -99q31 -61 31 -138q0 -50 -14.5 -98t-44 -86t-75 -61.5t-108.5 -23.5t-108.5 24t-75 62.5t-44 87t-14.5 98.5q0 49 14.5 95.5t44 82.5t75 58t108.5 22q35 0 65 -7.5t55 -20.5l-88 92h-171v20h152l-79 81l14 14l92 -95h137v-20h-117z
M70 257q0 -46 13 -91t40.5 -81t69.5 -58t99 -22t99 21.5t69.5 57t40.5 80t13 90.5t-13 89t-40.5 77t-69.5 54.5t-99 20.5t-99 -20t-69.5 -53t-40.5 -76t-13 -89z" />
    <glyph glyph-name="ntilde" unicode="&#xf1;" horiz-adv-x="561" 
d="M80 0v500h20v-109q22 55 70 89.5t126 34.5q55 0 91.5 -16.5t58.5 -44.5t31 -64t9 -76v-314h-20v314q0 36 -8 69t-27.5 57.5t-52.5 39.5t-82 15q-51 0 -88 -16.5t-61 -45t-35.5 -66t-11.5 -80.5v-287h-20zM146 580q0 15 3.5 29t11.5 25.5t21.5 18.5t34.5 7q25 0 40.5 -9.5
t29.5 -22.5q11 -11 25 -19.5t34 -8.5q13 0 21.5 5.5t14 14.5t7.5 19.5t2 20.5h20q0 -14 -3 -28t-10.5 -25.5t-20 -19t-31.5 -7.5q-26 0 -42.5 10.5t-30.5 22.5q-12 11 -25 19t-31 8q-29 0 -40 -19t-11 -41h-20z" />
    <glyph glyph-name="ograve" unicode="&#xf2;" horiz-adv-x="584" 
d="M70 257q0 -46 13 -91t40.5 -81t69.5 -58t99 -22t99 21.5t69.5 57t40.5 80t13 90.5t-13 89t-40.5 77t-69.5 54.5t-99 20.5t-99 -20t-69.5 -53t-40.5 -76t-13 -89zM50 257q0 49 14.5 95.5t44 82.5t75 58t108.5 22t108.5 -22t75 -59t44 -84t14.5 -96q0 -50 -14.5 -98
t-44 -86t-75 -61.5t-108.5 -23.5t-108.5 24t-75 62.5t-44 87t-14.5 98.5zM239 700l134 -144h-29l-134 144h29z" />
    <glyph glyph-name="oacute" unicode="&#xf3;" horiz-adv-x="584" 
d="M70 257q0 -46 13 -91t40.5 -81t69.5 -58t99 -22t99 21.5t69.5 57t40.5 80t13 90.5t-13 89t-40.5 77t-69.5 54.5t-99 20.5t-99 -20t-69.5 -53t-40.5 -76t-13 -89zM50 257q0 49 14.5 95.5t44 82.5t75 58t108.5 22t108.5 -22t75 -59t44 -84t14.5 -96q0 -50 -14.5 -98
t-44 -86t-75 -61.5t-108.5 -23.5t-108.5 24t-75 62.5t-44 87t-14.5 98.5zM373 700l-134 -144h-29l134 144h29z" />
    <glyph glyph-name="ocircumflex" unicode="&#xf4;" horiz-adv-x="584" 
d="M70 257q0 -46 13 -91t40.5 -81t69.5 -58t99 -22t99 21.5t69.5 57t40.5 80t13 90.5t-13 89t-40.5 77t-69.5 54.5t-99 20.5t-99 -20t-69.5 -53t-40.5 -76t-13 -89zM50 257q0 49 14.5 95.5t44 82.5t75 58t108.5 22t108.5 -22t75 -59t44 -84t14.5 -96q0 -50 -14.5 -98
t-44 -86t-75 -61.5t-108.5 -23.5t-108.5 24t-75 62.5t-44 87t-14.5 98.5zM323 641q-15 23 -20.5 31t-13.5 8t-13 -8t-20 -31l-52 -85h-24l71 117q17 27 38 27q11 0 19 -5.5t18 -21.5l72 -117h-24z" />
    <glyph glyph-name="otilde" unicode="&#xf5;" horiz-adv-x="584" 
d="M70 257q0 -46 13 -91t40.5 -81t69.5 -58t99 -22t99 21.5t69.5 57t40.5 80t13 90.5t-13 89t-40.5 77t-69.5 54.5t-99 20.5t-99 -20t-69.5 -53t-40.5 -76t-13 -89zM50 257q0 49 14.5 95.5t44 82.5t75 58t108.5 22t108.5 -22t75 -59t44 -84t14.5 -96q0 -50 -14.5 -98
t-44 -86t-75 -61.5t-108.5 -23.5t-108.5 24t-75 62.5t-44 87t-14.5 98.5zM159 580q0 15 3.5 29t11.5 25.5t21.5 18.5t34.5 7q25 0 40.5 -9.5t29.5 -22.5q11 -11 25 -19.5t34 -8.5q13 0 21.5 5.5t14 14.5t7.5 19.5t2 20.5h20q0 -14 -3 -28t-10.5 -25.5t-20 -19t-31.5 -7.5
q-26 0 -42.5 10.5t-30.5 22.5q-12 11 -25 19t-31 8q-29 0 -40 -19t-11 -41h-20z" />
    <glyph glyph-name="odieresis" unicode="&#xf6;" horiz-adv-x="584" 
d="M70 257q0 -46 13 -91t40.5 -81t69.5 -58t99 -22t99 21.5t69.5 57t40.5 80t13 90.5t-13 89t-40.5 77t-69.5 54.5t-99 20.5t-99 -20t-69.5 -53t-40.5 -76t-13 -89zM50 257q0 49 14.5 95.5t44 82.5t75 58t108.5 22t108.5 -22t75 -59t44 -84t14.5 -96q0 -50 -14.5 -98
t-44 -86t-75 -61.5t-108.5 -23.5t-108.5 24t-75 62.5t-44 87t-14.5 98.5zM178 625q0 11 7 18.5t18 7.5t18.5 -7.5t7.5 -18.5t-7.5 -18t-18.5 -7t-18 7t-7 18zM354 625q0 11 7 18.5t18 7.5t18.5 -7.5t7.5 -18.5t-7.5 -18t-18.5 -7t-18 7t-7 18z" />
    <glyph glyph-name="divide" unicode="&#xf7;" horiz-adv-x="604" 
d="M276 25q0 11 7 18.5t18 7.5t18.5 -7.5t7.5 -18.5t-7.5 -18t-18.5 -7t-18 7t-7 18zM276 474q0 11 7 18.5t18 7.5t18.5 -7.5t7.5 -18.5t-7.5 -18t-18.5 -7t-18 7t-7 18zM56 243v20h494v-20h-494z" />
    <glyph glyph-name="oslash" unicode="&#xf8;" horiz-adv-x="584" 
d="M463 447q36 -38 53.5 -88.5t17.5 -104.5q0 -50 -14.5 -98t-44 -86t-75 -61.5t-108.5 -23.5q-56 0 -97.5 18.5t-71.5 50.5l-46 -54h-27l60 69q-31 39 -45.5 88t-14.5 100q0 49 14.5 95.5t44 82.5t75 58t108.5 22q49 0 87.5 -14t67.5 -39l46 53h29zM514 254
q0 50 -15.5 96.5t-48.5 81.5l-313 -363q27 -29 65.5 -46.5t89.5 -17.5q57 0 99 21.5t69.5 57t40.5 80t13 90.5zM70 257q0 -46 13 -91t40 -81l311 362q-26 23 -61.5 35.5t-80.5 12.5q-57 0 -99 -20t-69.5 -53t-40.5 -76t-13 -89z" />
    <glyph glyph-name="ugrave" unicode="&#xf9;" horiz-adv-x="561" 
d="M95 500v-314q0 -36 8 -69t27.5 -57.5t52.5 -39.5t82 -15q50 0 87 16.5t61 45t36 66t12 80.5v287h20v-500h-20v109q-23 -55 -70.5 -89.5t-125.5 -34.5q-55 0 -91.5 16.5t-58.5 44t-31 64t-9 76.5v314h20zM225 700l134 -144h-29l-134 144h29z" />
    <glyph glyph-name="uacute" unicode="&#xfa;" horiz-adv-x="561" 
d="M95 500v-314q0 -36 8 -69t27.5 -57.5t52.5 -39.5t82 -15q50 0 87 16.5t61 45t36 66t12 80.5v287h20v-500h-20v109q-23 -55 -70.5 -89.5t-125.5 -34.5q-55 0 -91.5 16.5t-58.5 44t-31 64t-9 76.5v314h20zM359 700l-134 -144h-29l134 144h29z" />
    <glyph glyph-name="ucircumflex" unicode="&#xfb;" horiz-adv-x="561" 
d="M95 500v-314q0 -36 8 -69t27.5 -57.5t52.5 -39.5t82 -15q50 0 87 16.5t61 45t36 66t12 80.5v287h20v-500h-20v109q-23 -55 -70.5 -89.5t-125.5 -34.5q-55 0 -91.5 16.5t-58.5 44t-31 64t-9 76.5v314h20zM309 641q-15 23 -20.5 31t-13.5 8t-13 -8t-20 -31l-52 -85h-24
l71 117q17 27 38 27q11 0 19 -5.5t18 -21.5l72 -117h-24z" />
    <glyph glyph-name="udieresis" unicode="&#xfc;" horiz-adv-x="561" 
d="M95 500v-314q0 -36 8 -69t27.5 -57.5t52.5 -39.5t82 -15q50 0 87 16.5t61 45t36 66t12 80.5v287h20v-500h-20v109q-23 -55 -70.5 -89.5t-125.5 -34.5q-55 0 -91.5 16.5t-58.5 44t-31 64t-9 76.5v314h20zM159 625q0 11 7 18.5t18 7.5t18.5 -7.5t7.5 -18.5t-7.5 -18
t-18.5 -7t-18 7t-7 18zM335 625q0 11 7 18.5t18 7.5t18.5 -7.5t7.5 -18.5t-7.5 -18t-18.5 -7t-18 7t-7 18z" />
    <glyph glyph-name="yacute" unicode="&#xfd;" horiz-adv-x="533" 
d="M278 20l198 480h22l-251 -618q-11 -26 -24.5 -40.5t-30 -21.5t-36.5 -8.5t-42 -1.5h-33v20h33q25 0 42.5 1.5t31 8.5t24 20t19.5 36l42 104h-14q-19 0 -30 11.5t-22 38.5l-172 450h22l169 -442q10 -26 17.5 -32t15.5 -6h19zM348 700l-134 -144h-29l134 144h29z" />
    <glyph glyph-name="thorn" unicode="&#xfe;" horiz-adv-x="598" 
d="M80 700h20v-338q12 32 31.5 60t46 48.5t60.5 32.5t76 12q59 0 103 -23t73 -60.5t43.5 -85.5t14.5 -97q0 -50 -14 -97t-43 -84.5t-73 -60t-103 -22.5q-42 0 -76.5 11.5t-61 32t-46 48.5t-31.5 61v-328h-20v890zM314 495q-53 0 -93 -21.5t-67 -55.5t-40.5 -76t-13.5 -84
v-15q0 -45 14 -87.5t41 -76t67 -54t93 -20.5q54 0 94 21t66.5 55.5t39.5 78t13 89.5t-13 90t-40 78.5t-67 56t-94 21.5z" />
    <glyph glyph-name="ydieresis" unicode="&#xff;" horiz-adv-x="533" 
d="M278 20l198 480h22l-251 -618q-11 -26 -24.5 -40.5t-30 -21.5t-36.5 -8.5t-42 -1.5h-33v20h33q25 0 42.5 1.5t31 8.5t24 20t19.5 36l42 104h-14q-19 0 -30 11.5t-22 38.5l-172 450h22l169 -442q10 -26 17.5 -32t15.5 -6h19zM147 625q0 11 7 18.5t18 7.5t18.5 -7.5
t7.5 -18.5t-7.5 -18t-18.5 -7t-18 7t-7 18zM323 625q0 11 7 18.5t18 7.5t18.5 -7.5t7.5 -18.5t-7.5 -18t-18.5 -7t-18 7t-7 18z" />
    <glyph glyph-name="dotlessi" unicode="&#x131;" 
d="M100 0h-20v500h20v-500z" />
    <glyph glyph-name="Lslash" unicode="&#x141;" horiz-adv-x="557" 
d="M0 300l90 57v343h20v-330l224 143v-23l-224 -143v-284q0 -43 41 -43h386v-20h-386q-61 0 -61 63v271l-90 -57v23z" />
    <glyph glyph-name="lslash" unicode="&#x142;" 
d="M0 398l80 51v251h20v-238l80 51v-23l-80 -51v-439h-20v426l-80 -51v23z" />
    <glyph glyph-name="OE" unicode="&#x152;" horiz-adv-x="1225" 
d="M428 695q-77 0 -140.5 -25t-110 -70.5t-72 -109t-25.5 -139.5q0 -77 25 -140.5t70.5 -109t108.5 -71t140 -25.5q71 0 129.5 21.5t103.5 60.5v528q-44 38 -102 59t-127 21zM677 20h488v-20h-508v61q-46 -37 -105 -56.5t-128 -19.5q-81 0 -148 27t-115 75t-74.5 115.5
t-26.5 148.5t27 148t76 115t116.5 74.5t148.5 26.5q69 0 126.5 -19t102.5 -54v58h508v-20h-488v-318h397v-20h-397v-322z" />
    <glyph glyph-name="oe" unicode="&#x153;" horiz-adv-x="1026" 
d="M534 244q0 -79 23 -126t56.5 -72t71.5 -33t70 -8q52 0 89.5 21t60.5 50.5t34 60t11 49.5h20q0 -21 -12 -55t-38 -66.5t-66.5 -56t-98.5 -23.5q-30 0 -65.5 6t-69 25t-60 54.5t-38.5 93.5q-11 -37 -30 -69.5t-47.5 -57t-66.5 -38.5t-86 -14q-63 0 -108.5 24t-75 62.5
t-44 87t-14.5 98.5q0 49 14.5 95.5t44 82.5t75 58t108.5 22q49 0 87.5 -14t67 -38t47.5 -56t29 -69q15 65 46.5 100.5t66 52.5t65.5 20.5t45 3.5q10 0 31 -1.5t46.5 -9.5t52.5 -24.5t49.5 -46.5t36.5 -76t14 -113h-442zM70 257q0 -46 13 -91t40.5 -81t69.5 -58t99 -22
t99 21.5t69.5 57t40.5 80t13 90.5t-13 89t-40.5 77t-69.5 54.5t-99 20.5t-99 -20t-69.5 -53t-40.5 -76t-13 -89zM746 495q-9 0 -27.5 -1.5t-41.5 -8t-47.5 -21t-45 -40t-34.5 -65t-16 -95.5h422q-1 56 -15 95t-34 64.5t-44.5 40t-47.5 21.5t-41.5 8.5t-27.5 1.5z" />
    <glyph glyph-name="Scaron" unicode="&#x160;" horiz-adv-x="642" 
d="M75 215q0 -37 13 -74.5t43 -67.5t79.5 -49t123.5 -19q68 0 116.5 14t79 37.5t44.5 53t14 60.5q0 41 -21.5 68.5t-57 47t-80.5 33.5t-92 26q-50 13 -97.5 27.5t-85 36t-60 53t-22.5 78.5q0 53 24 87t61 53.5t80 27t81 7.5q48 0 85 -8.5t64.5 -22.5t46.5 -32t31 -37
q29 -44 34 -100h-20q-5 50 -32 90q-12 17 -29.5 33t-42.5 29t-59 20.5t-78 7.5q-35 0 -74.5 -6.5t-73.5 -24t-56 -47.5t-22 -77q0 -41 21.5 -69t56.5 -47.5t80.5 -33t92.5 -25.5q49 -13 97 -27.5t85 -36t60 -53t23 -78.5q0 -35 -15.5 -68t-48.5 -59t-85 -42t-125 -16
q-80 0 -133.5 20.5t-86 53.5t-46 74t-13.5 82h20zM409 890h24l-75 -117q-11 -15 -18.5 -21t-18.5 -6q-22 0 -39 27l-73 117h24l54 -85q15 -23 20.5 -31t13.5 -8t13.5 8t20.5 31z" />
    <glyph glyph-name="scaron" unicode="&#x161;" horiz-adv-x="515" 
d="M80 158q0 -15 5.5 -41t25 -51t56.5 -43t100 -18q83 0 125.5 35t42.5 88q0 28 -14 46.5t-37.5 30.5t-53 19.5t-60.5 13.5q-35 7 -69 16t-60.5 24t-43 38.5t-16.5 61.5q0 24 9 48.5t29 44t53 32t80 12.5q85 0 136 -35.5t51 -100.5h-20q0 56 -45.5 86t-121.5 30
q-42 0 -71 -10.5t-46.5 -27.5t-25.5 -38t-8 -41q0 -31 15 -51t39.5 -33t55.5 -21t63 -15q34 -7 66.5 -15.5t58 -22.5t41 -36t15.5 -56q0 -62 -47.5 -102.5t-140.5 -40.5q-70 0 -111 20.5t-62 48.5t-27.5 57t-6.5 47h20zM347 700h24l-75 -117q-11 -15 -18.5 -21t-18.5 -6
q-22 0 -39 27l-73 117h24l54 -85q15 -23 20.5 -31t13.5 -8t13.5 8t20.5 31z" />
    <glyph glyph-name="Ydieresis" unicode="&#x178;" horiz-adv-x="634" 
d="M307 0v271q-11 2 -23 10t-21 23l-243 396h23l236 -384q18 -26 38 -26t37 26l236 384h24l-244 -396q-9 -15 -20.5 -23t-22.5 -10v-271h-20zM203 825q0 11 7 18.5t18 7.5t18.5 -7.5t7.5 -18.5t-7.5 -18t-18.5 -7t-18 7t-7 18zM379 825q0 11 7 18.5t18 7.5t18.5 -7.5
t7.5 -18.5t-7.5 -18t-18.5 -7t-18 7t-7 18z" />
    <glyph glyph-name="Zcaron" unicode="&#x17d;" horiz-adv-x="624" 
d="M65 700h461q20 0 29.5 -11t9.5 -24q0 -11 -4 -19.5t-9 -15.5l-469 -567q-13 -16 -13 -27q0 -5 4.5 -10.5t15.5 -5.5h484v-20h-484q-21 0 -30.5 11t-9.5 25q0 10 3 18.5t14 20.5l469 567q4 5 6.5 10.5t2.5 12.5q0 5 -5 10t-14 5h-461v20zM402 894h24l-75 -117
q-11 -15 -18.5 -21t-18.5 -6q-22 0 -39 27l-73 117h24l54 -85q15 -23 20.5 -31t13.5 -8t13.5 8t20.5 31z" />
    <glyph glyph-name="zcaron" unicode="&#x17e;" horiz-adv-x="432" 
d="M40 500h326q17 0 26.5 -9t9.5 -24q0 -14 -5 -23t-10 -14l-320 -363q-17 -19 -17 -33q0 -3 2.5 -8.5t13.5 -5.5h336v-20h-336q-12 0 -19.5 4t-11 9.5t-4.5 11t-1 9.5q0 14 5.5 25t16.5 22l321 363q3 4 6 9t3 13q0 14 -16 14h-326v20zM306 700h24l-75 -117
q-11 -15 -18.5 -21t-18.5 -6q-22 0 -39 27l-73 117h24l54 -85q15 -23 20.5 -31t13.5 -8t13.5 8t20.5 31z" />
    <glyph glyph-name="florin" unicode="&#x192;" horiz-adv-x="396" 
d="M94 500h87l8 45q5 26 11.5 50.5t19.5 43t34.5 30t56.5 11.5h31v-20h-31q-29 0 -47 -9.5t-28.5 -26t-16.5 -38t-10 -45.5l-7 -41h109v-20h-113l-96 -535q-5 -26 -11.5 -50.5t-19.5 -43.5t-34.5 -30t-55.5 -11h-31v20h31q28 0 46 9.5t28.5 26t16 38t10.5 45.5l95 531h-83
v20z" />
    <glyph glyph-name="circumflex" unicode="&#x2c6;" horiz-adv-x="238" 
d="M153 641q-15 23 -20.5 31t-13.5 8t-13 -8t-20 -31l-52 -85h-24l71 117q17 27 38 27q11 0 19 -5.5t18 -21.5l72 -117h-24z" />
    <glyph glyph-name="caron" unicode="&#x2c7;" horiz-adv-x="244" 
d="M210 700h24l-75 -117q-11 -15 -18.5 -21t-18.5 -6q-22 0 -39 27l-73 117h24l54 -85q15 -23 20.5 -31t13.5 -8t13.5 8t20.5 31z" />
    <glyph glyph-name="breve" unicode="&#x2d8;" horiz-adv-x="256" 
d="M25 700q0 -16 6.5 -31.5t19.5 -28t31.5 -20t41.5 -7.5t42.5 7.5t34 20t22.5 28t8 31.5h20q0 -20 -9.5 -39t-26.5 -34t-40 -24.5t-51 -9.5t-50 9.5t-37.5 24.5t-23.5 34t-8 39h20z" />
    <glyph glyph-name="dotaccent" unicode="&#x2d9;" horiz-adv-x="71" 
d="M10 674q0 11 7 18.5t18 7.5t18.5 -7.5t7.5 -18.5t-7.5 -18t-18.5 -7t-18 7t-7 18z" />
    <glyph glyph-name="ring" unicode="&#x2da;" horiz-adv-x="216" 
d="M10 617q0 42 28 70t70 28t70 -28t28 -70t-28 -70t-70 -28t-70 28t-28 70zM30 617q0 -32 23 -55t55 -23t55 23t23 55t-23 55t-55 23t-55 -23t-23 -55z" />
    <glyph glyph-name="ogonek" unicode="&#x2db;" horiz-adv-x="187" 
d="M127 0l-71 -66q-12 -11 -19 -25t-7 -33q0 -17 12 -31.5t44 -14.5q26 0 44.5 10.5t32.5 22.5l14 -14q-16 -14 -38 -26.5t-53 -12.5q-42 0 -59 20.5t-17 45.5q0 23 10.5 39.5t26.5 30.5l60 54h20z" />
    <glyph glyph-name="tilde" unicode="&#x2dc;" horiz-adv-x="265" 
d="M0 620q0 15 3.5 29t11.5 25.5t21.5 18.5t34.5 7q25 0 40.5 -9.5t29.5 -22.5q11 -11 25 -19.5t34 -8.5q13 0 21.5 5.5t14 14.5t7.5 19.5t2 20.5h20q0 -14 -3 -28t-10.5 -25.5t-20 -19t-31.5 -7.5q-26 0 -42.5 10.5t-30.5 22.5q-12 11 -25 19t-31 8q-29 0 -40 -19t-11 -41
h-20z" />
    <glyph glyph-name="hungarumlaut" unicode="&#x2dd;" horiz-adv-x="315" 
d="M174 700l-134 -144h-29l134 144h29zM305 700l-134 -144h-29l134 144h29z" />
    <glyph glyph-name="Delta" unicode="&#x394;" horiz-adv-x="652" 
d="M70 0q-20 0 -30 12t-10 26q0 8 3 16l257 615q7 15 14.5 23t20.5 8t20.5 -7.5t14.5 -23.5l259 -615q4 -10 4 -18q0 -14 -10.5 -25t-30.5 -11h-512zM582 20q10 0 15.5 5t5.5 13q0 3 -1 6t-3 7l-257 610q-8 19 -17 19q-10 0 -17 -19l-255 -610q-1 -2 -2 -5.5t-1 -7.5
q0 -7 4.5 -12.5t15.5 -5.5h512z" />
    <glyph glyph-name="Delta" unicode="&#x2206;" horiz-adv-x="652" 
d="M70 0q-20 0 -30 12t-10 26q0 8 3 16l257 615q7 15 14.5 23t20.5 8t20.5 -7.5t14.5 -23.5l259 -615q4 -10 4 -18q0 -14 -10.5 -25t-30.5 -11h-512zM582 20q10 0 15.5 5t5.5 13q0 3 -1 6t-3 7l-257 610q-8 19 -17 19q-10 0 -17 -19l-255 -610q-1 -2 -2 -5.5t-1 -7.5
q0 -7 4.5 -12.5t15.5 -5.5h512z" />
    <glyph glyph-name="Omega" unicode="&#x3a9;" horiz-adv-x="695" 
d="M75 20h165q12 0 21.5 8t9.5 26v46q0 16 -8.5 22t-16.5 9q-34 13 -68 36t-61.5 56.5t-44.5 78t-17 101.5q0 78 27.5 133t70 90.5t95 52t103.5 16.5t102.5 -16.5t93 -52t67.5 -90.5t26 -133q0 -57 -16 -102t-43 -79t-61.5 -57t-71.5 -36l-3 -1q-6 -2 -13 -8.5t-7 -19.5v-46
q0 -18 9.5 -26t21.5 -8h165v-20h-165q-20 0 -35.5 12.5t-15.5 41.5v46q0 25 12.5 33.5t23.5 12.5l3 1q33 12 65 34t56.5 53.5t39.5 73.5t15 95q0 72 -24.5 123.5t-63 84.5t-86.5 48.5t-95 15.5t-96 -15.5t-89 -48.5t-65.5 -84.5t-25.5 -123.5q0 -52 15.5 -93.5t41 -73
t58 -53.5t65.5 -35q5 -2 11.5 -5t12 -8t9 -13.5t3.5 -21.5v-46q0 -29 -15.5 -41.5t-35.5 -12.5h-165v20z" />
    <glyph glyph-name="Omega" unicode="&#x2126;" horiz-adv-x="695" 
d="M75 20h165q12 0 21.5 8t9.5 26v46q0 16 -8.5 22t-16.5 9q-34 13 -68 36t-61.5 56.5t-44.5 78t-17 101.5q0 78 27.5 133t70 90.5t95 52t103.5 16.5t102.5 -16.5t93 -52t67.5 -90.5t26 -133q0 -57 -16 -102t-43 -79t-61.5 -57t-71.5 -36l-3 -1q-6 -2 -13 -8.5t-7 -19.5v-46
q0 -18 9.5 -26t21.5 -8h165v-20h-165q-20 0 -35.5 12.5t-15.5 41.5v46q0 25 12.5 33.5t23.5 12.5l3 1q33 12 65 34t56.5 53.5t39.5 73.5t15 95q0 72 -24.5 123.5t-63 84.5t-86.5 48.5t-95 15.5t-96 -15.5t-89 -48.5t-65.5 -84.5t-25.5 -123.5q0 -52 15.5 -93.5t41 -73
t58 -53.5t65.5 -35q5 -2 11.5 -5t12 -8t9 -13.5t3.5 -21.5v-46q0 -29 -15.5 -41.5t-35.5 -12.5h-165v20z" />
    <glyph glyph-name="pi" unicode="&#x3c0;" horiz-adv-x="558" 
d="M407 480v-343q0 -24 2 -45t9.5 -37t23.5 -25.5t45 -9.5h31v-20h-31q-36 0 -56 11t-30 30t-12 44t-2 52v343h-250v-480h-20v480h-102v20h494v-20h-102z" />
    <glyph glyph-name="endash" unicode="&#x2013;" horiz-adv-x="670" 
d="M80 278h510v-20h-510v20z" />
    <glyph glyph-name="emdash" unicode="&#x2014;" horiz-adv-x="890" 
d="M810 258h-730v20h730v-20z" />
    <glyph glyph-name="quoteleft" unicode="&#x2018;" horiz-adv-x="244" 
d="M105 490v98q0 45 9.5 73.5t34.5 45.5v-30q-13 -13 -18.5 -30.5t-5.5 -58.5v-98h-20z" />
    <glyph glyph-name="quoteright" unicode="&#x2019;" horiz-adv-x="244" 
d="M139 707v-98q0 -45 -9.5 -73.5t-34.5 -45.5v30q13 13 18.5 30.5t5.5 58.5v98h20z" />
    <glyph glyph-name="quotesinglbase" unicode="&#x201a;" horiz-adv-x="244" 
d="M139 98v-98q0 -45 -9.5 -73.5t-34.5 -45.5v30q13 13 18.5 30.5t5.5 58.5v98h20z" />
    <glyph glyph-name="quotedblleft" unicode="&#x201c;" horiz-adv-x="354" 
d="M105 490v98q0 45 9.5 73.5t34.5 45.5v-30q-13 -13 -18.5 -30.5t-5.5 -58.5v-98h-20zM215 490v98q0 45 9.5 73.5t34.5 45.5v-30q-13 -13 -18.5 -30.5t-5.5 -58.5v-98h-20z" />
    <glyph glyph-name="quotedblright" unicode="&#x201d;" horiz-adv-x="354" 
d="M249 700v-98q0 -45 -9.5 -73.5t-34.5 -45.5v30q13 13 18.5 30.5t5.5 58.5v98h20zM139 700v-98q0 -45 -9.5 -73.5t-34.5 -45.5v30q13 13 18.5 30.5t5.5 58.5v98h20z" />
    <glyph glyph-name="quotedblbase" unicode="&#x201e;" horiz-adv-x="354" 
d="M139 98v-98q0 -45 -9.5 -73.5t-34.5 -45.5v30q13 13 18.5 30.5t5.5 58.5v98h20zM249 98v-98q0 -45 -9.5 -73.5t-34.5 -45.5v30q13 13 18.5 30.5t5.5 58.5v98h20z" />
    <glyph glyph-name="dagger" unicode="&#x2020;" horiz-adv-x="474" 
d="M247 -190h-20v670h-217v20h217v215h20v-215h217v-20h-217v-670z" />
    <glyph glyph-name="daggerdbl" unicode="&#x2021;" horiz-adv-x="474" 
d="M247 0v-190h-20v190h-217v20h217v460h-217v20h217v215h20v-215h217v-20h-217v-460h217v-20h-217z" />
    <glyph glyph-name="bullet" unicode="&#x2022;" horiz-adv-x="430" 
d="M55 355q0 33 12.5 62t34.5 51t51 34.5t62 12.5t62 -12.5t51 -34.5t34.5 -51t12.5 -62t-12.5 -62t-34.5 -51t-51 -34.5t-62 -12.5t-62 12.5t-51 34.5t-34.5 51t-12.5 62zM75 355q0 -29 11 -54t30.5 -44.5t44.5 -30.5t54 -11q28 0 53.5 11t45 30.5t30.5 44.5t11 54
q0 28 -11 53.5t-30.5 45t-45 30.5t-53.5 11q-29 0 -54 -11t-44.5 -30.5t-30.5 -45t-11 -53.5z" />
    <glyph glyph-name="ellipsis" unicode="&#x2026;" horiz-adv-x="513" 
d="M60 25q0 11 7 18.5t18 7.5t18.5 -7.5t7.5 -18.5t-7.5 -18t-18.5 -7t-18 7t-7 18zM231 25q0 11 7 18.5t18 7.5t18.5 -7.5t7.5 -18.5t-7.5 -18t-18.5 -7t-18 7t-7 18zM402 25q0 11 7 18.5t18 7.5t18.5 -7.5t7.5 -18.5t-7.5 -18t-18.5 -7t-18 7t-7 18z" />
    <glyph glyph-name="perthousand" unicode="&#x2030;" horiz-adv-x="1088" 
d="M120 -15l464 730h23l-464 -730h-23zM60 521q0 -28 7 -55t22 -48.5t39.5 -34.5t59.5 -13t59.5 13t39.5 34t22 48t7 55t-7 55.5t-22 49t-39.5 35t-59.5 13.5t-59.5 -13t-39.5 -34.5t-22 -49t-7 -55.5zM40 521q0 32 8 63t26 55t46 39t68 15t68 -15t46 -39.5t26 -55.5t8 -63
t-8 -62.5t-26 -54.5t-46 -38.5t-68 -14.5t-68 15t-46 39t-26 54.5t-8 62.5zM402 156q0 -28 7 -55t22 -48.5t39.5 -34.5t59.5 -13t59.5 13t39.5 34t22 48t7 55t-7 55.5t-22 49t-39.5 35t-59.5 13.5t-59.5 -13t-39.5 -34.5t-22 -49t-7 -55.5zM382 156q0 32 8 63t26 55t46 39
t68 15t68 -15t46 -39.5t26 -55.5t8 -63t-8 -62.5t-26 -54.5t-46 -38.5t-68 -14.5t-68 15t-46 39t-26 54.5t-8 62.5zM772 156q0 -28 7 -55t22 -48.5t39.5 -34.5t59.5 -13t59.5 13t39.5 34t22 48t7 55t-7 55.5t-22 49t-39.5 35t-59.5 13.5t-59.5 -13t-39.5 -34.5t-22 -49
t-7 -55.5zM752 156q0 32 8 63t26 55t46 39t68 15t68 -15t46 -39.5t26 -55.5t8 -63t-8 -62.5t-26 -54.5t-46 -38.5t-68 -14.5t-68 15t-46 39t-26 54.5t-8 62.5z" />
    <glyph glyph-name="guilsinglleft" unicode="&#x2039;" horiz-adv-x="327" 
d="M247 500l-138 -172q-6 -8 -12.5 -17.5t-6.5 -18.5q0 -8 7 -18t12 -16l138 -167h-26l-128 154q-5 6 -14 18.5t-9 28.5q0 14 8 26t14 20l129 162h26z" />
    <glyph glyph-name="guilsinglright" unicode="&#x203a;" horiz-adv-x="327" 
d="M106 500l129 -162q6 -8 14 -20t8 -26t-8 -26t-13 -18l-130 -157h-26l139 168q5 5 11.5 15t6.5 18q0 9 -6.5 18.5t-12.5 17.5l-138 172h26z" />
    <glyph glyph-name="fraction" unicode="&#x2044;" horiz-adv-x="508" 
d="M475 715h23l-465 -730h-23z" />
    <glyph glyph-name="Euro" unicode="&#x20ac;" horiz-adv-x="694" 
d="M632 595q-25 22 -57 40q-28 15 -66 27.5t-86 12.5q-44 0 -96 -10.5t-98.5 -39t-81 -80t-44.5 -133.5h445l-9 -20h-438q-1 -9 -1 -18v-19q0 -42 6 -78h383l-10 -20h-370q15 -70 48 -118t76.5 -78t93 -43t96.5 -13q51 0 91 12t69 27.5t46.5 30.5l24.5 21v-26
q-26 -25 -60 -43q-29 -16 -72 -29t-99 -13q-51 0 -104 14t-99.5 46t-81.5 84t-49 128h-69v20h65q-2 18 -3.5 37.5t-1.5 40.5v19t1 18h-61v20h63q6 59 25.5 102.5t46.5 75t60.5 52t69.5 32.5t71.5 16.5t66.5 4.5q46 0 84 -11t66 -25t45.5 -27.5t22.5 -17.5z" />
    <glyph glyph-name="trademark" unicode="&#x2122;" horiz-adv-x="893" 
d="M15 680v20h314v-20h-147v-380h-20v380h-147zM389 300v362q0 21 12.5 29.5t20.5 8.5q9 0 20 -6.5t20 -27.5l137 -334q5 -12 14 -12t14 12l138 334q7 16 16.5 25t23.5 9q12 0 22.5 -10.5t10.5 -27.5v-362h-20v362q0 8 -4 13t-9 5q-8 0 -13 -6.5t-9 -15.5l-138 -334
q-4 -10 -12.5 -17t-19.5 -7t-19 7t-13 17l-137 334q-5 13 -11 17.5t-11 4.5q-4 0 -8.5 -4t-4.5 -14v-362h-20z" />
    <glyph glyph-name="partialdiff" unicode="&#x2202;" horiz-adv-x="541" 
d="M52 531q5 36 23 66t46.5 52t67 34t85.5 12q75 0 123 -34.5t76.5 -89t39.5 -121t11 -129.5q0 -66 -8 -123.5t-38 -102.5q-13 -20 -33 -39.5t-46.5 -35.5t-57.5 -25.5t-66 -9.5q-47 0 -90.5 17.5t-76.5 49t-53 75t-20 94.5q0 52 20 94.5t53.5 71.5t76.5 45t90 16
q41 0 78.5 -11.5t68.5 -33t52.5 -51t29.5 -65.5v20q0 58 -8.5 123t-33.5 119.5t-69.5 90t-117.5 35.5q-26 0 -57 -5t-60 -20.5t-52.5 -44t-33.5 -74.5h-20zM495 223q0 45 -17.5 82.5t-47.5 64.5t-70 42.5t-85 15.5q-47 0 -87 -15.5t-69.5 -43.5t-46.5 -65.5t-17 -82.5
t17.5 -84t47.5 -68.5t70 -46.5t85 -17t85 17.5t70 47t47.5 69t17.5 84.5z" />
    <glyph glyph-name="product" unicode="&#x220f;" horiz-adv-x="650" 
d="M110 680v-870h-20v890h470v-890h-20v870h-430z" />
    <glyph glyph-name="summation" unicode="&#x2211;" horiz-adv-x="609" 
d="M554 -190h-449q-17 0 -25.5 8.5t-8.5 21.5q0 17 10 31l249 370q6 9 9 14t3 10t-3 10t-9 13l-252 359q-7 10 -7 23q0 12 8 21t26 9h422v-20h-422q-8 0 -11 -3.5t-3 -8.5t3 -9l248 -353q10 -14 15 -23.5t5 -17.5t-5 -17t-14 -23l-246 -366q-2 -4 -4.5 -8.5t-2.5 -9.5
q0 -11 15 -11h449v-20z" />
    <glyph glyph-name="minus" unicode="&#x2212;" horiz-adv-x="654" 
d="M80 243v20h494v-20h-494z" />
    <glyph glyph-name="radical" unicode="&#x221a;" horiz-adv-x="633" 
d="M10 360l94 26l137 -334q5 -13 11 -22.5t17 -9.5q13 0 20 12t11 22l302 750h21l-306 -760q-2 -6 -5.5 -13.5t-9.5 -14t-14 -11.5t-19 -5q-20 0 -29.5 13.5t-16.5 29.5l-131 318l-76 -21z" />
    <glyph glyph-name="infinity" unicode="&#x221e;" horiz-adv-x="774" 
d="M50 300q0 24 7 52t24.5 52t47.5 40t75 16q31 0 57.5 -13t49.5 -34.5t43.5 -49t39.5 -55.5q22 31 43.5 58.5t43 48.5t44 33t48.5 12q45 0 74 -16t46.5 -40t24 -52t6.5 -52t-6.5 -52t-24 -52t-46.5 -40t-74 -16q-30 0 -55 11t-47 29.5t-41 43t-37 50.5q-19 -26 -40 -50.5
t-44 -43t-49 -29.5t-56 -11q-45 0 -75 16t-47.5 40t-24.5 52t-7 52zM70 300q0 -21 6 -45.5t21.5 -45.5t41.5 -35t65 -14q27 0 51 11t46 29t41.5 41.5t38.5 49.5q-20 29 -39.5 56t-40.5 47.5t-45 33t-52 12.5q-39 0 -65 -14t-41.5 -35t-21.5 -45.5t-6 -45.5zM406 291
q17 -25 35.5 -48.5t39 -42t43.5 -29.5t49 -11q39 0 64.5 14t40 35t20.5 45.5t6 45.5t-6 45.5t-20.5 45.5t-40 35t-64.5 14q-21 0 -41.5 -12t-41 -32.5t-41.5 -47.5t-43 -57z" />
    <glyph glyph-name="integral" unicode="&#x222b;" horiz-adv-x="262" 
d="M252 680h-31q-29 0 -45 -9.5t-23.5 -25.5t-9.5 -37t-2 -45v-616q0 -27 -2 -52t-12 -44t-30 -30t-56 -11h-31v20h31q28 0 44.5 9.5t24 25.5t9.5 37t2 45v616q0 27 2 52t12 44t30 30t56 11h31v-20z" />
    <glyph glyph-name="approxequal" unicode="&#x2248;" horiz-adv-x="539" 
d="M83 383q11 11 28 19t44 8q35 0 63.5 -12t55.5 -28q26 -15 53.5 -27.5t59.5 -12.5q19 0 32.5 4.5t21.5 10.5q10 7 15 16v-28q-10 -9 -26.5 -16t-42.5 -7q-37 0 -66 13t-57 29q-26 14 -52.5 26t-56.5 12q-18 0 -31.5 -5.5t-22.5 -12.5q-11 -8 -18 -17v28zM83 273
q11 11 28 19t44 8q35 0 63.5 -12t55.5 -28q26 -15 53.5 -27.5t59.5 -12.5q19 0 32.5 4.5t21.5 10.5q10 7 15 16v-28q-10 -9 -26.5 -16t-42.5 -7q-37 0 -66 13t-57 29q-26 14 -52.5 26t-56.5 12q-18 0 -31.5 -5.5t-22.5 -12.5q-11 -8 -18 -17v28z" />
    <glyph glyph-name="notequal" unicode="&#x2260;" horiz-adv-x="674" 
d="M368 350h226v-20h-236l-88 -164h324v-20h-335l-78 -146h-19l77 146h-159v20h170l87 164h-257v20h268l81 150h20z" />
    <glyph glyph-name="lessequal" unicode="&#x2264;" horiz-adv-x="628" 
d="M60 0v20h488v-20h-488zM120 330q-23 -8 -30 -15.5t-7 -17.5q0 -8 7 -15.5t33 -17.5l425 -154v-22l-433 157q-27 10 -39.5 21.5t-12.5 30.5q0 20 13.5 32.5t34.5 19.5l437 150v-20z" />
    <glyph glyph-name="greaterequal" unicode="&#x2265;" horiz-adv-x="628" 
d="M80 0v20h488v-20h-488zM80 479v20l437 -150q21 -7 34.5 -19.5t13.5 -32.5q0 -19 -12.5 -30.5t-39.5 -21.5l-433 -157v22l425 154q26 10 33 17.5t7 15.5q0 10 -7 17.5t-30 15.5z" />
    <glyph glyph-name="lozenge" unicode="&#x25ca;" horiz-adv-x="392" 
d="M211 677q-2 5 -5.5 9t-9.5 4t-9.5 -4t-5.5 -9l-139 -283q-6 -13 -9 -22t-3 -17q0 -10 3.5 -18.5t8.5 -18.5l139 -286q3 -5 6 -11t9 -6t9.5 6t5.5 11l140 288q6 13 8.5 19.5t2.5 15.5q0 14 -11 37zM369 400q13 -26 13 -45q0 -12 -3.5 -22t-9.5 -21l-141 -288
q-5 -10 -11.5 -19.5t-20.5 -9.5t-20.5 9.5t-11.5 19.5l-140 286q-5 10 -9.5 22t-4.5 23q0 19 14 47l139 283q4 8 11.5 16.5t21.5 8.5t21.5 -8.5t11.5 -16.5z" />
    <glyph glyph-name="fi" unicode="&#xfb01;" horiz-adv-x="430" 
d="M10 500h86v63q0 27 2 52t12 44t30 30t56 11h41v-20h-41q-29 0 -45 -9.5t-23.5 -25.5t-9.5 -37t-2 -45v-63h111v-20h-111v-480h-20v480h-86v20zM350 0h-20v500h20v-500zM315 674q0 11 7 18.5t18 7.5t18.5 -7.5t7.5 -18.5t-7.5 -18t-18.5 -7t-18 7t-7 18z" />
    <glyph glyph-name="fl" unicode="&#xfb02;" horiz-adv-x="430" 
d="M10 500h86v63q0 27 2 52t12 44t30 30t56 11h41v-20h-41q-29 0 -45 -9.5t-23.5 -25.5t-9.5 -37t-2 -45v-63h111v-20h-111v-480h-20v480h-86v20zM330 700h20v-700h-20v700z" />
    </font>
</defs>
</svg>
